<svg xmlns="http://www.w3.org/2000/svg" width="63.903" height="83.404" viewBox="0 0 63.903 83.404"><g transform="translate(-239.887 -221.202)"><g transform="translate(239.887 221.202)"><path d="M293.117,299.641v-63.4a5.7,5.7,0,0,1-4.446-5.556v-8.474a.675.675,0,0,0-.384-.616,4.24,4.24,0,0,0-1.78-.391H245.491a5.6,5.6,0,0,0-5.6,5.6V299a5.6,5.6,0,0,0,5.6,5.6h44.722a5.694,5.694,0,0,0,2.9-4.965Z" transform="translate(-239.887 -221.202)" fill="#dfedfa"/><path d="M302.637,239.587a5.614,5.614,0,0,1-1.228-.137v62.412a5.6,5.6,0,0,1-5.6,5.6h11.147a5.6,5.6,0,0,0,5.6-5.6V241.346a4.237,4.237,0,0,0-.383-1.759Z" transform="translate(-248.653 -224.063)" fill="#e7ecf1"/><path d="M311.541,235.553,298.5,222.517a4.24,4.24,0,0,0-1.244-.861v9.536a5.6,5.6,0,0,0,5.6,5.6H312.4A4.245,4.245,0,0,0,311.541,235.553Z" transform="translate(-248.882 -221.273)" fill="#6595bf"/><g transform="translate(8.346 23.643)"><path d="M295.634,251.962H251.146a1.361,1.361,0,1,1,0-2.721h44.488a1.361,1.361,0,1,1,0,2.721Z" transform="translate(-249.785 -249.241)" fill="#6595bf"/></g><g transform="translate(8.346 14.164)"><path d="M273.39,240.72H251.146a1.361,1.361,0,1,1,0-2.721H273.39a1.361,1.361,0,0,1,0,2.721Z" transform="translate(-249.785 -237.999)" fill="#6595bf"/></g><g transform="translate(8.346 32.043)"><path d="M295.634,261.923H251.146a1.361,1.361,0,1,1,0-2.721h44.488a1.361,1.361,0,1,1,0,2.721Z" transform="translate(-249.785 -259.202)" fill="#6595bf"/></g></g></g></svg>