<svg xmlns="http://www.w3.org/2000/svg" width="294" height="294" viewBox="0 0 294 294"><g transform="translate(-4957.246 -1686.032)"><rect width="294" height="294" transform="translate(4957.246 1686.032)" fill="#344154" opacity="0"/><g transform="translate(4978.913 1710.93)"><g transform="translate(0 105.806)"><ellipse cx="125.938" cy="72.709" rx="125.938" ry="72.709" fill="#fafafa"/></g><g transform="translate(2.197 160.429)"><ellipse cx="37.855" cy="21.856" rx="37.855" ry="21.856" transform="translate(171.815 29.559)" fill="#f2e9e4"/><path d="M5064.37,2087.868l-41.133-23.763a1.344,1.344,0,0,1,0-2.547l103.242-59.6a4.892,4.892,0,0,1,4.421,0l41.132,23.763a1.343,1.343,0,0,1,0,2.547l-103.247,59.6A4.891,4.891,0,0,1,5064.37,2087.868Z" transform="translate(-5007.943 -2001.416)" fill="#f2e9e4"/><path d="M5108.156,2001.949l-109.365,58.458a1.38,1.38,0,0,0,0,2.614l8.356,4.819a4.973,4.973,0,0,0,4.526,0l109.371-58.451a1.38,1.38,0,0,0,0-2.614l-8.356-4.825A4.974,4.974,0,0,0,5108.156,2001.949Z" transform="translate(-4997.854 -2001.403)" fill="#f2e9e4"/></g><g transform="translate(146.723 0)"><path d="M5246.842,1779.4l.939.564,19.32-11.158-.945-.558Z" transform="translate(-5245.051 -1744.831)" fill="#fafafa"/><path d="M5266.815,1754.747l-18.375,10.6V1746.11l18.38-10.6Z" transform="translate(-5245.71 -1731.332)" fill="#fff" stroke="#5e6178" stroke-miterlimit="10" stroke-width="0"/><path d="M5268.29,1729.332l-22.868,13.2v24.454l22.868-13.2Zm-1.774,23.426-19.342,11.157v-20.353l19.342-11.152Z" transform="translate(-5244.466 -1728.785)" fill="#f0f0f0"/><path d="M5280.654,1754.918l-.945-.558.006-19.237.939-.553Z" transform="translate(-5258.604 -1730.945)" fill="#e0e0e0"/><path d="M5267.619,1728.948l-.956-.547-22.868,13.208.956.547Z" transform="translate(-5243.794 -1728.401)" fill="#fafafa"/><path d="M5243.794,1750.876l.956.547v24.448l-.956-.547Z" transform="translate(-5243.794 -1737.669)" fill="#e0e0e0"/><g transform="translate(3.448 11.981)"><path d="M5266.606,1759.648l-16.943,9.781v-4.891l4.233-9.782,2.641,2.443-.951,4.1,5.853-12.511,5.167,5.968Z" transform="translate(-5249.663 -1748.789)" fill="#f0f0f0"/><path d="M5260.209,1750.785a2.762,2.762,0,0,0-1.255,2.172c0,.8.553,1.1,1.255.724a2.764,2.764,0,0,0,1.254-2.172C5261.463,1750.708,5260.9,1750.387,5260.209,1750.785Z" transform="translate(-5253.494 -1749.542)" fill="#f0f0f0"/></g><g transform="translate(0 30.057)"><path d="M5246.842,1830.547l.939.564,19.32-11.157-.945-.558Z" transform="translate(-5245.051 -1795.98)" fill="#fafafa"/><path d="M5266.815,1805.9l-18.375,10.6v-19.242l18.38-10.6Z" transform="translate(-5245.71 -1782.481)" fill="#fff" stroke="#5e6178" stroke-miterlimit="10" stroke-width="0"/><path d="M5268.29,1780.481l-22.868,13.2v24.454l22.868-13.2Zm-1.774,23.425-19.342,11.152v-20.348l19.342-11.152Z" transform="translate(-5244.466 -1779.934)" fill="#f0f0f0"/><path d="M5280.654,1806.066l-.945-.558.006-19.237.939-.553Z" transform="translate(-5258.604 -1782.093)" fill="#e0e0e0"/><path d="M5267.619,1780.1l-.956-.547-22.868,13.2.956.547Z" transform="translate(-5243.794 -1779.55)" fill="#fafafa"/><path d="M5243.794,1802.016l.956.547v24.454l-.956-.547Z" transform="translate(-5243.794 -1788.814)" fill="#e0e0e0"/><g transform="translate(3.448 11.981)"><path d="M5266.606,1810.8l-16.943,9.781v-4.891l4.233-9.781,2.641,2.443-.951,4.1,5.853-12.511,5.167,5.968Z" transform="translate(-5249.663 -1799.938)" fill="#f0f0f0"/><path d="M5260.209,1801.934a2.762,2.762,0,0,0-1.255,2.172c0,.8.553,1.105,1.255.724a2.764,2.764,0,0,0,1.254-2.172C5261.463,1801.856,5260.9,1801.535,5260.209,1801.934Z" transform="translate(-5253.494 -1800.69)" fill="#f0f0f0"/></g></g></g><g transform="translate(148.223 148.981)"><path d="M5246.975,2015.888a37.779,37.779,0,0,1,3.316-23.653c3.4-6.526,9.858-10.069,13.186-10.3,3.73-.254,7.328,3.117,3.77,7.394-3.388,4.067-9.533,5.631-13.744,16.324a36.8,36.8,0,0,0-2.736,12.33Z" transform="translate(-5246.349 -1981.921)" fill="#d9a171"/><path d="M5246.975,2015.888a37.779,37.779,0,0,1,3.316-23.653c3.4-6.526,9.858-10.069,13.186-10.3,3.73-.254,7.328,3.117,3.77,7.394-3.388,4.067-9.533,5.631-13.744,16.324a36.8,36.8,0,0,0-2.736,12.33Z" transform="translate(-5246.349 -1981.921)" fill="#fff" stroke="#5e6178" stroke-miterlimit="10" stroke-width="0" opacity="0.5" style="isolation:isolate"/><path d="M5251.338,2014.909a.21.21,0,0,0,.221-.2h0c-.785-13.186,7.831-24.045,14.2-27.548a.162.162,0,0,0,.095-.206.163.163,0,0,0-.028-.048.266.266,0,0,0-.321-.05c-6.46,3.553-15.2,14.551-14.407,27.88a.2.2,0,0,0,.231.173Z" transform="translate(-5248.285 -1983.943)" fill="#fff" stroke="#5e6178" stroke-miterlimit="10" stroke-width="0"/><path d="M5252.406,2028.261c.741-3.018,3.057-6.664,7.737-9.875s11.053-6.079,10.351-9.052-5.621-3.023-9.157-1.492-11.726,8.572-10.915,19.342Z" transform="translate(-5248.005 -1992.2)" fill="#d9a171"/><path d="M5252.406,2028.261c.741-3.018,3.057-6.664,7.737-9.875s11.053-6.079,10.351-9.052-5.621-3.023-9.157-1.492-11.726,8.572-10.915,19.342Z" transform="translate(-5248.005 -1992.2)" fill="#fff" stroke="#5e6178" stroke-miterlimit="10" stroke-width="0" opacity="0.65" style="isolation:isolate"/><path d="M5252.474,2025.379a.232.232,0,0,0,.221-.166c1.066-6.382,10.826-14.2,15.17-15.329a.183.183,0,0,0,.16-.2.162.162,0,0,0-.006-.03.233.233,0,0,0-.288-.116c-4.554,1.188-14.368,9-15.473,15.64a.211.211,0,0,0,.2.2Z" transform="translate(-5248.786 -1993.302)" fill="#fff" stroke="#5e6178" stroke-miterlimit="10" stroke-width="0"/></g><g transform="translate(8.549)"><path d="M5008.665,1949.534a1.718,1.718,0,0,1,.939-1.382l93.361-58.689v-85.89l11.577-14.324a17.237,17.237,0,0,0,3.316-9.3v-48.4c0-2.89-1.99-4-4.421-2.47L5009.6,1793.6a1.719,1.719,0,0,0-.939,1.382Z" transform="translate(-5008.665 -1728.4)" fill="#d9a171"/><path d="M5111.481,1753.428c0-2.89-2.05-4.095-4.575-2.7l-95.052,52.6a5.056,5.056,0,0,1-3.106.464c0,.05,0,.1,0,.149v154.4h0a1.785,1.785,0,0,1,.917-1.232l93.361-58.689v-85.89l8.483-10.5Z" transform="translate(-5008.698 -1737.369)" fill="#344154" opacity="0.3" style="isolation:isolate"/><path d="M5009.516,1961a4.973,4.973,0,0,0,4.421-.039l95.052-52.6a9.76,9.76,0,0,0,4.576-7.737V1756.5c0-2.885-2.045-4.095-4.576-2.7l-95.052,52.6a4.975,4.975,0,0,1-4.421.045,1.476,1.476,0,0,1-.851-1.216v154.531A1.463,1.463,0,0,0,5009.516,1961Z" transform="translate(-5008.665 -1738.637)" fill="#d9a171"/><path d="M5009.516,1961a4.973,4.973,0,0,0,4.421-.039l95.052-52.6a9.76,9.76,0,0,0,4.576-7.737V1756.5c0-2.885-2.045-4.095-4.576-2.7l-95.052,52.6a4.975,4.975,0,0,1-4.421.045,1.476,1.476,0,0,1-.851-1.216v154.531A1.463,1.463,0,0,0,5009.516,1961Z" transform="translate(-5008.665 -1738.637)" fill="#fff" stroke="#5e6178" stroke-miterlimit="10" stroke-width="0" opacity="0.3" style="isolation:isolate"/><path d="M5011.66,1843.447a4.357,4.357,0,0,1-2.128-.492,1.475,1.475,0,0,1-.867-1.216V1996.27a1.463,1.463,0,0,0,.851,1.232,4.354,4.354,0,0,0,2.128.5Z" transform="translate(-5008.665 -1775.136)" fill="#fff" stroke="#5e6178" stroke-miterlimit="10" stroke-width="0" opacity="0.3" style="isolation:isolate"/><path d="M5029.249,1841.643a.259.259,0,0,0-.26.26v144.688a.276.276,0,1,0,.552,0V1841.908a.259.259,0,0,0-.251-.267A.3.3,0,0,0,5029.249,1841.643Zm-8.494,4.907a.259.259,0,0,0-.259.259h0V1991.5a.26.26,0,1,0,.519,0h0V1846.81a.26.26,0,0,0-.249-.259Zm4.25-2.454a.265.265,0,0,0-.266.26v144.689a.266.266,0,0,0,.266.26.26.26,0,0,0,.26-.26h0V1844.356a.26.26,0,0,0-.249-.26Z" transform="translate(-5013.543 -1775.095)" fill="#d9a171"/></g><g transform="translate(30.881 16.955)"><path d="M5048.849,1815.157l-2.183-1.26,98.108-56.644,2.188,1.26Z" transform="translate(-5046.666 -1757.252)" fill="#f0f0f0"/><path d="M5148.468,1759.4v150.679l-98.152,56.667.039-150.7Z" transform="translate(-5048.171 -1758.137)" fill="#fafafa"/><path d="M5147.943,1760.3v149.48l-97.1,56.059.039-149.5,97.063-56.042m.552-.9-98.141,56.644-.039,150.7,98.152-56.667V1759.4Z" transform="translate(-5048.171 -1758.137)" fill="#f2e9e4"/><path d="M5048.849,1854.9l-.039,150.7-2.122-1.227-.022-150.735,2.145,1.232Z" transform="translate(-5046.666 -1797)" fill="#e0e0e0"/><g transform="translate(6.72 12.584)"><path d="M5179.163,1931.462v2.531l-98.113,56.633-1.105-.625a43.74,43.74,0,0,1-21.8-37.772V1835.31l98.108-56.644,2.21,1.26v115.653A41.449,41.449,0,0,0,5179.163,1931.462Z" transform="translate(-5058.121 -1778.666)" fill="#f0f0f0"/><path d="M5159.981,1896.464V1780.81l-98.108,56.644v115.659A41.448,41.448,0,0,0,5082.585,1989l98.113-56.645A41.445,41.445,0,0,1,5159.981,1896.464Zm-97.644,56.65V1837.731l97.157-56.086v114.819a42.035,42.035,0,0,0,20.249,35.877l-97.158,56.091A41.071,41.071,0,0,1,5062.338,1953.113Z" transform="translate(-5059.657 -1779.55)" fill="#e0e0e0"/><path d="M5180.069,1932.926l-97.158,56.092a41.071,41.071,0,0,1-20.248-35.319V1838.316l97.158-56.086v114.819A42.032,42.032,0,0,0,5180.069,1932.926Z" transform="translate(-5059.983 -1780.135)" fill="#fafafa"/><path d="M5060.313,1991.976V1876.318l-2.21-1.26v116.919a43.74,43.74,0,0,0,21.806,37.778l1.105.624v-2.52A41.446,41.446,0,0,1,5060.313,1991.976Z" transform="translate(-5058.102 -1818.413)" fill="#e0e0e0"/><path d="M5097.12,2095.323v2.52l98.119-56.639v-2.526Z" transform="translate(-5074.191 -1885.883)" fill="#344154" opacity="0.15" style="isolation:isolate"/><g transform="translate(68.702 18.126)"><path d="M5176.063,1823.183l23.415-13.523c.553-.331,1.045-.094,1.045.552a2.245,2.245,0,0,1-1.045,1.735l-23.415,13.523c-.58.332-1.05.094-1.05-.552A2.211,2.211,0,0,1,5176.063,1823.183Z" transform="translate(-5175.013 -1809.511)" fill="#e0e0e0"/><path d="M5176.063,1838.606l23.415-13.522c.553-.332,1.045-.094,1.045.552a2.245,2.245,0,0,1-1.045,1.735l-23.415,13.517c-.58.331-1.05.094-1.05-.552A2.213,2.213,0,0,1,5176.063,1838.606Z" transform="translate(-5175.013 -1815.871)" fill="#e0e0e0"/><path d="M5190.979,1825.832l14.649-8.461c.553-.332,1.045-.094,1.045.553a2.24,2.24,0,0,1-1.045,1.735l-14.649,8.461c-.553.332-1.05.094-1.05-.552A2.208,2.208,0,0,1,5190.979,1825.832Z" transform="translate(-5181.164 -1812.691)" fill="#e0e0e0"/></g><g transform="translate(12.716 46.586)"><path d="M5080.785,1902.274l76.528-44.182c.58-.332,1.044-.094,1.044.552a2.209,2.209,0,0,1-1.044,1.735l-76.528,44.21c-.552.337-1.044.1-1.044-.553A2.253,2.253,0,0,1,5080.785,1902.274Z" transform="translate(-5079.741 -1857.942)" fill="#e0e0e0"/><path d="M5080.785,1909.966l76.528-44.21c.58-.332,1.044-.094,1.044.553a2.209,2.209,0,0,1-1.044,1.735l-76.528,44.188c-.552.337-1.044.1-1.044-.552A2.255,2.255,0,0,1,5080.785,1909.966Z" transform="translate(-5079.741 -1861.102)" fill="#e0e0e0"/><path d="M5080.785,1917.677l76.528-44.21c.58-.332,1.044-.094,1.044.552a2.209,2.209,0,0,1-1.044,1.735l-76.528,44.216c-.552.337-1.044.1-1.044-.553A2.253,2.253,0,0,1,5080.785,1917.677Z" transform="translate(-5079.741 -1864.283)" fill="#e0e0e0"/><path d="M5080.785,1925.388l76.528-44.21c.58-.331,1.044-.094,1.044.552a2.209,2.209,0,0,1-1.044,1.735l-76.528,44.188c-.552.337-1.044.1-1.044-.552A2.243,2.243,0,0,1,5080.785,1925.388Z" transform="translate(-5079.741 -1867.462)" fill="#e0e0e0"/></g><g transform="translate(12.716 69.301)"><path d="M5080.785,1940.959l76.528-44.21c.58-.337,1.044-.1,1.044.552a2.239,2.239,0,0,1-1.044,1.741l-76.528,44.182c-.552.332-1.044.094-1.044-.552A2.243,2.243,0,0,1,5080.785,1940.959Z" transform="translate(-5079.741 -1896.596)" fill="#e0e0e0"/><path d="M5080.785,1948.689l76.528-44.183c.58-.337,1.044-.1,1.044.525a2.237,2.237,0,0,1-1.044,1.741l-76.528,44.21c-.552.331-1.044.094-1.044-.553A2.242,2.242,0,0,1,5080.785,1948.689Z" transform="translate(-5079.741 -1899.795)" fill="#e0e0e0"/><path d="M5080.785,1956.4l76.528-44.177c.58-.337,1.044-.1,1.044.525a2.236,2.236,0,0,1-1.044,1.74l-76.528,44.178c-.552.337-1.044.1-1.044-.553A2.266,2.266,0,0,1,5080.785,1956.4Z" transform="translate(-5079.741 -1902.975)" fill="#e0e0e0"/><path d="M5080.785,1964.107l76.528-44.177c.58-.337,1.044-.1,1.044.553a2.238,2.238,0,0,1-1.044,1.741l-76.528,44.149c-.552.337-1.044.1-1.044-.525A2.265,2.265,0,0,1,5080.785,1964.107Z" transform="translate(-5079.741 -1906.155)" fill="#e0e0e0"/></g><path d="M5080.785,1979.678l76.528-44.182c.58-.331,1.044-.1,1.044.552a2.209,2.209,0,0,1-1.044,1.735l-76.528,44.21c-.552.331-1.044.094-1.044-.553A2.243,2.243,0,0,1,5080.785,1979.678Z" transform="translate(-5067.025 -1843.273)" fill="#e0e0e0"/><path d="M5080.785,1987.407l76.528-44.21c.58-.332,1.044-.1,1.044.552a2.209,2.209,0,0,1-1.044,1.735l-76.528,44.166c-.552.332-1.044.094-1.044-.552A2.242,2.242,0,0,1,5080.785,1987.407Z" transform="translate(-5067.025 -1846.449)" fill="#e0e0e0"/><path d="M5080.785,2009.476l41.016-23.7c.554-.332,1.044-.093,1.044.553a2.241,2.241,0,0,1-1.044,1.735l-41.016,23.7c-.552.332-1.044.094-1.044-.552A2.243,2.243,0,0,1,5080.785,2009.476Z" transform="translate(-5067.025 -1864.008)" fill="#e0e0e0"/><path d="M5080.785,2028.75l27.251-15.755c.552-.331,1.044-.1,1.044.552a2.212,2.212,0,0,1-1.044,1.735l-27.251,15.755c-.552.331-1.044.094-1.044-.552A2.243,2.243,0,0,1,5080.785,2028.75Z" transform="translate(-5067.025 -1875.23)" fill="#d9a171"/><path d="M5189.058,1984.329v-2.365c-5.228,3.024-9.488,11.158-9.488,18.132l1.773-1.023C5181.343,1993.4,5184.808,1986.788,5189.058,1984.329Zm6.842,6.339c0-5.029-3.067-7.35-6.842-5.172s-6.836,8.041-6.836,13.069,3.067,7.35,6.836,5.173,6.842-8.041,6.842-13.07Zm-12.81,7.394c0-4.372,2.669-9.478,5.951-11.373.232-.133.459-.237.68-.337l-6.587,12.594C5183.122,1998.653,5183.09,1998.36,5183.09,1998.062Zm.254,2.15,7.422-14.175c1.917-.331,3.426.823,3.99,3.068l-7.384,14.1c-1.906.348-3.432-.785-4.013-3.006Zm11.605-9.837c0,.26.032.552.032.817,0,4.377-2.674,9.478-5.957,11.373a6.046,6.046,0,0,1-.624.315Zm-5.892-10.76c-6.2,3.581-11.252,13.224-11.252,21.5s5.052,12.091,11.252,8.5,11.257-13.213,11.257-21.5S5195.247,1976.034,5189.058,1979.615Zm0,28.819c-5.714,3.315-10.362-.216-10.362-7.836s4.648-16.5,10.362-19.8,10.367.216,10.367,7.836S5194.777,2005.136,5189.058,2008.435Zm7.737-18.275c0,5.675-3.466,12.29-7.737,14.744v2.365c5.233-3.023,9.494-11.152,9.494-18.132Z" transform="translate(-5107.462 -1860.972)" fill="#d9a171" opacity="0.2" style="isolation:isolate"/><path d="M5134.061,2053.51l-42.2,24.382a.756.756,0,0,1-1.048-.219.74.74,0,0,1-.1-.212v-.072a1.271,1.271,0,0,1,.553-1.4l42.2-24.388a.74.74,0,0,1,1.019.241.719.719,0,0,1,.086.2v.072A1.237,1.237,0,0,1,5134.061,2053.51Z" transform="translate(-5071.532 -1891.165)" fill="#e0e0e0"/><path d="M5125.572,2073.291l-29.555,17.131a.85.85,0,0,1-1.171-.278.791.791,0,0,1-.061-.12v-.039a1.1,1.1,0,0,1,.464-1.376l29.56-17.132a.823.823,0,0,1,1.133.265.778.778,0,0,1,.071.144v.039A1.106,1.106,0,0,1,5125.572,2073.291Z" transform="translate(-5073.193 -1899.357)" fill="#e0e0e0"/><path d="M5208.1,2025.962l-29.555,17.131a.845.845,0,0,1-1.166-.267.788.788,0,0,1-.066-.131v-.038a1.105,1.105,0,0,1,.464-1.376l29.555-17.132a.834.834,0,0,1,1.146.28.94.94,0,0,1,.063.129v.039A1.107,1.107,0,0,1,5208.1,2025.962Z" transform="translate(-5107.226 -1879.842)" fill="#e0e0e0"/><path d="M5118.975,2037.338a8.853,8.853,0,0,1-2.371,3.282.826.826,0,0,1-.343.221c-.205.039-.271-.132-.3-.364a4.773,4.773,0,0,1,.072-1.15c.088-.757.2-1.509.32-2.261q.309-1.812.663-3.619c.216-.508.42-1.022.613-1.547a40.245,40.245,0,0,0,1.409-4.637,12.087,12.087,0,0,0,.432-4.83c-.028-.155-.232-.277-.311-.105a23.557,23.557,0,0,0-1.226,4.869l-1.161,5.637c-.027.127-.05.249-.077.376q-.554,1.338-1.205,2.6c-.255.5-.519.984-.8,1.458a9.556,9.556,0,0,1-.829,1.332c-.425.508-.978.348-1.232-.3a1.925,1.925,0,0,1-.109-.431,5.353,5.353,0,0,0,.978-1.371,11.981,11.981,0,0,0,.79-1.763,12.713,12.713,0,0,0,.515-2c.071-.448.237-1.133-.033-1.508s-.658-.039-.868.315a12.9,12.9,0,0,0-.856,1.823,11.271,11.271,0,0,0-.862,4.1,1.465,1.465,0,0,0,0,.16c-.044.033-.083.072-.132.1a.768.768,0,0,1-1.266-.646c0-.216-.26-.3-.349-.116-.3.663-.321,1.492-.68,2.106-.166.276-.47.619-.74.42a.6.6,0,0,1-.216-.486c.033-.1.072-.193.1-.293.072-.21-.21-.359-.31-.215a.763.763,0,0,0-.148.431c-.173.492-.354.979-.554,1.448a4.837,4.837,0,0,1,0-1.52c.033-.2-.3-.331-.343-.116a14.34,14.34,0,0,1-.553,1.979c-.115.326-.248.646-.392.961a3.724,3.724,0,0,1-.553,1.011c-.11.111-.271.216-.409.133s-.16-.425-.166-.641c0-.359,0-.724.028-1.105a12.793,12.793,0,0,1,.337-2.106c.056-.237-.282-.392-.354-.155a24.888,24.888,0,0,1-1.188,3.222c-.227.5-.465,1-.729,1.47-.121.221-.442.713-.707.7.055-.1.1-.2.159-.293a25.134,25.134,0,0,0,1.531-3.5,15.609,15.609,0,0,0,.857-3.758,1.058,1.058,0,0,0-.311-.95,5.764,5.764,0,0,0,.045-1.968,1.457,1.457,0,0,0-1.912-1.315,5.712,5.712,0,0,0-2.5,2.282,24.077,24.077,0,0,0-3.267,6.261,27.6,27.6,0,0,0-.978,3.575,7.28,7.28,0,0,0-.154,3.675c.938,2.7,3.553.215,4.609-1.105a18.142,18.142,0,0,0,1.657-2.564.767.767,0,0,0,.834-.276,5.422,5.422,0,0,0,.846-1.426c.293-.608.553-1.232.808-1.873v.713a2.55,2.55,0,0,0,.138,1.188.606.606,0,0,0,.591.32c.591-.055.94-1,1.2-1.591a11.981,11.981,0,0,0,.514-1.4,4.69,4.69,0,0,0,.172.73.166.166,0,0,0,.2.13.168.168,0,0,0,.114-.086q.337-.724.613-1.475a.789.789,0,0,0,.763.387c.813-.2.956-1.354,1.216-2.26a1.225,1.225,0,0,0,.48.5,1.1,1.1,0,0,0,1.172-.083,1.874,1.874,0,0,0,.514.945.834.834,0,0,0,1.155.072A5.9,5.9,0,0,0,5115,2037.5c.342-.6.674-1.211.989-1.835l.354-.735c-.205,1.022-.393,2.05-.553,3.084-.066.436-.127.873-.177,1.315a5.171,5.171,0,0,0-.066,1.105c.066.608.453.945.912.757a2.771,2.771,0,0,0,.779-.608,7.76,7.76,0,0,0,.817-.917,10.29,10.29,0,0,0,1.261-2.21C5119.416,2037.271,5119.067,2037.111,5118.975,2037.338Zm-.769-9.737c.188-.911.364-1.823.553-2.73a14.968,14.968,0,0,1,.464-1.746,11.034,11.034,0,0,1-.31,2.945c-.243,1.105-.553,2.244-.852,3.316-.187.613-.386,1.216-.6,1.812.249-1.193.5-2.4.741-3.609Zm-16.673,18a11.551,11.551,0,0,1-2,2.4,5.889,5.889,0,0,1-1.149.8c-.4.21-.835.364-1.21.033-.725-.635-.642-1.95-.492-2.94a26.479,26.479,0,0,1,.652-3.028,25.68,25.68,0,0,1,2.265-5.6,22.331,22.331,0,0,1,1.6-2.5,4.548,4.548,0,0,1,2.3-1.956c1.315-.265,1.4,1.288,1.139,2.841a1.783,1.783,0,0,0-1.034.658,7.738,7.738,0,0,0-1.414,3.261,9.941,9.941,0,0,0-.2,1.149,2.242,2.242,0,0,1-1.105.376c-.58,0-.5-.967-.436-1.487a6.574,6.574,0,0,1,.42-1.658c.055-.133-.172-.326-.232-.188a7.134,7.134,0,0,0-.514,1.852,2.27,2.27,0,0,0,.193,1.575c.3.4.79.3,1.172.193a3.755,3.755,0,0,0,.447-.177,8.785,8.785,0,0,0,.082,2.05,3.314,3.314,0,0,0,.294,1.028c-.244.443-.515.884-.785,1.31Zm3.022-9.483a12.169,12.169,0,0,1-.6,2.067,5.739,5.739,0,0,1-1.509,2.21,10.945,10.945,0,0,1,.7-2.442,4.853,4.853,0,0,1,.779-1.349,1.74,1.74,0,0,1,.552-.453Zm-2.012,7.737c-.044-.16-.071-.348-.1-.475a6.755,6.755,0,0,1-.1-.817,8.619,8.619,0,0,1,0-1.6h0a4.086,4.086,0,0,0,.5-.4,7.011,7.011,0,0,0,1.763-3.094c.116-.37.232-.785.326-1.21v.116a2.394,2.394,0,0,1,0,.392,16.419,16.419,0,0,1-.713,3.172,23.267,23.267,0,0,1-1.675,3.929Zm10.053-7.627a13.092,13.092,0,0,1,.939-3.221,6.39,6.39,0,0,1,.757-1.443c.027-.038.188-.21.238-.166s.033.172.033.2a1.936,1.936,0,0,1,0,.4q-.056.448-.149.9a11.418,11.418,0,0,1-1.227,3.377,6.293,6.293,0,0,1-.681,1.033A7.662,7.662,0,0,1,5112.6,2036.232Zm17.806-5.332-.171-.039c.044-.862.049-1.73.033-2.581-.028-1.658-.134-3.266-.315-4.88a3.1,3.1,0,0,0-.066-.5c.083-.5.155-.995.21-1.5.1-.978.166-2.21-.553-2.791-.094-.077-.243-.072-.265.1a11.73,11.73,0,0,0,.171,3.382,4.225,4.225,0,0,0,.072.552q-.19,1.2-.5,2.371a23.762,23.762,0,0,1-.961,2.94c-.188.475-.393.945-.608,1.4a2.539,2.539,0,0,1-.962,1.227,1.262,1.262,0,0,1-.115-.619c0-.2-.266-.343-.321-.11a1.146,1.146,0,0,1-.044.16q.066-.828.188-1.658c.028-.182-.265-.337-.314-.143a10.118,10.118,0,0,1-.63,1.823,8.055,8.055,0,0,1-.476.89c-.1.166-.314.552-.5.508-.415-.055-.1-1.658,0-1.989a1.163,1.163,0,0,1,.077-.293,12.477,12.477,0,0,0,.553-1.486c.072-.2-.2-.381-.287-.2a8.009,8.009,0,0,0-.409,1.011,22.221,22.221,0,0,1-1.729,3.316c-.4.63-.934,1.608-1.6,1.714-.387.055-.515-.287-.525-.73a12.677,12.677,0,0,0,1.758-2.437c.358-.652,2.116-4.25.491-4.095-.707.067-1.149.989-1.459,1.724a15.088,15.088,0,0,0-.884,2.83c-.094.464-.177.939-.227,1.415a3.351,3.351,0,0,0,0,.42,10.72,10.72,0,0,1-1.686,1.464c-.133.088.066.348.182.271a11.074,11.074,0,0,0,1.543-1.266,1.324,1.324,0,0,0,.115.354c.4.752,1.205.381,1.658-.088a12.391,12.391,0,0,0,1.735-2.625c.094-.177.188-.354.276-.553-.078.553-.11,1.3.287,1.514s.879-.453,1.105-.878a8.625,8.625,0,0,0,.453-.94c0,.193-.027.387-.033.552s.138.293.243.222a1.146,1.146,0,0,0,.243-.243,1.659,1.659,0,0,0,.177.409.2.2,0,0,0,.2.088c.935-.276,1.438-1.7,1.853-2.7a24.859,24.859,0,0,0,1.105-3.315c.076-.315.154-.635.221-.956.066.691.122,1.381.154,2.073a40.588,40.588,0,0,1,.039,4.714,3.717,3.717,0,0,0-2.167.752,9.738,9.738,0,0,0-2.4,2.144,4.476,4.476,0,0,0-.934,2.979,2.244,2.244,0,0,0,1.343,2.138c1.658.508,3.072-1.658,3.708-3.4a15.349,15.349,0,0,0,.791-4.189,1.05,1.05,0,0,1,.182,0c.2.172.2-.187-.027-.243Zm-9.859.375a15.291,15.291,0,0,1,.614-2.276,5.27,5.27,0,0,1,1.105-2.1c.1-.1.387-.315.514-.232s.171.409.138.652a5.964,5.964,0,0,1-.326,1.216,12.452,12.452,0,0,1-1.022,2.1,12.677,12.677,0,0,1-1.177,1.658,8.56,8.56,0,0,1,.154-1Zm9.142-9.732a10.13,10.13,0,0,1-.111-2.382,4.321,4.321,0,0,1,.111,2.4Zm-.1,11.694c-.348,1.929-1.132,4.134-2.613,4.974a1.289,1.289,0,0,1-1.8-.287,1.322,1.322,0,0,1-.163-.3,3.62,3.62,0,0,1,.216-2.968,7.436,7.436,0,0,1,2.371-2.459,4.187,4.187,0,0,1,2.243-.973,20.35,20.35,0,0,1-.255,2.034Z" transform="translate(-5073.792 -1877.59)" fill="#5e6178"/><path d="M5058.638,2072.882a41.038,41.038,0,0,0,1.26,9.074l11.887-6.835,3.167-9.207-3.167-.6Z" transform="translate(-5058.323 -1896.865)" fill="#e0e0e0"/><g transform="translate(12.981 42.114)"><path d="M5081.675,1882.878v4.069l-1.028.594v-10.394l2.875-1.66q1.279-.74,2-.287a2.067,2.067,0,0,1,.726,1.887,5.3,5.3,0,0,1-2.742,4.731Zm0-1.121,1.848-1.067a3.341,3.341,0,0,0,1.264-1.247,3.484,3.484,0,0,0,.438-1.752,1.419,1.419,0,0,0-.438-1.234q-.439-.3-1.205.116l-1.906,1.1Z" transform="translate(-5080.38 -1860.516)" fill="#344154"/><path d="M5091.588,1879.243a7.617,7.617,0,0,1,.335-2.235,6.615,6.615,0,0,1,.932-1.937,4.374,4.374,0,0,1,1.362-1.279,1.511,1.511,0,0,1,1.914-.013,3.316,3.316,0,0,1,.731,2.484v.093a7.665,7.665,0,0,1-.324,2.211,6.547,6.547,0,0,1-.926,1.93,4.424,4.424,0,0,1-1.384,1.3,1.5,1.5,0,0,1-1.909.009,3.287,3.287,0,0,1-.731-2.469Zm1-.418a2.8,2.8,0,0,0,.447,1.805q.448.52,1.2.087a2.969,2.969,0,0,0,1.2-1.481,6.271,6.271,0,0,0,.444-2.466,2.779,2.779,0,0,0-.453-1.8.859.859,0,0,0-1.2-.095,2.971,2.971,0,0,0-1.184,1.461A6.242,6.242,0,0,0,5092.585,1878.824Z" transform="translate(-5084.891 -1859.863)" fill="#344154"/><path d="M5103.814,1874.85l-.991.572v-10.965l.991-.572Z" transform="translate(-5089.524 -1855.921)" fill="#344154"/><path d="M5108.33,1860.786l1.2-.692-1.436,2.927-.8.457Zm-.011,10.964-1,.575V1864.6l1-.575Z" transform="translate(-5091.369 -1854.357)" fill="#344154"/><path d="M5112.667,1860.678v1.87l1.082-.624v1.021l-1.082.624v4.8a.918.918,0,0,0,.145.613q.145.148.493-.052a3.4,3.4,0,0,0,.471-.358v1.065a4.172,4.172,0,0,1-.76.581q-.664.383-1,.043a1.916,1.916,0,0,1-.337-1.326v-4.79l-1.055.609v-1.021l1.055-.609v-1.87Z" transform="translate(-5092.739 -1854.598)" fill="#344154"/><path d="M5117.919,1857.334a1.425,1.425,0,0,1,.147-.628,1.064,1.064,0,0,1,.437-.473q.289-.167.439-.032a.59.59,0,0,1,.15.456,1.382,1.382,0,0,1-.15.622,1.09,1.09,0,0,1-.439.468q-.289.167-.437.038A.574.574,0,0,1,5117.919,1857.334Zm1.071,9.154-.99.572v-7.724l.99-.572Z" transform="translate(-5095.749 -1852.727)" fill="#344154"/><path d="M5124.583,1863.227a2.665,2.665,0,0,0,.926-.963,2.91,2.91,0,0,0,.439-1.325l.937-.541a4.4,4.4,0,0,1-.342,1.461,5.784,5.784,0,0,1-.844,1.443,4.048,4.048,0,0,1-1.116,1q-1.184.683-1.882.034a3.358,3.358,0,0,1-.7-2.477v-.222a7.73,7.73,0,0,1,.31-2.185,6.288,6.288,0,0,1,.892-1.878,4.349,4.349,0,0,1,1.374-1.279,1.518,1.518,0,0,1,1.62-.157,1.859,1.859,0,0,1,.688,1.623l-.937.541a1.2,1.2,0,0,0-.426-.986.847.847,0,0,0-.945.063,2.843,2.843,0,0,0-1.17,1.4,5.89,5.89,0,0,0-.415,2.335v.25a2.906,2.906,0,0,0,.413,1.818Q5123.816,1863.669,5124.583,1863.227Z" transform="translate(-5097.432 -1852.657)" fill="#344154"/><path d="M5135.666,1857.8a2.611,2.611,0,0,1-.139-.733,4.437,4.437,0,0,1-1.649,1.908,1.357,1.357,0,0,1-1.406.166,1.418,1.418,0,0,1-.549-1.322,4.113,4.113,0,0,1,.688-2.271,5.548,5.548,0,0,1,1.936-1.785l.963-.557v-.607a1.1,1.1,0,0,0-.311-.923q-.311-.232-.916.118a2.576,2.576,0,0,0-.889.87,2.01,2.01,0,0,0-.359,1.071l-1,.575a3.324,3.324,0,0,1,.308-1.3,5.247,5.247,0,0,1,.835-1.335,4.441,4.441,0,0,1,1.159-.983q1-.578,1.569-.239t.589,1.5v3.555a4.533,4.533,0,0,0,.2,1.575v.114Zm-1.644-.057a3,3,0,0,0,.883-.831,3.831,3.831,0,0,0,.605-1.185v-1.585l-.776.448a2.967,2.967,0,0,0-1.82,2.471q0,.621.31.792A.806.806,0,0,0,5134.022,1857.742Z" transform="translate(-5101.523 -1850.332)" fill="#344154"/><path d="M5086.193,1910.712a7.3,7.3,0,0,1-.913,3.072,5.5,5.5,0,0,1-2.042,2.075q-1.381.8-2.214-.042a4.323,4.323,0,0,1-.833-3.053v-1a9.818,9.818,0,0,1,.388-2.773,7.728,7.728,0,0,1,1.1-2.324,5.263,5.263,0,0,1,1.649-1.541,1.86,1.86,0,0,1,1.992-.226,2.567,2.567,0,0,1,.873,2.056l-1.034.6a2.027,2.027,0,0,0-.58-1.469q-.448-.3-1.25.163a3.793,3.793,0,0,0-1.544,1.864,7.751,7.751,0,0,0-.56,3.088v1.007a4.046,4.046,0,0,0,.53,2.388q.53.694,1.483.144a3.527,3.527,0,0,0,1.314-1.276,5.475,5.475,0,0,0,.607-2.153Z" transform="translate(-5080.192 -1872.752)" fill="#344154"/><path d="M5092.081,1908.813a7.639,7.639,0,0,1,.335-2.235,6.64,6.64,0,0,1,.931-1.937,4.371,4.371,0,0,1,1.363-1.279,1.51,1.51,0,0,1,1.914-.013,3.313,3.313,0,0,1,.731,2.483v.093a7.66,7.66,0,0,1-.325,2.211,6.533,6.533,0,0,1-.926,1.93,4.418,4.418,0,0,1-1.384,1.3,1.506,1.506,0,0,1-1.909.01,3.29,3.29,0,0,1-.731-2.469Zm1-.418a2.8,2.8,0,0,0,.447,1.805q.447.52,1.2.087a2.97,2.97,0,0,0,1.2-1.482,6.275,6.275,0,0,0,.444-2.466,2.781,2.781,0,0,0-.453-1.8.859.859,0,0,0-1.2-.095,2.97,2.97,0,0,0-1.184,1.461A6.231,6.231,0,0,0,5093.077,1908.4Z" transform="translate(-5085.095 -1872.057)" fill="#344154"/><path d="M5104.106,1898.085l.031.952a4.374,4.374,0,0,1,1.735-2.115q1.838-1.061,1.853,1.693v5.1l-.991.572v-5.112a1.437,1.437,0,0,0-.286-1.069q-.281-.238-.875.106a2.553,2.553,0,0,0-.846.831,4.652,4.652,0,0,0-.567,1.227v5.5l-.991.572v-7.724Z" transform="translate(-5089.667 -1869.422)" fill="#344154"/><path d="M5114.316,1889.581v1.87l1.082-.625v1.021l-1.082.625v4.8a.915.915,0,0,0,.145.614q.144.149.493-.052a3.5,3.5,0,0,0,.471-.358v1.064a4.179,4.179,0,0,1-.759.581q-.666.384-1,.042a1.91,1.91,0,0,1-.338-1.325v-4.79l-1.055.609v-1.021l1.055-.609v-1.871Z" transform="translate(-5093.42 -1866.517)" fill="#344154"/><path d="M5123.02,1894.955a2.611,2.611,0,0,1-.139-.733,4.437,4.437,0,0,1-1.649,1.909,1.357,1.357,0,0,1-1.406.166,1.42,1.42,0,0,1-.549-1.322,4.11,4.11,0,0,1,.688-2.271,5.549,5.549,0,0,1,1.935-1.785l.964-.557v-.607a1.1,1.1,0,0,0-.311-.924q-.311-.231-.916.118a2.587,2.587,0,0,0-.888.87,2.01,2.01,0,0,0-.359,1.071l-1,.575a3.323,3.323,0,0,1,.308-1.3,5.249,5.249,0,0,1,.834-1.335,4.448,4.448,0,0,1,1.16-.983q1-.578,1.568-.239t.589,1.5v3.555a4.552,4.552,0,0,0,.2,1.574v.115Zm-1.644-.057a3,3,0,0,0,.883-.831,3.821,3.821,0,0,0,.605-1.185V1891.3l-.776.448a2.967,2.967,0,0,0-1.821,2.472q0,.621.311.792A.8.8,0,0,0,5121.375,1894.9Z" transform="translate(-5096.309 -1865.654)" fill="#344154"/><path d="M5134.613,1883.146a8.044,8.044,0,0,1-.61,3.2,4.061,4.061,0,0,1-1.639,2.02q-1.1.634-1.7-.055l-.048.92-.91.526v-10.965l.991-.572v4.091a4.081,4.081,0,0,1,1.654-1.948q1.055-.609,1.657.107a4.078,4.078,0,0,1,.6,2.565Zm-.991.422a3.2,3.2,0,0,0-.391-1.859q-.39-.51-1.124-.086a3.26,3.26,0,0,0-1.408,2.026v3.341a.881.881,0,0,0,1.419.394,2.692,2.692,0,0,0,1.108-1.375A6.461,6.461,0,0,0,5133.623,1883.568Z" transform="translate(-5100.61 -1861.831)" fill="#344154"/><path d="M5141.314,1883.054l-.99.572v-10.965l.99-.572Z" transform="translate(-5104.988 -1859.303)" fill="#344154"/><path d="M5146.933,1881.269a1.591,1.591,0,0,1-1.917.075,2.92,2.92,0,0,1-.739-2.332v-.243a7.725,7.725,0,0,1,.329-2.243,6.856,6.856,0,0,1,.92-1.946,4.114,4.114,0,0,1,1.283-1.251q1.13-.652,1.756-.022a3.589,3.589,0,0,1,.626,2.48v.549l-3.925,2.266a2.082,2.082,0,0,0,.5,1.556.969.969,0,0,0,1.219,0,2.9,2.9,0,0,0,.888-.8,5.751,5.751,0,0,0,.637-1.125l.605.279A5.132,5.132,0,0,1,5146.933,1881.269Zm-.123-6.853a2.65,2.65,0,0,0-1.007,1.163,5.313,5.313,0,0,0-.5,1.922l2.9-1.675v-.1a1.945,1.945,0,0,0-.406-1.325Q5147.432,1874.057,5146.81,1874.416Z" transform="translate(-5106.618 -1859.679)" fill="#344154"/></g></g></g><g transform="translate(26.631 196.133)"><path d="M5062.8,2062.161l-23.366,13.49v9.809l23.366-13.49,4.244-7.355Z" transform="translate(-5039.434 -2062.161)" fill="#d9a171"/><path d="M5052.871,2080.185a.06.06,0,0,1,.085,0l0,0a.138.138,0,0,1,.039.116v4.681a.313.313,0,0,1-.039.155.2.2,0,0,1-.088.11l-.382.221a.066.066,0,0,1-.089,0,.14.14,0,0,1-.038-.116v-1.912l-1.432.818v1.912a.314.314,0,0,1-.039.16.267.267,0,0,1-.088.111l-.381.221a.074.074,0,0,1-.089,0,.141.141,0,0,1-.039-.116v-4.687a.351.351,0,0,1,.039-.16.236.236,0,0,1,.089-.11l.381-.221a.073.073,0,0,1,.088,0,.158.158,0,0,1,.039.122v1.857l1.421-.818v-1.862a.353.353,0,0,1,.039-.161.256.256,0,0,1,.088-.11Z" transform="translate(-5043.913 -2069.585)" fill="#fff" stroke="#5e6178" stroke-miterlimit="10" stroke-width="0"/><path d="M5058.3,2081.359a.066.066,0,0,1,.088,0,.152.152,0,0,1,.033.111v.519a.386.386,0,0,1-.033.155.238.238,0,0,1-.088.11l-2.067,1.194a.067.067,0,0,1-.089,0,.14.14,0,0,1-.038-.116v-4.687a.35.35,0,0,1,.038-.16.236.236,0,0,1,.089-.111l2.067-1.16a.066.066,0,0,1,.088,0,.163.163,0,0,1,.039.116v.513a.454.454,0,0,1-.039.16.251.251,0,0,1-.088.105l-1.521.879v1.149l1.415-.812a.061.061,0,0,1,.086,0l0,0a.136.136,0,0,1,.039.116v.514a.351.351,0,0,1-.039.16.21.21,0,0,1-.088.105l-1.415.818v1.2Z" transform="translate(-5046.309 -2068.361)" fill="#fff" stroke="#5e6178" stroke-miterlimit="10" stroke-width="0"/><path d="M5062.425,2075.037c.393-.226.691-.26.9-.094a1.251,1.251,0,0,1,.3.99,3.073,3.073,0,0,1-.16.994,2.535,2.535,0,0,1-.458.818l.663,1.415a.161.161,0,0,1,0,.072.3.3,0,0,1-.033.133.228.228,0,0,1-.072.088l-.4.232c-.061.033-.105.039-.138,0a.25.25,0,0,1-.062-.094l-.619-1.332-.625.364v1.686a.342.342,0,0,1-.038.16.232.232,0,0,1-.089.111l-.381.222a.067.067,0,0,1-.088,0,.134.134,0,0,1-.039-.111v-4.675a.334.334,0,0,1,.039-.16.226.226,0,0,1,.088-.111Zm-.708,2.691.686-.393a1.321,1.321,0,0,0,.426-.392,1.164,1.164,0,0,0,.16-.647c0-.27-.055-.42-.16-.447a.552.552,0,0,0-.426.1l-.686.4Z" transform="translate(-5048.361 -2067.389)" fill="#fff" stroke="#5e6178" stroke-miterlimit="10" stroke-width="0"/><path d="M5068.65,2075.416a.067.067,0,0,1,.094,0h0a.156.156,0,0,1,.033.116v.514a.421.421,0,0,1-.033.16.222.222,0,0,1-.094.1l-2.062,1.194a.066.066,0,0,1-.094,0h0a.159.159,0,0,1-.033-.116v-4.681a.442.442,0,0,1,.033-.16.221.221,0,0,1,.094-.1l2.028-1.172a.067.067,0,0,1,.088,0,.158.158,0,0,1,.039.116v.514a.427.427,0,0,1-.039.16.3.3,0,0,1-.088.11l-1.52.874v1.155l1.415-.818a.066.066,0,0,1,.088,0,.145.145,0,0,1,.039.116v.514a.337.337,0,0,1-.039.16.3.3,0,0,1-.088.111l-1.42.807v1.2Z" transform="translate(-5050.579 -2065.911)" fill="#fff" stroke="#5e6178" stroke-miterlimit="10" stroke-width="0"/></g><g transform="translate(136.205 9.075)"><g transform="translate(42.809 91.813)"><path d="M5334.145,2077.983l-3.277-1.249,1.083-2.216,2.012,1.89Z" transform="translate(-5311.991 -1972.011)" fill="#344154"/><path d="M5324.57,2070.361s.122,2.139.15,2.813-2.857,2.763-3.57,3.094l-.183-1.547a12.124,12.124,0,0,0-1.658,2.542,12.435,12.435,0,0,1-2.8,4c-2.26,1.829-5.781,2.763-9.367,2.856s-5.637-.779-6.631-1.558a2.4,2.4,0,0,1-1.078-2.6C5299.7,2079.054,5324.57,2070.361,5324.57,2070.361Z" transform="translate(-5298.996 -1970.297)" fill="#344154"/><path d="M5314.748,2057l-.039-1.238c-.663,0-.751,1.774-1.718,3.344a32.115,32.115,0,0,1-5.079,6.427c-3.653,3.315-6.908,5.36-8.533,6.847-2.21,1.984,1.62,5.178,7.472,4.875,2.9-.149,8.068-1.586,9.526-3.316s2.36-4.382,3.531-5.62,3.664-2.487,4.394-4c.4-.829.2-2.763-.028-4.421-.21-1.514-.249-3.835-1.1-3.647l-.067.773c-.348.664-1.16,1.752-3.509,2.133C5318.451,2059.375,5314.958,2059.463,5314.748,2057Z" transform="translate(-5298.746 -1964.279)" fill="#37474f"/><path d="M5323.181,2060.605a3.15,3.15,0,0,1-2.764-1.487v-.033a2.827,2.827,0,0,1-.768,2.382c-1.05,1.216-7.7,9.82-7.7,9.82s6.19-7.09,7.372-8.428c1.758-1.973,2.31-2.21,3.907-2.25Z" transform="translate(-5304.189 -1965.648)" fill="#344154" opacity="0.15" style="isolation:isolate"/><path d="M5328.562,2065.279a.358.358,0,1,0,.315-.393.358.358,0,0,0-.315.393Z" transform="translate(-5311.039 -1968.039)" fill="#344154" opacity="0.15" style="isolation:isolate"/><path d="M5325.608,2068.514a.354.354,0,1,0,.315-.393.354.354,0,0,0-.315.393Z" transform="translate(-5309.822 -1969.373)" fill="#344154" opacity="0.15" style="isolation:isolate"/><path d="M5322.646,2071.749a.359.359,0,1,0,.321-.392h0a.354.354,0,0,0-.322.383Z" transform="translate(-5308.6 -1970.707)" fill="#344154" opacity="0.15" style="isolation:isolate"/><path d="M5319.694,2075a.36.36,0,0,0,.4.315.353.353,0,0,0,.315-.388v0a.36.36,0,0,0-.713.078Z" transform="translate(-5307.383 -1972.054)" fill="#344154" opacity="0.15" style="isolation:isolate"/><path d="M5316.741,2078.219a.36.36,0,0,0,.393.315.354.354,0,0,0,.321-.383v-.009a.359.359,0,0,0-.392-.315.353.353,0,0,0-.321.383Z" transform="translate(-5306.165 -1973.375)" fill="#344154" opacity="0.15" style="isolation:isolate"/><path d="M5326.322,2064.419a.142.142,0,0,0,.127-.157.137.137,0,0,0-.04-.085,5.887,5.887,0,0,0-4.034-1.625h0a.149.149,0,0,0-.132.155.143.143,0,0,0,.153.133h0a5.7,5.7,0,0,1,3.818,1.542A.137.137,0,0,0,5326.322,2064.419Z" transform="translate(-5308.436 -1967.075)" fill="#344154"/><path d="M5323.365,2067.645a.136.136,0,0,0,.088-.044.144.144,0,0,0,0-.2h0a5.876,5.876,0,0,0-4.039-1.619h0a.143.143,0,0,0-.133.154h0a.144.144,0,0,0,.149.133,5.73,5.73,0,0,1,3.824,1.536A.142.142,0,0,0,5323.365,2067.645Z" transform="translate(-5307.213 -1968.404)" fill="#344154"/><path d="M5320.412,2070.89a.118.118,0,0,0,.089-.044.144.144,0,0,0,0-.2h0a5.932,5.932,0,0,0-4.04-1.619h0a.15.15,0,0,0-.133.155.144.144,0,0,0,.149.133,5.756,5.756,0,0,1,3.824,1.536A.129.129,0,0,0,5320.412,2070.89Z" transform="translate(-5305.996 -1969.742)" fill="#344154"/><path d="M5317.469,2074.125a.115.115,0,0,0,.088-.045.138.138,0,0,0,0-.195l0,0a5.887,5.887,0,0,0-4.04-1.625h0a.144.144,0,0,0-.133.154h0a.139.139,0,0,0,.143.133h.007a5.7,5.7,0,0,1,3.818,1.542A.149.149,0,0,0,5317.469,2074.125Z" transform="translate(-5304.781 -1971.077)" fill="#344154"/><path d="M5314.5,2077.411a.152.152,0,0,0,.095-.045.149.149,0,0,0,0-.2,5.9,5.9,0,0,0-4.04-1.619h0a.15.15,0,0,0-.139.155.144.144,0,0,0,.154.133h0a5.71,5.71,0,0,1,3.819,1.536A.148.148,0,0,0,5314.5,2077.411Z" transform="translate(-5303.556 -1972.434)" fill="#344154"/><path d="M5382.091,2094.888a13.106,13.106,0,0,0,2.354,6.146c1.2,1.531,3.344,1.708,4.941,1.37a6.881,6.881,0,0,0,5.305-5.233c.514-1.929.16-4.139-.586-6.7Z" transform="translate(-5333.113 -1978.588)" fill="#344154"/><path d="M5386.813,2061.427c.79-.033,1.476,3.725,2.382,7.455.967,4,2.481,6.123,3.211,8.815,1.011,3.724.95,5.466-.111,7.924s-6.565,5.455-9.279,2.438c-2.21-2.459-2.647-5.427-2.929-9.24a97.181,97.181,0,0,0-.979-9.687c-.492-2.83-1.016-5.565-.37-5.963.1.414.216.939.321,1.343.077.309.342,1.84.784,1.8a5.911,5.911,0,0,0-.122-1.073,1.29,1.29,0,0,1,.11-.945,1.489,1.489,0,0,1,.823-.492,22.131,22.131,0,0,1,2.3-.641,10.574,10.574,0,0,1,1.171-.187,12.461,12.461,0,0,1,2.073-.16.685.685,0,0,1,.469.331,1.151,1.151,0,0,1,.094.431,3.264,3.264,0,0,0,.193.768c.039.11.133.237.243.2s.111-.154.1-.248c-.049-.459-.149-.785-.232-1.315-.039-.243-.122-.552-.149-.823S5386.846,2061.67,5386.813,2061.427Z" transform="translate(-5331.607 -1966.613)" fill="#37474f"/><path d="M5397.064,2091.142a.276.276,0,1,1-.332-.21.276.276,0,0,1,.332.21Z" transform="translate(-5339.063 -1978.777)" fill="#344154" opacity="0.15" style="isolation:isolate"/><path d="M5396.125,2086.732a.276.276,0,1,1-.332-.21.277.277,0,0,1,.332.21Z" transform="translate(-5338.675 -1976.958)" fill="#344154" opacity="0.15" style="isolation:isolate"/><path d="M5395.184,2082.566a.276.276,0,1,1-.332-.21.276.276,0,0,1,.332.21Z" transform="translate(-5338.287 -1975.24)" fill="#344154" opacity="0.15" style="isolation:isolate"/><path d="M5394.244,2078.466a.277.277,0,1,1-.332-.21.277.277,0,0,1,.332.21Z" transform="translate(-5337.899 -1973.55)" fill="#344154" opacity="0.15" style="isolation:isolate"/><path d="M5383.768,2080.384a.276.276,0,1,1-.332-.21.277.277,0,0,1,.332.21Z" transform="translate(-5333.58 -1974.341)" fill="#344154" opacity="0.15" style="isolation:isolate"/><path d="M5384.688,2084.52a.271.271,0,0,1-.2.325h-.007a.276.276,0,1,1,.209-.33Z" transform="translate(-5333.958 -1976.045)" fill="#344154" opacity="0.15" style="isolation:isolate"/><path d="M5385.611,2088.679a.276.276,0,1,1-.332-.21.276.276,0,0,1,.332.21Z" transform="translate(-5334.34 -1977.761)" fill="#344154" opacity="0.15" style="isolation:isolate"/><path d="M5386.58,2093.093a.282.282,0,1,1-.334-.219A.283.283,0,0,1,5386.58,2093.093Z" transform="translate(-5334.734 -1979.578)" fill="#344154" opacity="0.15" style="isolation:isolate"/><path d="M5388.153,2082.114l-4.293-18.06,1.011-.144Z" transform="translate(-5333.843 -1967.637)" fill="#344154" opacity="0.15" style="isolation:isolate"/><path d="M5392.625,2091.407h-.044a12.473,12.473,0,0,0-6.079,1.105.138.138,0,0,1-.191-.04l0,0a.144.144,0,0,1,.044-.193,12.437,12.437,0,0,1,6.267-1.15.138.138,0,1,1,0,.276Z" transform="translate(-5334.844 -1978.843)" fill="#344154"/><path d="M5391.627,2086.875a.162.162,0,0,1-.072,0c-1.465-.492-4.753.271-6.08,1.105a.144.144,0,0,1-.193-.044.138.138,0,0,1,.041-.191l0,0c1.359-.885,4.752-1.658,6.3-1.144a.138.138,0,0,1,0,.271Z" transform="translate(-5334.42 -1976.925)" fill="#344154"/><path d="M5390.711,2082.748a.13.13,0,0,1-.077,0c-1.464-.492-4.752.271-6.08,1.105a.144.144,0,0,1-.154-.238c1.365-.878,4.758-1.658,6.3-1.144a.132.132,0,0,1,.093.163l0,.014A.144.144,0,0,1,5390.711,2082.748Z" transform="translate(-5334.046 -1975.223)" fill="#344154"/><path d="M5389.788,2078.64h-.077c-1.464-.492-4.752.271-6.079,1.105a.139.139,0,1,1-.155-.232h0c1.365-.885,4.758-1.658,6.3-1.149a.139.139,0,0,1,.092.172l0,.01A.127.127,0,0,1,5389.788,2078.64Z" transform="translate(-5333.659 -1973.53)" fill="#344154"/><path d="M5358.172,1902.823c1.834,23.271,2.962,54.959,2.962,54.959.166,1.768,1.868,9.312,2.719,18.027.9,9.2,1.63,26.421,1.63,26.421s-6.433,3.459-11.644,1.724c0,0-5.587-29.013-8.256-39.85-2.531-10.257-6.488-29.7-6.488-29.7l-2.691,19.26s.354,6.631.16,11.273c-.232,5.4-3.675,31.339-3.675,31.339s-7,4.1-12.418-.06c0,0-.94-35.777-1.105-42.271-.3-12.738,1.188-37.424,1.658-53.864Z" transform="translate(-5307.232 -1900.082)" fill="#344154"/><path d="M5369.33,1950.337q.729,8.362,1.63,16.717.437,4.167.912,8.345l.475,4.172.244,2.083c.077.7.221,1.381.326,2.072.917,5.527,2.333,15.552,3.316,21.061s2.066,11,3.205,16.485q-1.106-8.323-2.388-16.612c-.862-5.526-2.21-15.562-3.161-21.077-.11-.691-.254-1.376-.336-2.067l-.255-2.083-.525-4.162q-.519-4.161-1.1-8.317Q5370.6,1958.632,5369.33,1950.337Z" transform="translate(-5327.851 -1920.805)" fill="#344154"/><path d="M5324.486,1947.647c-.586,5.2-.9,10.434-1.1,15.662s-.432,10.5-.232,15.7.259,14,.458,19.231.432,10.456.742,15.678q.127-7.853.049-15.694c-.033-5.228-.127-13.993-.238-19.221l-.094-3.918-.028-.984v-2.929l.1-7.842.126-7.842C5324.314,1952.875,5324.4,1950.261,5324.486,1947.647Z" transform="translate(-5308.776 -1919.696)" fill="#344154"/><path d="M5344.668,1946.87l-2.271-12.744s-6.316-.923-9.555-3.83c0,0,2.089,3.868,8.046,5.349l2.288,11.263-1.2,19.215Z" transform="translate(-5312.805 -1912.541)" fill="#344154"/></g><g transform="translate(38.784 41.302)"><path d="M5306.142,1830a3.483,3.483,0,0,1,1.89-2.874,9.588,9.588,0,0,0,2.708-2.371,26.274,26.274,0,0,1,2.735-3.432c.751-.614-.149-1.486-1.47-1.332s-4.31,1.658-5.028,3.249A14.338,14.338,0,0,0,5306.142,1830Z" transform="translate(-5297.72 -1816.539)" fill="#f28f8f"/><path d="M5317.505,1822.334c-3.039.232-6.675.232-9.825,6.046-3.25,6.007-5.952,10.743-5.952,10.743a57.445,57.445,0,0,1-1.277-8.438c-.259-4.167-.149-5.991,1.172-8.383a69.447,69.447,0,0,0,5.067-8.174,40.749,40.749,0,0,0-6.924.956,1.408,1.408,0,0,0-.878.608c-.116.232-.111.514-.221.752a1.558,1.558,0,0,1-.823.7c-.7.331-1.509.624-1.84,1.32-.182.387-.182.846-.337,1.244a4.681,4.681,0,0,1-1.4,1.558,4.306,4.306,0,0,0-1.022,2.211c-1.061,4.288-1.348,8.648-1.348,15.3,0,4.615.276,10.931,1.857,14.424s4.757,7.438,9.422,2.763,12.8-17.635,12.8-17.635Z" transform="translate(-5291.897 -1814.128)" fill="#ffa8a7"/><path d="M5306.846,1826.692a7.748,7.748,0,0,0-2.166,1.271,2.67,2.67,0,0,1,.027,2.343c-.552,1.415-1.614,1.962-1.349,3.316a2.311,2.311,0,0,1,1.238-2.122C5306.133,1830.561,5307.029,1827.51,5306.846,1826.692Z" transform="translate(-5296.606 -1819.309)" fill="#f28f8f"/><path d="M5322.866,1827.764c-2.891.31-5.853.47-8.7,4.377s-6.858,12.158-6.858,12.158l.1.464s2.349,2.984,2.824,8.875a12.254,12.254,0,0,1-3.183,9.395,4.893,4.893,0,0,1-1.376.586,2.442,2.442,0,0,0,2.846-.337c1.685-1.188,14.667-19.811,14.667-19.811Z" transform="translate(-5297.578 -1819.751)" fill="#f0f0f0"/><path d="M5301.755,1854.45l.183.829s1.53,5.361-.42,9.428-4.764,4.482-6.228,4.355c-1.608-.138-2.139-2.1-2.139-2.1l-.3-1.376a1.186,1.186,0,0,0-.359,1.376,37.2,37.2,0,0,0,2.21,4.974c.89,1.608,3.868,3.929,6.433,2.515s4.161-4.891,4.161-9.511-1.061-7.565-1.78-8.549-2-3.083-2-3.083Z" transform="translate(-5292.107 -1830.283)" fill="#e0e0e0"/></g><g transform="translate(56.412 47)"><path d="M5359.8,1828.571s4.073,3.371,2.149,11.655a121.12,121.12,0,0,0-2.581,16.413c-.3,4.366.194,19.088.194,19.088-6.6,7.892-34.219,5.875-37.646-1.31,0,0-.391-27.93,2.106-37.822,1.415-5.6,3.4-8.842,5.526-10.456l9.395-2.21,8.528-.105Z" transform="translate(-5321.895 -1823.824)" fill="#e6e6e6"/></g><path d="M5375.182,1748.364a2.964,2.964,0,0,0-5.046-3.112h0l-1.563,2.542a1.464,1.464,0,0,0,.1,1.487,4.633,4.633,0,0,0,3.57,2.211,1.48,1.48,0,0,0,1.37-.553l1.564-2.542Z" transform="translate(-5284.667 -1743.844)" fill="#5e6178"/><path d="M5372.248,1752.647a1.481,1.481,0,0,0,1.37-.553l1.564-2.542h0a2.962,2.962,0,0,0,.127-2.879h0c.266.8-.486,2-1.354,3.41s-1.935,2.084-4.067.89c-1.553-.867-1.365-1.818-1.144-2.271l-.171.282a1.463,1.463,0,0,0,.1,1.486A4.631,4.631,0,0,0,5372.248,1752.647Z" transform="translate(-5284.667 -1745.01)" fill="#37474f"/><path d="M5368.315,1762.451a9.207,9.207,0,0,0-15.678-9.654h0c-.713,1.161-.663,2.763.326,4.615a14.381,14.381,0,0,0,11.086,6.825C5366.121,1764.3,5367.6,1763.612,5368.315,1762.451Z" transform="translate(-5277.96 -1745.769)" fill="#aed3f2"/><path d="M5343.813,1759.589a14.394,14.394,0,0,0-11.086-6.825c-2.072-.061-3.554.63-4.266,1.785L5294,1810.481c-.713,1.161-.658,2.763.326,4.614a14.4,14.4,0,0,0,11.086,6.831c2.072.055,3.553-.63,4.266-1.785l34.457-55.937C5344.852,1763.049,5344.8,1761.419,5343.813,1759.589Z" transform="translate(-5253.783 -1747.52)" fill="#84aacc"/><path d="M5301.874,1863.858a14.8,14.8,0,0,1-11.4-7.018c-1.012-1.879-1.067-3.553-.332-4.742l2.647-4.305c.735-1.188,2.255-1.9,4.388-1.835a14.8,14.8,0,0,1,11.4,7.018c1.011,1.879,1.066,3.553.331,4.747l-2.646,4.3C5305.526,1863.212,5304.006,1863.925,5301.874,1863.858Z" transform="translate(-5252.186 -1785.95)" fill="#aed3f2"/><path d="M5294.529,1853.284a14.783,14.783,0,0,1,11.4,7.018c1.017,1.873,1.066,3.548.332,4.742s-2.249,1.9-4.382,1.835a14.8,14.8,0,0,1-11.4-7.018c-1.012-1.879-1.067-3.553-.332-4.742S5292.4,1853.223,5294.529,1853.284Z" transform="translate(-5252.186 -1788.97)" fill="#4c708f"/><path d="M5237.686,1943.944a4.04,4.04,0,0,1,3.8-1.586,12.811,12.811,0,0,1,9.87,6.079c.878,1.625.923,3.078.287,4.106h0l-2.117,2.078h0a4.109,4.109,0,0,1-3.138,1.017,11.792,11.792,0,0,1-9.091-5.6,4.122,4.122,0,0,1-.5-3.26h0Z" transform="translate(-5230.335 -1825.699)" fill="#4c708f"/><path d="M5242.208,1906.959a12.81,12.81,0,0,1,9.87,6.079c.879,1.625.923,3.078.288,4.106l31.074-50.443c.636-1.034.591-2.487-.288-4.112a12.8,12.8,0,0,0-9.87-6.079c-1.846-.056-3.166.552-3.8,1.586l-31.074,50.45h0C5239.025,1907.512,5240.356,1906.9,5242.208,1906.959Z" transform="translate(-5231.056 -1790.301)" fill="#6595bf"/><path d="M5245.5,1957.136c.592-.917.553-2.21-.243-3.7a11.469,11.469,0,0,0-8.881-5.422,3.624,3.624,0,0,0-3.387,1.415h0v.028h0c-1.979,3.238-5.87,13.02-5.406,17.894l.089.055a1.727,1.727,0,0,0,.226.757,4.268,4.268,0,0,0,3.316,2.006,1.771,1.771,0,0,0,.746-.133h0C5236.5,1968.266,5243.533,1960.331,5245.5,1957.136Z" transform="translate(-5226.577 -1828.033)" fill="#6595bf"/><path d="M5280,1820.928a9.644,9.644,0,0,0-1.182-1.686l-31.074,50.477a9.435,9.435,0,0,1,1.182,1.685c.056.105.1.21.149.315l31.08-50.449A2.263,2.263,0,0,0,5280,1820.928Zm5.04-3.228a4.355,4.355,0,0,0-.122-.514l30.649-49.736c4.023-6.526,4.006-9.273,2.547-11.976.868,2.669-2.818,8.61-3.315,9.395l-30.892,50.14c.138.216.265.431.387.647l-2.652,4.3a7.152,7.152,0,0,1,.746,2.028Zm-54.008,72.709,1.613-.724s1.171.121,4.664-3.057,5.6-6.632,9.273-12.589a8.956,8.956,0,0,0-1.443-1.918,72.984,72.984,0,0,1-9.267,13.622,29.722,29.722,0,0,1-5.112,4.521C5230.849,1890.316,5230.938,1890.366,5231.032,1890.41Z" transform="translate(-5227.903 -1748.64)" fill="#fff" stroke="#5e6178" stroke-miterlimit="10" stroke-width="0" opacity="0.2" style="isolation:isolate"/><path d="M5228.2,1981.292l-1.288,2.089c-.553.912-1.464,3.487-.74,3.935s2.619-1.52,3.183-2.432h0l1.288-2.083s-.028-.552-.99-1.105A2.059,2.059,0,0,0,5228.2,1981.292Z" transform="translate(-5225.9 -1841.749)" fill="#5e6178"/><path d="M5227.1,1990.722a.945.945,0,0,0-1.1-.757.793.793,0,0,0-.092.022c-.045.431.039.773.26.912S5226.727,1990.948,5227.1,1990.722Z" transform="translate(-5225.898 -1845.326)" fill="#344154"/><g transform="translate(46.985 41.302)"><path d="M5313.859,1814.128a8.9,8.9,0,0,1,3.393,1.6c1.145.746,2.211.8,1.835,1.658a1.657,1.657,0,0,1-1.52.7,6.577,6.577,0,0,1-1.862-.348c1.354,1.166,1.658,1.63,1.255,2.039a2.056,2.056,0,0,1-2.376.116c.459.47.979.714.741,1.161s-1.072.586-2.045.409a5.654,5.654,0,0,1-1.774-.624c-1.033.276-2.183.674-2.183.674A24.905,24.905,0,0,1,5313.859,1814.128Z" transform="translate(-5307.283 -1814.128)" fill="#ffa8a7"/><path d="M5313.152,1822.8c-.553-.315-1.105-.713-1.658-1.039a2.506,2.506,0,0,0-1.819-.2c-.636.078-1.271.2-1.906.321s-1.271.221-1.918.3c.62-.177,1.25-.331,1.885-.486s1.266-.277,1.912-.371a5.93,5.93,0,0,1,.989-.055,1.826,1.826,0,0,1,.95.332C5312.152,1821.992,5312.639,1822.412,5313.152,1822.8Z" transform="translate(-5305.852 -1817.073)" fill="#f28f8f"/><path d="M5315.592,1819.07c-.491-.315-.983-.63-1.487-.923-.253-.138-.508-.3-.756-.4a2.239,2.239,0,0,0-.824-.077,14.624,14.624,0,0,0-1.729.176c-.575.072-1.161.149-1.747.2.553-.149,1.139-.271,1.719-.381a13.97,13.97,0,0,1,1.751-.226,2.343,2.343,0,0,1,.907.111,5.543,5.543,0,0,1,.774.447A12.761,12.761,0,0,1,5315.592,1819.07Z" transform="translate(-5307.17 -1815.489)" fill="#f28f8f"/></g><g transform="translate(63.69 16.798)"><path d="M5366.377,1781.459a4.067,4.067,0,0,1,3.189,2.254c.68,1.105,1.249,3.211,0,9.395a24.318,24.318,0,0,1-2.481,6.858,2.98,2.98,0,0,1-1.658,1.5l-.177-4.658-.033-3.25s-2.261-2.708-2.636-5.023c-.48-2.973.072-4.239.072-4.239Z" transform="translate(-5345.869 -1776.153)" fill="#37474f"/><path d="M5355.435,1777.851c-.625-2.586-4.139-5.487-10.555-5.421-5.255.061-8.206,2.056-9.832,5.228s-.171,7.052-.171,7.052l16.392-2.133Z" transform="translate(-5334.279 -1772.429)" fill="#37474f"/><path d="M5358.322,1797.581c-1.763,1.055-3.554-.509-3.554-.509l.255,9.61s-.072,1.862-2.918,3.675c-4.034,2.569-5.8,3.238-7.438,5.813-1.614-4.045-3.272-6.267-.8-9.566l-.133-2.21a15.282,15.282,0,0,1-2.9.094c-2.155-.2-3.6-1.807-4.388-4.078a32.341,32.341,0,0,1-.961-14.705,4.969,4.969,0,0,1,1.58-2.973c4-3.542,8.88-1.443,12.54-.282a6.742,6.742,0,0,0,4.487-.3c-1.155,1.453-1.658,2.818-1.3,9.427a3.956,3.956,0,0,0,.995,1.138c.823.63,1.348-1.166,1.962-1.89a2.686,2.686,0,0,1,4.238.691,4.422,4.422,0,0,1-1.622,6.038Z" transform="translate(-5334.608 -1775.867)" fill="#ffa8a7"/><path d="M5353.757,1792.075l2.421.873a1.344,1.344,0,0,0-.8-1.685,1.254,1.254,0,0,0-1.6.761C5353.767,1792.042,5353.762,1792.058,5353.757,1792.075Z" transform="translate(-5342.311 -1780.165)" fill="#37474f"/><path d="M5338.506,1792.646l2.443-.879a1.25,1.25,0,0,0-1.562-.826l-.058.02A1.365,1.365,0,0,0,5338.506,1792.646Z" transform="translate(-5335.996 -1780.04)" fill="#37474f"/><path d="M5354.86,1796.205a1.05,1.05,0,1,1-1.082-1.017h0a1.044,1.044,0,0,1,1.077,1.01Z" transform="translate(-5341.9 -1781.814)" fill="#344154"/><path d="M5341.582,1796.385a1.05,1.05,0,1,1-1.106-1.016.957.957,0,0,1,1.1.792A1.02,1.02,0,0,1,5341.582,1796.385Z" transform="translate(-5336.425 -1781.883)" fill="#344154"/><path d="M5346.728,1793.383l-.436,6.709-3.6-1.073A15.653,15.653,0,0,1,5346.728,1793.383Z" transform="translate(-5337.747 -1781.069)" fill="#f28f8f"/><path d="M5352.777,1798.245c-.161,4.575-1.73,4.913-3.35,5.195-2.149.381-3.221-.768-7.068-.719-2.332.028-3.056.729-4.377,1.293-.973.414-1.773.3-2.161-.553a15.239,15.239,0,0,1-.8-4.929,36.574,36.574,0,0,0,.282,7.488,8.16,8.16,0,0,0,2.349,4.974c1.658,1.37,5.1,1.9,9.394.9s5.891-2.808,6.394-4.333c1.614-4.974.929-7.273,1.481-8.212S5352.777,1798.245,5352.777,1798.245Z" transform="translate(-5334.555 -1783.074)" fill="#37474f"/><path d="M5346.367,1808.179c2.211-.072,2.918.315,3.04,1.818.177,2.15.082,2.874-.74,3-.968.149-1.658.216-1.72-.4a2.462,2.462,0,0,1,.121-1.376c.338-.42.217-.476-.745-.442s-.95.2-.657.5c.21.216.2.951.2,1.376s-.1.646-1.486.552c-1.211-.1-1.018-1.072-1.018-2.923C5343.366,1809.014,5343.88,1808.262,5346.367,1808.179Z" transform="translate(-5338.021 -1787.167)" fill="#ffa8a7"/><path d="M5349.521,1808.712l-3.57.552a1.768,1.768,0,0,0,1.94,1.578l.072-.009A1.89,1.89,0,0,0,5349.521,1808.712Z" transform="translate(-5339.092 -1787.391)" fill="#b16668"/><path d="M5350.061,1809.641a1.628,1.628,0,0,1,.437.033,1.867,1.867,0,0,1-1.531,1.526,1.724,1.724,0,0,1-.58,0A1.657,1.657,0,0,1,5350.061,1809.641Z" transform="translate(-5340.097 -1787.772)" fill="#f28f8f"/></g><g transform="translate(68.62 44.966)"><path d="M5347.313,1836.13s-1.591-3-1.6-4.172l1.9-1.984.619,4.9Z" transform="translate(-5343.925 -1824.326)" fill="#d9a171"/><path d="M5347.313,1836.13s-1.591-3-1.6-4.172l1.9-1.984.619,4.9Z" transform="translate(-5343.925 -1824.326)" fill="#344154" opacity="0.2" style="isolation:isolate"/><path d="M5352.873,1837.069l3.25-2.233,2.73,1.818-5,2.581Z" transform="translate(-5346.876 -1826.331)" fill="#d9a171"/><path d="M5352.873,1837.069l3.25-2.233,2.73,1.818-5,2.581Z" transform="translate(-5346.876 -1826.331)" fill="#344154" opacity="0.2" style="isolation:isolate"/><path d="M5351.107,1871.367c-.309-10.5-2.653-23.834-2.471-26.388l-1.785-.166c-1.221,3.067-3.946,20.088-3.818,27.339-.078,2.531,2.393,7.184,4.095,7.261S5351.151,1872.9,5351.107,1871.367Z" transform="translate(-5342.817 -1830.445)" fill="#d9a171"/><path d="M5351.107,1871.367c-.309-10.5-2.653-23.834-2.471-26.388l-1.785-.166c-1.221,3.067-3.946,20.088-3.818,27.339-.078,2.531,2.393,7.184,4.095,7.261S5351.151,1872.9,5351.107,1871.367Z" transform="translate(-5342.817 -1830.445)" fill="#fff" stroke="#5e6178" stroke-miterlimit="10" stroke-width="0" opacity="0.1" style="isolation:isolate"/><path d="M5349.3,1845.229c.056-.16.089-.265.138-.387h0l1.785.166h0a7.518,7.518,0,0,0,0,.785A3.139,3.139,0,0,1,5349.3,1845.229Z" transform="translate(-5345.403 -1830.457)" fill="#344154" opacity="0.5" style="isolation:isolate"/><path d="M5351.087,1838.154a7.6,7.6,0,0,0-1.686-.06,3.982,3.982,0,0,0-.967,1.376,6.124,6.124,0,0,0,.646,2.565,2.143,2.143,0,0,0,1.785.166,3.722,3.722,0,0,0,1.277-1.724A3.389,3.389,0,0,0,5351.087,1838.154Z" transform="translate(-5345.047 -1827.665)" fill="#d9a171"/><path d="M5351.087,1838.154a7.6,7.6,0,0,0-1.686-.06,3.982,3.982,0,0,0-.967,1.376,6.124,6.124,0,0,0,.646,2.565,2.143,2.143,0,0,0,1.785.166,3.722,3.722,0,0,0,1.277-1.724A3.389,3.389,0,0,0,5351.087,1838.154Z" transform="translate(-5345.047 -1827.665)" fill="#fff" stroke="#5e6178" stroke-miterlimit="10" stroke-width="0" opacity="0.1" style="isolation:isolate"/><path d="M5352.892,1830.846c.055,0,.132.132.188.143,1.238-.685,1.432-.911,1.763-.823.625.172,2.128,2.763,2.5,3.592s.309.829,1.447.055a20.553,20.553,0,0,0,5.14-5.073,15.228,15.228,0,0,0,2.017-4.151s-1.326-1.791-1.718-2.476c-.757-1.326-1.177-1.856-1.935-1.735v.868c-.122,1.166-1.32,2.288-2.929,3.708s-4.223,2.763-4.835,3.393A12.181,12.181,0,0,0,5352.892,1830.846Z" transform="translate(-5346.885 -1820.362)" fill="#aed3f2"/><path d="M5342.807,1832.7c.188.469,1.659-3.255,2.393-3.189.354.028,1.172,1.023,1.846,2.078h.509a11.262,11.262,0,0,1-.8-2.818,34.2,34.2,0,0,1,.293-5.024l-.111-1.453-.652.028a5.684,5.684,0,0,0-.636.868c-.707,1.194-2.558,3.957-2.763,5.371A12.376,12.376,0,0,0,5342.807,1832.7Z" transform="translate(-5342.669 -1821.158)" fill="#aed3f2"/></g><g transform="translate(64.465 51.112)"><path d="M5357.54,1869.72a13.933,13.933,0,0,1-2.155-3.057c-.747-1.409-1.018-2.359-1.57-3.515l-.553-1.1a.669.669,0,0,0-.171-.255.553.553,0,0,0-.646.028,2.261,2.261,0,0,0-1.011,1.934,9.24,9.24,0,0,0,.359,2.25c.105.486.581,2.282.581,2.282Z" transform="translate(-5342.128 -1843.554)" fill="#f28f8f"/><path d="M5374.155,1838.221c-1.818-4.289-4.1-4.935-10.158-6.676-3.282,5.609-.834,16.507-.834,16.507l2.763,12.887s-9.456-.293-11.125-1.061-6.389-4.62-7.947-5.752c-2.127-1.537-3.023-1.166-3.957-.9-3.056.9-3.708,1.26-4.311,1.774a1.422,1.422,0,0,0-.437,1.3c-.818.216-2.062.365-2.034,1.746a3.954,3.954,0,0,0,.105,1.105.9.9,0,0,0-.5.381c-.581.9.983,3.5,1.828,4.068a2.728,2.728,0,0,0,2.328.088c.823-.232.314-1.033.314-1.033l1.182-.094c2.791,1.453,3.416,4.775,6.881,5.095a34.111,34.111,0,0,1,4.206.464c7.565,1.431,15,5.831,21.514,5.493,6.361-.331,5.72-3.659,5.283-7.521C5378.9,1862.647,5376.239,1843.117,5374.155,1838.221Z" transform="translate(-5335.6 -1831.12)" fill="#ffa8a7"/><path d="M5386.784,1879.355l.276,1.282c2.962.337,6.339,1.973,7.239,3.443C5393.427,1881.687,5392.006,1880.018,5386.784,1879.355Z" transform="translate(-5356.706 -1850.834)" fill="#f28f8f"/><path d="M5381.786,1830.821c2.21.657,6.118,1.315,7.819,3.012s2.841,2.691,4.178,8.289,2.973,18.922,3.686,21.287,1.293,3.946,0,5.388c-1.6-4.271-6.118-7.919-13.589-8.173-1.232,0-.945-1.531-1.381-2.951s-2.062-9.8-2.763-12.583S5378.011,1833.778,5381.786,1830.821Z" transform="translate(-5353.52 -1830.821)" fill="#f0f0f0"/><path d="M5385.607,1880.384l-.177.552a17.455,17.455,0,0,1,6.886,3.8c2.923,2.8,3.586,5.09,3.735,6.554s0,2.338-1.1,2.382l-1.011.039s.21.553,2.123.4c1.658-.132,3.26-.6,4.045-2.3a5.179,5.179,0,0,0,.2-4.421c-.552-1.537-2.017-4.25-6.56-6.129A17.557,17.557,0,0,0,5385.607,1880.384Z" transform="translate(-5356.147 -1851.2)" fill="#e0e0e0"/><path d="M5339.972,1872.825l3.6-1.266-3.6.713A1.4,1.4,0,0,0,5339.972,1872.825Z" transform="translate(-5337.392 -1847.62)" fill="#f28f8f"/><path d="M5336.657,1877.7l4.194-1.166-4.266.646A2.307,2.307,0,0,0,5336.657,1877.7Z" transform="translate(-5336.005 -1849.671)" fill="#f28f8f"/><path d="M5338.108,1881.584a1.375,1.375,0,0,0,.642.42,2.767,2.767,0,0,0,.763.144l-.061-.033c.143.21.3.414.447.613l.078-.127a.875.875,0,0,0-.657.26,1.106,1.106,0,0,0-.293.608,1.381,1.381,0,0,1,.371-.526.852.852,0,0,1,.553-.182h.166l-.095-.138c-.149-.21-.3-.415-.453-.614v-.033h-.039a3.724,3.724,0,0,1-.736-.1A1.627,1.627,0,0,1,5338.108,1881.584Z" transform="translate(-5336.633 -1851.753)" fill="#f28f8f"/><path d="M5340.158,1882.178a13.639,13.639,0,0,0,1.564-.1s.072.3.642.746a8.874,8.874,0,0,0,.922.553l-1.182.094a1.908,1.908,0,0,0-1.448-.553Z" transform="translate(-5337.479 -1851.955)" fill="#f28f8f"/></g></g></g></g></svg>