<svg xmlns="http://www.w3.org/2000/svg" width="361.46" height="352.703" viewBox="0 0 361.46 352.703"><g transform="translate(-413.373 -4272.882)"><g transform="translate(428.847 4272.882)"><path d="M556,4275.955s-36.958,2.217-72.5,29.589c-30.937,23.868-48.1,59.5-49.885,98.269-1.186,25.593,4.928,50.547,12.319,74.847,9.493,31.26,15.622,66.87,35.418,93.587,30.867,41.577,90.538,59.117,140.439,51.671,32.238-4.8,66.3-23.1,76.225-56.206,3.673-12.25,5.467-25.409,11.742-36.735,7.515-13.566,21.158-21.489,31.514-32.538,12.789-13.644,17.948-30.644,21.135-48.63,10.364-58.439-11.8-108.008-51.787-144.265S573.018,4270.034,556,4275.955Z" transform="translate(-433.471 -4272.882)" fill="#dfedfa"/></g><g transform="translate(447.551 4276.537)"><path d="M567.258,4307.137c-4.912-2.68-7.153-.447-8.939-2.68s4.92-8.046-8.469-13.859c0,0-.893-12.512-19.249-12.958s-13.4,12.512-18.325,15.638-6.252-1.786-11.172,1.348-2.672,9.386-6.683,10.279-9.386-4.027-14.3-.893-4.951,5.805-7.168,5.805-6.706-1.787-9.386,0-5.805,4.027-5.805,4.027H570.838S572.185,4309.816,567.258,4307.137Z" transform="translate(-457.763 -4277.628)" fill="none" stroke="#263238" stroke-linecap="round" stroke-linejoin="round" stroke-width="1"/><path d="M512.5,4313.563a15.2,15.2,0,0,1-2,.947" transform="translate(-469.896 -4285.895)" fill="none" stroke="#263238" stroke-linecap="round" stroke-linejoin="round" stroke-width="1"/><path d="M538.007,4286.453a7.635,7.635,0,0,0-4.366,5.451c-.816,4.1-2.726,6.822-4.9,7.092s-10.364-.54-11.734,2.456a12.1,12.1,0,0,0-.77,2.741" transform="translate(-471.214 -4279.659)" fill="none" stroke="#263238" stroke-linecap="round" stroke-linejoin="round" stroke-width="1"/><path d="M544.99,4367.225c-1.917-1.047-2.787-.177-3.488-1.047s1.917-3.149-3.318-5.39c0,0-.346-4.889-7.507-5.066s-5.243,4.89-7.161,6.113-2.448-.7-4.366.523-1.047,3.665-2.618,4.012-3.673-1.54-5.59-.347-1.925,2.31-2.795,2.31-2.618-.7-3.665,0-2.31,1.54-2.31,1.54h44.18A2.237,2.237,0,0,0,544.99,4367.225Z" transform="translate(-467.98 -4295.593)" fill="none" stroke="#263238" stroke-linecap="round" stroke-linejoin="round" stroke-width="1"/><path d="M523.613,4369.773a6.368,6.368,0,0,1-.77.362" transform="translate(-472.735 -4298.826)" fill="none" stroke="#263238" stroke-linecap="round" stroke-linejoin="round" stroke-width="1"/><path d="M533.581,4359.133a2.986,2.986,0,0,0-1.709,2.133c-.316,1.6-1.063,2.664-1.917,2.772s-4.05-.215-4.581.955a4.574,4.574,0,0,0-.3,1.07" transform="translate(-473.248 -4296.378)" fill="none" stroke="#263238" stroke-linecap="round" stroke-linejoin="round" stroke-width="1"/><path d="M825.659,4353.967c-1.925-1.047-2.795-.169-3.5-1.047s1.925-3.142-3.318-5.39c0,0-.347-4.889-7.507-5.059s-5.236,4.89-7.161,6.105-2.441-.693-4.366.524-1.047,3.673-2.618,4.02-3.665-1.54-5.59-.347-1.917,2.264-2.795,2.264-2.618-.693-3.665,0-2.271,1.524-2.271,1.524h44.18S827.576,4355.022,825.659,4353.967Z" transform="translate(-532.555 -4292.544)" fill="none" stroke="#263238" stroke-linecap="round" stroke-linejoin="round" stroke-width="1"/><path d="M804.273,4356.473a5.534,5.534,0,0,1-.77.37" transform="translate(-537.301 -4295.767)" fill="none" stroke="#263238" stroke-linecap="round" stroke-linejoin="round" stroke-width="1"/><path d="M814.233,4345.883a2.963,2.963,0,0,0-1.7,2.133c-.323,1.594-1.07,2.664-1.925,2.764s-4.05-.208-4.581.962a4.405,4.405,0,0,0-.293,1.07" transform="translate(-537.814 -4293.331)" fill="none" stroke="#263238" stroke-linecap="round" stroke-linejoin="round" stroke-width="1"/></g><g transform="translate(421.219 4378.096)"><path d="M743,4467.316c-16.015-9.879-57.115-37.728-69.55-36.534-11.38,1.1-43.048,24.877-55.329,36.534Z" transform="translate(-468.322 -4414.413)" fill="#b2b2b2"/><path d="M604.185,4462.436c-23.16-14.283-82.608-54.589-100.594-52.849-16.462,1.593-62.266,35.987-80.029,52.849Z" transform="translate(-423.563 -4409.532)" fill="#707070"/></g><g transform="translate(524.803 4301.149)"><path d="M717.685,4429.583c-2.864,0-6.275-.839-8.038-4.358-3.419-6.837,2.926-14.044,9.139-20.257s7.507-12.381,7.522-12.435l.909.177c-.046.253-1.309,6.452-7.769,12.912-5.99,5.99-12.111,12.9-8.97,19.179,3,6.005,11.626,3.218,11.711,3.188l.293.885A17.2,17.2,0,0,1,717.685,4429.583Z" transform="translate(-592.741 -4328.675)" fill="#344154"/><rect width="20.95" height="23.976" transform="translate(122.326 83.222)" fill="#d9a171" stroke="#263238" stroke-miterlimit="10" stroke-width="1"/><rect width="2.348" height="60.195" transform="translate(131.504 37.976) rotate(-8.61)" fill="#344154" stroke="#263238" stroke-miterlimit="10" stroke-width="1"/><rect width="5.243" height="35.433" transform="translate(133.784 62.676) rotate(-8.61)" fill="#d9a171" stroke="#263238" stroke-miterlimit="10" stroke-width="1"/><rect width="2.348" height="60.195" transform="matrix(0.485, -0.875, 0.875, 0.485, 86.627, 3.198)" fill="#344154" stroke="#263238" stroke-miterlimit="10" stroke-width="1"/><rect width="5.243" height="35.433" transform="matrix(0.485, -0.875, 0.875, 0.485, 107.577, 16.467)" fill="#d9a171" stroke="#263238" stroke-miterlimit="10" stroke-width="1"/><path d="M739.494,4402.229l-1.463-5.121a4.51,4.51,0,0,0-.062-.539L727.5,4347.431a6.816,6.816,0,0,0-4.35-4.989l-59.532-21.559-1.632,9.779L712.03,4352.7a6.809,6.809,0,0,1,3.75,4.188L729,4398.9a4.659,4.659,0,0,0,5.082,3.219l-.039.077Z" transform="translate(-581.996 -4312.191)" fill="#d9a171" stroke="#263238" stroke-miterlimit="10" stroke-width="1"/><path d="M722.976,4356.905l13.22,42.016a4.658,4.658,0,0,0,5.84,3.048c.061-.019.121-.039.181-.061h0a4.62,4.62,0,0,0,2.964-5.39l-10.471-49.138a6.807,6.807,0,0,0-4.343-4.989l-59.54-21.559-1.625,9.778,50.047,22.036A6.806,6.806,0,0,1,722.976,4356.905Z" transform="translate(-583.657 -4312.18)" fill="#d9a171" stroke="#263238" stroke-miterlimit="10" stroke-width="1"/><rect width="41.677" height="22.352" transform="translate(132.343 96.027)" fill="#d9a171" stroke="#263238" stroke-miterlimit="10" stroke-width="1"/><path d="M827.417,4457.917l-33.5-10.009a15.975,15.975,0,0,0-4.681-.84l-2.14-.138h-9.547v.162a16.043,16.043,0,0,0-2.01,0v-8.539h-3.727v9.24l-33.832,10.948a4.842,4.842,0,0,0-3.357,4.62v.932a4.851,4.851,0,0,0,4.843,4.851h86.311a5.721,5.721,0,0,0,1.64-11.2Z" transform="translate(-598.707 -4339.262)" fill="#344154" stroke="#263238" stroke-miterlimit="10" stroke-width="1"/><path d="M797.047,4427.395v-44.38a1.494,1.494,0,0,0-1.486-1.5H766.781a10.608,10.608,0,0,0-9.078,5.1h0a10.574,10.574,0,0,0-1.54,5.521v35.256Z" transform="translate(-603.663 -4326.14)" fill="#344154" stroke="#263238" stroke-miterlimit="10" stroke-width="1"/><path d="M756.153,4410.838h19.611v16.955h1.663v-16.955H794.05v-1.663H777.427v-25.932h-1.663v25.932H756.153Z" transform="translate(-603.66 -4326.538)" fill="#d9a171" stroke="#263238" stroke-miterlimit="10" stroke-width="1"/><path d="M796.671,4381.513H767.86a10.6,10.6,0,0,0-7.007,2.664h33.285v43.217h3.988v-44.38A1.493,1.493,0,0,0,796.671,4381.513Z" transform="translate(-604.741 -4326.14)" fill="#d9a171" stroke="#263238" stroke-miterlimit="10" stroke-width="1"/><path d="M826.076,4434.448v-22.275H802.8l-21.628,22.275Z" transform="translate(-609.416 -4333.193)" fill="#d9a171" stroke="#263238" stroke-miterlimit="10" stroke-width="1"/><path d="M830.652,4418.223h-20.28l-9.309,10.3h29.589Z" transform="translate(-613.992 -4334.584)" fill="#344154" stroke="#263238" stroke-miterlimit="10" stroke-width="1"/><path d="M787.791,4460.42l-33.5-10.009a15.975,15.975,0,0,0-4.681-.84l-2.14-.138h-9.563l-.185,3.018-27.272,8.793a4.841,4.841,0,0,0-3.357,4.62v.932a4.851,4.851,0,0,0,4.851,4.851h74.208a5.721,5.721,0,0,0,1.64-11.2Z" transform="translate(-592.374 -4341.765)" fill="#545454" stroke="#263238" stroke-miterlimit="10" stroke-width="1"/><path d="M728.6,4450.321l-33.878,10.934a4.842,4.842,0,0,0-3.357,4.62v.932a4.851,4.851,0,0,0,4.843,4.851h74.215a5.721,5.721,0,0,0,5.721-5.721h0a5.713,5.713,0,0,0-4.081-5.475l-33.5-10.009A15.8,15.8,0,0,0,728.6,4450.321Z" transform="translate(-588.755 -4341.798)" fill="#8a8a8a" stroke="#263238" stroke-miterlimit="10" stroke-width="1"/><path d="M697.059,4469.692a2.063,2.063,0,0,1-2.056-2.056v-.9a2.054,2.054,0,0,1,1.424-1.955l33.878-10.926a12.775,12.775,0,0,1,3.988-.631,12.972,12.972,0,0,1,4.227.708l33.608,10.063a2.926,2.926,0,0,1-.839,5.728Z" transform="translate(-589.593 -4342.637)" fill="#344154" stroke="#263238" stroke-miterlimit="10" stroke-width="1"/><path d="M658.935,4323.268l-.462-9.686a4.188,4.188,0,0,0-5.482-3.781L640.3,4313.92a10.112,10.112,0,0,0-6.052,5.39L616.3,4358.578l6.291,6.752,33.508-34.578A10.106,10.106,0,0,0,658.935,4323.268Z" transform="translate(-571.488 -4309.595)" fill="#d9a171" stroke="#263238" stroke-miterlimit="10" stroke-width="1"/><path d="M663.447,4323.268l-.462-9.686a4.188,4.188,0,0,0-5.482-3.781l-12.681,4.143a10.063,10.063,0,0,0-6.052,5.39L620.823,4358.6l6.283,6.753,33.508-34.579A10.072,10.072,0,0,0,663.447,4323.268Z" transform="translate(-572.527 -4309.595)" fill="#d9a171" stroke="#263238" stroke-miterlimit="10" stroke-width="1"/><path d="M592.187,4359H574.479a14.782,14.782,0,0,0-9.239,2.095c-16.069,9.316,0,33.762,0,33.762H586.89l6.983-19.788Z" transform="translate(-558.097 -4320.942)" fill="#545454" stroke="#263238" stroke-miterlimit="10" stroke-width="1"/><path d="M621.924,4375.061l-28.634,19.788s-16.069-24.446,0-33.762S621.924,4375.061,621.924,4375.061Z" transform="translate(-564.55 -4320.934)" fill="#344154" stroke="#263238" stroke-miterlimit="10" stroke-width="1"/><path d="M567.3,4405.593v8.377h1.8v-4h1.386v4h2.4v-4h1.394v4h2.395v-4h1.394v4h2.395v-4h1.394v4h2.395v-4h1.394v4h3.3v-8.377Z" transform="translate(-560.215 -4331.679)" fill="#8a8a8a" stroke="#263238" stroke-miterlimit="10" stroke-width="1"/></g><g transform="translate(413.373 4431)"><line x2="361.46" fill="none" stroke="#263238" stroke-miterlimit="10" stroke-width="1"/></g><g transform="translate(551.841 4447.376)"><rect width="94.026" height="4.389" transform="translate(67.054 41.161)" fill="#fff" stroke="#263238" stroke-linejoin="round" stroke-width="1"/><path d="M692.293,4558.943l7.823,31.976c2.587,11.833,12.635,17.551,28.211,17.551s26.178-7.126,28.219-17.551l7.823-31.976Z" transform="translate(-616.007 -4513.185)" fill="#fff" stroke="#263238" stroke-linejoin="round" stroke-width="1"/><path d="M695.534,4564.879c7.222,3.973,19.249,6.575,32.792,6.575s25.578-2.6,32.8-6.575l3.242-5.937H692.293Z" transform="translate(-616.007 -4513.185)" fill="#344154" stroke="#263238" stroke-linejoin="round" stroke-width="1"/><ellipse cx="39.991" cy="15.36" rx="39.991" ry="15.36" transform="translate(72.329 25.693)" fill="#d9a171" stroke="#263238" stroke-linejoin="round" stroke-width="1"/><path d="M760.8,4531.332l-9.686-21.559h-46.3l-9.678,21.559c-1.124,2.518-2.51,4.9-3.78,7.354a5.508,5.508,0,0,0-.654,2.571c0,7.569,16.685,13.713,37.266,13.713s37.273-6.16,37.273-13.713a5.527,5.527,0,0,0-.654-2.571C763.307,4536.267,761.921,4533.88,760.8,4531.332Z" transform="translate(-615.639 -4501.873)" fill="#fff" stroke="#263238" stroke-linejoin="round" stroke-width="1"/><line x2="1.471" y2="3.057" transform="translate(144.881 35.687)" fill="none" stroke="#263238" stroke-linecap="round" stroke-linejoin="round" stroke-width="1"/><line x2="8.477" y2="17.609" transform="translate(134.001 13.097)" fill="none" stroke="#263238" stroke-linecap="round" stroke-linejoin="round" stroke-width="1"/><ellipse cx="23.152" cy="7.861" rx="23.152" ry="7.861" transform="translate(89.167)" fill="#344154" stroke="#263238" stroke-linejoin="round" stroke-width="1"/><rect width="9.709" height="2.61" transform="translate(41.754 48.838)" fill="#fff" stroke="#263238" stroke-linejoin="round" stroke-width="1"/><path d="M663.62,4594.782l-1.64-2.587,12.358-13.521-14.544-13.305,1.463-2.756,15.923,14.56a1.847,1.847,0,0,1,.547,1.309,1.921,1.921,0,0,1-.454,1.363Z" transform="translate(-608.53 -4514.029)" fill="#fff" stroke="#263238" stroke-linejoin="round" stroke-width="1"/><path d="M665.867,4552.273c-5.89,0-10.664,10.009-10.664,22.406s4.774,22.405,10.664,22.405,10.664-10.009,10.664-22.405S671.757,4552.273,665.867,4552.273Zm.57,40.63c-4.481,0-8.108-8.162-8.108-18.225s3.627-18.217,8.108-18.217,8.146,8.154,8.146,18.217-3.673,18.225-8.146,18.225Z" transform="translate(-607.474 -4511.65)" fill="#fff" stroke="#263238" stroke-linejoin="round" stroke-width="1"/><path d="M753.193,4623.214h-51.9l-19.418-19.041L683.367,4643l17.663-16.053h52.164Z" transform="translate(-613.61 -4523.59)" fill="#fff" stroke="#263238" stroke-linejoin="round" stroke-width="1"/><path d="M809.922,4634.366H766.043l11.95-31.653h43.879Z" transform="translate(-632.973 -4523.254)" fill="#fff" stroke="#263238" stroke-linejoin="round" stroke-width="1"/><rect width="43.879" height="65.192" transform="translate(159.21 27.996)" fill="#fff" stroke="#263238" stroke-linejoin="round" stroke-width="1"/><rect width="73.191" height="2.987" transform="translate(0 158.204) rotate(-27.43)" fill="#fff" stroke="#263238" stroke-linejoin="round" stroke-width="1"/><rect width="6.344" height="135.172" transform="translate(64.529 25.686)" fill="#fff" stroke="#263238" stroke-linejoin="round" stroke-width="1"/><circle cx="31.183" cy="31.183" r="31.183" transform="translate(128.011 98.5)" fill="#344154" stroke="#263238" stroke-linejoin="round" stroke-width="1"/><circle cx="22.968" cy="22.968" r="22.968" transform="translate(136.227 106.715)" fill="#d9a171" stroke="#263238" stroke-miterlimit="10" stroke-width="1"/></g><g transform="translate(440.047 4356.946)"><path d="M457.826,4690.7l-2.51,4.2s-4.851.77-6.16,2.425-1.078,6.468-1.078,6.468h33.116a6.806,6.806,0,0,0,0-3.5l-.77-2.425s1.347-5.39,1.078-8.354H458.819Z" transform="translate(-448.027 -4452.79)" fill="#d9a171" stroke="#263238" stroke-miterlimit="10" stroke-width="1"/><path d="M448.029,4707.087h33.154a7.114,7.114,0,0,0,.069-3.234H448.145A23.619,23.619,0,0,0,448.029,4707.087Z" transform="translate(-448.016 -4456.091)" fill="#fff" stroke="#263238" stroke-miterlimit="10" stroke-width="1"/><path d="M470.825,4692.87h-7.284a.809.809,0,0,1,0-1.617h7.284a.809.809,0,0,1,0,1.617Z" transform="translate(-451.402 -4453.192)" fill="#344154"/><path d="M469.423,4695.29h-7.291a.809.809,0,0,1,0-1.617h7.284a.809.809,0,0,1,0,1.617h.008Z" transform="translate(-451.078 -4453.749)" fill="#344154"/><path d="M468.017,4697.77h-7.276a.808.808,0,1,1,0-1.617h7.276a.808.808,0,1,1,0,1.617Z" transform="translate(-450.758 -4454.32)" fill="#344154"/><line y1="6.468" x2="2.425" transform="translate(25.082 244.528)" fill="none" stroke="#263238" stroke-miterlimit="10" stroke-width="1"/><path d="M595.634,4690.7l2.51,4.2s4.851.77,6.16,2.425,1.078,6.468,1.078,6.468h-33.1a6.807,6.807,0,0,1,0-3.5l.808-2.425s-1.347-5.39-1.078-8.354h22.6Z" transform="translate(-476.534 -4452.79)" fill="#d9a171" stroke="#263238" stroke-miterlimit="10" stroke-width="1"/><path d="M605.414,4707.087H572.307a7.115,7.115,0,0,1-.069-3.234h33.108A23.611,23.611,0,0,1,605.414,4707.087Z" transform="translate(-476.558 -4456.091)" fill="#fff" stroke="#263238" stroke-miterlimit="10" stroke-width="1"/><path d="M589.961,4692.87h7.284a.809.809,0,0,0,0-1.617h-7.284a.809.809,0,0,0,0,1.617Z" transform="translate(-480.485 -4453.192)" fill="#344154"/><path d="M591.361,4695.29h7.284a.809.809,0,0,0,0-1.617h-7.284a.809.809,0,0,0,0,1.617Z" transform="translate(-480.807 -4453.749)" fill="#344154"/><path d="M592.761,4697.77h7.284a.808.808,0,1,0,0-1.617h-7.284a.808.808,0,1,0,0,1.617Z" transform="translate(-481.129 -4454.32)" fill="#344154"/><line x1="2.425" y1="6.468" transform="translate(101.392 244.528)" fill="none" stroke="#263238" stroke-miterlimit="10" stroke-width="1"/><path d="M568.83,4641.056c0-.731-3.68-1.955-3.68-1.955s-1.471-18.155-1.717-23.545-7.6-17.417-9.07-22.567-5.644-38.259-7.607-49.546-6.868-27.718-6.868-27.718l.246-1.471H490.672l.246,1.471s-4.9,16.431-6.868,27.718-6.16,44.4-7.607,49.546-8.824,17.139-9.047,22.567-1.717,23.545-1.717,23.545-3.673,1.224-3.673,1.955-1.224,9.325-1.224,9.325h23.553s2.2-5.89,1.956-8.585-1.709-3.434-.978-6.375,8.092-27.472,10.3-35.811a143.72,143.72,0,0,1,4.412-13.982l15.4-51.287,15.4,51.287a143.938,143.938,0,0,1,4.412,13.982c2.21,8.339,9.563,32.87,10.3,35.811s-.77,3.681-.985,6.375,1.963,8.585,1.963,8.585h23.545S568.83,4641.795,568.83,4641.056Z" transform="translate(-450.953 -4412.473)" fill="#344154" stroke="#263238" stroke-miterlimit="10" stroke-width="1"/><path d="M489.273,4429.523s-8.339.493-10.548,2.941-24.746,32.377-24.007,35.564a1.315,1.315,0,0,0,.1.277,4.479,4.479,0,0,0,.139,2.179c1.232,3.68,19.842,17.416,19.842,17.416l11.287-4.419-12.65-16.292c6.737-5.259,15.591-12.65,15.591-12.65Z" transform="translate(-449.554 -4392.981)" fill="#aed3f2"/><path d="M495.247,4499.327l-.724-.924v1.209Z" transform="translate(-458.715 -4408.827)" fill="#d9a171"/><path d="M487.559,4434.563h-.616v-4.789c-.47.054-.993.131-1.54.223v4.566h-4.281v-3.5c-.27.1-.531.208-.77.316v3.188h-1.324v-2.372c-.108.092-.208.193-.3.285-.339.377-1.147,1.394-2.31,2.857h.262v5.705h-.616v-5.251l-1.54,2.018v3.233H472.16l-.57.77h3v5.713h-4.281v-4.027l-.77,1.055v2.972h-1.317v-1.163q-1.155,1.594-2.31,3.219V4454H465.3v-3.565c-.524.731-1.032,1.463-1.54,2.187V4454H462.8l-.531.77h1.494v5.751h-4.25v-1.6l-.77,1.186v.416h-.262c-.169.262-.331.516-.485.77h.77v5.713h-1.34v-4.781a35.11,35.11,0,0,0-2.31,4.25v.531h-.208a3.588,3.588,0,0,0-.193.77h.4v3.08a15.907,15.907,0,0,0,2.9,3.4h.77v.693l.77.708v-1.4h4.25v5.059l1.732,1.424h.423v.339c.77.631,1.54,1.247,2.31,1.832v-2.171h1.278v3.2l.77.6v-3.8h4.25v5.828h1.54v-5.828h.616v5.828h1.6l.7-.277v-5.551h1.324v5.036l.77-.3v-4.735h2.795l-.593-.77h-2.194v-2.841l-.77-.985v3.85h-1.324v-5.605l-2.31-2.98v2.025H476.1v-2.818l-1.54-1.979v4.8h-4.25v-5.713h3.542l-.416-.539.293-.231h-3.419v-5.651h4.25v5.059c.508-.393,1.024-.77,1.54-1.216v-3.85h.616v3.349l2.31-1.848v-1.54h1.324v.431l1.471-1.155h-.7v-5.713h4.242v2.811c.57-.462,1.086-.894,1.54-1.271v-1.54h.616v1.032l1.54-1.255.246-25.016s-.708.046-1.755.162Zm-28.819,38.89h-1.317v-5.713h1.317Zm5.02,0h-4.25v-5.713h4.25Zm0-6.483h-4.25v-5.675h4.25Zm2.156,12.966H465.3v-5.713h.616Zm0-6.483H465.3v-5.713h.616Zm0-6.483H465.3v-5.675h.616Zm0-6.483H465.3v-5.713h.616Zm3.626,19.449h-1.317v-5.713h1.317Zm0-6.483h-1.317v-5.713h1.317Zm0-6.483h-1.317v-5.675h1.317Zm0-6.483h-1.317v-5.713h1.317Zm0-6.483h-1.317v-5.713h1.317Zm6.56,20.219h.616v5.713H476.1Zm-1.54,0v5.713h-4.25v-5.713Zm0-13.736h-4.25v-5.713h4.25Zm0-6.483h-4.25v-5.713h4.25Zm2.156,6.483H476.1v-5.713h.616Zm0-6.483H476.1v-5.713h.616Zm0-6.483H476.1v-5.713h.616Zm3.634,13h-1.324v-5.713h1.324Zm0-6.483h-1.324v-5.713h1.324Zm0-6.483h-1.324v-5.713h1.324Zm0-6.483h-1.324v-5.705h1.324Zm5.012,12.966h-4.242v-5.713h4.242Zm0-6.483h-4.242v-5.713h4.242Zm0-6.483h-4.242v-5.705h4.242Zm2.156,12.966H486.9v-5.713h.616Zm0-6.483H486.9v-5.713h.616Zm0-6.483H486.9v-5.705h.616Z" transform="translate(-449.557 -4392.993)" fill="#6595bf"/><path d="M454.853,4478.315c.47-2.856,3.226-5.282,3.226-5.282" transform="translate(-449.589 -4402.991)" fill="none" stroke="#263238" stroke-miterlimit="10" stroke-width="1"/><line x1="2.78" y1="3.573" transform="translate(21.101 70.635)" fill="none" stroke="#263238" stroke-miterlimit="10" stroke-width="1"/><path d="M454.831,4479.56a4.479,4.479,0,0,0,.139,2.179c1.232,3.68,19.842,17.416,19.842,17.416l11.287-4.419-12.65-16.292" transform="translate(-449.567 -4404.235)" fill="none" stroke="#263238" stroke-miterlimit="10" stroke-width="1"/><path d="M473.435,4467.189c6.737-5.259,15.591-12.65,15.591-12.65l.246-25.016s-8.339.493-10.548,2.941-24.746,32.377-24.007,35.564a1.315,1.315,0,0,0,.1.277" transform="translate(-449.554 -4392.981)" fill="none" stroke="#263238" stroke-miterlimit="10" stroke-width="1"/><path d="M565.263,4429.523s8.339.493,10.548,2.941,24.746,32.377,24.007,35.564a1.363,1.363,0,0,1-.1.277,4.489,4.489,0,0,1-.139,2.179c-1.232,3.68-19.849,17.416-19.849,17.416l-11.3-4.419,12.65-16.292c-6.737-5.259-15.591-12.65-15.591-12.65Z" transform="translate(-474.989 -4392.981)" fill="#aed3f2"/><path d="M569.4,4499.327l.724-.924v1.209Z" transform="translate(-475.941 -4408.827)" fill="#d9a171"/><path d="M567.016,4434.563h.616v-4.789c.47.054.993.131,1.54.223v4.566h4.242v-3.5c.269.1.531.208.77.316v3.188h1.324v-2.372c.108.092.208.193.3.285.331.377,1.147,1.394,2.271,2.857h-.262v5.705h.616v-5.251l1.54,2.018v3.233h2.433l.57.77h-3v5.713h4.25v-4.027l.77,1.055v2.972h1.317v-1.163q1.155,1.594,2.31,3.219V4454h.616v-3.565l1.54,2.187V4454h.955c.185.262.362.516.531.77h-1.509v5.751H595v-1.6l.77,1.186v.416h.262c.169.262.331.516.485.77h-.77v5.713h1.317v-4.781a35.224,35.224,0,0,1,2.31,4.25v.531h.208a3.59,3.59,0,0,1,.193.77h-.4v3.08a15.931,15.931,0,0,1-2.9,3.4h-.732v.693l-.77.708v-1.4h-4.227v5.059l-1.732,1.424H588.6v.339c-.77.631-1.54,1.247-2.31,1.832v-2.171h-1.317v3.2l-.77.6v-3.8h-4.227v5.828h-1.54v-5.828h-.616v5.828h-1.609l-.7-.277v-5.551h-1.324v5.036l-.77-.3v-4.735H570.62l.593-.77h2.2v-2.841l.77-.985v3.85h1.324v-5.605l2.31-2.98v2.025h.616v-2.818l1.54-1.979v4.8h4.25v-5.713h-3.542l.416-.539-.293-.231h3.419v-5.651h-4.25v5.059c-.508-.393-1.024-.77-1.54-1.216v-3.85h-.616v3.349l-2.31-1.848v-1.54h-1.324v.431l-1.471-1.155h.7v-5.713H569.2v2.811c-.57-.462-1.086-.894-1.54-1.271v-1.54h-.616v1.032l-1.54-1.255-.246-25.016s.7.046,1.756.162Zm28.781,38.89h1.317v-5.713H595.8Zm-5.02,0h4.25v-5.713h-4.273Zm0-6.483h4.25v-5.675h-4.273Zm-2.156,12.966h.616v-5.713h-.616Zm0-6.483h.616v-5.713h-.616Zm0-6.483h.616v-5.675h-.616Zm0-6.483h.616v-5.713h-.616Zm-3.626,19.449h1.317v-5.713h-1.317Zm0-6.483h1.317v-5.713h-1.317Zm0-6.483h1.317v-5.675h-1.317Zm0-6.483h1.317v-5.713h-1.317Zm0-6.483h1.317v-5.713h-1.317Zm-6.56,20.219h-.616v5.713h.616Zm1.54,0v5.713h4.25v-5.713Zm0-13.7h4.25v-5.713h-4.25Zm0-6.483h4.25v-5.713h-4.25Zm-2.156,6.483h.616v-5.713h-.616Zm0-6.483h.616v-5.713h-.616Zm0-6.483h.616v-5.713h-.616Zm-3.634,12.966h1.324v-5.713h-1.324Zm0-6.483h1.324v-5.713h-1.324Zm0-6.483h1.324v-5.713h-1.324Zm0-6.483h1.324v-5.705h-1.324ZM569.2,4454h4.242v-5.713H569.2Zm0-6.483h4.242v-5.713H569.2Zm0-6.483h4.242v-5.705H569.2ZM567.039,4454h.616v-5.713h-.616Zm0-6.483h.616v-5.713h-.616Zm0-6.483h.616v-5.705h-.616Z" transform="translate(-474.987 -4392.993)" fill="#6595bf"/><path d="M609.049,4478.315c-.47-2.856-3.226-5.282-3.226-5.282" transform="translate(-484.32 -4402.991)" fill="none" stroke="#263238" stroke-miterlimit="10" stroke-width="1"/><line y1="3.573" x2="2.78" transform="translate(106.112 70.635)" fill="none" stroke="#263238" stroke-miterlimit="10" stroke-width="1"/><path d="M600.664,4479.56a4.488,4.488,0,0,1-.139,2.179c-1.232,3.68-19.849,17.416-19.849,17.416l-11.3-4.419,12.65-16.292" transform="translate(-475.935 -4404.235)" fill="none" stroke="#263238" stroke-miterlimit="10" stroke-width="1"/><path d="M581.1,4467.189c-6.737-5.259-15.591-12.65-15.591-12.65l-.246-25.016s8.339.493,10.548,2.941,24.746,32.377,24.007,35.564a1.363,1.363,0,0,1-.1.277" transform="translate(-474.989 -4392.981)" fill="none" stroke="#263238" stroke-miterlimit="10" stroke-width="1"/><path d="M514.37,4421.138l-16.677,5.644,1.717,67.2h49.785l2.21-68.918-20.6-5.352Z" transform="translate(-459.445 -4390.725)" fill="#d9a171" stroke="#263238" stroke-miterlimit="10" stroke-width="1"/><path d="M498.933,4477.623l.231,9.078h50.978l.293-9.078Z" transform="translate(-459.73 -4404.047)" fill="#fff" stroke="#263238" stroke-miterlimit="10" stroke-width="1"/><path d="M549.756,4507.411l.285-9.078H499.463l.231,9.078Z" transform="translate(-459.852 -4408.811)" fill="#fff" stroke="#263238" stroke-miterlimit="10" stroke-width="1"/><path d="M520.943,4432.566l9.809,26.732,8.585-27.226Z" transform="translate(-464.793 -4393.568)" fill="#aed3f2"/><path d="M537.588,4435.968v3.742l1.54-4.881V4432.1h-1.54v3.08h-4.25v-2.94h-.77v2.918h-1.324v-2.849l-2.31.062v2.826h-.616v-2.81l-1.54.046v2.764h-2.425c-.193.254-.385.508-.57.77h3v5.713h-1.84l.285.77h1.54v4.25l1.54,4.2v-1.963h.616v3.642l1.755,4.781.554-.446v-1.494h1.324v.208l.77-2.44v-4.25h1.34l.246-.77h-1.586v-5.713h3.388l.239-.77h-3.626v-5.713Zm-8.654,12.2h-.616v-5.713h.616Zm0-6.483h-.616v-5.713h.616Zm3.634,12.966h-1.324v-5.713h1.324Zm0-6.483h-1.324v-5.713h1.324Zm0-6.483h-1.324v-5.713h1.324Z" transform="translate(-465.447 -4393.575)" fill="#6595bf"/><path d="M544.513,4432.874l.246-.8-.246.008Z" transform="translate(-470.215 -4393.568)" fill="#d9a171"/><path d="M520.943,4432.566l9.809,26.732,8.585-27.226Z" transform="translate(-464.793 -4393.568)" fill="none" stroke="#263238" stroke-miterlimit="10" stroke-width="1"/><rect width="65.977" height="3.927" rx="1.963" transform="translate(30.641 109.879)" fill="#b0b0b0" stroke="#263238" stroke-miterlimit="10" stroke-width="1"/><rect width="2.425" height="29.943" transform="translate(62.91 221.345)" fill="#344154" stroke="#263238" stroke-miterlimit="10" stroke-width="1"/><path d="M541.186,4527.062c0-6.637-6.314-8.338-14.105-8.338s-14.1,1.7-14.1,8.338a11.235,11.235,0,0,0,4.558,8.832,9.24,9.24,0,0,1,3.657,7.222V4637h11.857v-93.934a9.236,9.236,0,0,1,3.619-7.2A11.249,11.249,0,0,0,541.186,4527.062Z" transform="translate(-462.962 -4413.502)" fill="#b0b0b0" stroke="#263238" stroke-miterlimit="10" stroke-width="1"/><rect width="22.074" height="22.252" rx="3.94" transform="translate(52.716 104.482)" fill="#d9a171" stroke="#263238" stroke-miterlimit="10" stroke-width="1"/><path d="M518.683,4604.083h19.51l-3.557,32.885h-12.4Z" transform="translate(-464.273 -4433.139)" fill="#d9a171" stroke="#263238" stroke-miterlimit="10" stroke-width="1"/><path d="M577.54,4504.515s-4.412-4.9-9.07-6.868-10.779-.978-10.779-.978l-4.165,15.691s-3.434,1.232-3.927,2.7c-.346,1.047.169,5.459.5,7.907a1.918,1.918,0,0,0,1.9,1.655H562.11s2.695.493,2.695-1.963V4518.5a7.5,7.5,0,0,0,1.963-2.456,9.162,9.162,0,0,0,.246-1.963Z" transform="translate(-471.359 -4408.371)" fill="#d9a171" stroke="#263238" stroke-miterlimit="10" stroke-width="1"/><line x1="0.731" y1="8.339" transform="translate(80.68 107.67)" fill="none" stroke="#263238" stroke-miterlimit="10" stroke-width="1"/><line y1="8.092" transform="translate(84.846 108.162)" fill="none" stroke="#263238" stroke-miterlimit="10" stroke-width="1"/><line y1="7.353" transform="translate(88.772 108.409)" fill="none" stroke="#263238" stroke-miterlimit="10" stroke-width="1"/><path d="M476.193,4504.515s4.42-4.9,9.078-6.868,10.779-.978,10.779-.978l4.15,15.691s3.434,1.232,3.927,2.7c.346,1.047-.177,5.459-.5,7.907a1.918,1.918,0,0,1-1.9,1.655H491.646s-2.695.493-2.695-1.963V4518.5a7.5,7.5,0,0,1-1.963-2.456,9.116,9.116,0,0,1-.246-1.963Z" transform="translate(-454.498 -4408.371)" fill="#d9a171" stroke="#263238" stroke-miterlimit="10" stroke-width="1"/><line y1="8.339" x2="0.731" transform="translate(46.471 107.67)" fill="none" stroke="#263238" stroke-miterlimit="10" stroke-width="1"/><line y1="8.092" transform="translate(43.037 108.162)" fill="none" stroke="#263238" stroke-miterlimit="10" stroke-width="1"/><line y1="7.353" transform="translate(39.111 108.409)" fill="none" stroke="#263238" stroke-miterlimit="10" stroke-width="1"/><path d="M523.622,4435.777s2.425,2.133,3.657,2.133H528.5s.978,1.963,2.448,1.963,2.21-1.963,2.21-1.963a6.934,6.934,0,0,0,3.434-.493c1.471-.731,2.456-3.434,2.456-3.434l-16.169.247Z" transform="translate(-465.24 -4394.007)" fill="#fff" stroke="#263238" stroke-miterlimit="10" stroke-width="1"/><path d="M542.771,4402.544c0,10.086-6.013,18.271-15.4,18.271s-15.4-8.185-15.4-18.271,6.013-20.481,15.4-20.481S542.771,4392.45,542.771,4402.544Z" transform="translate(-462.73 -4382.063)" fill="#ffd947" stroke="#263238" stroke-linecap="round" stroke-linejoin="round" stroke-width="1"/><path d="M515.843,4423.153s12.265,4.42,24.777,0l-.808,5.921a4.991,4.991,0,0,1-4.928,4.212H522a4.99,4.99,0,0,1-4.858-3.85Z" transform="translate(-463.62 -4391.516)" fill="#ffd947" stroke="#263238" stroke-linecap="round" stroke-linejoin="round" stroke-width="1"/><path d="M521.9,4421.348v-3.511a4.312,4.312,0,0,1,2.31-3.85l5.759-2.964,4.52,3.126a4.322,4.322,0,0,1,1.856,3.542v3.634" transform="translate(-465.014 -4388.725)" fill="none" stroke="#263238" stroke-miterlimit="10" stroke-width="1"/><rect width="3.188" height="22.321" rx="1.594" transform="translate(63.018 5.397)" fill="#d9a171" stroke="#263238" stroke-miterlimit="10" stroke-width="1"/></g><g transform="translate(413.373 4608.242)"><line x2="361.46" fill="none" stroke="#263238" stroke-miterlimit="10" stroke-width="1"/></g></g></svg>