<svg xmlns="http://www.w3.org/2000/svg" width="891.52" height="367.821" viewBox="0 0 891.52 367.821"><g transform="translate(241.772 -4267.112)"><g transform="translate(-241.772 4269.494)"><path d="M453.722,4632.262s54.62-2.283,107.146-30.465c45.721-24.575,71.085-61.263,73.725-101.177,1.753-26.351-7.282-52.043-18.206-77.062-14.031-32.185-23.089-68.85-52.344-96.357-45.619-42.808-133.41-52.9-207.555-53.2-52.826-.218-272.6-11.487-409.967,4.74-67.423,7.965-84.547,41.908-89.376,53.13-5.427,12.613-8.079,26.161-17.353,37.822-11.106,13.968-31.27,22.125-46.574,33.5-18.9,14.047-26.525,31.551-31.236,50.069-15.317,60.169,17.432,111.206,76.536,148.536S428.574,4638.358,453.722,4632.262Z" transform="translate(241.772 -4269.987)" fill="#dfedfa"/></g><g transform="translate(-19.992 4267.611)"><path d="M186.859,4295.1c-6.678-2.5-9.725-.416-12.154-2.5s6.689-7.494-11.515-12.909c0,0-1.214-11.654-26.171-12.07s-18.225,11.654-24.914,14.566-8.5-1.664-15.19,1.255-3.632,8.742-9.086,9.575-12.761-3.751-19.44-.833-6.731,5.408-9.746,5.408-9.117-1.664-12.761,0-7.893,3.75-7.893,3.75H191.727S193.559,4297.593,186.859,4295.1Z" transform="translate(-37.991 -4267.611)" fill="none" stroke="#263238" stroke-linecap="round" stroke-linejoin="round" stroke-width="1"/><path d="M110.356,4300.121a25.671,25.671,0,0,1-2.722.882" transform="translate(-52.425 -4274.349)" fill="none" stroke="#263238" stroke-linecap="round" stroke-linejoin="round" stroke-width="1"/><path d="M144.805,4275.594c-3.058.938-5.269,2.829-5.935,5.078-1.11,3.815-3.706,6.354-6.669,6.6s-14.09-.5-15.954,2.288a8.775,8.775,0,0,0-1.046,2.554" transform="translate(-53.993 -4269.266)" fill="none" stroke="#263238" stroke-linecap="round" stroke-linejoin="round" stroke-width="1"/><path d="M154.848,4348.978c-2.607-.975-3.789-.165-4.742-.975s2.607-2.934-4.511-5.021c0,0-.471-4.554-10.207-4.719s-7.129,4.554-9.736,5.694-3.329-.652-5.935.488-1.424,3.415-3.559,3.737-4.993-1.435-7.6-.322-2.617,2.151-3.8,2.151-3.559-.653-4.983,0-3.14,1.434-3.14,1.434H156.7S157.465,4349.954,154.848,4348.978Z" transform="translate(-50.146 -4282.253)" fill="none" stroke="#263238" stroke-linecap="round" stroke-linejoin="round" stroke-width="1"/><path d="M124.976,4350.975a10.77,10.77,0,0,1-1.047.337" transform="translate(-55.802 -4284.889)" fill="none" stroke="#263238" stroke-linecap="round" stroke-linejoin="round" stroke-width="1"/><path d="M138.442,4341.349a3.283,3.283,0,0,0-2.324,1.987,3.242,3.242,0,0,1-2.607,2.582c-1.162.1-5.506-.2-6.229.89a3.323,3.323,0,0,0-.408,1" transform="translate(-56.413 -4282.894)" fill="none" stroke="#263238" stroke-linecap="round" stroke-linejoin="round" stroke-width="1"/><path d="M717.269,4340.506c-4.9-1.827-7.118-.3-8.9-1.827s4.9-5.481-8.451-9.4c0,0-.882-8.53-19.119-8.826s-13.334,8.531-18.236,10.654-6.217-1.209-11.118.914-2.667,6.408-6.668,7.013-9.334-2.687-14.236-.6-4.883,3.95-7.118,3.95-6.667-1.209-9.334,0-5.785,2.66-5.785,2.66H720.818S722.151,4342.347,717.269,4340.506Z" transform="translate(-156.193 -4278.561)" fill="none" stroke="#263238" stroke-linecap="round" stroke-linejoin="round" stroke-width="1"/><path d="M661.292,4344.176a17.1,17.1,0,0,1-1.96.645" transform="translate(-166.77 -4283.479)" fill="none" stroke="#263238" stroke-linecap="round" stroke-linejoin="round" stroke-width="1"/><path d="M686.5,4326.229c-2.242.684-3.857,2.072-4.334,3.721-.824,2.781-2.725,4.649-4.9,4.823s-10.314-.362-11.667,1.68a5.91,5.91,0,0,0-.745,1.867" transform="translate(-167.913 -4279.76)" fill="none" stroke="#263238" stroke-linecap="round" stroke-linejoin="round" stroke-width="1"/></g><g transform="translate(285.666 4380.118)"><path d="M746.7,4468.4c-16.489-10.171-58.806-38.844-71.608-37.616-11.717,1.134-44.322,25.613-56.966,37.616Z" transform="translate(-463.887 -4413.929)" fill="#7e8193"/><path d="M609.532,4464c-23.846-14.706-85.053-56.206-103.572-54.414-16.949,1.641-64.109,37.053-82.4,54.414Z" transform="translate(-423.563 -4409.532)" fill="#5e6178"/></g><g transform="translate(-213.643 4327.183)"><path d="M82.216,4561.293c-5.322,0-11.66-1.56-14.937-8.1-6.353-12.7,5.437-26.1,16.983-37.643s13.95-23.006,13.978-23.107l1.688.329c-.086.473-2.432,11.99-14.436,23.994-11.132,11.131-22.506,23.965-16.668,35.64,5.58,11.16,21.6,5.98,21.762,5.924l.544,1.645A31.966,31.966,0,0,1,82.216,4561.293Z" transform="translate(149.959 -4373.782)" fill="#344154"/><rect width="38.93" height="44.553" transform="translate(227.31 154.646)" fill="#d9a171" stroke="#263238" stroke-miterlimit="10" stroke-width="1"/><rect width="4.364" height="111.855" transform="translate(244.365 70.568) rotate(-8.61)" fill="#344154" stroke="#263238" stroke-miterlimit="10" stroke-width="1"/><rect width="9.743" height="65.843" transform="translate(248.602 116.467) rotate(-8.61)" fill="#d9a171" stroke="#263238" stroke-miterlimit="10" stroke-width="1"/><rect width="4.364" height="111.855" transform="matrix(0.485, -0.875, 0.875, 0.485, 160.972, 5.942)" fill="#344154" stroke="#263238" stroke-miterlimit="10" stroke-width="1"/><rect width="9.743" height="65.843" transform="matrix(0.485, -0.875, 0.875, 0.485, 199.904, 30.6)" fill="#d9a171" stroke="#263238" stroke-miterlimit="10" stroke-width="1"/><path d="M125.237,4514.289l-2.718-9.514a8.342,8.342,0,0,0-.114-1l-19.459-91.31a12.66,12.66,0,0,0-8.084-9.271l-110.625-40.062L-18.8,4381.3l93,40.948a12.647,12.647,0,0,1,6.967,7.783l24.566,78.076a8.655,8.655,0,0,0,9.442,5.98l-.071.143Z" transform="translate(167.429 -4346.98)" fill="#d9a171" stroke="#263238" stroke-miterlimit="10" stroke-width="1"/><path d="M94.158,4430.071l24.565,78.075a8.656,8.656,0,0,0,10.852,5.665c.113-.036.225-.073.337-.113h0a8.585,8.585,0,0,0,5.508-10.015l-19.458-91.31a12.65,12.65,0,0,0-8.069-9.272l-110.64-40.061-3.019,18.17,93,40.948A12.652,12.652,0,0,1,94.158,4430.071Z" transform="translate(164.728 -4346.962)" fill="#d9a171" stroke="#263238" stroke-miterlimit="10" stroke-width="1"/><rect width="77.446" height="41.534" transform="translate(245.924 178.439)" fill="#d9a171" stroke="#263238" stroke-miterlimit="10" stroke-width="1"/><path d="M284.738,4611.485l-62.252-18.6a29.647,29.647,0,0,0-8.7-1.56l-3.977-.257H192.069v.3a29.586,29.586,0,0,0-3.734,0V4575.5H181.41v17.169l-62.867,20.345a9,9,0,0,0-6.238,8.584v1.731a9.014,9.014,0,0,0,9,9.014H281.691a10.63,10.63,0,0,0,3.047-20.8Z" transform="translate(140.257 -4390.997)" fill="#344154" stroke="#263238" stroke-miterlimit="10" stroke-width="1"/><path d="M227.153,4557.814v-82.468a2.776,2.776,0,0,0-2.761-2.791H170.911a19.717,19.717,0,0,0-16.869,9.486h0a19.653,19.653,0,0,0-2.861,10.259v65.514Z" transform="translate(132.2 -4369.66)" fill="#344154" stroke="#263238" stroke-miterlimit="10" stroke-width="1"/><path d="M151.163,4526.957H187.6v31.5h3.09v-31.5h30.89v-3.09h-30.89v-48.187H187.6v48.188H151.163Z" transform="translate(132.204 -4370.307)" fill="#d9a171" stroke="#263238" stroke-miterlimit="10" stroke-width="1"/><path d="M226.2,4472.556H172.665a19.707,19.707,0,0,0-13.02,4.95H221.5v80.308h7.411v-82.468A2.777,2.777,0,0,0,226.2,4472.556Z" transform="translate(130.446 -4369.66)" fill="#d9a171" stroke="#263238" stroke-miterlimit="10" stroke-width="1"/><path d="M279.76,4569.283v-41.391H236.509l-40.19,41.391Z" transform="translate(122.845 -4381.129)" fill="#d9a171" stroke="#263238" stroke-miterlimit="10" stroke-width="1"/><path d="M287.2,4538.811H249.514l-17.3,19.144H287.2Z" transform="translate(115.405 -4383.392)" fill="#344154" stroke="#263238" stroke-miterlimit="10" stroke-width="1"/><path d="M212.575,4615.556l-62.252-18.6a29.672,29.672,0,0,0-8.7-1.56l-3.977-.257h-17.77l-.343,5.608-50.677,16.339a9,9,0,0,0-6.238,8.584v1.731a9.013,9.013,0,0,0,9.013,9.014H209.527a10.63,10.63,0,0,0,3.048-20.8Z" transform="translate(150.555 -4395.066)" fill="#545454" stroke="#263238" stroke-miterlimit="10" stroke-width="1"/><path d="M103.42,4596.782,40.467,4617.1a9,9,0,0,0-6.238,8.584v1.731a9.013,9.013,0,0,0,9,9.013H181.138a10.63,10.63,0,0,0,10.631-10.629h0a10.617,10.617,0,0,0-7.583-10.173l-62.252-18.6A29.356,29.356,0,0,0,103.42,4596.782Z" transform="translate(156.439 -4395.121)" fill="#8a8a8a" stroke="#263238" stroke-miterlimit="10" stroke-width="1"/><path d="M44.619,4632.583a3.834,3.834,0,0,1-3.82-3.82v-1.675a3.821,3.821,0,0,1,2.647-3.634l62.952-20.3a23.758,23.758,0,0,1,7.411-1.173,24.1,24.1,0,0,1,7.854,1.316l62.452,18.7a5.437,5.437,0,0,1-1.559,10.645Z" transform="translate(155.078 -4396.484)" fill="#344154" stroke="#263238" stroke-miterlimit="10" stroke-width="1"/><path d="M-22.019,4368.166l-.859-18a7.784,7.784,0,0,0-8.149-7.4,7.78,7.78,0,0,0-2.037.375l-23.578,7.654a18.784,18.784,0,0,0-11.246,10.015l-33.351,72.969,11.689,12.547,62.266-64.254A18.772,18.772,0,0,0-22.019,4368.166Z" transform="translate(184.516 -4342.758)" fill="#d9a171" stroke="#263238" stroke-miterlimit="10" stroke-width="1"/><path d="M-13.876,4368.166l-.858-18a7.784,7.784,0,0,0-8.149-7.4,7.786,7.786,0,0,0-2.038.375l-23.564,7.7a18.7,18.7,0,0,0-11.246,10.015l-33.351,72.968,11.675,12.548,62.266-64.255A18.711,18.711,0,0,0-13.876,4368.166Z" transform="translate(182.826 -4342.758)" fill="#d9a171" stroke="#263238" stroke-miterlimit="10" stroke-width="1"/><path d="M-142.942,4431.928h-32.907a27.474,27.474,0,0,0-17.168,3.892c-29.86,17.313,0,62.738,0,62.738h40.232l12.976-36.77Z" transform="translate(206.289 -4361.209)" fill="#545454" stroke="#263238" stroke-miterlimit="10" stroke-width="1"/><path d="M-89.184,4461.775l-53.21,36.77s-29.859-45.426,0-62.738S-89.184,4461.775-89.184,4461.775Z" transform="translate(195.797 -4361.197)" fill="#344154" stroke="#263238" stroke-miterlimit="10" stroke-width="1"/><path d="M-189.675,4516.016v15.566h3.348v-7.439h2.575v7.439h4.464v-7.439h2.59v7.439h4.45v-7.439h2.59v7.439h4.45v-7.439h2.59v7.439h4.45v-7.439h2.59v7.439h6.138v-15.566Z" transform="translate(202.845 -4378.667)" fill="#8a8a8a" stroke="#263238" stroke-miterlimit="10" stroke-width="1"/></g><g transform="translate(277.588 4434.587)"><line x2="372.16" fill="none" stroke="#263238" stroke-miterlimit="10" stroke-width="1"/></g><g transform="translate(420.155 4451.449)"><rect width="96.809" height="4.519" transform="translate(69.039 42.38)" fill="#fff" stroke="#263238" stroke-linejoin="round" stroke-width="1"/><path d="M692.293,4558.943l8.054,32.923c2.664,12.183,13.009,18.07,29.046,18.07s26.953-7.337,29.054-18.07l8.054-32.923Z" transform="translate(-613.749 -4511.83)" fill="#fff" stroke="#263238" stroke-linejoin="round" stroke-width="1"/><path d="M695.63,4565.055c7.436,4.09,19.819,6.77,33.763,6.77s26.335-2.68,33.771-6.77l3.337-6.112H692.293Z" transform="translate(-613.749 -4511.83)" fill="#344154" stroke="#263238" stroke-linejoin="round" stroke-width="1"/><ellipse cx="41.175" cy="15.815" rx="41.175" ry="15.815" transform="translate(74.47 26.454)" fill="#d9a171" stroke="#263238" stroke-linejoin="round" stroke-width="1"/><path d="M762.872,4531.97l-9.973-22.2H705.224l-9.965,22.2c-1.157,2.592-2.584,5.05-3.892,7.571a5.676,5.676,0,0,0-.674,2.648c0,7.792,17.179,14.119,38.369,14.119s38.377-6.342,38.377-14.119a5.7,5.7,0,0,0-.674-2.648C765.456,4537.051,764.029,4534.594,762.872,4531.97Z" transform="translate(-613.417 -4501.639)" fill="#fff" stroke="#263238" stroke-linejoin="round" stroke-width="1"/><line x2="1.514" y2="3.147" transform="translate(149.17 36.744)" fill="none" stroke="#263238" stroke-linecap="round" stroke-linejoin="round" stroke-width="1"/><line x2="8.728" y2="18.13" transform="translate(137.968 13.485)" fill="none" stroke="#263238" stroke-linecap="round" stroke-linejoin="round" stroke-width="1"/><ellipse cx="23.838" cy="8.094" rx="23.838" ry="8.094" transform="translate(91.807 0)" fill="#344154" stroke="#263238" stroke-linejoin="round" stroke-width="1"/><rect width="9.996" height="2.687" transform="translate(42.99 50.284)" fill="#fff" stroke="#263238" stroke-linejoin="round" stroke-width="1"/><path d="M663.733,4595.734l-1.689-2.664,12.723-13.92-14.975-13.7,1.506-2.838,16.394,14.991a1.9,1.9,0,0,1,.563,1.348,1.976,1.976,0,0,1-.468,1.4Z" transform="translate(-607.013 -4512.591)" fill="#fff" stroke="#263238" stroke-linejoin="round" stroke-width="1"/><path d="M666.182,4552.273c-6.064,0-10.979,10.306-10.979,23.069s4.915,23.069,10.979,23.069,10.979-10.306,10.979-23.069S672.247,4552.273,666.182,4552.273Zm.587,41.833c-4.614,0-8.348-8.4-8.348-18.764s3.734-18.756,8.348-18.756,8.387,8.4,8.387,18.756-3.781,18.764-8.387,18.764Z" transform="translate(-606.061 -4510.448)" fill="#fff" stroke="#263238" stroke-linejoin="round" stroke-width="1"/><path d="M755.3,4623.777H701.866l-19.993-19.6,1.538,39.978,18.185-16.529H755.3Z" transform="translate(-611.589 -4521.205)" fill="#fff" stroke="#263238" stroke-linejoin="round" stroke-width="1"/><path d="M811.221,4635.3H766.043l12.3-32.59h45.178Z" transform="translate(-629.034 -4520.902)" fill="#fff" stroke="#263238" stroke-linejoin="round" stroke-width="1"/><rect width="45.178" height="67.121" transform="translate(163.922 28.824)" fill="#fff" stroke="#263238" stroke-linejoin="round" stroke-width="1"/><rect width="75.358" height="3.076" transform="translate(0 162.887) rotate(-27.43)" fill="#fff" stroke="#263238" stroke-linejoin="round" stroke-width="1"/><rect width="6.532" height="139.174" transform="translate(66.439 26.446)" fill="#fff" stroke="#263238" stroke-linejoin="round" stroke-width="1"/><circle cx="32.106" cy="32.106" r="32.106" transform="translate(131.801 101.415)" fill="#344154" stroke="#263238" stroke-linejoin="round" stroke-width="1"/><circle cx="23.647" cy="23.647" r="23.647" transform="translate(140.259 109.874)" fill="#d9a171" stroke="#263238" stroke-miterlimit="10" stroke-width="1"/></g><g transform="translate(211.239 4358.342)"><path d="M339.776,4690.732l-2.584,4.32s-4.994.792-6.342,2.5-1.11,6.659-1.11,6.659h34.1a7.008,7.008,0,0,0,0-3.607l-.793-2.5s1.387-5.549,1.11-8.6H340.8Z" transform="translate(-329.687 -4445.783)" fill="#d9a171" stroke="#263238" stroke-miterlimit="10" stroke-width="1"/><path d="M329.691,4707.183h34.135a7.325,7.325,0,0,0,.071-3.33H329.809A24.326,24.326,0,0,0,329.691,4707.183Z" transform="translate(-329.677 -4448.757)" fill="#fff" stroke="#263238" stroke-miterlimit="10" stroke-width="1"/><path d="M352.726,4692.918h-7.5a.833.833,0,0,1,0-1.665h7.5a.833.833,0,0,1,0,1.665Z" transform="translate(-332.728 -4446.146)" fill="#344154"/><path d="M351.324,4695.338h-7.507a.833.833,0,0,1,0-1.665h7.5a.833.833,0,0,1,0,1.665h.008Z" transform="translate(-332.435 -4446.647)" fill="#344154"/><path d="M349.918,4697.818h-7.491a.833.833,0,0,1,0-1.665h7.491a.833.833,0,0,1,0,1.665Z" transform="translate(-332.147 -4447.161)" fill="#344154"/><line y1="6.659" x2="2.497" transform="translate(25.825 251.766)" fill="none" stroke="#263238" stroke-miterlimit="10" stroke-width="1"/><path d="M478,4690.732l2.584,4.32s4.994.792,6.342,2.5,1.11,6.659,1.11,6.659h-34.08a7.008,7.008,0,0,1,0-3.607l.832-2.5s-1.387-5.549-1.11-8.6h23.267Z" transform="translate(-355.369 -4445.783)" fill="#d9a171" stroke="#263238" stroke-miterlimit="10" stroke-width="1"/><path d="M488.062,4707.183H453.974a7.325,7.325,0,0,1-.071-3.33h34.088A24.3,24.3,0,0,1,488.062,4707.183Z" transform="translate(-355.392 -4448.757)" fill="#fff" stroke="#263238" stroke-miterlimit="10" stroke-width="1"/><path d="M471.646,4692.918h7.5a.833.833,0,0,0,0-1.665h-7.5a.833.833,0,0,0,0,1.665Z" transform="translate(-358.929 -4446.146)" fill="#344154"/><path d="M473.046,4695.338h7.5a.833.833,0,0,0,0-1.665h-7.5a.833.833,0,0,0,0,1.665Z" transform="translate(-359.22 -4446.647)" fill="#344154"/><path d="M474.446,4697.818h7.5a.833.833,0,0,0,0-1.665h-7.5a.833.833,0,0,0,0,1.665Z" transform="translate(-359.51 -4447.161)" fill="#344154"/><line x1="2.497" y1="6.659" transform="translate(104.393 251.766)" fill="none" stroke="#263238" stroke-miterlimit="10" stroke-width="1"/><path d="M453.689,4644.81c0-.753-3.789-2.014-3.789-2.014s-1.514-18.692-1.768-24.242-7.824-17.932-9.339-23.235-5.811-39.391-7.832-51.013-7.071-28.539-7.071-28.539l.254-1.514H373.218l.254,1.514s-5.05,16.917-7.071,28.539-6.342,45.709-7.832,51.013-9.085,17.646-9.315,23.235-1.768,24.242-1.768,24.242-3.781,1.261-3.781,2.014-1.26,9.6-1.26,9.6h24.25s2.267-6.064,2.014-8.839-1.76-3.536-1.007-6.563,8.332-28.285,10.607-36.871a148.153,148.153,0,0,1,4.542-14.4l15.855-52.8,15.855,52.8a147.935,147.935,0,0,1,4.542,14.4c2.275,8.585,9.846,33.842,10.607,36.871s-.793,3.789-1.015,6.563,2.021,8.839,2.021,8.839h24.242S453.689,4645.57,453.689,4644.81Z" transform="translate(-332.323 -4409.46)" fill="#344154" stroke="#263238" stroke-miterlimit="10" stroke-width="1"/><path d="M371.957,4429.523s-8.585.508-10.861,3.028-25.479,33.335-24.718,36.617a1.415,1.415,0,0,0,.1.285,4.621,4.621,0,0,0,.143,2.244c1.268,3.789,20.429,17.931,20.429,17.931l11.622-4.55L355.651,4468.3c6.936-5.414,16.053-13.024,16.053-13.024Z" transform="translate(-331.063 -4391.899)" fill="#aed3f2"/><path d="M376.929,4499.354l-.745-.952v1.245Z" transform="translate(-339.316 -4406.175)" fill="#d9a171"/><path d="M370.192,4434.71h-.634v-4.931c-.484.056-1.023.135-1.585.23v4.7h-4.408V4431.1c-.277.1-.547.214-.793.325v3.282h-1.364v-2.441c-.111.095-.214.2-.309.293-.349.389-1.181,1.435-2.378,2.941h.27v5.874h-.634v-5.406l-1.585,2.077v3.329h-2.434l-.587.793h3.092v5.882h-4.408v-4.146l-.793,1.086v3.06h-1.356v-1.2q-1.189,1.641-2.378,3.314v4.558h-.634v-3.67c-.539.753-1.062,1.506-1.585,2.251v1.419H344.7l-.547.792h1.538v5.922h-4.376v-1.649l-.793,1.221v.428h-.27c-.174.27-.341.531-.5.793h.793v5.882h-1.379v-4.923a36.123,36.123,0,0,0-2.378,4.376v.547h-.214a3.681,3.681,0,0,0-.2.793h.412v3.171a16.407,16.407,0,0,0,2.981,3.5h.793v.713l.793.729v-1.442h4.376v5.208l1.784,1.467h.436v.349c.793.65,1.585,1.284,2.378,1.887v-2.235h1.316v3.3l.793.618v-3.916h4.376v6H358.4v-6h.634v6h1.649l.721-.286v-5.715h1.364v5.185l.793-.31v-4.875h2.878l-.61-.793h-2.259v-2.925l-.793-1.014v3.963h-1.364v-5.771l-2.378-3.068v2.085H358.4v-2.9l-1.585-2.037v4.938h-4.376v-5.882h3.647l-.428-.555.3-.238h-3.52v-5.818h4.376v5.208c.523-.4,1.054-.793,1.585-1.252v-3.963h.634v3.448l2.378-1.9v-1.585h1.364v.444l1.514-1.189h-.721v-5.882h4.368v2.893c.587-.476,1.118-.919,1.586-1.308v-1.585h.634v1.062l1.585-1.292.254-25.756s-.729.047-1.807.167Zm-29.672,40.042h-1.356v-5.882h1.356Zm5.169,0h-4.376v-5.882h4.376Zm0-6.675h-4.376v-5.842h4.376Zm2.22,13.35h-.634v-5.882h.634Zm0-6.675h-.634v-5.882h.634Zm0-6.675h-.634v-5.842h.634Zm0-6.675h-.634v-5.882h.634Zm3.734,20.024h-1.356v-5.882h1.356Zm0-6.675h-1.356v-5.882h1.356Zm0-6.675h-1.356v-5.842h1.356Zm0-6.675h-1.356v-5.882h1.356Zm0-6.675h-1.356v-5.882h1.356Zm6.754,20.817h.634v5.882H358.4Zm-1.585,0v5.882h-4.376v-5.882Zm0-14.142h-4.376v-5.882h4.376Zm0-6.675h-4.376v-5.882h4.376Zm2.22,6.675H358.4v-5.882h.634Zm0-6.675H358.4v-5.882h.634Zm0-6.675H358.4v-5.882h.634Zm3.742,13.39h-1.364v-5.882h1.364Zm0-6.675h-1.364v-5.882h1.364Zm0-6.675h-1.364v-5.882h1.364Zm0-6.675h-1.364v-5.875h1.364Zm5.161,13.35h-4.368v-5.882h4.368Zm0-6.675h-4.368v-5.882h4.368Zm0-6.675h-4.368v-5.875h4.368Zm2.22,13.35h-.634v-5.882h.634Zm0-6.675h-.634v-5.882h.634Zm0-6.675h-.634v-5.875h.634Z" transform="translate(-331.065 -4391.91)" fill="#6595bf"/><path d="M336.514,4478.471c.484-2.941,3.322-5.438,3.322-5.438" transform="translate(-331.094 -4400.917)" fill="none" stroke="#263238" stroke-miterlimit="10" stroke-width="1"/><line x1="2.862" y1="3.678" transform="translate(21.726 72.726)" fill="none" stroke="#263238" stroke-miterlimit="10" stroke-width="1"/><path d="M336.494,4479.593a4.619,4.619,0,0,0,.143,2.243c1.268,3.789,20.429,17.932,20.429,17.932l11.622-4.55-13.025-16.775" transform="translate(-331.074 -4402.039)" fill="none" stroke="#263238" stroke-miterlimit="10" stroke-width="1"/><path d="M355.651,4468.3c6.936-5.414,16.053-13.024,16.053-13.024l.254-25.756s-8.585.508-10.861,3.028-25.479,33.335-24.718,36.617a1.415,1.415,0,0,0,.1.285" transform="translate(-331.063 -4391.899)" fill="none" stroke="#263238" stroke-miterlimit="10" stroke-width="1"/><path d="M446.924,4429.523s8.585.508,10.861,3.028,25.479,33.335,24.718,36.617a1.418,1.418,0,0,1-.1.285,4.621,4.621,0,0,1-.143,2.244c-1.268,3.789-20.437,17.931-20.437,17.931l-11.637-4.55,13.025-16.775c-6.937-5.414-16.053-13.024-16.053-13.024Z" transform="translate(-353.978 -4391.899)" fill="#aed3f2"/><path d="M451.064,4499.354l.745-.952v1.245Z" transform="translate(-354.836 -4406.175)" fill="#d9a171"/><path d="M448.729,4434.71h.634v-4.931c.484.056,1.023.135,1.585.23v4.7h4.368V4431.1c.277.1.547.214.793.325v3.282h1.363v-2.441c.111.095.214.2.309.293.341.389,1.181,1.435,2.339,2.941h-.27v5.874h.634v-5.406l1.585,2.077v3.329h2.505l.587.793h-3.092v5.882h4.376v-4.146l.793,1.086v3.06H468.6v-1.2q1.189,1.641,2.378,3.314v4.558h.634v-3.67l1.585,2.251v1.419h.983c.19.269.373.531.547.792H473.17v5.922h4.376v-1.649l.793,1.221v.428h.27c.174.27.341.531.5.793h-.793v5.882h1.356v-4.923a36.131,36.131,0,0,1,2.378,4.376v.547h.214a3.681,3.681,0,0,1,.2.793h-.412v3.171a16.407,16.407,0,0,1-2.981,3.5h-.753v.713l-.793.729v-1.442H473.17v5.208l-1.784,1.467h-.436v.349c-.793.65-1.585,1.284-2.378,1.887v-2.235h-1.356v3.3l-.793.618v-3.916h-4.352v6h-1.585v-6h-.634v6h-1.657l-.721-.286v-5.715H456.11v5.185l-.793-.31v-4.875h-2.878l.61-.793h2.267v-2.925l.793-1.014v3.963h1.363v-5.771l2.378-3.068v2.085h.634v-2.9l1.585-2.037v4.938h4.376v-5.882H462.8l.428-.555-.3-.238h3.52v-5.818h-4.376v5.208c-.523-.4-1.054-.793-1.585-1.252v-3.963h-.634v3.448l-2.378-1.9v-1.585H456.11v.444l-1.514-1.189h.721v-5.882h-4.344v2.893c-.587-.476-1.118-.919-1.585-1.308v-1.585h-.634v1.062l-1.585-1.292-.254-25.756s.721.047,1.807.167Zm29.633,40.042h1.356v-5.882h-1.356Zm-5.169,0h4.376v-5.882h-4.4Zm0-6.675h4.376v-5.842h-4.4Zm-2.22,13.35h.634v-5.882h-.634Zm0-6.675h.634v-5.882h-.634Zm0-6.675h.634v-5.842h-.634Zm0-6.675h.634v-5.882h-.634Zm-3.734,20.024H468.6v-5.882H467.24Zm0-6.675H468.6v-5.882H467.24Zm0-6.675H468.6v-5.842H467.24Zm0-6.675H468.6v-5.882H467.24Zm0-6.675H468.6v-5.882H467.24Zm-6.754,20.817h-.634v5.882h.634Zm1.585,0v5.882h4.376v-5.882Zm0-14.1h4.376v-5.882h-4.376Zm0-6.675h4.376v-5.882h-4.376Zm-2.22,6.675h.634v-5.882h-.634Zm0-6.675h.634v-5.882h-.634Zm0-6.675h.634v-5.882h-.634Zm-3.742,13.35h1.363v-5.882H456.11Zm0-6.675h1.363v-5.882H456.11Zm0-6.675h1.363v-5.882H456.11Zm0-6.675h1.363v-5.875H456.11Zm-5.137,13.31h4.368v-5.882h-4.368Zm0-6.675h4.368v-5.882h-4.368Zm0-6.675h4.368V4435.5h-4.368Zm-2.22,13.35h.634v-5.882h-.634Zm0-6.675h.634v-5.882h-.634Zm0-6.675h.634V4435.5h-.634Z" transform="translate(-353.976 -4391.91)" fill="#6595bf"/><path d="M490.806,4478.471c-.484-2.941-3.322-5.438-3.322-5.438" transform="translate(-362.384 -4400.917)" fill="none" stroke="#263238" stroke-miterlimit="10" stroke-width="1"/><line y1="3.678" x2="2.862" transform="translate(109.253 72.726)" fill="none" stroke="#263238" stroke-miterlimit="10" stroke-width="1"/><path d="M483.251,4479.593a4.619,4.619,0,0,1-.143,2.243c-1.268,3.789-20.437,17.932-20.437,17.932l-11.637-4.55,13.025-16.775" transform="translate(-354.83 -4402.039)" fill="none" stroke="#263238" stroke-miterlimit="10" stroke-width="1"/><path d="M463.231,4468.3c-6.936-5.414-16.053-13.024-16.053-13.024l-.254-25.756s8.585.508,10.861,3.028,25.479,33.335,24.718,36.617a1.418,1.418,0,0,1-.1.285" transform="translate(-353.978 -4391.899)" fill="none" stroke="#263238" stroke-miterlimit="10" stroke-width="1"/><path d="M396.525,4421.18l-17.171,5.811,1.768,69.19H432.38l2.275-70.958-21.214-5.51Z" transform="translate(-339.973 -4389.866)" fill="#d9a171" stroke="#263238" stroke-miterlimit="10" stroke-width="1"/><path d="M380.594,4477.623l.238,9.347h52.487l.3-9.347Z" transform="translate(-340.23 -4401.869)" fill="#fff" stroke="#263238" stroke-miterlimit="10" stroke-width="1"/><path d="M432.906,4507.68l.293-9.347H381.124l.238,9.347Z" transform="translate(-340.34 -4406.161)" fill="#fff" stroke="#263238" stroke-miterlimit="10" stroke-width="1"/><path d="M402.6,4432.58l10.1,27.524,8.839-28.031Z" transform="translate(-344.792 -4392.428)" fill="#aed3f2"/><path d="M419.658,4436.083v3.853l1.585-5.025V4432.1h-1.585v3.171h-4.376v-3.028h-.793v3h-1.363v-2.933l-2.378.063v2.909h-.634V4432.4l-1.585.048v2.846h-2.5c-.2.262-.4.523-.587.792h3.084v5.882h-1.895l.293.792h1.585v4.376l1.585,4.321v-2.022h.634v3.75l1.807,4.923.571-.459v-1.539h1.364v.214l.793-2.513v-4.376h1.379l.254-.792h-1.633v-5.882h3.488l.246-.792h-3.734v-5.882Zm-8.91,12.557h-.634v-5.882h.634Zm0-6.675h-.634v-5.882h.634Zm3.742,13.35h-1.363v-5.882h1.363Zm0-6.675h-1.363v-5.882h1.363Zm0-6.675h-1.363v-5.882h1.363Z" transform="translate(-345.381 -4392.434)" fill="#6595bf"/><path d="M426.174,4432.9l.254-.825-.254.008Z" transform="translate(-349.677 -4392.428)" fill="#d9a171"/><path d="M402.6,4432.58l10.1,27.524,8.839-28.031Z" transform="translate(-344.792 -4392.428)" fill="none" stroke="#263238" stroke-miterlimit="10" stroke-width="1"/><rect width="67.93" height="4.043" rx="2.021" transform="translate(31.548 113.132)" fill="#b0b0b0" stroke="#263238" stroke-miterlimit="10" stroke-width="1"/><rect width="2.497" height="30.83" transform="translate(64.772 227.897)" fill="#344154" stroke="#263238" stroke-miterlimit="10" stroke-width="1"/><path d="M423.682,4527.309c0-6.833-6.5-8.585-14.523-8.585s-14.515,1.752-14.515,8.585a11.567,11.567,0,0,0,4.693,9.093,9.511,9.511,0,0,1,3.766,7.436V4640.5h12.208V4543.79a9.512,9.512,0,0,1,3.726-7.412A11.582,11.582,0,0,0,423.682,4527.309Z" transform="translate(-343.142 -4410.387)" fill="#b0b0b0" stroke="#263238" stroke-miterlimit="10" stroke-width="1"/><rect width="22.728" height="22.91" rx="3.94" transform="translate(54.276 107.575)" fill="#d9a171" stroke="#263238" stroke-miterlimit="10" stroke-width="1"/><path d="M400.344,4604.083h20.088l-3.662,33.858H404.007Z" transform="translate(-344.324 -4428.079)" fill="#d9a171" stroke="#263238" stroke-miterlimit="10" stroke-width="1"/><path d="M460.032,4504.755s-4.542-5.05-9.339-7.071-11.1-1.007-11.1-1.007l-4.289,16.156s-3.536,1.269-4.043,2.783c-.357,1.078.174,5.621.515,8.141a1.974,1.974,0,0,0,1.958,1.7h10.409s2.775.507,2.775-2.021v-4.289a7.721,7.721,0,0,0,2.021-2.528,9.394,9.394,0,0,0,.254-2.021Z" transform="translate(-350.707 -4405.765)" fill="#d9a171" stroke="#263238" stroke-miterlimit="10" stroke-width="1"/><line x1="0.753" y1="8.585" transform="translate(83.069 110.857)" fill="none" stroke="#263238" stroke-miterlimit="10" stroke-width="1"/><line y1="8.332" transform="translate(87.357 111.364)" fill="none" stroke="#263238" stroke-miterlimit="10" stroke-width="1"/><line y1="7.571" transform="translate(91.4 111.618)" fill="none" stroke="#263238" stroke-miterlimit="10" stroke-width="1"/><path d="M357.854,4504.755s4.55-5.05,9.346-7.071,11.1-1.007,11.1-1.007l4.273,16.156s3.536,1.269,4.043,2.783c.357,1.078-.182,5.621-.515,8.141a1.974,1.974,0,0,1-1.958,1.7H373.764s-2.775.507-2.775-2.021v-4.289a7.721,7.721,0,0,1-2.021-2.528,9.394,9.394,0,0,1-.254-2.021Z" transform="translate(-335.517 -4405.765)" fill="#d9a171" stroke="#263238" stroke-miterlimit="10" stroke-width="1"/><line y1="8.585" x2="0.753" transform="translate(47.847 110.857)" fill="none" stroke="#263238" stroke-miterlimit="10" stroke-width="1"/><line y1="8.332" transform="translate(44.311 111.364)" fill="none" stroke="#263238" stroke-miterlimit="10" stroke-width="1"/><line y1="7.571" transform="translate(40.269 111.618)" fill="none" stroke="#263238" stroke-miterlimit="10" stroke-width="1"/><path d="M405.305,4435.83s2.5,2.2,3.766,2.2h1.26s1.007,2.021,2.521,2.021,2.275-2.021,2.275-2.021a7.133,7.133,0,0,0,3.536-.507c1.514-.753,2.529-3.536,2.529-3.536l-16.648.254Z" transform="translate(-345.194 -4392.824)" fill="#fff" stroke="#263238" stroke-miterlimit="10" stroke-width="1"/><path d="M425.344,4403.15c0,10.385-6.191,18.812-15.855,18.812s-15.855-8.427-15.855-18.812,6.191-21.087,15.855-21.087S425.344,4392.757,425.344,4403.15Z" transform="translate(-342.933 -4382.063)" fill="#ffd947" stroke="#263238" stroke-linecap="round" stroke-linejoin="round" stroke-width="1"/><path d="M397.5,4423.153s12.628,4.551,25.51,0l-.832,6.1a5.137,5.137,0,0,1-5.074,4.336H403.846a5.138,5.138,0,0,1-5-3.964Z" transform="translate(-343.735 -4390.579)" fill="#ffd947" stroke="#263238" stroke-linecap="round" stroke-linejoin="round" stroke-width="1"/><path d="M403.564,4421.654v-3.615a4.439,4.439,0,0,1,2.378-3.964l5.93-3.052,4.653,3.219a4.449,4.449,0,0,1,1.911,3.646v3.742" transform="translate(-344.991 -4388.065)" fill="none" stroke="#263238" stroke-miterlimit="10" stroke-width="1"/><rect width="3.282" height="22.982" rx="1.641" transform="translate(64.883 5.557)" fill="#d9a171" stroke="#263238" stroke-miterlimit="10" stroke-width="1"/></g><g transform="translate(-196.534 4617.076)"><line x2="846.282" fill="none" stroke="#263238" stroke-miterlimit="10" stroke-width="1"/></g></g></svg>