<svg xmlns="http://www.w3.org/2000/svg" width="562.49" height="406.947" viewBox="0 0 562.49 406.947"><g transform="translate(-5256.614 -2837.178)"><g transform="translate(5256.614 2837.178)"><g transform="translate(0 0)"><rect width="562.49" height="0.281" transform="translate(0 368.319)" fill="#aed3f2"/><rect width="21.116" height="0.281" transform="translate(505.825 378.241)" fill="#aed3f2"/><rect width="9.776" height="0.281" transform="translate(419.696 385.958)" fill="#aed3f2"/><rect width="21.78" height="0.281" transform="translate(314.949 382.077)" fill="#aed3f2"/><rect width="48.588" height="0.281" transform="translate(91.044 381.931)" fill="#aed3f2"/><rect width="7.121" height="0.281" transform="translate(73.911 381.931)" fill="#aed3f2"/><rect width="105.388" height="0.281" transform="translate(212.959 375.271)" fill="#aed3f2"/><path d="M5518.459,3159.413H5301.237a6.423,6.423,0,0,1-6.412-6.424V2847.636a6.424,6.424,0,0,1,6.412-6.368h217.222a6.425,6.425,0,0,1,6.424,6.424h0v305.3A6.424,6.424,0,0,1,5518.459,3159.413Zm-217.222-317.919a6.142,6.142,0,0,0-6.13,6.142v305.353a6.14,6.14,0,0,0,6.13,6.142h217.222a6.154,6.154,0,0,0,6.143-6.142V2847.636a6.155,6.155,0,0,0-6.143-6.142Z" transform="translate(-5251.838 -2841.268)" fill="#aed3f2"/><path d="M5734.772,3159.413H5517.538a6.433,6.433,0,0,1-6.423-6.424V2847.636a6.435,6.435,0,0,1,6.423-6.368h217.234a6.425,6.425,0,0,1,6.4,6.368v305.353A6.424,6.424,0,0,1,5734.772,3159.413Zm-217.234-317.919a6.154,6.154,0,0,0-6.143,6.142v305.353a6.153,6.153,0,0,0,6.143,6.142h217.234a6.153,6.153,0,0,0,6.142-6.142V2847.636a6.154,6.154,0,0,0-6.142-6.142Z" transform="translate(-5224.808 -2841.268)" fill="#aed3f2"/><rect width="227.527" height="162.143" transform="translate(66.048 21.015)" fill="#fafafa"/><rect width="229.766" height="162.143" transform="translate(68.016 21.015)" fill="#aed3f2"/><rect width="217.976" height="148.902" transform="translate(73.911 27.63)" fill="#fafafa"/><path d="M5357.594,3014.731l34.583-148.9h45.336l-34.582,148.9Z" transform="translate(-5243.994 -2838.199)" fill="#fff" stroke="#5e6178" stroke-miterlimit="10" stroke-width="0"/><path d="M5404.414,3014.731l34.593-148.9h20.476l-34.594,148.9Z" transform="translate(-5238.143 -2838.199)" fill="#fff" stroke="#5e6178" stroke-miterlimit="10" stroke-width="0"/><rect width="0.754" height="148.902" transform="translate(291.134 27.63)" fill="#fafafa"/><path d="M5311.394,2860.222v64.258h17s30.5-19.923,37.484-60.906a6.818,6.818,0,0,0-5.56-7.877,7,7,0,0,0-1.19-.1h-43.11a4.624,4.624,0,0,0-4.624,4.625Z" transform="translate(-5249.767 -2839.477)" fill="#e0e0e0"/><path d="M5311.394,3034.24v-112.8h17s34.5,66.43,38.5,112.8Z" transform="translate(-5249.767 -2831.249)" fill="#e0e0e0"/><rect width="19.282" height="5.186" rx="1.51" transform="translate(60.546 85.004)" fill="#aed3f2"/><path d="M5531.682,2860.222v64.258h-17.032s-30.542-19.923-37.484-60.906a6.836,6.836,0,0,1,6.75-7.977h43.154A4.638,4.638,0,0,1,5531.682,2860.222Z" transform="translate(-5229.062 -2839.477)" fill="#e0e0e0"/><path d="M5531.783,3034.24v-112.8h-17.032s-34.493,66.43-38.5,112.8Z" transform="translate(-5229.163 -2831.249)" fill="#e0e0e0"/><rect width="19.282" height="5.186" rx="1.51" transform="translate(284.384 84.993)" fill="#aed3f2"/><rect width="37.383" height="144.83" transform="translate(260.095 223.489)" fill="#fafafa"/><path d="M5513.336,3170.527h9.978V3153.8h-20.44Z" transform="translate(-5225.836 -2802.208)" fill="#f4f8ff"/><rect width="37.383" height="144.83" transform="translate(81.246 223.489)" fill="#e0e0e0"/><rect width="187.557" height="139.07" transform="translate(109.922 223.489)" fill="#fafafa"/><path d="M5404.415,3018.068c0,13.5,13,24.592,28.912,24.592h14.355c15.895,0,28.9-11.07,28.9-24.592Z" transform="translate(-5238.143 -2819.172)" fill="#f2e9e4"/><path d="M5397.271,2990.6h27s-4.691,12.375-4.691,19.665,20.542,35.83-8.809,35.83-8.807-28.551-8.807-35.83S5397.271,2990.6,5397.271,2990.6Z" transform="translate(-5239.322 -2822.605)" fill="#e0e0e0"/><rect width="172.077" height="35.066" transform="translate(117.661 231.96)" fill="#f2e9e4"/><path d="M5364.3,3170.527h-9.979V3153.8h20.452Z" transform="translate(-5244.403 -2802.208)" fill="#fafafa"/><path d="M5432.984,3063.625a5.287,5.287,0,1,0,5.288-5.287,5.286,5.286,0,0,0-5.288,5.287Z" transform="translate(-5234.571 -2814.139)" fill="#fafafa"/><rect width="172.077" height="35.066" transform="translate(117.661 275.497)" fill="#f2e9e4"/><path d="M5432.984,3102.326a5.287,5.287,0,1,0,5.288-5.287,5.286,5.286,0,0,0-5.288,5.287Z" transform="translate(-5234.571 -2809.302)" fill="#fafafa"/><rect width="172.077" height="35.066" transform="translate(117.661 319.022)" fill="#f2e9e4"/><circle cx="5.287" cy="5.287" r="5.287" transform="translate(198.413 331.273)" fill="#fafafa"/><rect width="83.507" height="59.444" transform="translate(332.6 19.057)" fill="#e0e0e0"/><rect width="85.577" height="59.444" transform="translate(337.348 19.057)" fill="#aed3f2"/><rect width="74.665" height="48.532" transform="translate(342.804 24.514)" fill="#fff" stroke="#5e6178" stroke-miterlimit="10" stroke-width="0"/><rect width="48.385" height="20.261" transform="translate(355.944 38.643)" fill="#aed3f2"/><rect width="50.827" height="53.302" transform="translate(433.027 48.779)" fill="#e0e0e0"/><rect width="52.908" height="53.302" transform="translate(437.786 48.779)" fill="#aed3f2"/><rect width="41.996" height="42.389" transform="translate(443.242 54.236)" fill="#fff" stroke="#5e6178" stroke-miterlimit="10" stroke-width="0"/><path d="M5662.294,2909.1h0a7.065,7.065,0,0,1,7.054-7.065h1.6A7.065,7.065,0,0,1,5678,2909.1h0a7.052,7.052,0,0,1-7.052,7.053H5669.4a7.053,7.053,0,0,1-7.11-7Z" transform="translate(-5205.912 -2833.673)" fill="#aed3f2"/><path d="M5793.211,2948.118H5634.6v31.015h-24.4v31.016h-24.4v31.016h-24.4v31.016H5537v31h-24.4V3134.2h-24.4v31.015h-24.4v31.016h329.417Z" transform="translate(-5230.721 -2827.914)" fill="#fafafa"/><rect width="139.081" height="9.304" transform="translate(230.564 337.303)" fill="#f2e9e4"/><rect width="139.081" height="9.304" transform="translate(254.966 306.287)" fill="#f2e9e4"/><rect width="139.081" height="9.304" transform="translate(279.366 275.272)" fill="#f2e9e4"/><rect width="139.081" height="9.304" transform="translate(303.767 244.256)" fill="#f2e9e4"/><rect width="139.081" height="9.304" transform="translate(328.168 213.251)" fill="#f2e9e4"/><rect width="139.081" height="9.304" transform="translate(352.569 182.236)" fill="#f2e9e4"/><rect width="139.081" height="9.304" transform="translate(376.969 151.22)" fill="#f2e9e4"/><rect width="139.081" height="9.304" transform="translate(401.37 120.204)" fill="#f2e9e4"/><path d="M5753.9,2948.118v31.015h-24.4v31.016h-24.4v31.016h-24.4v31.016h-24.4v31h-24.4V3134.2h-24.4v31.015h-24.4v31.016H5778.3V2948.118Z" transform="translate(-5215.812 -2827.914)" fill="#fff" stroke="#5e6178" stroke-miterlimit="10" stroke-width="0"/></g><g transform="translate(97.992 20.026)"><path d="M5475.362,2976.574h0a12.373,12.373,0,0,0-12.06-9.6h-90a12.374,12.374,0,0,0-12.374,12.375h0V3179.4a12.375,12.375,0,0,0,12.374,12.375h285.745a12.375,12.375,0,0,0,12.375-12.375V3011.359a12.374,12.374,0,0,0-12.375-12.375H5503.521A28.89,28.89,0,0,1,5475.362,2976.574Z" transform="translate(-5341.569 -2845.583)" fill="#d9a171"/><path d="M5475.362,2976.574h0a12.373,12.373,0,0,0-12.06-9.6h-90a12.374,12.374,0,0,0-12.374,12.375h0V3179.4a12.375,12.375,0,0,0,12.374,12.375h285.745a12.375,12.375,0,0,0,12.375-12.375V3011.359a12.374,12.374,0,0,0-12.375-12.375H5503.521A28.89,28.89,0,0,1,5475.362,2976.574Z" transform="translate(-5341.569 -2845.583)" fill="#344154" opacity="0.6" style="isolation:isolate"/><path d="M5434.409,2920.128l8.021,25.976a13.063,13.063,0,0,0,16.324,8.618l25.964-8.021Z" transform="translate(-5332.385 -2851.438)" fill="#d9a171" opacity="0.22" style="isolation:isolate"/><path d="M5445.744,2920.128l-92.811,28.676a13.037,13.037,0,0,0-8.634,16.292l0,.02,52.986,171.537a13.052,13.052,0,0,0,16.32,8.619h0l118.787-36.7a13.038,13.038,0,0,0,8.622-16.3l0-.012-45-145.561Z" transform="translate(-5343.721 -2851.438)" fill="#d9a171"/><path d="M5445.744,2920.128l-92.811,28.676a13.037,13.037,0,0,0-8.634,16.292l0,.02,52.986,171.537a13.052,13.052,0,0,0,16.32,8.619h0l118.787-36.7a13.038,13.038,0,0,0,8.622-16.3l0-.012-45-145.561Z" transform="translate(-5343.721 -2851.438)" fill="#fff" stroke="#5e6178" stroke-miterlimit="10" stroke-width="0" opacity="0.8" style="isolation:isolate"/><g transform="translate(67.361 238.501)" opacity="0.28"><path d="M5488.2,3082.216l-77.218,23.849a5.715,5.715,0,0,1-7.132-3.758h0a5.714,5.714,0,0,1,3.768-7.121l77.22-23.861a5.713,5.713,0,0,1,7.131,3.768h0A5.714,5.714,0,0,1,5488.2,3082.216Z" transform="translate(-5403.599 -3071.074)" fill="#d9a171"/></g><g transform="translate(20.641 98.527)" opacity="0.28"><path d="M5410.286,2957.8l-40.837,12.611a5.727,5.727,0,0,1-7.131-3.758h0a5.726,5.726,0,0,1,3.768-7.133l40.838-12.611a5.7,5.7,0,0,1,7.131,3.757h0A5.726,5.726,0,0,1,5410.286,2957.8Z" transform="translate(-5362.068 -2946.651)" fill="#d9a171"/></g><g transform="translate(27.331 111.906)" opacity="0.28"><path d="M5442.865,2969.686l-67.5,20.846a5.717,5.717,0,0,1-7.1-3.769h0a5.705,5.705,0,0,1,3.758-7.121l67.5-20.846a5.712,5.712,0,0,1,7.132,3.757h0A5.736,5.736,0,0,1,5442.865,2969.686Z" transform="translate(-5368.015 -2958.543)" fill="#d9a171"/></g><g transform="translate(33.993 123.935)" opacity="0.28"><path d="M5479.811,2980.376l-98.5,30.375a5.705,5.705,0,0,1-7.121-3.757h0a5.727,5.727,0,0,1,3.758-7.133l98.5-30.374a5.714,5.714,0,0,1,7.122,3.757h0A5.715,5.715,0,0,1,5479.811,2980.376Z" transform="translate(-5373.936 -2969.236)" fill="#d9a171"/></g><g transform="translate(81.907 145.538)" opacity="0.28"><path d="M5481.16,2999.575l-57.261,17.7a5.717,5.717,0,0,1-7.121-3.769h0a5.716,5.716,0,0,1,3.758-7.122l57.261-17.7a5.738,5.738,0,0,1,7.133,3.769h0A5.716,5.716,0,0,1,5481.16,2999.575Z" transform="translate(-5416.527 -2988.438)" fill="#d9a171"/></g><g transform="translate(40.662 171.341)" opacity="0.28"><path d="M5402.223,3022.516l-14.973,4.624a5.715,5.715,0,0,1-7.132-3.757h0a5.714,5.714,0,0,1,3.769-7.133l14.973-4.624a5.726,5.726,0,0,1,7.133,3.758h0A5.737,5.737,0,0,1,5402.223,3022.516Z" transform="translate(-5379.865 -3011.375)" fill="#d9a171"/></g><g transform="translate(47.344 167.146)" opacity="0.28"><path d="M5491.682,3018.786l-98.5,30.43a5.715,5.715,0,0,1-7.121-3.769h0a5.7,5.7,0,0,1,3.757-7.121l98.5-30.431a5.714,5.714,0,0,1,7.121,3.757h0A5.716,5.716,0,0,1,5491.682,3018.786Z" transform="translate(-5385.805 -3007.646)" fill="#d9a171"/></g><g transform="translate(54.018 200.491)" opacity="0.28"><path d="M5459.6,3048.425l-60.491,18.686a5.716,5.716,0,0,1-7.121-3.758h0a5.726,5.726,0,0,1,3.757-7.132l60.491-18.686a5.725,5.725,0,0,1,7.132,3.769h0A5.7,5.7,0,0,1,5459.6,3048.425Z" transform="translate(-5391.737 -3037.286)" fill="#d9a171"/></g><g transform="translate(136.368 188.754)" opacity="0.28"><path d="M5488.463,3038l-16.144,4.983a5.726,5.726,0,0,1-7.132-3.769h0a5.714,5.714,0,0,1,3.769-7.121l16.143-4.984a5.7,5.7,0,0,1,7.122,3.758h0A5.714,5.714,0,0,1,5488.463,3038Z" transform="translate(-5464.938 -3026.853)" fill="#d9a171"/></g><g transform="translate(60.699 210.326)" opacity="0.28"><path d="M5503.54,3057.221l-98.48,30.375a5.715,5.715,0,0,1-7.132-3.769h0a5.7,5.7,0,0,1,3.77-7.121l98.491-30.431a5.736,5.736,0,0,1,7.132,3.769h0a5.716,5.716,0,0,1-3.739,7.166Z" transform="translate(-5397.675 -3046.028)" fill="#d9a171"/></g><path d="M5509.045,2863.253l29.453,65.632a7.1,7.1,0,0,1-3.555,9.36L5410,2994.324a7.089,7.089,0,0,1-9.361-3.555l-29.463-65.631a7.089,7.089,0,0,1,3.556-9.371l124.939-56.08A7.11,7.11,0,0,1,5509.045,2863.253Z" transform="translate(-5340.366 -2859.069)" fill="#d9a171"/><path d="M5509.045,2863.253l29.453,65.632a7.1,7.1,0,0,1-3.555,9.36L5410,2994.324a7.089,7.089,0,0,1-9.361-3.555l-29.463-65.631a7.089,7.089,0,0,1,3.556-9.371l124.939-56.08A7.11,7.11,0,0,1,5509.045,2863.253Z" transform="translate(-5340.366 -2859.069)" fill="#344154" opacity="0.3" style="isolation:isolate"/><rect width="4.376" height="1.125" transform="matrix(0.912, -0.409, 0.409, 0.912, 144.996, 2.732)" fill="#d9a171"/><rect width="13.646" height="1.125" transform="matrix(0.912, -0.409, 0.409, 0.912, 126.952, 10.82)" fill="#d9a171"/><rect width="1.125" height="8.325" transform="translate(29.676 73.144) rotate(-24.18)" fill="#d9a171"/><path d="M5504.8,2859.45l-32.22,63.112a28.857,28.857,0,0,1-32.961,14.793l-68.568-17.875a7.19,7.19,0,0,1,3.623-3.713l124.94-56.08A7.085,7.085,0,0,1,5504.8,2859.45Z" transform="translate(-5340.304 -2859.069)" fill="#d9a171" opacity="0.6" style="isolation:isolate"/><path d="M5541.444,2931.208l-96.951,5.985a13.049,13.049,0,0,0-12.252,13.8v.026l11.059,179.186a13.051,13.051,0,0,0,13.811,12.242l.038,0,124.086-7.661A13.028,13.028,0,0,0,5593.454,3121l0-.038-9.337-152.064Z" transform="translate(-5332.66 -2850.053)" fill="#d9a171"/><path d="M5541.444,2931.208l-96.951,5.985a13.049,13.049,0,0,0-12.252,13.8v.026l11.059,179.186a13.051,13.051,0,0,0,13.811,12.242l.038,0,124.086-7.661A13.028,13.028,0,0,0,5593.454,3121l0-.038-9.337-152.064Z" transform="translate(-5332.66 -2850.053)" fill="#fff" stroke="#5e6178" stroke-miterlimit="10" stroke-width="0" opacity="0.8" style="isolation:isolate"/><g transform="translate(127.934 257.384)" opacity="0.22"><path d="M5544.153,3099.243l-80.672,4.984a5.717,5.717,0,0,1-6.03-5.344h0a5.725,5.725,0,0,1,5.332-6.04l80.672-4.973a5.715,5.715,0,0,1,6.041,5.333h0A5.713,5.713,0,0,1,5544.153,3099.243Z" transform="translate(-5457.441 -3087.859)" fill="#d9a171"/></g><g transform="translate(118.18 101.755)" opacity="0.22"><path d="M5497.493,2960.925l-42.672,2.61a5.726,5.726,0,0,1-6.041-5.332h0a5.728,5.728,0,0,1,5.344-6.042l42.671-2.632a5.7,5.7,0,0,1,6.03,5.333h0A5.715,5.715,0,0,1,5497.493,2960.925Z" transform="translate(-5448.771 -2949.519)" fill="#d9a171"/></g><g transform="translate(119.575 122.633)" opacity="0.22"><path d="M5526.564,2979.463l-70.5,4.343a5.705,5.705,0,0,1-6.041-5.332h0a5.715,5.715,0,0,1,5.343-6.042l70.492-4.343a5.7,5.7,0,0,1,6.041,5.333h0A5.713,5.713,0,0,1,5526.564,2979.463Z" transform="translate(-5450.01 -2968.078)" fill="#d9a171"/></g><g transform="translate(120.947 143.199)" opacity="0.22"><path d="M5560.2,2997.755,5457.3,3004.1a5.727,5.727,0,0,1-6.064-5.344h0a5.7,5.7,0,0,1,5.333-6.03l102.9-6.356a5.714,5.714,0,0,1,6.03,5.344h0A5.716,5.716,0,0,1,5560.2,2997.755Z" transform="translate(-5451.23 -2986.36)" fill="#d9a171"/></g><g transform="translate(165.439 165.776)" opacity="0.22"><path d="M5556.647,3017.813l-59.814,3.69a5.716,5.716,0,0,1-6.042-5.332h0a5.7,5.7,0,0,1,5.333-6.041l59.815-3.69a5.7,5.7,0,0,1,6.041,5.333h0A5.713,5.713,0,0,1,5556.647,3017.813Z" transform="translate(-5490.78 -3006.428)" fill="#d9a171"/></g><g transform="translate(122.365 171.155)" opacity="0.22"><path d="M5474.179,3022.593l-15.649.968a5.7,5.7,0,0,1-6.03-5.332h0a5.717,5.717,0,0,1,5.333-6.042l15.649-.967a5.724,5.724,0,0,1,6.041,5.344h0A5.714,5.714,0,0,1,5474.179,3022.593Z" transform="translate(-5452.49 -3011.21)" fill="#d9a171"/></g><g transform="translate(123.749 188.344)" opacity="0.22"><path d="M5562.674,3037.873l-102.9,6.346a5.718,5.718,0,0,1-6.042-5.333h0a5.726,5.726,0,0,1,5.344-6.04l102.89-6.345a5.714,5.714,0,0,1,6.042,5.344h0A5.7,5.7,0,0,1,5562.674,3037.873Z" transform="translate(-5453.722 -3026.489)" fill="#d9a171"/></g><g transform="translate(125.144 213.364)" opacity="0.22"><path d="M5524.2,3060.113l-63.19,3.9a5.728,5.728,0,0,1-6.042-5.344h0a5.715,5.715,0,0,1,5.343-6.03l63.191-3.9a5.713,5.713,0,0,1,6.03,5.344h0A5.694,5.694,0,0,1,5524.2,3060.113Z" transform="translate(-5454.961 -3048.729)" fill="#d9a171"/></g><g transform="translate(211.169 210.922)" opacity="0.22"><path d="M5554.346,3057.943l-16.875,1.035a5.7,5.7,0,0,1-6.03-5.333h0a5.7,5.7,0,0,1,5.332-6.041l16.875-1.035a5.7,5.7,0,0,1,6.042,5.333h0A5.727,5.727,0,0,1,5554.346,3057.943Z" transform="translate(-5531.43 -3046.558)" fill="#d9a171"/></g><g transform="translate(126.538 233.49)" opacity="0.22"><path d="M5565.142,3078l-102.891,6.344a5.717,5.717,0,0,1-6.041-5.332h0a5.716,5.716,0,0,1,5.332-6.042l102.9-6.345a5.7,5.7,0,0,1,6.03,5.332h0A5.705,5.705,0,0,1,5565.142,3078Z" transform="translate(-5456.2 -3066.619)" fill="#d9a171"/></g><path d="M5529.31,2931.208l1.676,27.135a13.051,13.051,0,0,0,13.823,12.229h0l27.168-1.677Z" transform="translate(-5320.525 -2850.053)" fill="#d9a171" opacity="0.22" style="isolation:isolate"/><path d="M5517.844,2992.445h0a9.731,9.731,0,0,0-9.856-9.6c-.089,0-.179,0-.269.008h-90.111c-6.829,0-13.5,5.547-14.781,12.375l-35.562,182.19c-1.327,6.829,3.128,12.375,9.957,12.375h285.745c6.83,0,13.444-5.535,14.782-12.375l29.328-150.185c1.328-6.84-3.127-12.374-9.955-12.374H5541.637C5528.138,3014.855,5518.306,3005.562,5517.844,2992.445Z" transform="translate(-5340.806 -2843.6)" fill="#d9a171" opacity="0.5" style="isolation:isolate"/></g></g><g transform="translate(5352.009 3218.656)"><ellipse cx="218.122" cy="12.735" rx="218.122" ry="12.735" fill="#aed3f2"/></g><g transform="translate(5590.381 2916.396)"><path d="M5651.438,2937.483c1.575,5.276,9.7,15.154,10.338,22.342s-13.208,18.686-13.208,18.686-10.349-34.6-3.87-38.644S5651.438,2937.483,5651.438,2937.483Z" transform="translate(-5542.146 -2908.503)" fill="#344154"/><path d="M5632.677,2971.44c-2.453,2.048-4.861,3.769-7.369,5.535s-5.1,3.375-7.729,4.883a87.23,87.23,0,0,1-8.156,4.263c-1.417.641-2.823,1.271-4.287,1.822-.72.292-1.451.574-2.193.822l-2.25.787a14.873,14.873,0,0,1-5.918.428,33.9,33.9,0,0,1-4.9-.945,65.02,65.02,0,0,1-8.786-3.128,117.059,117.059,0,0,1-15.964-8.493l2.1-3.915c2.655,1.125,5.377,2.25,8.078,3.229s5.422,2.014,8.144,2.857a68.319,68.319,0,0,0,8.1,2.115,26.359,26.359,0,0,0,3.813.461,7.922,7.922,0,0,0,2.834-.292,72.374,72.374,0,0,0,7.516-3.375c1.249-.653,2.486-1.317,3.7-2.036s2.452-1.417,3.656-2.16c2.418-1.5,4.781-3.082,7.121-4.714s4.668-3.375,6.75-5.029Z" transform="translate(-5551.825 -2905.078)" fill="#e58a7b"/><path d="M5632.431,2960.071c-2.789-2.182-14.331,4.961-17.829,7.942l2.553,15.446s16.594-6.952,17.582-11.7C5635.785,2966.8,5634.514,2961.735,5632.431,2960.071Z" transform="translate(-5545.64 -2905.689)" fill="#d9a171"/><path d="M5632.431,2960.071c-2.789-2.182-14.331,4.961-17.829,7.942l2.553,15.446s16.594-6.952,17.582-11.7C5635.785,2966.8,5634.514,2961.735,5632.431,2960.071Z" transform="translate(-5545.64 -2905.689)" fill="#344154" opacity="0.2" style="isolation:isolate"/><path d="M5670.467,3007.524l-35.031,6.829c-18.1-49.016-14.164-50.625-14.164-50.625a70.646,70.646,0,0,1,7.875-3.712l.472-.18c2.25-.821,2.7-.945,5.693-1.822,5.152-1.227,9.956-2.251,15.908-3.094l1.125-.157c1.125-.135,2.148-.248,3.184-.349.7-.079,1.394-.124,2.059-.168l2.25-.124c3.847-.191,6.6-.135,6.6-.135C5665.371,2984.6,5667.1,2993.383,5670.467,3007.524Z" transform="translate(-5544.853 -2906.399)" fill="#d9a171"/><path d="M5670.467,3007.524l-35.031,6.829c-18.1-49.016-14.164-50.625-14.164-50.625a70.646,70.646,0,0,1,7.875-3.712l.472-.18c2.25-.821,2.7-.945,5.693-1.822,5.152-1.227,9.956-2.251,15.908-3.094l1.125-.157c1.125-.135,2.148-.248,3.184-.349.7-.079,1.394-.124,2.059-.168l2.25-.124c3.847-.191,6.6-.135,6.6-.135C5665.371,2984.6,5667.1,2993.383,5670.467,3007.524Z" transform="translate(-5544.853 -2906.399)" fill="#344154" opacity="0.2" style="isolation:isolate"/><path d="M5640.613,2941.719c-2.248,3.724,5.907,5.445,10.733,1.631,3.858-3.06,2.947-10.125-.36-11.768S5640.613,2941.719,5640.613,2941.719Z" transform="translate(-5542.438 -2909.217)" fill="#d9a171"/><path d="M5640.613,2941.719c-2.248,3.724,5.907,5.445,10.733,1.631,3.858-3.06,2.947-10.125-.36-11.768S5640.613,2941.719,5640.613,2941.719Z" transform="translate(-5542.438 -2909.217)" fill="#344154" opacity="0.4" style="isolation:isolate"/><path d="M5672.212,3184.157l-8.764.653-3.206-20.171,8.764-.653Z" transform="translate(-5539.938 -2880.153)" fill="#e58a7b"/><path d="M5728.278,3158.6l-7.437,4.68-13.24-15.705,7.436-4.691Z" transform="translate(-5534.018 -2882.79)" fill="#e58a7b"/><path d="M5660.242,3164.637l1.777,11.2,8.64-1.451-1.642-10.4Z" transform="translate(-5539.938 -2880.151)" fill="#cf6f64"/><path d="M5715.049,3142.9l-7.448,4.68,5.49,6.5,7.6-4.489Z" transform="translate(-5534.018 -2882.788)" fill="#cf6f64"/><path d="M5634.3,3008.2s-.124,69.546,5.558,95.736c5.916,27.246,23.321,89.233,23.321,89.233l12.622-1.631s-9.866-62.616-14.074-89.694c-4.579-29.508-1.767-98.638-1.767-98.638Z" transform="translate(-5543.179 -2900.247)" fill="#d9a171"/><path d="M5634.3,3008.2s-.124,69.546,5.558,95.736c5.916,27.246,23.321,89.233,23.321,89.233l12.622-1.631s-9.866-62.616-14.074-89.694c-4.579-29.508-1.767-98.638-1.767-98.638Z" transform="translate(-5543.179 -2900.247)" fill="#344154" opacity="0.7" style="isolation:isolate"/><path d="M5657.1,3031.29l-6.188-6.165c.237,26.718,1.732,39.915,6.874,54.292C5656.975,3064.218,5656.908,3046.241,5657.1,3031.29Z" transform="translate(-5541.102 -2897.507)" fill="#344154" opacity="0.5" style="isolation:isolate"/><path d="M5642.042,3006.6s18.866,57.475,28.225,90.583c9.879,34.931,47.745,73.563,47.745,73.563l10.868-6.277s-25.875-36.675-35.392-69.265c-19.352-66.16-11.4-80.177-25.673-93.632Z" transform="translate(-5542.21 -2900.45)" fill="#d9a171"/><path d="M5642.042,3006.6s18.866,57.475,28.225,90.583c9.879,34.931,47.745,73.563,47.745,73.563l10.868-6.277s-25.875-36.675-35.392-69.265c-19.352-66.16-11.4-80.177-25.673-93.632Z" transform="translate(-5542.21 -2900.45)" fill="#344154" opacity="0.7" style="isolation:isolate"/><path d="M5629.946,2922.535c5.019,1.677,9.574,14.13,9.765,19.035s-14.534,11.666-14.534,11.666-6.491-15.75-4.681-25.875C5621.285,2922.963,5629.946,2922.535,5629.946,2922.535Z" transform="translate(-5544.943 -2910.329)" fill="#344154"/><path d="M5568.529,2973.6l-5.952-6.48-1.946,8.122s4.231,3.735,7.65,2.453Z" transform="translate(-5552.385 -2904.757)" fill="#e58a7b"/><path d="M5557.464,2965.465l-4.163,3.307,8.246,6.671,1.946-8.122Z" transform="translate(-5553.302 -2904.963)" fill="#e58a7b"/><path d="M5717.767,3160.327l6.954-7.009a.707.707,0,0,1,.921-.067l6.335,4.7a1.4,1.4,0,0,1,.238,1.974,1.194,1.194,0,0,1-.114.129c-2.476,2.4-3.78,3.432-6.841,6.514-1.878,1.9-4.432,4.86-7.031,7.481s-5.333.179-4.5-1.125c3.792-5.929,3.117-8.145,3.376-11.16A2.255,2.255,0,0,1,5717.767,3160.327Z" transform="translate(-5533.271 -2881.511)" fill="#344154"/><path d="M5664.112,3181.375h9.878a.743.743,0,0,1,.73.608l1.553,7.807a1.326,1.326,0,0,1-1.07,1.543,1.3,1.3,0,0,1-.246.021c-3.454-.057-5.119-.26-9.462-.26-2.666,0-8.178.27-11.867.27s-4.084-3.646-2.566-3.971c6.75-1.485,9.393-3.521,11.61-5.479A2.253,2.253,0,0,1,5664.112,3181.375Z" transform="translate(-5541.187 -2877.979)" fill="#344154"/><path d="M5662.992,2969.755l-5.4,3.218,6.232,23.433C5662.462,2989.307,5663.07,2981.511,5662.992,2969.755Z" transform="translate(-5540.268 -2904.427)" fill="#d9a171" opacity="0.27" style="isolation:isolate"/><path d="M5635.111,2938.91c3.837,3.206,9.4,7.875,15.963,2.419,5.625-4.7,9.563-17.043-.529-17.494C5645.271,2923.6,5635.111,2938.91,5635.111,2938.91Z" transform="translate(-5543.077 -2910.167)" fill="#344154"/><path d="M5644.662,2939.186c0,5.31.82,14.883,5.062,17.606,0,0-.382,5.467-9.9,7.313-10.451,2.036-6.006-4.219-6.006-4.219,5.444-2.475,4.5-6.682,2.7-10.462Z" transform="translate(-5543.356 -2908.248)" fill="#e58a7b"/><path d="M5640.937,2942.9l-4.814,6.064a17.157,17.157,0,0,1,1.035,2.723c2.114-.743,4.646-3.713,4.432-6.041A7.671,7.671,0,0,0,5640.937,2942.9Z" transform="translate(-5542.952 -2907.784)" fill="#cf6f64"/><path d="M5646.476,2929.51c1.125,8.651,1.812,12.285-1.653,17.516-5.208,7.875-16.077,7.369-19.778-.764-3.375-7.324-4.634-20.25,3.062-25.257a11.889,11.889,0,0,1,18.369,8.505Z" transform="translate(-5544.667 -2910.767)" fill="#e58a7b"/><path d="M5630.624,2915.274c-5.851,4.151,5.883,5.377,5.895,11.4,0,2.487,4.083,10.373,9.89,9.923l5.625-9.99C5657.949,2917.04,5643.965,2905.791,5630.624,2915.274Z" transform="translate(-5543.842 -2911.685)" fill="#344154"/><path d="M5631.973,2914.878c-10.294-.54-14.782,7.65-13.6,15.007a67.069,67.069,0,0,1,21.982-1.743C5654.461,2929.582,5631.973,2914.878,5631.973,2914.878Z" transform="translate(-5545.191 -2911.289)" fill="#344154"/><path d="M5646.95,2935.288a6.347,6.347,0,0,1-1.473,4.634c-1.451,1.7-3.375.7-4.05-1.316-.575-1.823-.507-4.894,1.451-5.861a2.868,2.868,0,0,1,3.807,1.4A2.825,2.825,0,0,1,5646.95,2935.288Z" transform="translate(-5542.327 -2909.086)" fill="#e58a7b"/><path d="M5632.878,2932.842c.135.7-.124,1.327-.574,1.418s-.934-.406-1.069-1.125.125-1.338.575-1.429S5632.743,2932.145,5632.878,2932.842Z" transform="translate(-5543.565 -2909.183)" fill="#344154"/><path d="M5625.888,2934.2c.134.7-.124,1.339-.574,1.428s-.933-.4-1.068-1.125.124-1.339.573-1.418S5625.753,2933.491,5625.888,2934.2Z" transform="translate(-5544.439 -2909.012)" fill="#344154"/><path d="M5625.138,2933.112l-1.767-.147S5624.485,2934.1,5625.138,2933.112Z" transform="translate(-5544.543 -2909.025)" fill="#344154"/><path d="M5627.941,2934.785a19.241,19.241,0,0,1-1.62,4.916,3.046,3.046,0,0,0,2.577,0Z" transform="translate(-5544.175 -2908.798)" fill="#df5753"/><path d="M5631.244,2941.552a.2.2,0,0,1-.04-.4h.005a5.624,5.624,0,0,0,4.073-3.037.207.207,0,0,1,.382.158,5.926,5.926,0,0,1-4.375,3.285Z" transform="translate(-5543.586 -2908.398)" fill="#344154"/><path d="M5634.713,2930.265a.429.429,0,0,1-.28-.1,3.309,3.309,0,0,0-2.88-.855.441.441,0,0,1-.213-.855A4.175,4.175,0,0,1,5635,2929.5a.416.416,0,0,1,0,.585A.4.4,0,0,1,5634.713,2930.265Z" transform="translate(-5543.591 -2909.599)" fill="#344154"/><path d="M5621.878,2931.786a.34.34,0,0,1-.158,0,.418.418,0,0,1-.229-.542l0-.009a4.128,4.128,0,0,1,2.846-2.509.407.407,0,0,1,.481.314l0,.023a.4.4,0,0,1-.311.482l-.016,0a3.379,3.379,0,0,0-2.25,2.014A.421.421,0,0,1,5621.878,2931.786Z" transform="translate(-5544.784 -2909.556)" fill="#344154"/><path d="M5715.106,3163.495a1.2,1.2,0,0,1-.967-.541.711.711,0,0,1-.123-.7c.393-1.058,3.5-1.733,3.847-1.811a.215.215,0,0,1,.215.089.194.194,0,0,1,0,.226c-.609,1-1.8,2.677-2.915,2.734Zm2.352-2.531c-1.227.315-2.846.878-3.049,1.44a.285.285,0,0,0,.068.3.765.765,0,0,0,.674.371C5715.748,3163.045,5716.591,3162.268,5717.458,3160.963Z" transform="translate(-5533.222 -2880.596)" fill="#d9a171"/><path d="M5716.962,3161.153c-1.125,0-2.531-.281-2.947-.889a.734.734,0,0,1,.078-.911,1.132,1.132,0,0,1,.822-.427h.09c1.26,0,2.992,1.7,3.06,1.766a.2.2,0,0,1,.056.2.214.214,0,0,1-.146.146A4.035,4.035,0,0,1,5716.962,3161.153Zm-1.957-1.811h-.068a.676.676,0,0,0-.517.27c-.157.214-.112.338-.056.417.337.517,2.059.81,3.116.686a4.976,4.976,0,0,0-2.475-1.372Z" transform="translate(-5533.231 -2880.785)" fill="#d9a171"/><path d="M5659.989,3182.993a3.372,3.372,0,0,1-2.15-.54,1.125,1.125,0,0,1-.427-1,.65.65,0,0,1,.314-.562c1.035-.608,4.657,1.192,5.063,1.395a.214.214,0,0,1,.113.214.212.212,0,0,1-.159.18A14.917,14.917,0,0,1,5659.989,3182.993Zm-1.666-1.823a.746.746,0,0,0-.382.079.216.216,0,0,0-.113.214.792.792,0,0,0,.282.675c.562.484,2.012.563,3.926.248a11.781,11.781,0,0,0-3.712-1.215Z" transform="translate(-5540.292 -2878.056)" fill="#d9a171"/><path d="M5662.47,3182.884h-.079c-1.125-.484-3.3-2.4-3.139-3.375,0-.225.2-.517.765-.574h.169c1.957,0,2.463,3.577,2.485,3.735a.224.224,0,0,1-.078.2A.228.228,0,0,1,5662.47,3182.884Zm-2.25-3.555h-.124c-.36,0-.382.169-.382.215-.09.6,1.4,2.092,2.521,2.756-.225-.877-.8-2.947-2.06-2.947Z" transform="translate(-5540.061 -2878.284)" fill="#d9a171"/><path d="M5632.128,2931.753l-1.767-.158S5631.476,2932.743,5632.128,2931.753Z" transform="translate(-5543.67 -2909.197)" fill="#344154"/><path d="M5640.313,2969.719c-18.82,4.2-13-7.189-11.879-9.7l.472-.18c2.25-.821,2.7-.945,5.692-1.823a113.2,113.2,0,0,1,15.908-3.094l1.125-.157c1.126-.146,2.15-.259,3.183-.349.7-.079,1.4-.124,2.06-.168l2.25-.135h0C5659.505,2955.87,5660.439,2965.253,5640.313,2969.719Z" transform="translate(-5544.128 -2906.383)" fill="#e58a7b"/><path d="M5669.13,2999.675l2.193,2.835c.168.214-.067.518-.473.6l-36.742,7.155c-.315.068-.607,0-.664-.236l-.933-3.071a.578.578,0,0,1,.518-.518l35.481-6.907A.644.644,0,0,1,5669.13,2999.675Z" transform="translate(-5543.402 -2900.71)" fill="#26395a"/><path d="M5661.694,3004.516l.956-.18c.19,0,.315-.157.281-.281l-1.237-3.983c0-.124-.225-.18-.416-.146l-.944.18c-.192,0-.316.169-.282.281l1.238,3.994C5661.323,3004.494,5661.516,3004.561,5661.694,3004.516Z" transform="translate(-5539.96 -2900.658)" fill="#d9a171"/><path d="M5643.2,3016.108l-7.324-2.722,1.125,6.964s5.309,1.912,8.021-.54Z" transform="translate(-5542.982 -2898.975)" fill="#e58a7b"/><path d="M5629.866,3015.231l-1.743,4.567,9.843.551-1.125-6.964Z" transform="translate(-5543.951 -2898.974)" fill="#e58a7b"/><path d="M5636.545,3009.417l.956-.18c.181,0,.316-.157.271-.281l-1.237-3.983c0-.124-.215-.18-.406-.146l-.956.179c-.191,0-.315.169-.27.282l1.237,3.993C5636.174,3009.394,5636.354,3009.461,5636.545,3009.417Z" transform="translate(-5543.105 -2900.046)" fill="#d9a171"/><path d="M5649.126,3006.957l.945-.181c.191,0,.314-.157.281-.281l-1.237-3.982c0-.124-.225-.18-.416-.147l-.945.18c-.191,0-.315.169-.281.282l1.237,3.993A.361.361,0,0,0,5649.126,3006.957Z" transform="translate(-5541.533 -2900.353)" fill="#d9a171"/><path d="M5646.493,2950.868c.8-.3,1.8,2.509,1.553,2.868-.574.821-11.082,3.69-11.554,2.081a7.025,7.025,0,0,1,.394-2.565C5637.189,2952.713,5639.519,2953.7,5646.493,2950.868Z" transform="translate(-5542.905 -2906.791)" fill="#d9a171"/><path d="M5643.812,2951.129c.406-.934,1.564-2.43,2.576-1.576s1.44,2.7.777,3S5643.116,2952.692,5643.812,2951.129Z" transform="translate(-5542.001 -2906.984)" fill="#d9a171"/><path d="M5645.74,2951.481c.7-.742,2.25-1.766,2.959-.619s.45,3.027-.27,3.083S5644.56,2952.707,5645.74,2951.481Z" transform="translate(-5541.781 -2906.853)" fill="#d9a171"/><path d="M5646.054,2951.789a3.12,3.12,0,0,1,1.563-3c1.283-.833,2.531-1.373,3.027-2.25a6.223,6.223,0,0,1,.124,2.52c-.259,1.2-4.253,2.127-3.982,3.173Z" transform="translate(-5541.712 -2907.33)" fill="#d9a171"/><path d="M5645.976,2951.921a3.12,3.12,0,0,1-.315-3.375c.608-1.4,1.373-2.52,1.327-3.51a6.251,6.251,0,0,1,1.475,2.048c.428,1.125-2.419,4.084-1.62,4.826Z" transform="translate(-5541.803 -2907.517)" fill="#d9a171"/><path d="M5721.75,3164.049a.136.136,0,0,1-.111-.067c-.259-.36-25.976-37.057-35.4-69.3a472.589,472.589,0,0,1-14.153-63.089c-1.945-12.015-3.126-19.271-7-25.222a.139.139,0,0,1,.191-.2c3.915,6.007,5.1,13.286,7.042,25.334a474.021,474.021,0,0,0,14.175,63c9.416,32.2,35.11,68.849,35.369,69.221a.155.155,0,0,1,0,.19A.147.147,0,0,1,5721.75,3164.049Z" transform="translate(-5539.336 -2899.881)" fill="#d9a171"/><path d="M5721.75,3164.049a.136.136,0,0,1-.111-.067c-.259-.36-25.976-37.057-35.4-69.3a472.589,472.589,0,0,1-14.153-63.089c-1.945-12.015-3.126-19.271-7-25.222a.139.139,0,0,1,.191-.2c3.915,6.007,5.1,13.286,7.042,25.334a474.021,474.021,0,0,0,14.175,63c9.416,32.2,35.11,68.849,35.369,69.221a.155.155,0,0,1,0,.19A.147.147,0,0,1,5721.75,3164.049Z" transform="translate(-5539.336 -2899.881)" fill="#344154" opacity="0.4" style="isolation:isolate"/><path d="M5675.236,3171.281l-17.189,2.227-1.125-4.792,17.9-3.791Z" transform="translate(-5540.352 -2880.035)" fill="#d9a171"/><path d="M5721.925,3146.67l-12.678,7.324-4.276-3.656,13.871-9.383Z" transform="translate(-5534.345 -2883.031)" fill="#d9a171"/><path d="M5670.46,2964.575c.608,3.128.957,6.075,1.294,9.124s.461,6.063.552,9.112a89.371,89.371,0,0,1-.2,9.214c-.124,1.542-.257,3.083-.472,4.635-.09.765-.191,1.541-.337,2.318l-.416,2.385a14.988,14.988,0,0,1-2.486,5.389,33.464,33.464,0,0,1-3.2,3.836,63.543,63.543,0,0,1-6.975,6.188,116.407,116.407,0,0,1-15.144,9.888l-2.407-3.735q3.376-2.684,6.75-5.513c2.25-1.878,4.388-3.779,6.447-5.76a70.359,70.359,0,0,0,5.749-6.064,26.573,26.573,0,0,0,2.249-3.127,7.8,7.8,0,0,0,1.125-2.621,73.991,73.991,0,0,0,.641-8.235v-4.219c0-1.406-.056-2.834-.123-4.252-.135-2.835-.394-5.625-.7-8.5s-.7-5.727-1.126-8.393Z" transform="translate(-5542.38 -2905.075)" fill="#e58a7b"/><path d="M5667.335,2956.337c4.8,3.893,3.656,15.458,3.656,15.458l-16.2,5.332s.742-13.331,1.553-18.123C5657.289,2953.3,5662.6,2952.5,5667.335,2956.337Z" transform="translate(-5540.619 -2906.399)" fill="#d9a171"/><path d="M5667.335,2956.337c4.8,3.893,3.656,15.458,3.656,15.458l-16.2,5.332s.742-13.331,1.553-18.123C5657.289,2953.3,5662.6,2952.5,5667.335,2956.337Z" transform="translate(-5540.619 -2906.399)" fill="#344154" opacity="0.2" style="isolation:isolate"/></g></g></svg>