<svg xmlns="http://www.w3.org/2000/svg" width="310.47" height="274.021" viewBox="0 0 310.47 274.021"><g transform="translate(-250.169 -5061.533)"><g transform="translate(255.951 5068.076)"><path d="M554.755,5280.53c0,.1-66.309.179-148.091.179s-148.105-.082-148.105-.179,66.3-.207,148.105-.207S554.755,5280.426,554.755,5280.53Z" transform="translate(-258.559 -5136.073)" fill="#e0e0e0"/><path d="M381.1,5203.41a24.165,24.165,0,0,1-16.767-29.777q.166-.6.363-1.183c1.62-4.824,4.749-9.091,6.086-14.012,1.523-5.583.613-11.5-.324-17.23s-1.9-11.613-.469-17.23,5.913-10.876,11.717-11.276c5.348-.365,10.3,3.6,12.53,8.478s2.254,10.476,1.73,15.852-1.537,10.676-1.22,16.038c.648,10.841,6.72,21.055,6.01,31.9-.372,5.645-2.557,9.256-6.3,13.5-3.226,3.66-8.581,6.072-13.329,4.949" transform="translate(-291.154 -5083.971)" fill="#f0f0f0"/><path d="M390.491,5244.026c-.083,0-.152-19.573-.152-43.71s.069-43.724.152-43.724.145,19.574.145,43.724S390.566,5244.026,390.491,5244.026Z" transform="translate(-299.514 -5097.62)" fill="#e0e0e0"/><path d="M400.3,5206.892c.048.062-2.068,1.806-4.735,3.88s-4.866,3.722-4.914,3.653,2.068-1.8,4.735-3.88S400.249,5206.83,400.3,5206.892Z" transform="translate(-299.61 -5113.251)" fill="#e0e0e0"/><path d="M387.949,5203.254a21.03,21.03,0,0,1-2.991-1.888,23.171,23.171,0,0,1-2.819-2.123,20.527,20.527,0,0,1,2.991,1.881A21.207,21.207,0,0,1,387.949,5203.254Z" transform="translate(-296.966 -5110.875)" fill="#e0e0e0"/><path d="M294.247,5160.023l-11.806,23.812,3.522.131-10,18.926h5.252l-8.195,16.817h45.812l-10.083-16.817,4.831-.207-9.67-18.919,3.577-.207Z" transform="translate(-263.053 -5098.686)" fill="#f0f0f0"/><path d="M304.153,5199.983c.1,0,0,12.364-.152,27.61s-.414,27.61-.51,27.61,0-12.365.152-27.617S304.05,5199.976,304.153,5199.983Z" transform="translate(-272.511 -5111.104)" fill="#e0e0e0"/><path d="M311.219,5210.323a59.722,59.722,0,0,1-6.94,5.769,59.722,59.722,0,0,1,6.94-5.769Z" transform="translate(-272.768 -5114.318)" fill="#e0e0e0"/><path d="M285.889,5086.394h33.6s0-7.691-3.97-7.691a6.113,6.113,0,0,0-6.162,4.769s0-14.308-7.223-12.24c-6.83,2-7.581,11.186-7.581,11.186s-1.234-4.625-4.935-2.02A8.046,8.046,0,0,0,285.889,5086.394Z" transform="translate(-267.053 -5071.027)" fill="#f0f0f0"/></g><g transform="translate(250.169 5324.847)"><path d="M560.639,5443.762c0,.1-69.507.18-155.225.18s-155.245-.083-155.245-.18,69.493-.179,155.245-.179S560.639,5443.658,560.639,5443.762Z" transform="translate(-250.169 -5443.583)" fill="#344154"/></g><g transform="translate(369.727 5061.533)"><path d="M442.129,5127.511V5254.05H584.445V5127.511h-15.4l-31.166-39.059-26.287,38.679Z" transform="translate(-429.385 -5069.898)" fill="#aed3f2"/><path d="M464.516,5077.107c-.689.938-40.877,48.349-40.877,48.349h81.286l27.21-40.891,31.166,39.058,28.506-.035-34.8-47.646Z" transform="translate(-423.639 -5066.011)" fill="#344154"/><rect width="33.723" height="5.252" transform="translate(34.157 178.906)" fill="#e6e6e6"/><rect width="44.999" height="4.073" transform="translate(26.39 186.763)" fill="#e6e6e6"/><path d="M476.449,5247.293l.276,50.595h28.968v-50.595Z" transform="translate(-440.052 -5119.265)" fill="#d9a171"/><g transform="translate(36.397 128.028)" opacity="0.2"><path d="M476.449,5247.293l.276,50.595h28.968v-50.595Z" transform="translate(-476.449 -5247.293)"/></g><g transform="translate(57.873 152.054)" opacity="0.4"><circle cx="1.275" cy="1.275" r="1.275"/></g><path d="M485.763,5222.083l-26.714,22.02v6.093L486,5228.307l24.681,20.229v-6.362Z" transform="translate(-434.644 -5111.43)" fill="#344154"/><rect width="6.244" height="8.65" transform="translate(59.355 4.556)" fill="#d9a171"/><rect width="6.582" height="13.205" transform="translate(69.817)" fill="#d9a171"/><g transform="translate(59.355)" opacity="0.4"><rect width="6.244" height="8.65" transform="translate(0 4.556)"/><rect width="6.582" height="13.205" transform="translate(10.462)"/></g><rect width="7.361" height="7.361" transform="translate(105.808 38.892)" fill="#fff"/><g transform="translate(81.286 18.554)" opacity="0.1"><path d="M541.579,5129.344H545.5l25.749-37.8-2.46-3.088Z" transform="translate(-541.579 -5088.452)"/></g><g transform="translate(12.744 59.445)" opacity="0.1"><path d="M442.129,5147.782v4.087l68.542-4.087Z" transform="translate(-442.129 -5147.782)"/></g><g transform="translate(139.662 57.612)" opacity="0.1"><path d="M626.279,5145.123l15.4,5.107v-5.107Z" transform="translate(-626.279 -5145.123)"/></g><rect width="39.196" height="5.093" transform="translate(30.622 182.138)" fill="#e6e6e6"/><path d="M506.377,5325.822c0,.1-8.477.179-18.933.179s-18.926-.083-18.926-.179,8.47-.18,18.926-.18S506.377,5325.719,506.377,5325.822Z" transform="translate(-437.587 -5143.614)" fill="#e0e0e0"/><path d="M506.377,5332.432c0,.1-8.477.179-18.933.179s-18.926-.083-18.926-.179,8.47-.179,18.926-.179S506.377,5332.3,506.377,5332.432Z" transform="translate(-437.587 -5145.669)" fill="#e0e0e0"/><rect width="32.662" height="31.028" transform="translate(34.157 66.454)" fill="#fff"/><path d="M487.97,5157.953s-9.263,15.79-14.336,15.927c0,0,4.7,2.4,5.059,15.1h-5.514v-31.015Z" transform="translate(-439.035 -5091.499)" fill="#6595bf"/><path d="M499.149,5157.953s9.256,15.79,14.336,15.927c0,0-4.707,2.4-5.059,15.1h5.514v-31.015Z" transform="translate(-447.106 -5091.499)" fill="#6595bf"/><rect width="1.034" height="33.096" transform="translate(49.706 66.178)" fill="#344154"/><rect width="33.096" height="1.034" transform="translate(33.675 82.21)" fill="#344154"/><rect width="36.48" height="0.772" transform="translate(31.98 97.482)" fill="#344154"/><rect width="32.662" height="31.028" transform="translate(102.348 66.454)" fill="#fff"/><path d="M586.909,5157.953s-9.256,15.79-14.336,15.927c0,0,4.707,2.4,5.059,15.1h-5.514v-31.015Z" transform="translate(-469.785 -5091.499)" fill="#6595bf"/><path d="M598.089,5157.953s9.256,15.79,14.336,15.927c0,0-4.7,2.4-5.059,15.1h5.514v-31.015Z" transform="translate(-477.856 -5091.499)" fill="#6595bf"/><rect width="1.034" height="33.096" transform="translate(117.897 66.178)" fill="#344154"/><rect width="33.096" height="1.034" transform="translate(101.866 82.21)" fill="#344154"/><rect width="36.48" height="0.772" transform="translate(100.177 97.482)" fill="#344154"/><rect width="32.662" height="31.028" transform="translate(102.348 131.978)" fill="#fff"/><path d="M586.909,5253.023s-9.256,15.8-14.336,15.935c0,0,4.707,2.4,5.059,15.094h-5.514v-31.015Z" transform="translate(-469.785 -5121.045)" fill="#6595bf"/><path d="M598.089,5253.023s9.256,15.8,14.336,15.935c0,0-4.7,2.4-5.059,15.094h5.514v-31.015Z" transform="translate(-477.856 -5121.045)" fill="#6595bf"/><rect width="1.034" height="33.096" transform="translate(117.897 131.702)" fill="#344154"/><rect width="33.096" height="1.034" transform="translate(101.866 147.74)" fill="#344154"/><rect width="36.48" height="0.772" transform="translate(100.177 163.006)" fill="#344154"/></g><g transform="translate(385.779 5220.927)"><path d="M446.929,5292.8v103.6h8.891v-96.642h67.646V5292.8Z" transform="translate(-446.929 -5292.803)" fill="#455a64"/><rect width="2.874" height="96.642" transform="translate(6.017 6.961)" fill="#344154"/><rect width="5.41" height="6.961" transform="translate(71.127 0)" fill="#344154"/><rect width="65.269" height="41.16" transform="translate(12.861 12.034)" fill="#d9a171"/><rect width="65.269" height="41.16" transform="translate(12.861 12.034)" fill="#d9a171"/><rect width="3.605" height="41.16" transform="translate(74.532 12.034)" fill="#d9a171"/><g transform="translate(74.532 12.034)" opacity="0.2"><rect width="3.605" height="41.16"/></g><path d="M525.505,5349.343v-2.426c0-1.585,0-3.894-.034-6.851,0-5.92-.041-14.425-.076-24.812l.145.138-54.448.041h0l.179-.179v34.1l-.165-.166,39.147.076,11.227.048h.069l-11.2.048-39.285.083H470.9v-34.454h.186l54.448.041h.138v.186c0,10.435-.055,18.974-.069,24.915,0,2.943,0,5.238-.041,6.816v1.771C525.512,5349.144,525.505,5349.343,525.505,5349.343Z" transform="translate(-454.379 -5299.699)" fill="#344154"/><rect width="1.937" height="5.073" transform="translate(23.53 6.961)" fill="#d9a171"/><rect width="1.937" height="5.073" transform="translate(55.406 6.961)" fill="#d9a171"/><path d="M495.636,5326.7v2.164h4.335v2.15h-4.335v3.363h-2.757v-9.828h7.705v2.15Z" transform="translate(-461.21 -5302.67)" fill="#d9a171"/><path d="M505.069,5329.38a5.474,5.474,0,1,1,5.459,5.114A5.139,5.139,0,0,1,505.069,5329.38Zm8.112,0a2.66,2.66,0,1,0-2.653,2.812,2.633,2.633,0,0,0,2.66-2.606C513.188,5329.517,513.186,5329.448,513.181,5329.38Z" transform="translate(-464.998 -5302.583)" fill="#d9a171"/><path d="M527.342,5331.769h-1.516v2.612h-2.757v-9.828h4.494c2.681,0,4.363,1.378,4.363,3.639a3.253,3.253,0,0,1-1.923,3.1l2.123,3.087h-3Zm0-5.024H525.8v2.881h1.544c1.151,0,1.73-.538,1.73-1.434s-.551-1.447-1.7-1.447Z" transform="translate(-470.592 -5302.67)" fill="#d9a171"/><path d="M485.539,5353.479l.958-2.15a6.452,6.452,0,0,0,3.4,1.013c1.206,0,1.682-.337,1.682-.834,0-1.633-5.865-.44-5.865-4.272,0-1.84,1.5-3.343,4.569-3.343a7.655,7.655,0,0,1,3.736.9l-.9,2.164a6.087,6.087,0,0,0-2.86-.8c-1.22,0-1.661.414-1.661.931,0,1.571,5.844.4,5.844,4.2,0,1.792-1.5,3.321-4.563,3.321A8.127,8.127,0,0,1,485.539,5353.479Z" transform="translate(-458.928 -5308.681)" fill="#d9a171"/><path d="M506.755,5352.485h-4.363l-.806,2.005h-2.977l4.549-10.338h2.874l4.563,10.338h-3.033Zm-.855-2.15-1.33-3.308-1.323,3.294Z" transform="translate(-462.99 -5308.762)" fill="#d9a171"/><path d="M517.2,5344.193h2.915v7.995h4.921v2.316H517.2Z" transform="translate(-468.768 -5308.774)" fill="#d9a171"/><path d="M538.51,5352.237v2.253h-8.271v-10.338h8.078v2.253h-5.2v1.737H537.7v2.178H533.12v1.888Z" transform="translate(-472.821 -5308.762)" fill="#d9a171"/><path d="M546.886,5318.739c-.034,0-.041-.131-.117-.337a1.412,1.412,0,0,0-.531-.689,1.3,1.3,0,0,0-1.227-.152,1.275,1.275,0,0,0-.82,1.192,1.289,1.289,0,0,0,.82,1.192,1.335,1.335,0,0,0,1.227-.151,1.456,1.456,0,0,0,.531-.689c.076-.207.083-.331.117-.331s.055.124,0,.365a1.421,1.421,0,0,1-.517.875,1.558,1.558,0,0,1-1.489.262,1.6,1.6,0,0,1,0-3.012,1.555,1.555,0,0,1,1.489.262,1.419,1.419,0,0,1,.517.875A.454.454,0,0,1,546.886,5318.739Z" transform="translate(-477.041 -5300.378)" fill="#344154"/><path d="M546.676,5318.188c.069.069-.186.455-.579.869s-.758.689-.834.627.186-.455.579-.868S546.6,5318.119,546.676,5318.188Z" transform="translate(-477.486 -5300.689)" fill="#344154"/><path d="M546.8,5319.62c0,.09-.531,0-1.006-.427s-.689-.848-.613-.9.407.269.841.627S546.843,5319.523,546.8,5319.62Z" transform="translate(-477.46 -5300.722)" fill="#344154"/><path d="M546.1,5360.891s-.041-.131-.11-.338a1.457,1.457,0,0,0-.531-.689,1.3,1.3,0,0,0-1.227-.151,1.275,1.275,0,0,0-.82,1.192,1.29,1.29,0,0,0,.8,1.172,1.338,1.338,0,0,0,1.227-.152,1.5,1.5,0,0,0,.531-.689c.069-.207.083-.331.11-.331s.062.124,0,.365a1.442,1.442,0,0,1-.51.875,1.565,1.565,0,0,1-1.489.262,1.592,1.592,0,0,1,0-3.012,1.566,1.566,0,0,1,1.489.262,1.441,1.441,0,0,1,.51.875C546.165,5360.76,546.124,5360.891,546.1,5360.891Z" transform="translate(-476.789 -5313.473)" fill="#344154"/><path d="M545.909,5360.32c.076.069-.179.455-.572.869s-.758.689-.834.627.186-.455.572-.869S545.84,5360.272,545.909,5360.32Z" transform="translate(-477.25 -5313.784)" fill="#344154"/><path d="M546.022,5361.78c0,.09-.531-.034-1.006-.427s-.689-.848-.613-.9.407.269.841.627S546.077,5361.684,546.022,5361.78Z" transform="translate(-477.218 -5313.824)" fill="#344154"/><path d="M476.089,5359.876s-.041-.124-.117-.331a1.454,1.454,0,0,0-.531-.689,1.338,1.338,0,0,0-1.227-.152,1.3,1.3,0,0,0-.82,1.192,1.281,1.281,0,0,0,.827,1.179,1.294,1.294,0,0,0,1.227-.151,1.416,1.416,0,0,0,.531-.689c.076-.207.083-.338.117-.338s.055.131,0,.372a1.422,1.422,0,0,1-.517.876,1.561,1.561,0,0,1-1.489.262,1.6,1.6,0,0,1,0-3.012,1.556,1.556,0,0,1,1.489.262,1.42,1.42,0,0,1,.517.875C476.144,5359.752,476.1,5359.883,476.089,5359.876Z" transform="translate(-455.04 -5313.161)" fill="#344154"/><path d="M475.876,5359.32c.069.062-.186.455-.572.868s-.765.689-.841.627.186-.462.579-.875S475.8,5359.265,475.876,5359.32Z" transform="translate(-455.482 -5313.473)" fill="#344154"/><path d="M476.022,5360.771c-.034.089-.531-.042-1.006-.428s-.689-.854-.613-.9.407.269.841.62S476.022,5360.674,476.022,5360.771Z" transform="translate(-455.463 -5313.511)" fill="#344154"/><path d="M476.456,5319.563c-.034,0-.041-.125-.117-.331a1.454,1.454,0,0,0-.531-.689,1.334,1.334,0,0,0-1.227-.152,1.284,1.284,0,1,0,1.227,2.233,1.416,1.416,0,0,0,.531-.689c.076-.207.083-.338.117-.338s.055.131,0,.372a1.422,1.422,0,0,1-.517.875,1.558,1.558,0,0,1-1.489.262,1.6,1.6,0,0,1,0-3.012,1.556,1.556,0,0,1,1.489.262,1.421,1.421,0,0,1,.517.875C476.511,5319.438,476.47,5319.563,476.456,5319.563Z" transform="translate(-455.152 -5300.636)" fill="#344154"/><path d="M476.246,5319.018c.069.062-.186.455-.579.869s-.758.689-.834.627.186-.462.579-.875S476.156,5318.949,476.246,5319.018Z" transform="translate(-455.597 -5300.946)" fill="#344154"/><path d="M476.372,5320.451c-.034.089-.531-.042-1.006-.427s-.689-.855-.613-.9.407.269.841.621S476.413,5320.354,476.372,5320.451Z" transform="translate(-455.571 -5300.98)" fill="#344154"/></g><g transform="translate(465.086 5252.62)"><path d="M593.024,5395.438c-4.135-2.227-5.8-5.369-6.775-9.966a16.493,16.493,0,0,1,3.053-13.309c2.405-3.094,5.934-5.355,7.581-8.9,1.751-3.791,1.117-8.608,3.784-11.813,1.833-2.206,4.783-3.081,7.133-4.728a51.868,51.868,0,0,0,5.107-4.825,9.864,9.864,0,0,1,6.134-3.1c3.529-.138,6.644,2.984,7.216,6.464s-1,7.058-3.412,9.649c-1.744,1.868-3.991,3.4-5,5.755-1.909,4.418,1.247,9.876-.848,14.2-1.53,3.164-5.61,5.059-5.8,8.567a23.439,23.439,0,0,0,.572,3.818c.434,4.018-2.943,7.685-6.809,8.85s-8.043.393-11.937-.689" transform="translate(-569.431 -5338.787)" fill="#d9a171"/><path d="M616.841,5360.563a2.749,2.749,0,0,1-.365.517l-1.123,1.427c-.5.607-1.1,1.378-1.737,2.274s-1.434,1.909-2.171,3.1c-.386.586-.793,1.2-1.206,1.84s-.8,1.378-1.227,2.067c-.862,1.378-1.647,2.984-2.509,4.625a77.568,77.568,0,0,0-7.3,22.9c-.248,1.84-.517,3.584-.62,5.231-.062.82-.152,1.613-.186,2.378s-.048,1.5-.076,2.206c-.083,1.378,0,2.674,0,3.784s.048,2.068.11,2.86.069,1.378.1,1.813a3.743,3.743,0,0,1,0,.634,2.889,2.889,0,0,1-.1-.627c-.048-.461-.11-1.062-.186-1.806s-.172-1.744-.193-2.86-.117-2.4-.062-3.8c0-.689.034-1.448.048-2.212s.1-1.571.159-2.4c.09-1.654.345-3.412.579-5.266A75.565,75.565,0,0,1,606.1,5376.2c.875-1.647,1.682-3.226,2.564-4.631.434-.689.827-1.378,1.254-2.068l1.241-1.833c.765-1.186,1.571-2.178,2.24-3.074s1.282-1.64,1.806-2.233l1.192-1.378A2.709,2.709,0,0,1,616.841,5360.563Z" transform="translate(-573.179 -5345.554)" fill="#344154"/><path d="M569.109,5399.113a6.2,6.2,0,0,1,4.28,2.24,10.861,10.861,0,0,1,2.15,4.432c.8,3.1.262,6.748-.648,9.815-3.343-1.22-5.376-4.825-6.293-6.7-1.454-2.984-2.261-9.249.51-9.787" transform="translate(-563.635 -5357.535)" fill="#d9a171"/><path d="M584.91,5424.558a5.238,5.238,0,0,1-.2-5.279,6.949,6.949,0,0,1,4.232-3.35,2.963,2.963,0,0,1,2.481.138,2.253,2.253,0,0,1,.848,2.136,4.537,4.537,0,0,1-.986,2.157c-1.647,2.191-3.646,4.012-6.375,4.218" transform="translate(-568.864 -5362.697)" fill="#d9a171"/><g transform="translate(3.632 41.578)" opacity="0.2"><path d="M569.109,5399.113a6.2,6.2,0,0,1,4.28,2.24,10.861,10.861,0,0,1,2.15,4.432c.8,3.1.262,6.748-.648,9.815-3.343-1.22-5.376-4.825-6.293-6.7-1.454-2.984-2.261-9.249.51-9.787" transform="translate(-567.267 -5399.113)"/></g><g transform="translate(15.228 53.024)" opacity="0.2"><path d="M584.91,5424.558a5.238,5.238,0,0,1-.2-5.279,6.949,6.949,0,0,1,4.232-3.35,2.963,2.963,0,0,1,2.481.138,2.253,2.253,0,0,1,.848,2.136,4.537,4.537,0,0,1-.986,2.157c-1.647,2.191-3.646,4.012-6.375,4.218" transform="translate(-584.092 -5415.721)"/></g><g transform="translate(0 59.539)" opacity="0.2"><path d="M574.563,5430.535a12.309,12.309,0,0,0-9.883-5.362c-.992,0-2.171.221-2.564,1.137s.262,1.93.979,2.619a10.527,10.527,0,0,0,11.524,1.861" transform="translate(-561.998 -5425.173)"/></g><path d="M574.563,5430.535a12.309,12.309,0,0,0-9.883-5.362c-.992,0-2.171.221-2.564,1.137s.262,1.93.979,2.619a10.527,10.527,0,0,0,11.524,1.861" transform="translate(-561.998 -5365.634)" fill="#d9a171"/><path d="M584.978,5436.875a2.227,2.227,0,0,1-.165-.648c-.083-.427-.193-1.041-.3-1.806a22.582,22.582,0,0,1-.152-6.051,11.258,11.258,0,0,1,2.3-5.59,7.2,7.2,0,0,1,1.316-1.289,2.29,2.29,0,0,1,.572-.358,15.427,15.427,0,0,0-1.689,1.8,11.866,11.866,0,0,0-2.116,5.514,26.307,26.307,0,0,0,.055,5.968A21.762,21.762,0,0,1,584.978,5436.875Z" transform="translate(-568.905 -5364.379)" fill="#344154"/><path d="M571.449,5405.963a7.5,7.5,0,0,1,.489.992c.3.648.689,1.6,1.213,2.757,1,2.351,2.33,5.618,3.708,9.256s2.543,6.975,3.343,9.4c.407,1.206.689,2.191.924,2.874a7.242,7.242,0,0,1,.289,1.075,6.127,6.127,0,0,1-.42-1.027c-.262-.731-.613-1.688-1.034-2.84-.862-2.405-2.068-5.713-3.446-9.353s-2.667-6.892-3.6-9.291l-1.1-2.812A6.374,6.374,0,0,1,571.449,5405.963Z" transform="translate(-564.935 -5359.664)" fill="#344154"/><path d="M568.369,5428.692a2.273,2.273,0,0,1,.641,0,4.915,4.915,0,0,1,.751.09,8.372,8.372,0,0,1,.986.207,13.472,13.472,0,0,1,2.454.889,15.017,15.017,0,0,1,2.7,1.723,14.462,14.462,0,0,1,2.233,2.3,12.483,12.483,0,0,1,1.378,2.219,8.069,8.069,0,0,1,.4.917,5.521,5.521,0,0,1,.248.689,2.126,2.126,0,0,1,.138.634c-.062,0-.317-.861-1.006-2.15a14.876,14.876,0,0,0-1.378-2.137,16.279,16.279,0,0,0-2.205-2.219,16.484,16.484,0,0,0-2.619-1.7,15.159,15.159,0,0,0-2.378-.944C569.272,5428.83,568.362,5428.762,568.369,5428.692Z" transform="translate(-563.978 -5366.721)" fill="#344154"/></g><g transform="translate(294.017 5127.351)"><path d="M340.164,5440.763l-.172,1.523s-4.018,9.428-3.274,10.138a3.448,3.448,0,0,0,3.853.6c1.778-.737,8.477-9.3,8.477-9.3l.269-1.254Z" transform="translate(-320.887 -5245.21)" fill="#d9a171"/><path d="M336.975,5451.458s2.137-1.378,3.922,1.378a17.033,17.033,0,0,0,3.329-3.267c2.392-2.743,4.694-5.411,4.694-5.411s.248-.269.2,0-.1.655-.1.655l-4.576,5.514s-2.757,3.232-3.515,3.577a3.57,3.57,0,0,1-2.612.448,2.867,2.867,0,0,1-1.723-1.075C336.568,5453.119,336.975,5451.458,336.975,5451.458Z" transform="translate(-320.875 -5246.229)" fill="#f0f0f0"/><path d="M341.557,5456.918a4.376,4.376,0,0,0-4.328-2.6,1.816,1.816,0,0,1,.806-.11,3.732,3.732,0,0,1,1.882.544,3.827,3.827,0,0,1,1.378,1.379A1.656,1.656,0,0,1,341.557,5456.918Z" transform="translate(-321.075 -5249.387)" fill="#344154"/><path d="M349.333,5443.573a5.443,5.443,0,0,1-.414.537l-1.158,1.42-3.991,4.625a19.841,19.841,0,0,1-2.336,2.44,4.391,4.391,0,0,1-2.55,1.041,2.7,2.7,0,0,1-1.764-.579,1.574,1.574,0,0,1-.441-.524,4.647,4.647,0,0,0,.5.455,2.666,2.666,0,0,0,1.7.5,4.294,4.294,0,0,0,2.433-1.048,20.51,20.51,0,0,0,2.3-2.419l4.032-4.59,1.241-1.378A3.5,3.5,0,0,1,349.333,5443.573Z" transform="translate(-320.904 -5246.083)" fill="#344154"/><path d="M342.716,5450.321a4.307,4.307,0,0,1-1.089-.434,5.273,5.273,0,0,1-1.048-.524,2.545,2.545,0,0,1,1.137.324A2.623,2.623,0,0,1,342.716,5450.321Z" transform="translate(-322.116 -5247.883)" fill="#344154"/><path d="M343.9,5448.388a5.608,5.608,0,0,1-1.289-.29,5.3,5.3,0,0,1-1.261-.386,5.386,5.386,0,0,1,2.55.689Z" transform="translate(-322.355 -5247.37)" fill="#344154"/><path d="M345.115,5446.517c-.041.048-.586-.283-1.337-.51s-1.378-.275-1.378-.337a3.444,3.444,0,0,1,2.757.848Z" transform="translate(-322.681 -5246.726)" fill="#344154"/><path d="M345.861,5444.626c-.034.055-.531-.193-1.185-.366a11.749,11.749,0,0,1-1.206-.282A3.118,3.118,0,0,1,345.861,5444.626Z" transform="translate(-323.014 -5246.2)" fill="#455a64"/><path d="M345.367,5442.347a1.873,1.873,0,0,1-.737-.324,4.438,4.438,0,0,1-.689-.517c-.117-.11-.241-.235-.365-.366a1.172,1.172,0,0,1-.179-.234.352.352,0,0,1,0-.366.551.551,0,0,1,.607-.172,1.276,1.276,0,0,1,.5.234,1.654,1.654,0,0,1,.524.724,1.49,1.49,0,0,1,.138.793,4.483,4.483,0,0,0-.276-.731,1.685,1.685,0,0,0-.5-.627c-.221-.166-.641-.3-.806-.1-.062.075,0,.213.152.344a4.206,4.206,0,0,0,.345.358,6.64,6.64,0,0,0,.648.538C345.105,5442.182,345.381,5442.319,345.367,5442.347Z" transform="translate(-322.975 -5245.078)" fill="#455a64"/><path d="M346.007,5442.253a1.411,1.411,0,0,1,.255-.786,2.244,2.244,0,0,1,.607-.689,2.075,2.075,0,0,1,.476-.268.644.644,0,0,1,.31-.049.359.359,0,0,1,.31.221.688.688,0,0,1-.145.613,1.931,1.931,0,0,1-.345.421,2.068,2.068,0,0,1-.786.455,1.259,1.259,0,0,1-.82.055,6.47,6.47,0,0,0,.772-.2,2.188,2.188,0,0,0,.689-.455,1.87,1.87,0,0,0,.3-.386.574.574,0,0,0,.124-.428c-.034-.1-.2-.11-.352-.048a2.081,2.081,0,0,0-.427.234,2.308,2.308,0,0,0-.6.586C346.11,5441.95,346.048,5442.261,346.007,5442.253Z" transform="translate(-323.76 -5245.116)" fill="#455a64"/><path d="M351.67,5442.876a1.46,1.46,0,0,0-.737.172,2.84,2.84,0,0,0-1.13,1.419,3.056,3.056,0,0,0-.076,1.827c.124.461.289.724.262.744a1.508,1.508,0,0,1-.407-.689,2.838,2.838,0,0,1,0-1.944,2.756,2.756,0,0,1,1.261-1.482C351.353,5442.676,351.718,5442.855,351.67,5442.876Z" transform="translate(-324.86 -5245.841)" fill="#344154"/><path d="M348.183,5448.673a3.891,3.891,0,0,1-.744,1.034,3.791,3.791,0,0,1-.91.889,3.9,3.9,0,0,1,.744-1.034A3.785,3.785,0,0,1,348.183,5448.673Z" transform="translate(-323.965 -5247.668)" fill="#344154"/><path d="M350.247,5447.433c.062,0,.131.124.193.3s.09.324,0,.352-.172-.09-.234-.283S350.192,5447.447,350.247,5447.433Z" transform="translate(-325.099 -5247.283)" fill="#344154"/><path d="M350.315,5445.452c.055,0,.048.179,0,.358s-.09.324-.152.317-.1-.166-.062-.358S350.26,5445.431,350.315,5445.452Z" transform="translate(-325.07 -5246.667)" fill="#344154"/><path d="M351.353,5443.846c.034.048-.055.179-.179.3s-.255.228-.3.193,0-.193.145-.338S351.312,5443.8,351.353,5443.846Z" transform="translate(-325.309 -5246.163)" fill="#455a64"/><path d="M353.1,5443.05c0,.062-.138.124-.31.172s-.331.069-.352,0,.1-.166.3-.22S353.093,5443,353.1,5443.05Z" transform="translate(-325.801 -5245.898)" fill="#455a64"/><path d="M368.2,5441.681l1.378-6.306-11.792-2.612-2.068,9.194.724.214c3.212.9,16.4,4.362,18.719,4.183C377.719,5446.161,368.2,5441.681,368.2,5441.681Z" transform="translate(-326.821 -5242.724)" fill="#d9a171"/><path d="M359.991,5445.375a4.138,4.138,0,0,0-.944-2.847,4.077,4.077,0,0,0-2.564-1.475l-.724,3.315Z" transform="translate(-326.833 -5245.3)" fill="#d9a171"/><path d="M372.812,5448.076s3.288,1.792,2.757,2.274-14.026-2.516-19.849-4.363l.076-.255,15.673,3.626S372.115,5447.952,372.812,5448.076Z" transform="translate(-326.821 -5246.754)" fill="#f0f0f0"/><path d="M355.519,5445.663a.923.923,0,0,0,.193.069l.579.159,2.123.572c1.792.468,4.28,1.082,7.044,1.7s5.272,1.117,7.1,1.461l2.164.386.586.1h.207a.851.851,0,0,0-.2-.048l-.586-.125-2.15-.434c-1.82-.365-4.328-.89-7.085-1.5s-5.252-1.192-7.051-1.641l-2.13-.524-.586-.138Z" transform="translate(-326.759 -5246.733)" fill="#344154"/><path d="M378.449,5450.545a3.137,3.137,0,0,1,1.544-1.592,1.615,1.615,0,0,0-1.02.558A1.634,1.634,0,0,0,378.449,5450.545Z" transform="translate(-333.885 -5247.755)" fill="#344154"/><path d="M373.978,5447.192c0,.034.241-.131.469-.365s.4-.448.372-.476-.241.138-.476.372S373.95,5447.165,373.978,5447.192Z" transform="translate(-332.495 -5246.946)" fill="#344154"/><path d="M372.759,5446.306c0,.034.234-.048.482-.179s.42-.283.407-.317-.234.048-.482.187A1.1,1.1,0,0,0,372.759,5446.306Z" transform="translate(-332.117 -5246.776)" fill="#344154"/><path d="M372.239,5444.72a1.453,1.453,0,0,0,.6.221,1.39,1.39,0,0,0,.627.069,1.57,1.57,0,0,0-.6-.214A1.464,1.464,0,0,0,372.239,5444.72Z" transform="translate(-331.955 -5246.438)" fill="#344154"/><path d="M372.189,5443.523a1.209,1.209,0,0,0,.641.352,1.168,1.168,0,0,0,.731.062,3.41,3.41,0,0,0-.689-.2A4.383,4.383,0,0,0,372.189,5443.523Z" transform="translate(-331.94 -5246.068)" fill="#344154"/><path d="M374.889,5445.868a2.248,2.248,0,0,0,.758.166,5.119,5.119,0,0,0,.848,0,2.371,2.371,0,0,0,.5-.083.444.444,0,0,0,.241-.2.3.3,0,0,0-.048-.323,1.413,1.413,0,0,0-2.171.454.452.452,0,0,0-.062.2,2.073,2.073,0,0,1,.489-.572,1.378,1.378,0,0,1,.731-.255,1.184,1.184,0,0,1,.889.262c.1.117,0,.248-.131.3a2.006,2.006,0,0,1-.462.09,5.994,5.994,0,0,1-.827,0A3.686,3.686,0,0,1,374.889,5445.868Z" transform="translate(-332.779 -5246.56)" fill="#344154"/><path d="M374.828,5445.586a.794.794,0,0,0,.207-.51,1.3,1.3,0,0,0-.083-.6.8.8,0,0,0-.544-.523.3.3,0,0,0-.31.3h0a.816.816,0,0,0,.048.373,2.446,2.446,0,0,0,.255.538,1.153,1.153,0,0,0,.365.4s-.117-.172-.276-.455a2.988,2.988,0,0,1-.214-.524c-.069-.186-.076-.489.124-.482s.345.255.427.434a1.233,1.233,0,0,1,.1.538A2.761,2.761,0,0,1,374.828,5445.586Z" transform="translate(-332.531 -5246.202)" fill="#344154"/><path d="M356.909,5441.05a4.6,4.6,0,0,1,.862.221,3.8,3.8,0,0,1,2.543,3.15,3.37,3.37,0,0,1,0,.889.893.893,0,0,0,.055-.235,2.953,2.953,0,0,0,0-.689,3.667,3.667,0,0,0-2.605-3.232,3.186,3.186,0,0,0-.655-.131C356.992,5441.037,356.909,5441.037,356.909,5441.05Z" transform="translate(-327.191 -5245.291)" fill="#344154"/><path d="M359.746,5434.323a23.514,23.514,0,0,0-.641,2.4,21.606,21.606,0,0,0-.5,2.433,20.608,20.608,0,0,0,.641-2.4A19.374,19.374,0,0,0,359.746,5434.323Z" transform="translate(-327.719 -5243.209)" fill="#455a64"/><path d="M364.429,5446.161a10.08,10.08,0,0,0,3.446.8c0-.042-.772-.166-1.716-.386S364.443,5446.119,364.429,5446.161Z" transform="translate(-329.528 -5246.886)" fill="#344154"/><path d="M361.072,5445.412c-.041,0,0,.172.062.372s.048.358.09.365.1-.172.055-.4S361.1,5445.384,361.072,5445.412Z" transform="translate(-328.479 -5246.654)" fill="#344154"/><path d="M360.153,5443.552c-.034,0,0,.166.11.317s.2.254.234.234,0-.166-.11-.317S360.188,5443.531,360.153,5443.552Z" transform="translate(-328.195 -5246.076)" fill="#455a64"/><path d="M358.509,5442.419c0,.042.159.076.317.179s.269.221.3.2,0-.207-.227-.324S358.509,5442.385,358.509,5442.419Z" transform="translate(-327.688 -5245.716)" fill="#455a64"/><path d="M357.3,5441.806a.239.239,0,0,0,.124.166c.09.055.179.082.2.048s0-.11-.117-.166S357.327,5441.771,357.3,5441.806Z" transform="translate(-327.312 -5245.529)" fill="#455a64"/><path d="M367.024,5288.7l-13.936-4.935h0l-19.229,3.487.551,107.738,18.25-.241s0-1.254-.041-3.446l10.7,2.929s10.428-35.232,13.984-49.692C380.25,5332.462,367.024,5288.7,367.024,5288.7ZM352.4,5373.747c-.283-26.066-.655-67.743-.276-73.167,0,0,10.221,36.377,10.338,39.458C362.51,5341.891,356.844,5359.9,352.4,5373.747Z" transform="translate(-320.027 -5196.417)" fill="#344154"/><path d="M360.938,5412.862c.1,0,.179,4.825.179,10.787s-.076,10.792-.172,10.792-.179-4.825-.186-10.792S360.842,5412.862,360.938,5412.862Z" transform="translate(-328.387 -5236.539)" fill="#455a64"/><path d="M366.759,5398.288a1,1,0,0,1,.048-.248c.048-.166.1-.42.172-.689.159-.655.386-1.586.689-2.757.613-2.42,1.489-5.886,2.578-10.159,2.212-8.595,5.259-20.429,8.629-33.5.689-2.64,1.378-5.224,2-7.7v.076c-2.24-11.414-4.48-21.4-6.251-28.52l-2.068-8.367c-.241-.965-.427-1.723-.565-2.253-.055-.249-.1-.441-.138-.586a.947.947,0,0,1,0-.207,1.187,1.187,0,0,1,.069.193l.165.578c.152.531.358,1.282.627,2.24.531,1.951,1.289,4.79,2.192,8.347,1.833,7.105,4.135,17.092,6.368,28.506v.069l-1.992,7.7c-3.446,13.061-6.5,24.88-8.739,33.468l-2.688,10.132c-.317,1.178-.572,2.1-.744,2.757-.09.3-.152.538-.207.689A.97.97,0,0,1,366.759,5398.288Z" transform="translate(-330.252 -5202.514)" fill="#455a64"/><path d="M345.728,5400.171c-.1,0-.179-21.683-.179-48.424s.083-48.424.179-48.424.179,21.675.179,48.424S345.832,5400.171,345.728,5400.171Z" transform="translate(-323.66 -5202.496)" fill="#455a64"/><path d="M352.789,5193.5l11.027.545c.117-1.282.214-6.245.214-6.245s4.59-.537,4.824-5.107-.172-15.08-.172-15.08h0a15.852,15.852,0,0,0-16.024,1.378l-.689.5Z" transform="translate(-325.656 -5159.836)" fill="#e6bbac"/><path d="M372.8,5179.061a.866.866,0,1,1,.951-.007A.688.688,0,0,1,372.8,5179.061Z" transform="translate(-332.071 -5163.476)" fill="#344154"/><path d="M374.892,5177.881c-.076.076-.51-.283-1.137-.31s-1.1.282-1.165.193.041-.172.248-.317a1.517,1.517,0,0,1,.937-.255,1.487,1.487,0,0,1,.9.345C374.864,5177.7,374.926,5177.846,374.892,5177.881Z" transform="translate(-332.058 -5163.294)" fill="#344154"/><path d="M363.957,5178.547a.689.689,0,1,1-.947.232c.01-.016.02-.031.03-.046A.689.689,0,0,1,363.957,5178.547Z" transform="translate(-329.056 -5163.686)" fill="#344154"/><path d="M364.953,5178.311c-.076.076-.51-.282-1.137-.31s-1.1.283-1.165.2.041-.179.248-.323a1.549,1.549,0,0,1,1.833.089C364.925,5178.1,364.987,5178.283,364.953,5178.311Z" transform="translate(-328.97 -5163.429)" fill="#344154"/><path d="M369.3,5183.853a2.931,2.931,0,0,1,1.02-.18c.165,0,.3-.041.317-.131a.98.98,0,0,0-.1-.476c-.145-.42-.3-.848-.448-1.3a17.293,17.293,0,0,1-.951-3.4,17.729,17.729,0,0,1,1.289,3.28c.145.455.289.883.427,1.31a1.082,1.082,0,0,1,.062.689.419.419,0,0,1-.3.248,1.053,1.053,0,0,1-.283,0A3.04,3.04,0,0,1,369.3,5183.853Z" transform="translate(-330.992 -5163.663)" fill="#344154"/><path d="M366.321,5187.159c-.641-.414,1.771,1.027,3.053,1.013a1.737,1.737,0,0,1-2.068.613C365.949,5188.234,366.321,5187.159,366.321,5187.159Z" transform="translate(-330.083 -5166.371)" fill="#fff"/><path d="M366.842,5196.649a10.665,10.665,0,0,1-5.893-1.916s1.289,3.336,5.858,3.095Z" transform="translate(-328.446 -5168.748)" fill="#d88876"/><path d="M351.854,5178.318c-.1,0-3.4-.386-2.991,3.487s4.177,2.185,4.177,2.068S351.854,5178.318,351.854,5178.318Z" transform="translate(-324.68 -5163.643)" fill="#e6bbac"/><path d="M352.143,5183.285a1.39,1.39,0,0,1-.172.124.691.691,0,0,1-.5.062,1.7,1.7,0,0,1-.93-1.42,2.315,2.315,0,0,1,.09-.985.8.8,0,0,1,.455-.572.338.338,0,0,1,.414.145c.069.1.048.186.069.186s.076-.069,0-.228a.424.424,0,0,0-.172-.228.549.549,0,0,0-.386-.062.958.958,0,0,0-.641.689,2.327,2.327,0,0,0-.124,1.1,1.771,1.771,0,0,0,1.158,1.571.724.724,0,0,0,.607-.165C352.143,5183.382,352.156,5183.292,352.143,5183.285Z" transform="translate(-325.112 -5164.261)" fill="#d88876"/><path d="M366.706,5165.089a2.627,2.627,0,0,0,1.82-2.653,3.212,3.212,0,0,0-1.964-2.661,4.136,4.136,0,0,0-3.377.131,3.646,3.646,0,0,0-7.188.379,1.959,1.959,0,0,0-2.026-1.378,2.928,2.928,0,0,0-2.385.944,1.792,1.792,0,0,0,.076,2.4,4.064,4.064,0,0,0-2.812.745,2.99,2.99,0,0,0-1.192,2.591,2.37,2.37,0,0,0,1.833,2.067c.331.063.737.069.924.352a1,1,0,0,1,.1.551v3.281a1.267,1.267,0,0,1,1.606.689,3.633,3.633,0,0,1,.227,1.9c.289.42,1,.275,1.3-.138a2.412,2.412,0,0,0,.3-1.461l-.062-5.279a1.744,1.744,0,0,0,2.557-1.5,3.488,3.488,0,0,0,4.927-.22,3.43,3.43,0,0,0,.421-.565,8.686,8.686,0,0,0,1.758,1.109,2.847,2.847,0,0,0,2.033.125,1.718,1.718,0,0,0,1.151-1.579l-.234-.193" transform="translate(-324.313 -5157.029)" fill="#344154"/><path d="M426.519,5224.833a3.763,3.763,0,1,0,.014,0Zm0,3.087a.843.843,0,1,1,.021.007h-.021Z" transform="translate(-347.653 -5178.102)" fill="#d9a171"/><path d="M426.409,5235.37v6.774s1.5.689,1.42.779,1.082-.779,1.082-.779v-.813l-.689-.689.689-.627-.689-.861.689-.765-.772-.868.772-.779v-1.378Z" transform="translate(-348.79 -5181.375)" fill="#d9a171"/><path d="M430.409,5214.346l-4.308-3.853-4.342,3.907,1.282.2.11,3.949,5.865.1-.172-4.136Zm-4.342,3.57a.692.692,0,1,1,.057,0l-.057,0Z" transform="translate(-347.345 -5173.646)" fill="#344154"/><path d="M427.544,5220.822a1.45,1.45,0,0,1-.338.035,1.877,1.877,0,0,0-.848.131,2.131,2.131,0,0,0-.979.744,2.04,2.04,0,0,0,.31,2.743,2.183,2.183,0,0,0,1.117.524,4.219,4.219,0,0,0,1.192-.1,1.539,1.539,0,0,1-1.206.352,2.268,2.268,0,0,1-1.31-.524,2.3,2.3,0,0,1-.82-1.53,2.33,2.33,0,0,1,.476-1.668,2.2,2.2,0,0,1,1.165-.785,1.772,1.772,0,0,1,.937-.035C427.434,5220.76,427.551,5220.8,427.544,5220.822Z" transform="translate(-348.244 -5176.807)" fill="#455a64"/><path d="M430.787,5224.475c-.09-.048.124-.537.09-1.145s-.262-1.068-.193-1.13.531.379.551,1.109S430.862,5224.537,430.787,5224.475Z" transform="translate(-350.115 -5177.282)" fill="#455a64"/><path d="M412.419,5214.791a20.946,20.946,0,0,1,1.633-3.653,5.443,5.443,0,0,1,2.474-2.068,8.416,8.416,0,0,1,4.2-.1l3.391.5c.462.069,1.048.283,1.034.744a.689.689,0,0,1-.524.559,2.185,2.185,0,0,1-.82,0,11.82,11.82,0,0,0-2.261-.069c-.538.035-1.206.228-1.3.758s.427.882.9.9a2.563,2.563,0,0,0,1.337-.49l1.33-.786a1.151,1.151,0,0,1,.827-.241c.489.11.607.813.345,1.24a3.544,3.544,0,0,1-1.151.958c-1.709,1.158-2.5,3.032-3.288,5.514" transform="translate(-344.443 -5173.105)" fill="#e6bbac"/><path d="M381.8,5212.152,374.22,5231.7l-7.885-18.244c-2.467-8.829-13.371-9.408-13.371-9.408l-10.786-1.378c-3.88-1.579-10.166-.263-12.626,1.1-3.136,1.723-5.92,7.022-6.541,10.931,0,0-10.862,28.085-9.008,31.015s13.453,14.391,13.453,14.391l-1.62,5.913,18.457,1.165,1.868-7.285.221,7.8,17.354,1.22c-.758-6.858-1.985-13.75-2.316-15.714l-1.378-20.119.179-4.135.165-.427c1.627,2.722,3.674,6.2,6.2,10.669,5.073,8.959,10.193,6.671,13.2,3.074a16.891,16.891,0,0,0,2.846-5.514l7.464-20.979Zm-52.87,33.537c0,.11-1.861-3.315-1.861-3.315l2.715-8.96S328.931,5245.586,328.931,5245.689Z" transform="translate(-313.79 -5170.99)" fill="#d9a171"/><path d="M352.929,5202.055l5.824,22.365,6.038-21-.669-.055.159-2.763-11.351-1.358Z" transform="translate(-325.954 -5170.149)" fill="#fff"/><path d="M351.444,5203.633a1.019,1.019,0,0,1,0,.3c-.041.227-.09.517-.152.861-.145.792-.352,1.874-.607,3.2s-.593,3.019-.958,4.866a3.949,3.949,0,0,0,.076,2.8,4.571,4.571,0,0,0,2.619,1.62l.2.069-.11.179a6.38,6.38,0,0,0-.152,5.162,26.653,26.653,0,0,0,1.42,3.185q.765,1.542,1.482,2.984c.937,1.916,1.813,3.687,2.591,5.258l-.276.069v-7.815a3.7,3.7,0,0,1,0-.593,2.552,2.552,0,0,1,.055.593c0,.427.034.985.062,1.688.034,1.5.09,3.591.152,6.12v.634l-.289-.565c-.786-1.571-1.675-3.335-2.64-5.238-.476-.958-.972-1.958-1.489-2.978a26.581,26.581,0,0,1-1.44-3.232,6.776,6.776,0,0,1,.193-5.444l.1.254a9.452,9.452,0,0,1-1.565-.655,3.122,3.122,0,0,1-1.227-1.13,2.657,2.657,0,0,1-.324-1.564,10.369,10.369,0,0,1,.241-1.461q.589-2.76,1.034-4.825c.3-1.378.531-2.4.689-3.184.076-.345.145-.627.2-.855A1.329,1.329,0,0,1,351.444,5203.633Z" transform="translate(-324.779 -5171.513)" fill="#344154"/><path d="M368.518,5205.5a6.881,6.881,0,0,1,.234,1.041c.124.689.3,1.661.482,2.9s.407,2.708.538,4.39c0,.421.055.848.041,1.3a2.373,2.373,0,0,1-.427,1.378,6.025,6.025,0,0,1-2.288,1.82v-.3a3.616,3.616,0,0,1,.793.923c.055.083.1.172.152.262a.615.615,0,0,1,.041.242v.166c-.041.213-.1.406-.152.606-.689,2.157-1.544,4.135-2.3,5.92s-1.468,3.4-2.068,4.735-1.1,2.426-1.454,3.17l-.42.854c-.1.193-.152.289-.165.282a1.011,1.011,0,0,1,.1-.317c.1-.234.214-.524.352-.875l1.378-3.212c.579-1.378,1.254-2.984,2-4.77s1.571-3.777,2.254-5.893a4.439,4.439,0,0,0,.138-.558v-.125a.126.126,0,0,1,0-.055l-.145-.248a3.4,3.4,0,0,0-.689-.82l-.221-.186.248-.125a5.672,5.672,0,0,0,2.157-1.682,3.712,3.712,0,0,0,.352-2.446c-.1-1.661-.3-3.143-.455-4.383s-.283-2.171-.379-2.909A5.779,5.779,0,0,1,368.518,5205.5Z" transform="translate(-328.627 -5172.095)" fill="#344154"/><path d="M360.741,5274.539c-.1,0,0-6.327.214-14.115s.476-14.1.6-14.1,0,6.32-.214,14.115S360.865,5274.539,360.741,5274.539Z" transform="translate(-328.369 -5184.781)" fill="#344154"/><path d="M364.676,5254.449c-.041,0,.186-.255.558-.083a.691.691,0,1,1-.848.221c.234-.331.544-.255.524-.214a.81.81,0,0,0-.3.338.477.477,0,0,0,0,.4.338.338,0,0,0,.4.124.345.345,0,0,0,.289-.3.435.435,0,0,0-.193-.345C364.9,5254.421,364.7,5254.49,364.676,5254.449Z" transform="translate(-329.472 -5187.262)" fill="#344154"/><path d="M364.788,5264.84c-.048,0,.179-.248.558-.083a.7.7,0,1,1-.855.241c.241-.338.544-.262.524-.213s-.2.089-.3.337a.477.477,0,0,0,0,.4.393.393,0,0,0,.689-.186.447.447,0,0,0-.193-.345C365,5264.813,364.809,5264.888,364.788,5264.84Z" transform="translate(-329.508 -5190.492)" fill="#344154"/><path d="M364.338,5276.6c-.041,0,.179-.248.558-.083a.694.694,0,1,1-.855.234c.241-.337.551-.262.524-.213s-.2.083-.3.337a.477.477,0,0,0,0,.4.372.372,0,0,0,.407.124.359.359,0,0,0,.289-.31.476.476,0,0,0-.2-.345C364.552,5276.572,364.359,5276.648,364.338,5276.6Z" transform="translate(-329.368 -5194.147)" fill="#344154"/><path d="M370.018,5236.565h5.073v-.793h-5.341Z" transform="translate(-331.181 -5181.501)" fill="#344154"/><path d="M418.788,5225.891a27.234,27.234,0,0,1-4.08-1.75,27.9,27.9,0,0,1-3.928-2.067,58.139,58.139,0,0,1,8.009,3.818Z" transform="translate(-343.933 -5177.245)" fill="#455a64"/><path d="M412.419,5219.686a.5.5,0,0,1,.345-.338.745.745,0,0,1,.565,0,.64.64,0,0,1,.358.634.586.586,0,0,1-.469.579.516.516,0,0,1-.531-.3.4.4,0,0,1,0-.394c.055-.082.11-.089.124-.075a.437.437,0,0,0,.1.331c.145.159.407.159.427-.166s-.276-.427-.5-.393S412.46,5219.72,412.419,5219.686Z" transform="translate(-344.443 -5176.38)" fill="#455a64"/><path d="M400.874,5249.074a6.84,6.84,0,0,1,.083-2.227,6.93,6.93,0,0,1,.448-2.185,14.03,14.03,0,0,1-.531,4.411Z" transform="translate(-340.838 -5184.265)" fill="#344154"/><path d="M402.846,5248.944a6.635,6.635,0,0,1-.841-1.943,6.341,6.341,0,0,1-.5-2.067,12.327,12.327,0,0,1,1.337,4Z" transform="translate(-341.052 -5184.349)" fill="#344154"/><path d="M362.838,5202.565a7.693,7.693,0,0,1-1.289,2.688l1.013,2.757h.862l.731-2.646s-.51-.406-.882-2.881Z" transform="translate(-328.633 -5171.156)" fill="#455a64"/><path d="M364.075,5203.713a2.718,2.718,0,0,1-.3.476,2.287,2.287,0,0,1-1.282.916,1.321,1.321,0,0,1-1.13-.248,2.352,2.352,0,0,1-.586-1.178,12.357,12.357,0,0,1-.455-2.916l.345.042c-.165.565-.31,1.165-.517,1.765a9.351,9.351,0,0,1-.765,1.73,1.919,1.919,0,0,1-.689.689,1.574,1.574,0,0,1-.9.207,4.71,4.71,0,0,1-1.544-.441,9.442,9.442,0,0,1-1.213-.689,18.378,18.378,0,0,1-1.6-1.172,2.792,2.792,0,0,1-.544-.482c.041-.055.868.572,2.274,1.434a9.243,9.243,0,0,0,1.2.606,4.617,4.617,0,0,0,1.44.386,1.379,1.379,0,0,0,1.268-.737,9.517,9.517,0,0,0,.689-1.654c.193-.586.345-1.178.517-1.75a.173.173,0,0,1,.209-.125l0,0a.185.185,0,0,1,.131.165,12.793,12.793,0,0,0,.4,2.854,2.169,2.169,0,0,0,.476,1.054,1.082,1.082,0,0,0,.9.221,2.29,2.29,0,0,0,1.234-.772A2.359,2.359,0,0,1,364.075,5203.713Z" transform="translate(-325.941 -5170.56)" fill="#e0e0e0"/><path d="M361.732,5210.414c-.145.358-2.853,10.807-2.853,10.807l1.716,6.616,3.177-11.027s-1.075-6.747-1.123-6.568S361.732,5210.414,361.732,5210.414Z" transform="translate(-327.803 -5173.566)" fill="#455a64"/><path d="M344.837,5281.144a13.239,13.239,0,0,1-4.252.138,13.017,13.017,0,0,1-4.135-.9c0-.1,1.875.331,4.19.538S344.83,5281.027,344.837,5281.144Z" transform="translate(-320.832 -5195.362)" fill="#344154"/><path d="M380.714,5283.368a12.2,12.2,0,0,1-2.936,0,11.769,11.769,0,0,1-2.908-.345,24.929,24.929,0,0,1,5.845.345Z" transform="translate(-332.773 -5196.16)" fill="#344154"/><path d="M336.22,5233.323a1.248,1.248,0,0,1,0,.379q0,.434.041,1.1c0,.951.048,2.323.055,4.025,0,3.4-.09,8.091-.365,13.267s-.689,9.855-1.075,13.233c-.186,1.688-.358,3.053-.489,4-.062.434-.117.792-.159,1.082a2.364,2.364,0,0,1-.076.372,1.209,1.209,0,0,1,0-.379c0-.29.055-.654.09-1.1.09-.992.221-2.35.372-4,.31-3.384.689-8.057.972-13.233s.407-9.855.469-13.253c0-1.661.048-3.019.062-4.018v-1.1A1.266,1.266,0,0,1,336.22,5233.323Z" transform="translate(-320.114 -5180.741)" fill="#344154"/><path d="M333.049,5255.974a49.486,49.486,0,0,1,1.447-5.72,48.2,48.2,0,0,1,1.8-5.631,91.848,91.848,0,0,1-3.246,11.351Z" transform="translate(-319.775 -5184.252)" fill="#344154"/><path d="M334.219,5262.9a27.66,27.66,0,0,1-2.3-3.763,26.607,26.607,0,0,1-1.985-3.943,26.894,26.894,0,0,1,2.3,3.764A26.554,26.554,0,0,1,334.219,5262.9Z" transform="translate(-318.809 -5187.537)" fill="#344154"/></g><text transform="translate(395.574 5233.805)" fill="#fff" font-size="25" font-family="Roboto-Bold, Roboto" font-weight="700"><tspan x="18.861" y="26">Se</tspan></text></g></svg>