<svg xmlns="http://www.w3.org/2000/svg" xmlns:xlink="http://www.w3.org/1999/xlink" width="433.553" height="402.021" viewBox="0 0 433.553 402.021"><defs><clipPath id="a"><path d="M583.575,3685.623s-35.644-3.241-30.723,54.846c0,0,1.443,26.813-10.524,36.358,0,0-26.5,30.49,17.1,41.317,0,0,72.662,20.8,105.146-14.248,0,0,27.927-20.8,1.567-40.889,0,0-14.247-10.4-14.1-39.038,0,0-1.425-49.3-36.046-50.008C615.987,3673.961,590.058,3670.356,583.575,3685.623Z" transform="translate(-534.35 -3673.59)" fill="#344154"/></clipPath><clipPath id="b"><path d="M504.512,3858.524s21.251-42.3,27.462-49.518c0,0,8.809-12.853,28.739-18.919,0,0,49.534-20.074,92.715-3.61,0,0,16.175,4.043,27.3,17.764l20.8,34.37s-20.689,16.68-39.252,25.225l-8.013,65.839-101.361.534s-7.078-54.218-7.211-60.095C545.682,3870.114,510.552,3861.192,504.512,3858.524Z" transform="translate(-504.512 -3779.991)" fill="#6595bf"/></clipPath><clipPath id="c"><path d="M591.717,3759.4c0-1.608,3.246-3.928,8.241-3.928s8.124,1.819,8.124,3.427-3.052,3.7-8.048,3.7S591.717,3761.01,591.717,3759.4Z" transform="translate(-591.717 -3755.474)" fill="#fff"/></clipPath><clipPath id="d"><path d="M626.758,3757.556c0-1.608,3.245-3.928,8.241-3.928s8.124,1.819,8.124,3.427-3.052,3.7-8.047,3.7S626.758,3759.164,626.758,3757.556Z" transform="translate(-626.758 -3753.628)" fill="#fff"/></clipPath><clipPath id="e"><path d="M577.1,3750.5s3.045.9,2.305-8.589c0,0,18.107-10.635,21.811-24.625,0,0,8.97,15.871,20.411,13.417,0,0,2.388,10.962,15.226,9.9,0,0-.535,4.69,3.134,4.44,0,0,3.3,1.444,2.9-12.294,0,0,2.466-42.108-44.929-36.467,0,0-34.032,10.735-25.9,41.973C572.059,3738.256,573.285,3750.86,577.1,3750.5Z" transform="translate(-570.805 -3695.763)" fill="#344154"/></clipPath><clipPath id="f"><path d="M508.357,4005.767c3.55-7.216,6.937-14.593,11.972-15.523,13.78-3.343,20.906,2.064,42.27,3s34.428-2.562,43.185.741c3.222,1.214-10.771,17.993-10.771,17.993s-7.56,12.239-14.124,13.392c-13.366,2.349-38.643-.64-38.643-.64s-30.7-3.356-36.119-5.615C503.016,4017,504.806,4012.983,508.357,4005.767Z" transform="translate(-504.526 -3989.165)" fill="#aed3f2"/></clipPath><clipPath id="g"><path d="M776.783,4009.545c3.55-7.217,6.936-14.592,11.971-15.522,13.78-3.344,20.907,2.063,42.27,3s34.428-2.563,43.186.74c3.222,1.215-10.771,17.994-10.771,17.994s-7.56,12.238-14.125,13.391c-13.366,2.349-38.642-.64-38.642-.64s-30.7-3.355-36.119-5.615C771.442,4020.78,773.231,4016.762,776.783,4009.545Z" transform="translate(-772.952 -3992.943)" fill="#aed3f2"/></clipPath><clipPath id="h"><path d="M742.269,4017.425c3.55-7.217,6.936-14.592,11.971-15.523,13.78-3.343,20.907,2.064,42.27,3s34.428-2.562,43.186.741c3.222,1.214-10.771,17.993-10.771,17.993s-7.56,12.239-14.124,13.392c-13.367,2.349-38.642-.641-38.642-.641s-30.7-3.355-36.119-5.615C736.928,4028.659,738.717,4024.642,742.269,4017.425Z" transform="translate(-738.438 -4000.823)" fill="#f2e9e4"/></clipPath><clipPath id="i"><path d="M589.045,3949.728l5.569,15.488s.391,2.64,8.465.476c0,0,27.643-6.5,39.037-7.369,0,0,7.58.951,9.194-3.908l2.634-13.157s1.574-3.1-4.337-4.322c0,0-34.016-4.338-54.222,7.5C595.387,3944.431,587.7,3947.154,589.045,3949.728Z" transform="translate(-588.888 -3936.16)" fill="#aed3f2"/></clipPath><clipPath id="j"><path d="M515.971,3933.216s-5.137-25.558,1.294-58.367l29.674,7.8,1.453,14.215s27.257,6.429,42.914,11.889l19.539,4.29s5.292,1.764,7.309,5.125c0,0,8.368,8.886,6.947,10.406s-5.1-2.647-7.594-4.948A19.9,19.9,0,0,0,609,3919.34s13.891,16.6,10.717,18.931c-2.177,1.6-4.183-3.6-8.2-7.335s-8.15-6.889-8.15-6.889,13.8,14.756,11.1,17.163c-1.961,1.756-4.586-3.391-8.429-7.151a24.461,24.461,0,0,0-8.505-5.4s13.7,13.55,12.182,15.34c-1.928,2.274-4.269-2.129-8.819-5.29s-9.379-7.355-9.379-7.355-11.007,2.52-14.788-5.043C576.732,3926.314,533.915,3936,515.971,3933.216Z" transform="translate(-514.028 -3874.849)" fill="#ffbf9d"/></clipPath><clipPath id="k"><path d="M696.97,3867.083s11.828,27.276,15.271,31.21c0,0-22.629,7.709-32.469,11.808,0,0-3.281,20.007,23.614,17.381,0,0,34.6-6.724,40.505-11.478,0,0-2.092-32.755-22.441-65.264Z" transform="translate(-679.646 -3850.741)" fill="#ffbf9d"/></clipPath><clipPath id="l"><path d="M667.669,3916.517s13.594-3.722,20.9,5.208c0,0,12.918,16.907,3.653,18.262,0,0-4.96,1.375-11.687-2.547a31.1,31.1,0,0,0-6.816,3.935c-3.344,2.579-4,7.9-6.56,6.377-2.809-1.673,8.03-16.408,8.03-16.408s-3.4,2.24-7.544,5.476-6.743,10.084-9.05,7.472,11.179-17.358,11.179-17.358a79.2,79.2,0,0,0-8.325,5.634c-4.451,3.438-7.341,9.512-9.482,8.117-3.7-2.407,13.552-17.357,13.552-17.357a44.85,44.85,0,0,0-7.735,4.413c-4.018,2.854-5.639,8.643-8.337,7.008s2.344-7.1,6.9-11.656S667.669,3916.517,667.669,3916.517Z" transform="translate(-648.69 -3915.748)" fill="#ffbf9d"/></clipPath><clipPath id="m"><path d="M1.165,0H15.831a1.162,1.162,0,0,1,1.162,1.162V12.929a1.162,1.162,0,0,1-1.162,1.162H1.162A1.162,1.162,0,0,1,0,12.929V1.165A1.165,1.165,0,0,1,1.165,0Z" fill="#fff"/></clipPath><clipPath id="n"><path d="M635.757,3867.876s0-42.431,3.065-44.553c0,0,166.232-2.785,182.984,2.329,0,0,2.467,90.767-.767,109.3,0,0-24.673,14.243-60.545,4.181,0,0,3.477-67.649-41.715-67.108l-38.273-.472s-10.846,32.6-34,34.437c0,0-10.237-.372-9.907-25.965,0,0-4.636,1.874-4.84-4.712C631.763,3875.316,630.065,3867.866,635.757,3867.876Z" transform="translate(-631.526 -3822.566)" fill="#d9a171"/></clipPath></defs><g transform="translate(-439.847 -3594.549)"><g transform="translate(445.303 3594.548)"><path d="M458.217,3906.586c-19.9-41.223-13.947-49.577,8.551-114.02s-30.416-155.965,67.6-189.354c111.17-37.872,129.5,59.14,161.666,85.108,44.385,35.835,104.347,19.953,142.525,68S845.438,3877.866,841,3884.6c-33.528,50.834-98.952,72.893-98.952,72.893L553.5,3953.824S469.618,3930.205,458.217,3906.586Z" transform="translate(-446.133 -3594.549)" fill="#f2e9e4"/><g transform="translate(16.578 20.955)"><path d="M732.632,3947.771h-.025l-4.927-.1a1.3,1.3,0,0,1,.024-2.6h.026l4.569.088c.626-.356,2.178-1.246,4.48-2.607a1.3,1.3,0,0,1,1.326,2.241c-2.86,1.692-4.576,2.663-4.806,2.793h0A1.306,1.306,0,0,1,732.632,3947.771Zm-15.392-.3h-.027l-10.466-.2a1.3,1.3,0,0,1,.024-2.6h.026l10.467.2a1.3,1.3,0,0,1-.024,2.6Zm-20.933-.406h-.026l-10.466-.2a1.3,1.3,0,0,1,.024-2.6h.026l10.467.2a1.3,1.3,0,0,1-.025,2.6Zm-20.933-.408h-.025l-10.467-.2a1.3,1.3,0,0,1,.025-2.6h.026l10.467.2a1.3,1.3,0,0,1-.026,2.6Zm-20.932-.407h-.026l-10.466-.2a1.3,1.3,0,0,1-1.276-1.327,1.284,1.284,0,0,1,1.326-1.277l10.467.2a1.3,1.3,0,0,1-.025,2.6Zm-20.932-.407h-.026l-10.466-.2a1.3,1.3,0,0,1,.025-2.6h.026l10.466.2a1.3,1.3,0,0,1-.025,2.6Zm-20.932-.406h-.025l-10.467-.2a1.3,1.3,0,0,1,.025-2.6h.026l10.466.2a1.3,1.3,0,0,1-.025,2.6Zm-20.932-.407h-.026l-10.467-.2a1.3,1.3,0,0,1-1.276-1.328,1.281,1.281,0,0,1,1.327-1.276l10.467.2a1.3,1.3,0,0,1-.025,2.6Zm-20.932-.408h-.026l-7.686-.149a1.3,1.3,0,0,1-.327-.048s-.976-.275-2.719-.792a1.3,1.3,0,1,1,.741-2.5c1.313.39,2.185.64,2.525.736l7.517.146a1.3,1.3,0,0,1-.024,2.6Zm-20.421-4.054a1.325,1.325,0,0,1-.4-.062c-3.342-1.08-6.7-2.2-9.98-3.343a1.3,1.3,0,0,1,.855-2.459c3.261,1.131,6.6,2.25,9.925,3.325a1.3,1.3,0,0,1-.4,2.541Zm196.118-1.031a1.3,1.3,0,0,1-.687-2.408c2.925-1.814,5.9-3.7,8.838-5.594a1.3,1.3,0,0,1,1.412,2.187c-2.953,1.907-5.94,3.8-8.878,5.619A1.287,1.287,0,0,1,746.41,3939.538Zm-215.94-5.86a1.281,1.281,0,0,1-.457-.083c-3.4-1.271-6.692-2.559-9.8-3.825a1.3,1.3,0,1,1,.983-2.41c3.082,1.257,6.355,2.534,9.727,3.8a1.3,1.3,0,0,1-.456,2.521Zm233.55-5.511a1.3,1.3,0,0,1-.726-2.382c2.922-1.963,5.823-3.952,8.622-5.909a1.3,1.3,0,1,1,1.493,2.134c-2.813,1.967-5.727,3.965-8.664,5.937A1.291,1.291,0,0,1,764.02,3928.167Zm-252.953-2.428a1.286,1.286,0,0,1-.535-.116c-3.4-1.534-6.6-3.073-9.509-4.575a1.3,1.3,0,0,1,1.192-2.314c2.875,1.481,6.034,3,9.389,4.516a1.3,1.3,0,0,1-.537,2.489Zm270.12-9.586a1.3,1.3,0,0,1-.768-2.353c2.851-2.083,5.666-4.188,8.368-6.256a1.3,1.3,0,1,1,1.583,2.067c-2.718,2.08-5.549,4.2-8.416,6.291A1.3,1.3,0,0,1,781.187,3916.153Zm-288.705-.1a1.3,1.3,0,0,1-.686-.2,71.3,71.3,0,0,1-8.668-6.226,1.3,1.3,0,0,1,1.694-1.977,68.9,68.9,0,0,0,8.348,5.993,1.3,1.3,0,0,1-.689,2.407Zm305.337-12.638A1.3,1.3,0,0,1,797,3901.1c2.762-2.227,5.465-4.47,8.031-6.668a1.3,1.3,0,1,1,1.693,1.979c-2.586,2.212-5.308,4.473-8.09,6.717A1.3,1.3,0,0,1,797.818,3903.411Zm-320.508-1.43a1.3,1.3,0,0,1-1.173-.735c-1.719-3.562-3.15-6.7-4.372-9.578a1.3,1.3,0,0,1,2.4-1.017c1.206,2.844,2.619,5.94,4.319,9.462a1.3,1.3,0,0,1-.606,1.738A1.289,1.289,0,0,1,477.31,3901.98Zm336.414-12.205a1.3,1.3,0,0,1-.879-2.261c2.64-2.422,5.176-4.842,7.537-7.193a1.3,1.3,0,0,1,1.838,1.844c-2.387,2.378-4.95,4.822-7.616,7.267A1.3,1.3,0,0,1,813.724,3889.775ZM469.3,3882.664a1.3,1.3,0,0,1-1.242-.911,64.173,64.173,0,0,1-2.4-10.393,1.3,1.3,0,0,1,2.578-.361,61.457,61.457,0,0,0,2.311,9.972,1.306,1.306,0,0,1-1.243,1.693Zm356.977-9.275a1.3,1.3,0,0,1-1.2-1.8c1.225-2.978,2.4-6.259,3.5-9.752a1.3,1.3,0,1,1,2.483.779c-1.12,3.564-2.323,6.917-3.577,9.963A1.3,1.3,0,0,1,826.275,3873.389Zm-359.736-11.345-.079,0a1.3,1.3,0,0,1-1.222-1.377,71.7,71.7,0,0,1,1.483-10.54,1.3,1.3,0,1,1,2.547.536,69.156,69.156,0,0,0-1.431,10.159A1.3,1.3,0,0,1,466.539,3862.044Zm366.063-8.608a1.3,1.3,0,0,1-1.267-1.6c.807-3.374,1.5-6.8,2.066-10.173a1.3,1.3,0,1,1,2.568.429c-.574,3.434-1.28,6.916-2.1,10.351A1.3,1.3,0,0,1,832.6,3853.436Zm-362-11.871a1.288,1.288,0,0,1-.369-.053,1.3,1.3,0,0,1-.881-1.617c.861-2.922,1.9-6.2,3.176-10.018a1.3,1.3,0,1,1,2.469.826c-1.266,3.789-2.3,7.036-3.148,9.928A1.3,1.3,0,0,1,470.6,3841.565Zm365.435-8.773a1.148,1.148,0,0,1-.121-.006,1.3,1.3,0,0,1-1.176-1.416c.322-3.485.5-6.967.541-10.349a1.3,1.3,0,0,1,1.3-1.287h.015a1.3,1.3,0,0,1,1.287,1.316c-.037,3.451-.222,7-.552,10.56A1.3,1.3,0,0,1,836.036,3832.792Zm-358.875-11.1a1.3,1.3,0,0,1-1.229-1.731c1.063-3.04,2.2-6.257,3.406-9.674l.07-.2a1.3,1.3,0,0,1,2.456.868l-.071.2q-1.81,5.122-3.4,9.666A1.3,1.3,0,0,1,477.161,3821.7Zm359.061-9.816a1.3,1.3,0,0,1-1.3-1.2,99.426,99.426,0,0,0-1.36-10.238,1.3,1.3,0,1,1,2.559-.479,102.341,102.341,0,0,1,1.4,10.507,1.3,1.3,0,0,1-1.192,1.4C836.293,3811.877,836.257,3811.879,836.222,3811.879Zm-352.11-9.925a1.3,1.3,0,0,1-1.228-1.732l.888-2.541c.816-2.337,1.548-4.8,2.178-7.335a1.3,1.3,0,1,1,2.526.628c-.648,2.607-1.4,5.153-2.247,7.565l-.889,2.542A1.3,1.3,0,0,1,484.112,3801.954Zm348.213-10.6a1.3,1.3,0,0,1-1.243-.913,78.573,78.573,0,0,0-3.7-9.6,1.3,1.3,0,1,1,2.362-1.1,81.257,81.257,0,0,1,3.828,9.919,1.3,1.3,0,0,1-1.243,1.69ZM489.2,3781.688a1.208,1.208,0,0,1-.187-.014,1.3,1.3,0,0,1-1.1-1.472c.468-3.271.813-6.644,1.056-10.313a1.3,1.3,0,0,1,2.6.173c-.246,3.734-.6,7.173-1.076,10.509A1.3,1.3,0,0,1,489.2,3781.688Zm334.3-9.25a1.3,1.3,0,0,1-1.093-.593c-1.232-1.9-2.569-3.754-3.977-5.526-.72-.907-1.467-1.809-2.217-2.68a1.3,1.3,0,0,1,1.971-1.7c.774.9,1.543,1.826,2.285,2.761,1.46,1.836,2.846,3.763,4.122,5.728a1.3,1.3,0,0,1-1.091,2.011Zm-332.842-11.621h-.017a1.3,1.3,0,0,1-1.284-1.319q.022-1.711.022-3.429c0-2.183-.024-4.47-.075-7a1.3,1.3,0,0,1,1.275-1.328,1.287,1.287,0,0,1,1.328,1.275c.051,2.543.076,4.848.076,7.049q0,1.734-.022,3.462A1.3,1.3,0,0,1,490.657,3760.816Zm319.244-4.2a1.3,1.3,0,0,1-.872-.335,81.037,81.037,0,0,0-8.058-6.383,1.3,1.3,0,0,1,1.485-2.139,83.857,83.857,0,0,1,8.318,6.589,1.3,1.3,0,0,1-.872,2.269ZM792.783,3744.7a1.287,1.287,0,0,1-.611-.153,103.211,103.211,0,0,0-9.356-4.372,1.3,1.3,0,1,1,.989-2.409c3.423,1.405,6.559,2.872,9.59,4.482a1.3,1.3,0,0,1-.612,2.452ZM490.3,3739.885a1.3,1.3,0,0,1-1.3-1.257l-.135-3.771q-.12-3.351-.233-6.694a1.3,1.3,0,1,1,2.6-.084q.108,3.337.233,6.685l.135,3.774a1.3,1.3,0,0,1-1.256,1.346Zm283.187-3.2a1.29,1.29,0,0,1-.4-.064c-3.018-.985-6.28-1.956-9.973-2.97a1.3,1.3,0,0,1,.689-2.511c3.734,1.025,7.035,2.007,10.093,3.005a1.3,1.3,0,0,1-.4,2.54Zm-20.163-5.628a1.292,1.292,0,0,1-.318-.04l-3.381-.846q-3.389-.846-6.78-1.708a1.3,1.3,0,1,1,.646-2.522q3.381.866,6.765,1.7l3.384.847a1.3,1.3,0,0,1-.316,2.564Zm-20.265-5.274a1.334,1.334,0,0,1-.36-.051c-3.665-1.053-6.953-2.086-10.051-3.162a1.3,1.3,0,0,1,.852-2.46c3.055,1.06,6.3,2.08,9.917,3.119a1.3,1.3,0,0,1-.358,2.554Zm-243.375-6.824a1.3,1.3,0,0,1-1.3-1.286q-.023-1.947-.025-3.882c0-2.346.029-4.517.087-6.638a1.287,1.287,0,0,1,1.337-1.266,1.3,1.3,0,0,1,1.266,1.337c-.057,2.1-.086,4.244-.086,6.566q0,1.92.025,3.851a1.3,1.3,0,0,1-1.286,1.318Zm223.638-.109a1.292,1.292,0,0,1-.521-.109c-3.322-1.451-6.514-3.031-9.489-4.7a1.3,1.3,0,0,1,1.273-2.271c2.9,1.625,6.014,3.166,9.259,4.583a1.3,1.3,0,0,1-.522,2.5ZM695.128,3708.6a1.293,1.293,0,0,1-.759-.246c-1.339-.963-2.667-1.975-3.947-3.009a46.1,46.1,0,0,1-4.2-3.887,1.3,1.3,0,1,1,1.877-1.805,43.572,43.572,0,0,0,3.962,3.667c1.243,1,2.532,1.985,3.832,2.921a1.3,1.3,0,0,1-.761,2.359Zm-204.793-10.563c-.039,0-.078,0-.117-.005a1.3,1.3,0,0,1-1.181-1.413c.329-3.682.792-7.21,1.378-10.487a1.3,1.3,0,0,1,2.563.458c-.572,3.2-1.025,6.655-1.347,10.261A1.3,1.3,0,0,1,490.335,3698.039Zm190.132-4.224a1.3,1.3,0,0,1-1.047-.525c-1.758-2.366-3.676-5.112-6.037-8.641a1.3,1.3,0,0,1,2.165-1.448c2.335,3.492,4.229,6.2,5.962,8.535a1.3,1.3,0,0,1-1.044,2.079Zm-186.359-16.333a1.322,1.322,0,0,1-.377-.055,1.3,1.3,0,0,1-.871-1.623,73.959,73.959,0,0,1,3.782-9.941,1.3,1.3,0,0,1,2.358,1.1,71.22,71.22,0,0,0-3.647,9.59A1.3,1.3,0,0,1,494.109,3677.481Zm174.591-1a1.3,1.3,0,0,1-1.088-.586c-1.7-2.586-3.725-5.64-5.82-8.676a1.3,1.3,0,0,1,2.143-1.479c2.109,3.058,4.142,6.125,5.852,8.724a1.3,1.3,0,0,1-1.087,2.017Zm-11.964-17.192a1.3,1.3,0,0,1-1.038-.515c-2.233-2.937-4.374-5.573-6.545-8.056a1.3,1.3,0,0,1,1.961-1.714c2.211,2.529,4.388,5.21,6.658,8.2a1.3,1.3,0,0,1-1.035,2.089ZM503,3658.642a1.3,1.3,0,0,1-1.073-2.038,64.5,64.5,0,0,1,6.739-8.259,1.3,1.3,0,0,1,1.875,1.807,61.879,61.879,0,0,0-6.467,7.924A1.3,1.3,0,0,1,503,3658.642Zm14.414-15.03a1.3,1.3,0,0,1-.792-2.336,82.892,82.892,0,0,1,8.848-5.871,1.3,1.3,0,0,1,1.3,2.256,80.281,80.281,0,0,0-8.568,5.684A1.3,1.3,0,0,1,517.411,3643.612Zm125.5-.021a1.3,1.3,0,0,1-.9-.359,91.89,91.89,0,0,0-7.847-6.695,1.3,1.3,0,1,1,1.572-2.076,94.239,94.239,0,0,1,8.071,6.886,1.3,1.3,0,0,1-.9,2.244Zm-107.461-10.478a1.3,1.3,0,0,1-.529-2.493c3.092-1.373,6.4-2.672,9.837-3.861a1.3,1.3,0,0,1,.851,2.46c-3.366,1.166-6.606,2.437-9.631,3.78A1.294,1.294,0,0,1,535.446,3633.113Zm90.779-2.071a1.3,1.3,0,0,1-.641-.17,72.649,72.649,0,0,0-9.256-4.425,1.3,1.3,0,0,1,.951-2.423,75.16,75.16,0,0,1,9.59,4.585,1.3,1.3,0,0,1-.644,2.434Zm-71.058-4.874a1.3,1.3,0,0,1-.349-2.557c3.473-.97,6.925-1.809,10.258-2.492a1.3,1.3,0,1,1,.522,2.551c-3.274.671-6.666,1.494-10.08,2.449A1.306,1.306,0,0,1,555.167,3626.169Zm51.672-2.745a1.326,1.326,0,0,1-.3-.035,77.5,77.5,0,0,0-10.127-1.685,1.3,1.3,0,1,1,.259-2.591,80.223,80.223,0,0,1,10.467,1.742,1.3,1.3,0,0,1-.3,2.569Zm-31.174-1.406a1.3,1.3,0,0,1-.151-2.594c3.593-.425,7.15-.671,10.568-.73a1.286,1.286,0,0,1,1.324,1.279,1.3,1.3,0,0,1-1.278,1.325c-3.334.058-6.8.3-10.309.712A1.377,1.377,0,0,1,575.665,3622.018Z" transform="translate(-465.235 -3618.693)" fill="#fff"/></g></g><g transform="translate(495.969 3663.147)"><g transform="translate(25.896)"><path d="M583.575,3685.623s-35.644-3.241-30.723,54.846c0,0,1.443,26.813-10.524,36.358,0,0-26.5,30.49,17.1,41.317,0,0,72.662,20.8,105.146-14.248,0,0,27.927-20.8,1.567-40.889,0,0-14.247-10.4-14.1-39.038,0,0-1.425-49.3-36.046-50.008C615.987,3673.961,590.058,3670.356,583.575,3685.623Z" transform="translate(-534.35 -3673.59)" fill="#344154"/><g clip-path="url(#a)"><path d="M556.041,3798.829c-.016-3.4.941-7.4,1.722-10.784,1.046-4.53,3.775-7.262,6.385-10.913,3.583-5.014,4.753-10.641,7.154-16.208,1.514-3.505,3.451-7.028,6.725-9.185,3.751-2.47,9.489-1.975,13.865-2.371a143.694,143.694,0,0,1,18.889-.01c6.975.29,13.745-1.427,20.772-.656a25.784,25.784,0,0,1,9.765,2.974c3.682,2.058,4.61,5.086,7.281,8.1,2.269,2.562,4.813,4.255,6.762,7.177,1.811,2.717,3.129,5.649,4.747,8.438,2.2,3.789,5.164,6.176,4.374,11.058-.958,5.917-5.456,8.556-10.613,10.64-10.888,4.4-22.632,6.716-33.626,10.993-5.449,2.121-10.9,3.893-16.426,5.771-4.425,1.506-8.6,3.7-13.279,4.382-7.41,1.085-15.971-1.564-22.73-4.577-5.022-2.239-7.341-6.379-9.68-11.15-1.488-3.036-2.75-5.017-2.37-8.383.251-2.223,1.693-4.308,1.438-6.582" transform="translate(-537.169 -3683.487)" fill="#344154" opacity="0.5" style="mix-blend-mode:multiply;isolation:isolate"/></g></g><g transform="translate(0 92.344)"><path d="M504.512,3858.524s21.251-42.3,27.462-49.518c0,0,8.809-12.853,28.739-18.919,0,0,49.534-20.074,92.715-3.61,0,0,16.175,4.043,27.3,17.764l20.8,34.37s-20.689,16.68-39.252,25.225l-8.013,65.839-101.361.534s-7.078-54.218-7.211-60.095C545.682,3870.114,510.552,3861.192,504.512,3858.524Z" transform="translate(-504.512 -3779.991)" fill="#6595bf"/><g clip-path="url(#b)"><path d="M526.149,3904.562s10.555-5.587,21.576-4.345" transform="translate(-507.371 -3795.851)" fill="none" stroke="#000" stroke-linecap="round" stroke-linejoin="round" stroke-width="0.488"/><path d="M540.486,3863.174c-1.22,1.285-6.774-2.1-6.774-2.1s-3.971,5.153-5.572,4.389-.095-7.092-.095-7.092-6.127-2.184-5.9-3.943,6.716-2.28,6.716-2.28.185-6.5,1.928-6.827,4.245,5.682,4.245,5.682,6.242-1.834,7.087-.275-4.092,5.793-4.092,5.793S541.706,3861.888,540.486,3863.174Z" transform="translate(-506.841 -3788.62)" fill="#fff"/><path d="M588.16,3877.056c-1.22,1.286-6.774-2.1-6.774-2.1s-3.971,5.153-5.572,4.389-.095-7.093-.095-7.093-6.127-2.185-5.9-3.943,6.716-2.281,6.716-2.281.185-6.5,1.928-6.826,4.245,5.682,4.245,5.682,6.241-1.834,7.087-.275-4.092,5.792-4.092,5.792S589.38,3875.771,588.16,3877.056Z" transform="translate(-513.14 -3790.455)" fill="#fff"/><path d="M552.054,3906.249c-1.22,1.285-6.774-2.1-6.774-2.1s-3.971,5.152-5.571,4.39-.1-7.092-.1-7.092-6.126-2.185-5.9-3.943,6.716-2.281,6.716-2.281.185-6.5,1.928-6.827,4.246,5.682,4.246,5.682,6.241-1.834,7.087-.275-4.092,5.793-4.092,5.793S553.275,3904.963,552.054,3906.249Z" transform="translate(-508.37 -3794.311)" fill="#fff"/><path d="M592.721,3917.905c-1.22,1.285-6.774-2.1-6.774-2.1s-3.971,5.154-5.571,4.39-.1-7.092-.1-7.092-6.126-2.185-5.9-3.943,6.716-2.281,6.716-2.281.185-6.5,1.927-6.826,4.246,5.682,4.246,5.682,6.241-1.835,7.087-.276-4.092,5.793-4.092,5.793S593.942,3916.62,592.721,3917.905Z" transform="translate(-513.743 -3795.851)" fill="#fff"/><path d="M639.083,3929.561c-1.221,1.286-6.774-2.1-6.774-2.1s-3.971,5.154-5.572,4.39-.095-7.092-.095-7.092-6.127-2.185-5.9-3.943,6.716-2.281,6.716-2.281.184-6.5,1.927-6.826,4.245,5.682,4.245,5.682,6.241-1.834,7.087-.276-4.092,5.793-4.092,5.793S640.3,3928.276,639.083,3929.561Z" transform="translate(-519.868 -3797.391)" fill="#fff"/><path d="M666.584,3904.4c-1.22,1.286-6.774-2.1-6.774-2.1s-3.971,5.153-5.571,4.39-.1-7.092-.1-7.092-6.126-2.186-5.9-3.943,6.716-2.281,6.716-2.281.185-6.5,1.928-6.826,4.245,5.682,4.245,5.682,6.242-1.834,7.087-.276-4.092,5.793-4.092,5.793S667.8,3903.113,666.584,3904.4Z" transform="translate(-523.501 -3794.067)" fill="#fff"/><path d="M689.72,3874.83c-1.22,1.285-6.774-2.1-6.774-2.1s-3.971,5.153-5.572,4.39-.095-7.092-.095-7.092-6.127-2.185-5.9-3.943,6.716-2.281,6.716-2.281.185-6.5,1.928-6.826,4.245,5.681,4.245,5.681,6.241-1.834,7.087-.275-4.092,5.793-4.092,5.793S690.941,3873.544,689.72,3874.83Z" transform="translate(-526.558 -3790.16)" fill="#fff"/><path d="M680.567,3837.386c-1.221,1.286-6.775-2.1-6.775-2.1s-3.971,5.153-5.572,4.389-.095-7.092-.095-7.092-6.126-2.184-5.9-3.943,6.716-2.281,6.716-2.281.185-6.5,1.928-6.826,4.245,5.682,4.245,5.682,6.242-1.834,7.087-.275-4.092,5.792-4.092,5.792S681.787,3836.1,680.567,3837.386Z" transform="translate(-525.349 -3785.213)" fill="#fff"/><path d="M641.135,3815.629c-1.22,1.285-6.774-2.1-6.774-2.1s-3.971,5.153-5.572,4.389-.095-7.092-.095-7.092-6.127-2.185-5.9-3.943,6.716-2.281,6.716-2.281.185-6.5,1.927-6.827,4.245,5.682,4.245,5.682,6.242-1.834,7.087-.275-4.092,5.793-4.092,5.793S642.356,3814.343,641.135,3815.629Z" transform="translate(-520.139 -3782.339)" fill="#fff"/><path d="M723.433,3849.043c-1.22,1.285-6.774-2.1-6.774-2.1s-3.971,5.153-5.571,4.389-.1-7.092-.1-7.092-6.127-2.185-5.9-3.943,6.716-2.281,6.716-2.281.185-6.5,1.928-6.827,4.245,5.682,4.245,5.682,6.241-1.834,7.087-.275-4.092,5.793-4.092,5.793S724.654,3847.757,723.433,3849.043Z" transform="translate(-531.012 -3786.754)" fill="#fff"/><path d="M709.478,3815.629c-1.22,1.285-6.774-2.1-6.774-2.1s-3.971,5.153-5.571,4.389-.1-7.092-.1-7.092-6.127-2.185-5.9-3.943,6.716-2.281,6.716-2.281.184-6.5,1.928-6.827,4.245,5.682,4.245,5.682,6.241-1.834,7.087-.275-4.092,5.793-4.092,5.793S710.7,3814.343,709.478,3815.629Z" transform="translate(-529.168 -3782.339)" fill="#fff"/><path d="M676.161,3795.457c-1.22,1.285-6.774-2.1-6.774-2.1s-3.971,5.153-5.571,4.39-.1-7.092-.1-7.092-6.127-2.185-5.9-3.943,6.716-2.281,6.716-2.281.185-6.5,1.928-6.826,4.245,5.681,4.245,5.681,6.241-1.834,7.087-.275-4.092,5.793-4.092,5.793S677.382,3794.171,676.161,3795.457Z" transform="translate(-524.766 -3779.674)" fill="#fff"/><path d="M627.515,3892.742c-1.22,1.285-6.774-2.1-6.774-2.1s-3.971,5.154-5.572,4.39-.095-7.092-.095-7.092-6.127-2.185-5.9-3.943,6.716-2.281,6.716-2.281.185-6.5,1.927-6.826,4.245,5.682,4.245,5.682,6.241-1.835,7.087-.276-4.092,5.793-4.092,5.793S628.735,3891.456,627.515,3892.742Z" transform="translate(-518.34 -3792.527)" fill="#fff"/><path d="M614.465,3846.37c-1.221,1.285-6.775-2.1-6.775-2.1s-3.971,5.153-5.571,4.39-.095-7.092-.095-7.092-6.127-2.186-5.9-3.943,6.715-2.281,6.715-2.281.185-6.5,1.928-6.826,4.245,5.681,4.245,5.681,6.241-1.834,7.087-.275-4.092,5.793-4.092,5.793S615.685,3845.084,614.465,3846.37Z" transform="translate(-516.615 -3786.4)" fill="#fff"/><path d="M573.276,3795.457c-1.221,1.285-6.775-2.1-6.775-2.1s-3.971,5.153-5.571,4.39-.095-7.092-.095-7.092-6.127-2.185-5.9-3.943,6.715-2.281,6.715-2.281.185-6.5,1.928-6.826,4.245,5.681,4.245,5.681,6.241-1.834,7.087-.275-4.092,5.793-4.092,5.793S574.5,3794.171,573.276,3795.457Z" transform="translate(-511.174 -3779.674)" fill="#fff"/><path d="M652.389,3862.624c-1.22,1.285-6.774-2.1-6.774-2.1s-3.971,5.152-5.572,4.39-.095-7.092-.095-7.092-6.127-2.185-5.9-3.943,6.716-2.281,6.716-2.281.185-6.5,1.928-6.827,4.245,5.682,4.245,5.682,6.241-1.834,7.087-.275-4.092,5.793-4.092,5.793S653.609,3861.338,652.389,3862.624Z" transform="translate(-521.626 -3788.548)" fill="#fff"/><path d="M574.771,3834.715c-1.221,1.285-6.774-2.1-6.774-2.1s-3.971,5.153-5.572,4.389-.095-7.092-.095-7.092-6.127-2.184-5.9-3.943,6.716-2.28,6.716-2.28.184-6.5,1.928-6.827,4.245,5.682,4.245,5.682,6.241-1.834,7.087-.275-4.092,5.793-4.092,5.793S575.991,3833.429,574.771,3834.715Z" transform="translate(-511.371 -3784.86)" fill="#fff"/><path d="M537.271,3820.6c-1.221,1.286-6.774-2.1-6.774-2.1s-3.971,5.153-5.572,4.39-.095-7.092-.095-7.092-6.127-2.184-5.9-3.943,6.716-2.281,6.716-2.281.184-6.5,1.928-6.826,4.245,5.682,4.245,5.682,6.241-1.834,7.087-.275-4.092,5.792-4.092,5.792S538.491,3819.316,537.271,3820.6Z" transform="translate(-506.417 -3782.996)" fill="#fff"/><path d="M544.839,3891.377c9.324,3.541,23.721-3.466,32.981-5.327,10.454-2.1,20.524-4.99,30.8-7.678,14.672-3.839,29.17-8.306,43.956-11.728,12.519-2.9,23.317-1.168,26.676,12.91,2.349,9.843.779,22.528-1.626,32.214-1.777,7.163-3.266,13.167-7.27,19.186-3.707,5.573-5.911,11.957-11.794,15.869-9.358,6.226-22.673,8.8-33.735,8.777-11.9-.019-23.416-.555-35.292.759-9.186,1.016-19.041,1.43-27.782-2.051-10.476-4.174-16.758-21.089-18.564-31.776-1.653-9.777-2.146-21.4,3.386-29.854" transform="translate(-509.474 -3791.283)" fill="#6595bf" opacity="0.3" style="mix-blend-mode:multiply;isolation:isolate"/><g transform="translate(51.58 -3.912)"><path d="M563.944,3788.937s19.194,25.5,50.017,22.557c0,0,29.562-1.961,51.137-28.441C665.1,3783.053,610.178,3762.6,563.944,3788.937Z" transform="translate(-563.944 -3775.483)" fill="#ffbf9d"/><path d="M563.944,3788.937s19.194,25.5,50.017,22.557c0,0,29.562-1.961,51.137-28.441C665.1,3783.053,610.178,3762.6,563.944,3788.937Z" transform="translate(-563.944 -3775.483)" fill="#ffbf9d" opacity="0.5" style="mix-blend-mode:multiply;isolation:isolate"/></g></g><g transform="translate(38.058 50.069)" opacity="0.5" style="mix-blend-mode:multiply;isolation:isolate"><path d="M551.281,3871.148a.434.434,0,0,1-.432-.4l-2.484-32.6a.434.434,0,1,1,.865-.066l2.484,32.6a.434.434,0,0,1-.4.466Z" transform="translate(-548.364 -3837.682)" fill="#6595bf"/></g></g><g transform="translate(48.593 19.243)"><g transform="translate(0 4.529)"><path d="M570.867,3739.835s-2.983-3.622-6.844-1.375a11.169,11.169,0,0,0-2.029,13.655,15.984,15.984,0,0,0,14.139,7.446s9.869,37.355,38.607,34.293c0,0,22.957-2.636,26.869-40.132a12.768,12.768,0,0,0,8.843-11.053s1.785-8.333-4.592-9.778a6.007,6.007,0,0,0-4.591.424s-2.615-36.021-39.595-32.026C601.674,3701.291,564.849,3707.6,570.867,3739.835Z" transform="translate(-560.502 -3700.981)" fill="#ffbf9d"/><g transform="translate(5.206 36.258)"><g transform="translate(21.884 11.035)"><path d="M591.717,3759.4c0-1.608,3.246-3.928,8.241-3.928s8.124,1.819,8.124,3.427-3.052,3.7-8.048,3.7S591.717,3761.01,591.717,3759.4Z" transform="translate(-591.717 -3755.474)" fill="#fff"/><g clip-path="url(#c)"><path d="M596.178,3762.232a4.427,4.427,0,1,1,4.427,4.427A4.427,4.427,0,0,1,596.178,3762.232Z" transform="translate(-592.306 -3755.782)" fill="#412648"/></g></g><g transform="translate(52.296 9.433)"><path d="M626.758,3757.556c0-1.608,3.245-3.928,8.241-3.928s8.124,1.819,8.124,3.427-3.052,3.7-8.047,3.7S626.758,3759.164,626.758,3757.556Z" transform="translate(-626.758 -3753.628)" fill="#fff"/><g clip-path="url(#d)"><path d="M631.219,3760.387a4.427,4.427,0,1,1,4.426,4.426A4.427,4.427,0,0,1,631.219,3760.387Z" transform="translate(-627.347 -3753.936)" fill="#412648"/></g></g><path d="M588.622,3748.53c-.267-1.314,1.714-2.826,4.424-3.376s5.124.068,5.391,1.382-1.714,2.826-4.424,3.377S588.889,3749.844,588.622,3748.53Z" transform="translate(-569.421 -3743.049)" fill="#344154"/><path d="M633.434,3744.192c.326-1.3,2.767-1.809,5.449-1.134s4.592,2.275,4.266,3.576-2.766,1.808-5.449,1.134S633.107,3745.492,633.434,3744.192Z" transform="translate(-575.34 -3742.759)" fill="#344154"/><g transform="translate(42.357 29.956)"><path d="M620.013,3779.979a11.214,11.214,0,0,1-4.465-1.041.434.434,0,0,1,.383-.779c.051.025,5.231,2.507,8.046-.733a.434.434,0,1,1,.655.569A5.873,5.873,0,0,1,620.013,3779.979Z" transform="translate(-615.306 -3777.276)" fill="#412648"/></g><g transform="translate(35.747 34.704)"><path d="M618.4,3788.387a24.857,24.857,0,0,1-10.478-2.5.434.434,0,0,1,.41-.764c.126.067,12.67,6.623,21.363-2.249a.434.434,0,0,1,.62.608A16.152,16.152,0,0,1,618.4,3788.387Z" transform="translate(-607.69 -3782.746)" fill="#412648"/></g><path d="M566.616,3756.2c-.476-2.578.571-4.934,2.341-5.261s3.59,1.5,4.067,4.077-.571,4.933-2.341,5.26S567.093,3758.778,566.616,3756.2Z" transform="translate(-566.502 -3743.834)" fill="#ffbf9d" opacity="0.5" style="mix-blend-mode:multiply;isolation:isolate"/><path d="M593.853,3769.775c3.977.542,6.9,3.193,6.527,5.923s-3.9,4.5-7.874,3.96-6.9-3.193-6.527-5.923S589.876,3769.232,593.853,3769.775Z" transform="translate(-569.071 -3746.316)" fill="#ffbf9d" opacity="0.5" style="mix-blend-mode:multiply;isolation:isolate"/><path d="M638.944,3764.187c3.767-1.382,7.591-.406,8.54,2.18s-1.338,5.8-5.107,7.184-7.592.407-8.54-2.18S635.174,3765.567,638.944,3764.187Z" transform="translate(-575.369 -3745.507)" fill="#ffbf9d" opacity="0.5" style="mix-blend-mode:multiply;isolation:isolate"/><path d="M652.6,3748.023c.134-2.619,1.7-4.667,3.5-4.574s3.145,2.289,3.011,4.909-1.7,4.666-3.5,4.574S652.469,3750.642,652.6,3748.023Z" transform="translate(-577.876 -3742.85)" fill="#ffbf9d" opacity="0.5" style="mix-blend-mode:multiply;isolation:isolate"/></g></g><g transform="translate(10.764 42.023)"><g transform="translate(11.925 6.209)"><path d="M598.9,3770.016a11.848,11.848,0,0,1-7.134-2.688c-3.475-2.9-5.2-7.794-5.115-14.532a.326.326,0,0,1,.31-.321l23.5-1.137a.337.337,0,0,1,.337.269c.067.382,1.584,9.406-2.809,14.715-1.979,2.392-4.853,3.632-8.544,3.688C599.438,3770.011,599.237,3770.025,598.9,3770.016Zm-11.6-16.906c-.056,14.794,8.867,16.184,11.618,16.255.307.009.487,0,.5,0,3.51-.055,6.218-1.215,8.07-3.453,3.781-4.567,2.933-12.33,2.713-13.906Z" transform="translate(-586.645 -3751.338)" fill="#412648"/></g><g transform="translate(41.972 4.071)"><path d="M634.633,3767.7c-3.675.358-6.67-.554-8.9-2.709-4.959-4.784-4.462-13.922-4.438-14.308a.335.335,0,0,1,.3-.3l23.477-1.5a.326.326,0,0,1,.345.285c.834,6.686-.329,11.737-3.456,15.013a11.864,11.864,0,0,1-6.789,3.471C634.835,3767.688,634.633,3767.7,634.633,3767.7Zm-12.7-16.69c-.042,1.591-.016,9.4,4.253,13.515,2.091,2.015,4.913,2.866,8.406,2.526.009,0,.188-.009.493-.051,2.726-.379,11.437-2.758,9.725-17.453Z" transform="translate(-621.267 -3748.873)" fill="#412648"/></g><path d="M585.293,3752.488a.328.328,0,0,1-.174-.05l-12.064-7.654a.325.325,0,0,1,.349-.549l12.063,7.654a.325.325,0,0,1-.174.6Z" transform="translate(-572.905 -3744.183)" fill="#412648"/><g transform="translate(35.655 7.673)"><path d="M614.313,3754.073a.325.325,0,0,1-.02-.65l6.331-.4a.316.316,0,0,1,.345.3.325.325,0,0,1-.3.345l-6.332.4Z" transform="translate(-613.987 -3753.024)" fill="#412648"/></g></g><g transform="translate(8.941)"><path d="M577.1,3750.5s3.045.9,2.305-8.589c0,0,18.107-10.635,21.811-24.625,0,0,8.97,15.871,20.411,13.417,0,0,2.388,10.962,15.226,9.9,0,0-.535,4.69,3.134,4.44,0,0,3.3,1.444,2.9-12.294,0,0,2.466-42.108-44.929-36.467,0,0-34.032,10.735-25.9,41.973C572.059,3738.256,573.285,3750.86,577.1,3750.5Z" transform="translate(-570.805 -3695.763)" fill="#344154"/><g clip-path="url(#e)"><path d="M571.263,3744.47c.287,2.432,3.436,5.74,5.9,3.536,1.159-1.035,1.14-3.828,1.126-5.249,4.417,2.911,13.184-9.433,15.017-12.347,2.476-3.933,5.5-7.484,8.076-11.249,1.35,3.088,5.8,5.152,8.735,6.485,3.88,1.76,7.333.824,11.133.028,2.888,4.569,5.273,9.267,11.526,7.541,1.636,5.561,7.938,5.728,12.219,3.694a14.728,14.728,0,0,1,1.15,9.567c-1.28,4.367-5.788,4.934-9.68,4.73-4.352-.226-7.643-2.374-11.288-4.4-5.706-3.179-13.012-4.067-19.43-3.477s-11.335,4.329-16.594,7.713c-3.357,2.159-7.492,5.312-11.806,5.158s-6.723-7.4-5.01-10.88a2.51,2.51,0,0,0-.861-.413" transform="translate(-570.865 -3698.854)" fill="#344154" opacity="0.5" style="mix-blend-mode:multiply;isolation:isolate"/></g></g></g><g transform="translate(54.241 8.447)"><g transform="translate(13.235 21.697)" opacity="0.5" style="mix-blend-mode:multiply;isolation:isolate"><path d="M592.892,3708.323l.023.273a3.46,3.46,0,0,1,.018.774,7.316,7.316,0,0,1-.179,1.211,10.156,10.156,0,0,1-.433,1.518c-.194.545-.426,1.125-.687,1.729s-.54,1.251-.876,1.878c-.64,1.275-1.352,2.619-2.062,3.964-.74,1.33-1.415,2.692-2.187,3.9-.748,1.219-1.491,2.332-2.1,3.3s-1.172,1.741-1.54,2.3l-.6.858s.167-.343.459-.944c.308-.591.716-1.452,1.262-2.453s1.156-2.18,1.856-3.417c.362-.611.686-1.274,1.036-1.935s.7-1.336,1.058-2.008c.726-1.336,1.449-2.675,2.155-3.915.352-.622.667-1.212.979-1.79s.575-1.122.8-1.638.438-.99.576-1.424a7.166,7.166,0,0,0,.319-1.134,4.535,4.535,0,0,0,.1-.765C592.884,3708.419,592.892,3708.323,592.892,3708.323Z" transform="translate(-582.26 -3708.323)" fill="#344154"/></g><g transform="translate(6.943 17.141)" opacity="0.5" style="mix-blend-mode:multiply;isolation:isolate"><path d="M586.076,3703.073l-.444,1.1c-.3.691-.7,1.693-1.227,2.868-.265.588-.55,1.226-.851,1.9s-.574,1.4-.9,2.139c-.621,1.483-1.314,3.051-2,4.62-.672,1.579-1.34,3.162-2,4.632s-1.275,2.843-1.8,4.02-1,2.143-1.318,2.827c-.333.676-.523,1.063-.523,1.063s.134-.41.366-1.126c.25-.71.574-1.739,1.023-2.948s.942-2.632,1.548-4.128c.588-1.5,1.248-3.091,1.905-4.682.71-1.572,1.419-3.144,2.112-4.6.343-.731.671-1.441,1.022-2.09s.677-1.269.98-1.838c.6-1.14,1.152-2.067,1.514-2.728Z" transform="translate(-575.01 -3703.073)" fill="#344154"/></g><g transform="translate(0 13.886)" opacity="0.5" style="mix-blend-mode:multiply;isolation:isolate"><path d="M580.245,3699.323l-.162.267a8.187,8.187,0,0,1-.479.741,13,13,0,0,1-.923,1.039c-.372.386-.81.8-1.3,1.226s-1,.909-1.493,1.439c-.253.263-.463.567-.7.857-.225.3-.4.64-.608.963-.346.684-.677,1.494-1.042,2.255-.327.781-.628,1.581-.945,2.375-.614,1.615-1.24,3.241-1.886,4.747-.329.757-.691,1.454-1.044,2.124l-.975,1.858c-.282.582-.557,1.108-.772,1.587-.235.472-.378.906-.525,1.257-.244.712-.375,1.131-.375,1.131s.018-.107.051-.308.068-.5.162-.873.2-.824.385-1.325c.16-.51.376-1.071.631-1.676s.548-1.244.848-1.928.606-1.4.909-2.142l1.782-4.765c.335-.812.657-1.635,1-2.425.378-.777.723-1.509,1.131-2.263a10.893,10.893,0,0,1,.717-1.031c.279-.295.531-.605.813-.863.561-.521,1.114-.968,1.631-1.371l1.395-1.088a13.184,13.184,0,0,0,1.006-.9c.26-.273.441-.518.575-.668Z" transform="translate(-567.01 -3699.323)" fill="#344154"/></g><g transform="translate(40.14 11.933)" opacity="0.5" style="mix-blend-mode:multiply;isolation:isolate"><path d="M613.26,3697.073l.328.034c.213.03.531.038.925.115a11.141,11.141,0,0,1,1.409.412c.262.106.551.2.84.337l.888.466a19.893,19.893,0,0,1,1.868,1.259,23.049,23.049,0,0,1,1.91,1.624c.63.633,1.227,1.256,1.852,1.917.64.629,1.182,1.4,1.782,2.109.285.364.586.722.857,1.094l.786,1.123c.522.743,1.034,1.476,1.47,2.222.908,1.475,1.707,2.854,2.355,4.087a11.055,11.055,0,0,1,.734,1.758,6.491,6.491,0,0,1,.282,1.442,3.3,3.3,0,0,1-.024.938l-.036.327s0-.115-.01-.331a3.894,3.894,0,0,0-.1-.913,6.253,6.253,0,0,0-.418-1.353,16.572,16.572,0,0,0-.858-1.633c-.7-1.166-1.633-2.484-2.567-3.907-.451-.725-1-1.419-1.512-2.151l-.787-1.1c-.27-.362-.565-.7-.845-1.056-.581-.7-1.08-1.44-1.721-2.085l-1.773-1.943c-.6-.6-1.188-1.173-1.776-1.681a19.083,19.083,0,0,0-1.726-1.334,15.516,15.516,0,0,0-1.6-.921,10.694,10.694,0,0,0-1.315-.542C613.71,3697.178,613.26,3697.073,613.26,3697.073Z" transform="translate(-613.26 -3697.073)" fill="#344154"/></g><g transform="translate(37.319 4.122)" opacity="0.5" style="mix-blend-mode:multiply;isolation:isolate"><path d="M610.01,3688.073l.558.1a13.33,13.33,0,0,0,1.58.232c.68.07,1.512.129,2.473.19l1.534.166c.558.094,1.085.243,1.667.371.573.15,1.18.24,1.789.453l1.889.652a19.138,19.138,0,0,1,1.955.776c.655.287,1.33.573,2,.9l2.01,1.036c.722.35,1.329.778,2.008,1.169.645.448,1.313.914,1.934,1.413.6.522,1.238,1.013,1.793,1.587l.85.844.794.89c.542.582,1.016,1.214,1.51,1.821s.928,1.252,1.38,1.87c.425.634.844,1.263,1.258,1.88a58.507,58.507,0,0,1,4.1,6.991q.349.824.668,1.576.238.781.45,1.479a7.455,7.455,0,0,1,.292,1.323c.069.412.133.791.19,1.133.044.692.024,1.239.036,1.606s.005.566.005.566-.067-.791-.209-2.15q-.117-.5-.257-1.106a7.22,7.22,0,0,0-.367-1.278c-.165-.445-.342-.919-.528-1.418q-.344-.723-.72-1.517a37.774,37.774,0,0,0-1.918-3.262c-.73-1.132-1.554-2.3-2.368-3.529L637.094,3703c-.453-.6-.9-1.223-1.379-1.82s-.963-1.2-1.5-1.763l-.785-.859-.834-.812c-.534-.566-1.142-1.047-1.72-1.561-.595-.49-1.206-.928-1.825-1.373-.659-.39-1.312-.855-1.958-1.173l-1.974-1.049c-.652-.337-1.317-.613-1.949-.927a18.332,18.332,0,0,0-1.885-.832l-1.814-.7c-.585-.233-1.2-.349-1.764-.519-.564-.149-1.127-.318-1.624-.434l-1.494-.255c-.949-.119-1.782-.229-2.468-.344a10.7,10.7,0,0,1-1.561-.352Z" transform="translate(-610.01 -3688.073)" fill="#344154"/></g><g transform="translate(44.262)" opacity="0.5" style="mix-blend-mode:multiply;isolation:isolate"><path d="M618.01,3683.323l2.378.29c.753.115,1.674.226,2.722.406l1.671.291c.586.119,1.2.273,1.836.418a31.422,31.422,0,0,1,4.051,1.283,18.637,18.637,0,0,1,2.129.947,16.118,16.118,0,0,1,2.112,1.217,40.372,40.372,0,0,1,4.063,3.041c.652.568,1.306,1.141,1.951,1.73.624.612,1.274,1.2,1.879,1.837,1.209,1.271,2.372,2.586,3.438,3.945.529.682,1.068,1.347,1.542,2.05s.979,1.368,1.4,2.075.886,1.37,1.242,2.08c.373.7.761,1.37,1.059,2.066a35.348,35.348,0,0,1,1.6,3.937l.53,1.813c.141.582.229,1.147.335,1.669.049.262.1.517.142.761.023.248.045.488.067.718.043.46.082.882.117,1.263.036.763-.016,1.365-.015,1.773s-.016.625-.016.625-.01-.218-.031-.626-.035-1.006-.107-1.759c-.056-.375-.118-.791-.187-1.243q-.051-.338-.1-.7l-.183-.743c-.134-.51-.25-1.059-.421-1.624-.187-.56-.384-1.149-.589-1.763a34.87,34.87,0,0,0-1.7-3.816c-.315-.672-.72-1.32-1.11-1.994s-.814-1.346-1.257-2.024c-.424-.69-.916-1.352-1.4-2.027s-1.014-1.335-1.541-2c-1.064-1.327-2.227-2.608-3.428-3.848-.589-.632-1.223-1.219-1.83-1.83-.628-.587-1.267-1.16-1.9-1.725a39.809,39.809,0,0,0-3.952-3.029,19.3,19.3,0,0,0-2.028-1.216,18.168,18.168,0,0,0-2.041-.993,31.048,31.048,0,0,0-3.937-1.395l-1.8-.482-1.642-.382c-1.032-.238-1.942-.4-2.687-.556Z" transform="translate(-618.01 -3683.323)" fill="#344154"/></g></g></g><g transform="translate(439.847 3772.195)"><rect width="433.553" height="107.296" transform="translate(0 117.078)" fill="#e8c7aa"/><g transform="translate(32.019 164.834)"><g transform="translate(0 0.818)"><path d="M493.277,4018c-7.5,0-12.5-1.654-14.934-4.952-2.955-4.009-.993-8.769-.608-9.608,1.97-5.678,9.418-9.639,22.141-11.773a122.029,122.029,0,0,1,18.033-1.556v3.472c-9.24,0-33.885,2-36.915,11.06l-.093.222c-.013.028-1.684,3.543.252,6.143,1.574,2.114,6.826,5.233,24.3,2.386l.559,3.426A80.4,80.4,0,0,1,493.277,4018Z" transform="translate(-476.74 -3990.107)" fill="#fff"/></g><g transform="translate(98.802 5.194)"><path d="M630.524,4026.947c-5.853,0-15.1-.089-22.219-.58-11.335-.779-17.466-2.547-17.722-2.623l.975-3.332a89.839,89.839,0,0,0,16.984,2.492c10.617.73,26.095.559,27.508.542,5.283-.72,9.014-2.661,11.089-5.768,3.052-4.566,1.6-10.194,1.585-10.25-.838-2.922-12.635-7.619-36.209-8.812l.175-3.467c6.121.31,36.786,2.313,39.38,11.353.086.325,1.869,7.248-2.045,13.106-2.668,3.994-7.25,6.447-13.62,7.292l-.2.016C636.143,4026.917,633.9,4026.947,630.524,4026.947Z" transform="translate(-590.583 -3995.149)" fill="#fff"/></g><g transform="translate(24.115)"><path d="M508.357,4005.767c3.55-7.216,6.937-14.593,11.972-15.523,13.78-3.343,20.906,2.064,42.27,3s34.428-2.562,43.185.741c3.222,1.214-10.771,17.993-10.771,17.993s-7.56,12.239-14.124,13.392c-13.366,2.349-38.643-.64-38.643-.64s-30.7-3.356-36.119-5.615C503.016,4017,504.806,4012.983,508.357,4005.767Z" transform="translate(-504.526 -3989.165)" fill="#aed3f2"/><g clip-path="url(#f)"><path d="M502.105,4019.4c3.059.752,6.245,1.253,9.37,1.877a53.766,53.766,0,0,0,5.358,1.159c1.983.194,3.971.1,5.956.29,6.75.641,13.294,1.025,19.968,2.205,5.436.962,11.143.851,16.627,1.4,5.155.519,9.928-.158,15.021-.852a39.89,39.89,0,0,0,8.122-2.463c2.349-.849,5.16-2.767,7.782-2.321,2.325.4,2.626,3.969,1.383,5.532-1.36,1.708-4.027,3.122-5.842,4.313a14.076,14.076,0,0,1-6.763,2.488c-5.661.668-11.364,1.854-17.069,1.843a173.155,173.155,0,0,1-20.684-1.265c-5.19-.634-10.292-1.14-15.4-2.2-3.472-.721-6.647-2.217-10.093-3.082-4.2-1.054-15.418-3.043-13.3-9.362" transform="translate(-504.206 -3993.101)" fill="#aed3f2" opacity="0.3" style="mix-blend-mode:multiply;isolation:isolate"/></g></g><g transform="translate(44.578 7.055)" opacity="0.5" style="mix-blend-mode:multiply;isolation:isolate"><path d="M528.1,3997.294l.177.037a3.825,3.825,0,0,0,.519.092,10.363,10.363,0,0,0,1.991-.014l1.43-.1a15.039,15.039,0,0,1,1.7.074c.6.027,1.24.174,1.917.264.662.137,1.363.285,2.081.453,1.461.322,2.99.766,4.637,1.185,1.634.448,3.348,1,5.118,1.545q1.324.4,2.689.8l1.372.4,1.4.318,2.814.637,2.934.356a46.112,46.112,0,0,0,5.818.37c.957.055,1.919-.062,2.862-.083.945-.054,1.881-.067,2.8-.151,3.664-.376,7.125-.627,10.068-.875.744-.056,1.43-.126,2.131-.165l1.915-.012c1.212.066,2.262.128,3.121.2s1.536.1,2,.124l.708.037-.709.01c-.462,0-1.144.034-2.006,0s-1.91-.038-3.1-.045l-1.912.107-2.1.234-10.053,1.138c-.923.095-1.87.118-2.825.181-.957.031-1.917.159-2.9.113a46.537,46.537,0,0,1-5.924-.319l-2.931-.385-2.9-.683-1.422-.337-1.379-.42-2.7-.836c-1.764-.546-3.434-1.159-5.055-1.652-1.627-.466-3.164-.963-4.584-1.32a34.765,34.765,0,0,0-3.914-.87,14.639,14.639,0,0,0-1.662-.156l-1.426.028a9.482,9.482,0,0,1-2.007-.108,3.851,3.851,0,0,1-.513-.126Z" transform="translate(-528.105 -3997.294)" fill="#6595bf"/></g><g transform="translate(41.831 14.767)" opacity="0.5" style="mix-blend-mode:multiply;isolation:isolate"><path d="M524.939,4006.569l.668-.014a15.507,15.507,0,0,0,1.884-.108c.8-.077,1.787-.2,2.927-.268.573.012,1.187-.018,1.834.033l1.989.223c.347.043.7.072,1.061.129l1.1.216c.745.163,1.527.265,2.311.491,1.528.468,3.15.923,4.8,1.511s3.368,1.085,5.108,1.613c.879.214,1.776.375,2.669.566a12.16,12.16,0,0,0,1.333.243l1.389.127c.924.081,1.853.218,2.769.257l2.724.017a21.778,21.778,0,0,0,2.688-.129c.887-.08,1.767-.122,2.626-.23l2.526-.376,1.228-.172c.387-.066.794-.159,1.182-.236,1.567-.315,3.045-.632,4.451-.839l2-.167h1.823c1.142,0,2.125.061,2.94.079l2.557.071-2.559.1c-.811.024-1.806.012-2.93.074l-1.787.093-1.988.237c-1.344.243-2.816.606-4.371.973-.393.091-.773.192-1.192.277l-1.232.215-2.547.42c-.869.119-1.763.171-2.662.262a22.457,22.457,0,0,1-2.741.16l-2.8.01c-.934-.031-1.852-.154-2.78-.23l-1.388-.143a12.566,12.566,0,0,1-1.4-.266c-.916-.207-1.836-.383-2.731-.611-1.759-.553-3.5-1.08-5.128-1.678s-3.242-1.11-4.755-1.623c-.743-.241-1.508-.366-2.226-.548l-1.068-.245c-.354-.07-.71-.109-1.054-.164l-1.98-.293c-.617-.079-1.213-.081-1.771-.123-1.123.009-2.109.082-2.929.115a12.976,12.976,0,0,1-1.889-.014Z" transform="translate(-524.939 -4006.179)" fill="#6595bf"/></g><g transform="translate(42.409 21.832)" opacity="0.5" style="mix-blend-mode:multiply;isolation:isolate"><path d="M525.6,4014.587l.6-.092.72-.109c.285-.029.618-.034.989-.05a9.679,9.679,0,0,1,1.231.01,14.034,14.034,0,0,1,1.445.1,28.853,28.853,0,0,1,3.428.558c1.242.248,2.581.639,3.982.907,1.422.289,2.923.584,4.469.923l1.169.251,1.194.18,2.43.359,2.467.366c.788.137,1.665.154,2.5.237,1.687.209,3.345.167,4.988.208,1.648-.05,3.276-.084,4.849-.213l8.618-.666c1.261-.115,2.427-.145,3.455-.192s1.927-.065,2.667-.056l2.322.02-2.316.149c-.737.033-1.63.092-2.652.21s-2.175.206-3.432.355l-4.06.464c-1.44.177-2.965.339-4.547.465-1.58.147-3.224.2-4.895.273a50.225,50.225,0,0,1-5.073-.155c-.847-.094-1.665-.115-2.533-.271l-2.491-.4-2.451-.392-1.2-.2-1.167-.265c-1.544-.342-3.031-.706-4.441-1.042-1.438-.332-2.723-.756-3.955-1.049-.612-.151-1.2-.293-1.76-.407-.56-.131-1.094-.231-1.6-.306a14.122,14.122,0,0,0-1.42-.187,9.507,9.507,0,0,0-1.211-.08c-.366,0-.694-.019-.982-.015l-.727.054Z" transform="translate(-525.605 -4014.321)" fill="#6595bf"/></g><g transform="translate(27.842 2.931)"><path d="M509.255,4015.276a.476.476,0,0,1-.1-.01.434.434,0,0,1-.325-.52l.174-.789c.121-.557.227-1.037.321-1.332.137-.423.267-.845.4-1.267a.434.434,0,1,1,.83.254c-.13.425-.262.853-.4,1.279-.082.255-.188.74-.3,1.251l-.177.8A.433.433,0,0,1,509.255,4015.276Zm1.924-6.67a.434.434,0,0,1-.41-.574c.3-.877.593-1.646.9-2.347q.2-.462.4-.913a.434.434,0,1,1,.792.354c-.134.3-.266.6-.4.9-.3.68-.581,1.427-.872,2.281A.433.433,0,0,1,511.179,4008.606Zm2.789-6.351a.432.432,0,0,1-.384-.635c.554-1.059,1.116-2.034,1.721-2.983l.4.18.365.235-.035.054c-.59.926-1.14,1.88-1.683,2.916A.435.435,0,0,1,513.968,4002.255Zm3.736-5.843a.434.434,0,0,1-.355-.683,14.412,14.412,0,0,0,1.678-2.908.434.434,0,1,1,.81.311,15.1,15.1,0,0,1-1.777,3.1A.433.433,0,0,1,517.7,3996.412Z" transform="translate(-508.821 -3992.542)" fill="#fff"/></g><g transform="translate(103.709 5.754)"><path d="M596.671,4021.984a.434.434,0,0,1-.322-.725,21.387,21.387,0,0,0,1.885-2.627l.092-.142a.434.434,0,1,1,.729.471l-.092.142a22.1,22.1,0,0,1-1.97,2.739A.436.436,0,0,1,596.671,4021.984Zm4.109-5.6a.434.434,0,0,1-.343-.7c.364-.468.721-.942,1.079-1.417.339-.45.678-.9,1.023-1.346a.434.434,0,1,1,.687.531c-.343.443-.68.89-1.017,1.337-.36.478-.719.955-1.086,1.426A.432.432,0,0,1,600.78,4016.386Zm4.325-5.428a.434.434,0,0,1-.328-.719c.759-.877,1.507-1.752,2.244-2.638a.434.434,0,0,1,.667.556q-1.113,1.332-2.255,2.65A.433.433,0,0,1,605.1,4010.958Zm4.439-5.337a.433.433,0,0,1-.34-.7q.435-.551.864-1.108c.387-.5.807-1.055,1.227-1.64a.434.434,0,1,1,.706.507c-.427.592-.852,1.152-1.245,1.663q-.432.562-.871,1.116A.434.434,0,0,1,609.543,4005.621Zm3.956-5.7a.436.436,0,0,1-.384-.636,9.554,9.554,0,0,0,1.093-3.115.434.434,0,0,1,.861.111,10.283,10.283,0,0,1-1.185,3.407A.434.434,0,0,1,613.5,3999.924Z" transform="translate(-596.237 -3995.795)" fill="#fff"/></g><g transform="translate(232.962 3.279)"><g transform="translate(0 0.818)"><path d="M761.7,4021.775c-7.5,0-12.5-1.655-14.934-4.953-2.954-4.009-.993-8.769-.608-9.608,1.971-5.678,9.418-9.638,22.141-11.772a121.914,121.914,0,0,1,18.033-1.556v3.472c-9.24,0-33.885,2-36.915,11.059l-.092.223c-.014.027-1.685,3.543.252,6.142,1.574,2.113,6.826,5.232,24.3,2.386l.558,3.426A80.4,80.4,0,0,1,761.7,4021.775Z" transform="translate(-745.166 -3993.886)" fill="#fff"/></g><g transform="translate(98.802 5.194)"><path d="M898.949,4030.725c-5.853,0-15.1-.089-22.219-.58-11.335-.779-17.466-2.547-17.722-2.623l.976-3.332a89.818,89.818,0,0,0,16.984,2.492c10.617.73,26.1.56,27.509.542,5.282-.721,9.013-2.66,11.088-5.767,3.052-4.567,1.6-10.194,1.586-10.25-.839-2.922-12.636-7.619-36.21-8.812l.176-3.466c6.121.309,36.785,2.313,39.379,11.353.087.324,1.869,7.247-2.044,13.1-2.669,3.994-7.251,6.448-13.621,7.294l-.2.015C904.568,4030.7,902.322,4030.725,898.949,4030.725Z" transform="translate(-859.008 -3998.928)" fill="#fff"/></g><g transform="translate(24.115)"><path d="M776.783,4009.545c3.55-7.217,6.936-14.592,11.971-15.522,13.78-3.344,20.907,2.063,42.27,3s34.428-2.563,43.186.74c3.222,1.215-10.771,17.994-10.771,17.994s-7.56,12.238-14.125,13.391c-13.366,2.349-38.642-.64-38.642-.64s-30.7-3.355-36.119-5.615C771.442,4020.78,773.231,4016.762,776.783,4009.545Z" transform="translate(-772.952 -3992.943)" fill="#aed3f2"/><g clip-path="url(#g)"><path d="M770.53,4023.173c3.059.752,6.245,1.254,9.37,1.877a53.717,53.717,0,0,0,5.359,1.159c1.982.194,3.97.1,5.955.29,6.75.641,13.294,1.025,19.969,2.205,5.435.962,11.143.852,16.626,1.4,5.154.519,9.928-.158,15.022-.852a39.831,39.831,0,0,0,8.123-2.463c2.348-.848,5.158-2.766,7.782-2.321,2.324.395,2.625,3.969,1.382,5.532-1.36,1.708-4.026,3.122-5.842,4.313a14.06,14.06,0,0,1-6.762,2.488c-5.661.669-11.365,1.855-17.069,1.844a172.988,172.988,0,0,1-20.683-1.265c-5.19-.634-10.292-1.139-15.405-2.2-3.471-.721-6.646-2.217-10.093-3.082-4.2-1.053-15.417-3.043-13.3-9.362" transform="translate(-772.632 -3996.88)" fill="#aed3f2" opacity="0.3" style="mix-blend-mode:multiply;isolation:isolate"/></g></g><g transform="translate(44.578 7.055)" opacity="0.5" style="mix-blend-mode:multiply;isolation:isolate"><path d="M796.53,4001.072l.178.037a3.743,3.743,0,0,0,.519.093,10.45,10.45,0,0,0,1.991-.014l1.429-.1a14.8,14.8,0,0,1,1.7.074c.6.026,1.241.173,1.917.263.663.138,1.363.286,2.082.453,1.46.322,2.99.767,4.635,1.185,1.636.448,3.349,1,5.119,1.545l2.69.8,1.371.4,1.4.318,2.814.638,2.934.355a46.354,46.354,0,0,0,5.818.371c.957.055,1.919-.062,2.862-.084.946-.054,1.881-.066,2.8-.151,3.664-.375,7.124-.627,10.069-.875.743-.057,1.429-.125,2.13-.165l1.916-.012c1.212.066,2.262.128,3.12.2s1.536.1,2,.123l.708.037-.709.01c-.463,0-1.144.034-2.007,0s-1.91-.038-3.1-.045l-1.912.107-2.1.234-10.052,1.138c-.923.1-1.871.118-2.825.181-.958.032-1.918.159-2.9.113a46.537,46.537,0,0,1-5.924-.319l-2.931-.385-2.9-.683-1.423-.338-1.377-.419-2.7-.836c-1.764-.546-3.434-1.158-5.056-1.653-1.627-.466-3.163-.963-4.584-1.32a34.807,34.807,0,0,0-3.913-.87,14.709,14.709,0,0,0-1.663-.156l-1.426.028a9.32,9.32,0,0,1-2.007-.108,3.752,3.752,0,0,1-.513-.126Z" transform="translate(-796.53 -4001.072)" fill="#6595bf"/></g><g transform="translate(41.83 14.766)" opacity="0.5" style="mix-blend-mode:multiply;isolation:isolate"><path d="M793.364,4010.347l.668-.013a15.69,15.69,0,0,0,1.884-.107c.8-.077,1.787-.2,2.927-.269.574.013,1.188-.016,1.835.033l1.989.223c.346.044.7.072,1.06.129l1.1.216c.745.163,1.527.265,2.311.492,1.529.467,3.15.922,4.8,1.51s3.369,1.085,5.108,1.613c.88.215,1.776.375,2.67.568a12.175,12.175,0,0,0,1.332.242l1.389.128c.924.08,1.854.217,2.769.256l2.724.017a21.9,21.9,0,0,0,2.689-.128c.886-.08,1.766-.123,2.625-.231l2.527-.376,1.227-.173c.387-.066.794-.159,1.183-.235,1.566-.316,3.044-.634,4.45-.839l1.994-.168h1.823c1.142,0,2.125.062,2.941.079l2.556.071-2.558.1c-.812.023-1.807.011-2.93.074l-1.788.093-1.988.237c-1.343.244-2.816.607-4.371.973-.392.091-.774.192-1.191.278l-1.232.214-2.548.421c-.869.119-1.763.172-2.661.262a22.335,22.335,0,0,1-2.742.161l-2.8.009c-.934-.031-1.851-.154-2.78-.229l-1.387-.143a12.269,12.269,0,0,1-1.4-.267c-.915-.206-1.836-.382-2.731-.611-1.758-.554-3.5-1.079-5.128-1.678s-3.242-1.11-4.756-1.623c-.742-.241-1.508-.366-2.226-.548l-1.068-.246c-.353-.07-.709-.109-1.054-.163l-1.98-.293c-.618-.08-1.213-.082-1.772-.124-1.123.01-2.109.082-2.928.115a13.034,13.034,0,0,1-1.89-.014Z" transform="translate(-793.364 -4009.957)" fill="#6595bf"/></g><g transform="translate(42.408 21.832)" opacity="0.5" style="mix-blend-mode:multiply;isolation:isolate"><path d="M794.03,4018.365l.6-.091.72-.109c.286-.029.619-.034.99-.051a9.77,9.77,0,0,1,1.231.01,14.33,14.33,0,0,1,1.446.1,28.779,28.779,0,0,1,3.427.559c1.243.248,2.582.638,3.982.907,1.422.289,2.923.583,4.469.923l1.169.251,1.2.181,2.429.359,2.468.366c.787.137,1.665.154,2.5.237,1.686.21,3.344.167,4.987.209,1.647-.051,3.276-.085,4.849-.212l8.618-.667c1.262-.115,2.426-.145,3.455-.192s1.928-.065,2.667-.055l2.323.019-2.317.149c-.738.033-1.63.093-2.652.21s-2.174.207-3.432.356l-4.059.464c-1.441.177-2.965.338-4.548.465-1.58.147-3.224.2-4.894.272a50.527,50.527,0,0,1-5.074-.154c-.848-.1-1.665-.115-2.533-.272l-2.491-.4-2.451-.392-1.2-.2-1.167-.264c-1.544-.343-3.031-.706-4.441-1.042-1.437-.331-2.723-.756-3.955-1.048-.612-.15-1.2-.292-1.76-.406-.56-.132-1.094-.232-1.6-.307a14.076,14.076,0,0,0-1.419-.187,9.679,9.679,0,0,0-1.212-.079c-.366,0-.694-.02-.982-.016l-.726.055Z" transform="translate(-794.03 -4018.099)" fill="#6595bf"/></g><g transform="translate(27.842 2.931)"><path d="M777.681,4019.054a.431.431,0,0,1-.1-.011.436.436,0,0,1-.326-.52l.176-.789c.121-.556.226-1.037.321-1.333.136-.422.266-.845.4-1.267a.433.433,0,1,1,.829.254c-.13.425-.262.853-.4,1.279-.082.255-.187.739-.3,1.25l-.178.8A.433.433,0,0,1,777.681,4019.054Zm1.924-6.67a.474.474,0,0,1-.141-.022.434.434,0,0,1-.27-.551c.3-.877.592-1.646.9-2.348.134-.308.268-.611.4-.913a.434.434,0,0,1,.793.354q-.2.448-.4.9c-.3.681-.582,1.426-.873,2.281A.432.432,0,0,1,779.6,4012.384Zm2.789-6.35a.434.434,0,0,1-.384-.635c.555-1.058,1.117-2.034,1.72-2.982l.4.18.365.234-.035.054c-.589.926-1.14,1.881-1.683,2.916A.433.433,0,0,1,782.393,4006.034Zm3.736-5.844a.423.423,0,0,1-.248-.079.433.433,0,0,1-.107-.6,14.351,14.351,0,0,0,1.678-2.907.434.434,0,1,1,.81.31,15.019,15.019,0,0,1-1.778,3.1A.43.43,0,0,1,786.13,4000.19Z" transform="translate(-777.246 -3996.321)" fill="#fff"/></g><g transform="translate(103.709 5.753)"><path d="M865.1,4025.762a.434.434,0,0,1-.322-.726,21.437,21.437,0,0,0,1.885-2.626l.091-.142a.434.434,0,1,1,.729.471l-.092.142a22.245,22.245,0,0,1-1.97,2.738A.435.435,0,0,1,865.1,4025.762Zm4.108-5.6a.424.424,0,0,1-.265-.092.433.433,0,0,1-.077-.608c.364-.468.721-.942,1.078-1.416.338-.45.679-.9,1.023-1.345a.434.434,0,1,1,.686.531c-.343.443-.68.89-1.017,1.337-.359.478-.719.955-1.085,1.426A.435.435,0,0,1,869.2,4020.165Zm4.326-5.43a.433.433,0,0,1-.329-.718c.759-.877,1.507-1.753,2.245-2.638a.434.434,0,1,1,.666.556c-.741.889-1.493,1.769-2.255,2.65A.432.432,0,0,1,873.53,4014.736Zm4.439-5.336a.434.434,0,0,1-.341-.7q.435-.551.864-1.107c.388-.5.807-1.055,1.227-1.641a.434.434,0,0,1,.706.507c-.426.593-.852,1.153-1.245,1.663q-.434.564-.87,1.116A.434.434,0,0,1,877.969,4009.4Zm3.954-5.7a.42.42,0,0,1-.2-.05.432.432,0,0,1-.182-.585,9.545,9.545,0,0,0,1.092-3.116.434.434,0,1,1,.861.112,10.27,10.27,0,0,1-1.185,3.407A.435.435,0,0,1,881.923,4003.7Z" transform="translate(-864.662 -3999.572)" fill="#fff"/></g></g><g transform="translate(203.008 10.118)"><g transform="translate(0 0.819)"><path d="M727.189,4029.655c-7.5,0-12.5-1.654-14.934-4.952-2.955-4.009-.994-8.769-.608-9.608,1.97-5.679,9.417-9.638,22.14-11.772a121.967,121.967,0,0,1,18.034-1.556v3.472c-9.24,0-33.885,2-36.916,11.059l-.092.223c-.014.027-1.684,3.544.252,6.142,1.575,2.113,6.826,5.232,24.3,2.386l.559,3.426A80.394,80.394,0,0,1,727.189,4029.655Z" transform="translate(-710.652 -4001.766)" fill="#fff"/></g><g transform="translate(98.802 5.195)"><path d="M864.435,4038.6c-5.853,0-15.1-.089-22.218-.58-11.335-.78-17.466-2.547-17.722-2.623l.976-3.332a89.79,89.79,0,0,0,16.984,2.492c10.618.73,26.1.56,27.509.542,5.282-.72,9.013-2.66,11.089-5.767,3.052-4.567,1.6-10.194,1.585-10.251-.839-2.922-12.636-7.619-36.21-8.812l.176-3.466c6.121.309,36.785,2.313,39.379,11.353.087.324,1.87,7.247-2.044,13.1-2.668,3.994-7.251,6.448-13.62,7.294l-.2.015C870.055,4038.575,867.808,4038.6,864.435,4038.6Z" transform="translate(-824.495 -4006.808)" fill="#fff"/></g><g transform="translate(24.115)"><path d="M742.269,4017.425c3.55-7.217,6.936-14.592,11.971-15.523,13.78-3.343,20.907,2.064,42.27,3s34.428-2.562,43.186.741c3.222,1.214-10.771,17.993-10.771,17.993s-7.56,12.239-14.124,13.392c-13.367,2.349-38.642-.641-38.642-.641s-30.7-3.355-36.119-5.615C736.928,4028.659,738.717,4024.642,742.269,4017.425Z" transform="translate(-738.438 -4000.823)" fill="#f2e9e4"/><g clip-path="url(#h)"><path d="M736.016,4031.053c3.06.752,6.246,1.253,9.371,1.877a53.787,53.787,0,0,0,5.359,1.159c1.982.194,3.97.1,5.955.29,6.75.641,13.3,1.025,19.969,2.205,5.436.963,11.143.852,16.626,1.4,5.155.519,9.929-.158,15.022-.852a39.83,39.83,0,0,0,8.122-2.463c2.348-.848,5.159-2.766,7.782-2.321,2.325.4,2.625,3.969,1.382,5.532-1.36,1.708-4.026,3.122-5.842,4.313a14.057,14.057,0,0,1-6.762,2.488c-5.661.669-11.364,1.855-17.07,1.844a173.04,173.04,0,0,1-20.683-1.265c-5.19-.634-10.292-1.139-15.4-2.2-3.472-.721-6.646-2.217-10.093-3.082-4.2-1.054-15.417-3.044-13.3-9.362" transform="translate(-738.118 -4004.759)" fill="#f2e9e4" opacity="0.3" style="mix-blend-mode:multiply;isolation:isolate"/></g></g><g transform="translate(44.578 7.055)" opacity="0.5" style="mix-blend-mode:multiply;isolation:isolate"><path d="M762.016,4008.952l.178.038a3.816,3.816,0,0,0,.519.093,10.46,10.46,0,0,0,1.991-.015l1.429-.1a14.708,14.708,0,0,1,1.7.074c.6.026,1.24.173,1.917.263.662.138,1.363.285,2.081.453,1.461.322,2.99.767,4.636,1.185,1.636.448,3.348,1,5.118,1.545l2.69.8,1.371.4,1.4.318,2.814.638,2.934.355a46.261,46.261,0,0,0,5.818.371c.957.055,1.919-.062,2.862-.084.946-.054,1.881-.066,2.8-.151,3.663-.376,7.124-.626,10.068-.875.744-.056,1.43-.125,2.13-.165l1.916-.012c1.212.066,2.262.128,3.12.2s1.537.1,2,.123l.708.037-.709.01c-.462,0-1.143.034-2.007,0s-1.91-.038-3.1-.045l-1.912.107-2.1.234-10.052,1.138c-.923.1-1.87.118-2.825.181-.957.031-1.918.159-2.9.113a46.51,46.51,0,0,1-5.924-.319l-2.931-.384-2.9-.683-1.422-.337-1.378-.42-2.7-.835c-1.765-.546-3.434-1.159-5.057-1.653-1.627-.466-3.163-.962-4.584-1.32a34.82,34.82,0,0,0-3.913-.87,14.649,14.649,0,0,0-1.663-.155l-1.425.028a9.381,9.381,0,0,1-2.008-.108,3.817,3.817,0,0,1-.513-.126Z" transform="translate(-762.016 -4008.952)" fill="#aed3f2"/></g><g transform="translate(41.83 14.766)" opacity="0.5" style="mix-blend-mode:multiply;isolation:isolate"><path d="M758.85,4018.227l.669-.013a15.485,15.485,0,0,0,1.884-.108c.8-.075,1.786-.2,2.927-.268.573.013,1.187-.017,1.834.033l1.989.223c.346.044.7.072,1.061.129l1.1.216c.746.163,1.527.265,2.311.492,1.529.467,3.15.923,4.8,1.51s3.368,1.085,5.108,1.613c.88.214,1.776.375,2.67.568a11.93,11.93,0,0,0,1.332.242l1.388.128c.925.081,1.854.218,2.77.257l2.723.016a21.793,21.793,0,0,0,2.689-.129c.887-.079,1.766-.121,2.625-.23l2.528-.376,1.227-.173c.386-.066.794-.159,1.182-.236,1.567-.315,3.045-.633,4.451-.839l2-.167h1.822c1.143,0,2.125.062,2.941.079l2.556.071-2.558.1c-.812.024-1.807.012-2.93.075l-1.788.093-1.988.237c-1.343.244-2.816.607-4.371.973-.392.091-.773.192-1.191.278l-1.232.214-2.547.421c-.87.119-1.763.171-2.662.262a22.144,22.144,0,0,1-2.742.159l-2.8.01c-.934-.031-1.852-.154-2.78-.229l-1.388-.143a12.529,12.529,0,0,1-1.4-.266c-.916-.206-1.836-.383-2.732-.611-1.758-.554-3.5-1.079-5.127-1.679s-3.242-1.11-4.755-1.623c-.743-.241-1.508-.366-2.227-.548l-1.068-.246c-.354-.07-.71-.109-1.054-.163l-1.98-.293c-.618-.08-1.214-.082-1.772-.124-1.123.01-2.11.082-2.928.115a13.059,13.059,0,0,1-1.89-.014Z" transform="translate(-758.85 -4017.837)" fill="#aed3f2"/></g><g transform="translate(42.408 21.832)" opacity="0.5" style="mix-blend-mode:multiply;isolation:isolate"><path d="M759.516,4026.245l.6-.091.72-.109c.286-.03.619-.034.989-.051a9.814,9.814,0,0,1,1.231.01,14.1,14.1,0,0,1,1.446.1,28.855,28.855,0,0,1,3.428.558c1.242.249,2.581.639,3.982.907,1.422.289,2.923.584,4.468.924l1.17.25,1.2.181,2.428.359,2.468.366c.787.137,1.665.155,2.5.237,1.686.21,3.345.167,4.987.209,1.648-.051,3.277-.085,4.849-.214l8.619-.666c1.261-.115,2.426-.145,3.454-.192s1.928-.065,2.668-.055l2.323.019-2.317.149c-.737.033-1.63.092-2.651.21s-2.175.207-3.432.355l-4.06.465c-1.44.177-2.965.338-4.547.465-1.58.148-3.224.2-4.895.272a50.17,50.17,0,0,1-5.074-.155c-.847-.094-1.665-.115-2.533-.271l-2.491-.4q-1.237-.2-2.451-.392l-1.2-.2-1.167-.264c-1.544-.343-3.031-.707-4.441-1.042-1.437-.331-2.722-.756-3.954-1.048-.612-.15-1.2-.293-1.761-.406-.559-.132-1.094-.232-1.6-.307a14.014,14.014,0,0,0-1.42-.187,9.886,9.886,0,0,0-1.212-.08c-.366,0-.693-.019-.982-.014l-.726.053C759.727,4026.231,759.516,4026.245,759.516,4026.245Z" transform="translate(-759.516 -4025.979)" fill="#aed3f2"/></g><g transform="translate(27.842 2.931)"><path d="M743.167,4026.934a.418.418,0,0,1-.1-.011.435.435,0,0,1-.326-.52l.175-.789c.121-.557.227-1.037.321-1.332.136-.423.267-.845.4-1.267a.434.434,0,1,1,.829.255q-.194.638-.4,1.279c-.082.254-.187.739-.3,1.25l-.179.8A.432.432,0,0,1,743.167,4026.934Zm1.924-6.67a.464.464,0,0,1-.14-.022.434.434,0,0,1-.271-.551c.3-.877.592-1.646.9-2.348.135-.308.268-.611.4-.913a.434.434,0,0,1,.793.354c-.134.3-.266.6-.4.9-.3.68-.581,1.427-.872,2.282A.434.434,0,0,1,745.091,4020.264Zm2.789-6.35a.445.445,0,0,1-.2-.05.435.435,0,0,1-.183-.586c.555-1.059,1.117-2.034,1.721-2.982l.4.179.365.234-.035.054c-.59.926-1.141,1.881-1.684,2.916A.433.433,0,0,1,747.88,4013.914Zm3.735-5.844a.428.428,0,0,1-.248-.079.434.434,0,0,1-.107-.6,14.333,14.333,0,0,0,1.678-2.908.434.434,0,1,1,.81.311,15.015,15.015,0,0,1-1.777,3.1A.432.432,0,0,1,751.616,4008.07Z" transform="translate(-742.732 -4004.2)" fill="#fff"/></g><g transform="translate(103.709 5.754)"><path d="M830.583,4033.642a.434.434,0,0,1-.322-.726,21.459,21.459,0,0,0,1.885-2.626l.091-.143a.434.434,0,1,1,.729.471l-.091.143a22.288,22.288,0,0,1-1.971,2.738A.433.433,0,0,1,830.583,4033.642Zm4.109-5.6a.426.426,0,0,1-.266-.092.433.433,0,0,1-.077-.608c.364-.468.721-.941,1.078-1.417.339-.449.679-.9,1.023-1.346a.434.434,0,0,1,.687.531c-.343.443-.68.89-1.017,1.337-.359.478-.719.955-1.085,1.426A.433.433,0,0,1,834.691,4028.045Zm4.325-5.43a.434.434,0,0,1-.329-.718c.759-.877,1.507-1.753,2.245-2.637a.434.434,0,1,1,.667.555c-.742.889-1.493,1.769-2.256,2.65A.431.431,0,0,1,839.016,4022.616Zm4.439-5.336a.433.433,0,0,1-.34-.7q.435-.551.864-1.108c.387-.5.806-1.054,1.227-1.64a.434.434,0,1,1,.7.507c-.426.592-.851,1.152-1.244,1.663q-.434.563-.87,1.116A.435.435,0,0,1,843.455,4017.279Zm3.955-5.7a.437.437,0,0,1-.2-.05.433.433,0,0,1-.182-.585,9.528,9.528,0,0,0,1.092-3.116.438.438,0,0,1,.487-.375.434.434,0,0,1,.374.487,10.243,10.243,0,0,1-1.185,3.406A.434.434,0,0,1,847.41,4011.582Z" transform="translate(-830.148 -4007.452)" fill="#fff"/></g></g></g><g transform="translate(64.38 44.698)"><g transform="translate(86.275 68.478)"><path d="M613.437,3970.215l243.243-40.572v6.661l-29.761,40.572H613.437Z" transform="translate(-613.437 -3929.644)" fill="#d9a171"/><path d="M654.988,3929.644H856.68l-29.761,40.572H613.437Z" transform="translate(-613.437 -3929.644)" fill="#344154"/><path d="M848.462,3968.427c0-.957,1.883-1.733,4.2-1.733s4.207.776,4.207,1.733-1.885,1.732-4.207,1.732S848.462,3969.384,848.462,3968.427Z" transform="translate(-644.488 -3934.539)" fill="#d9a171"/><path d="M626.53,3970.83c0-.956,1.883-1.733,4.206-1.733s4.207.777,4.207,1.733-1.883,1.733-4.207,1.733S626.53,3971.788,626.53,3970.83Z" transform="translate(-615.167 -3934.856)" fill="#d9a171"/><path d="M873.55,3935.667c0-.959,1.882-1.734,4.206-1.734s4.2.775,4.2,1.734-1.881,1.731-4.2,1.731S873.55,3936.622,873.55,3935.667Z" transform="translate(-647.803 -3930.21)" fill="#d9a171"/></g><g transform="translate(33.023 74.133)"><g transform="translate(0 11.068)"><path d="M564.349,3973.682c-9.339,0-11.7-5.91-11.812-6.211a7.156,7.156,0,0,1,.419-5.98c2.528-4.619,9.75-6.441,10.056-6.517.046-.01.092-.019.139-.025,5.613-.751,22.942-5.929,23.116-5.98a1.3,1.3,0,1,1,.746,2.494c-.716.215-17.549,5.244-23.439,6.057-.658.175-6.467,1.8-8.338,5.228a4.571,4.571,0,0,0-.25,3.845c.092.222,2.824,6.645,15.329,3.737.248-.068,7.15-1.936,11.058-1.866a15.145,15.145,0,0,0,8.2-3.857,1.3,1.3,0,0,1,1.795,1.887,17.51,17.51,0,0,1-9.839,4.571,1.188,1.188,0,0,1-.127,0c-3.547-.091-10.38,1.768-10.449,1.786A29.172,29.172,0,0,1,564.349,3973.682Z" transform="translate(-552.078 -3948.912)" fill="#fff"/></g><g transform="translate(87.92 4.673)"><path d="M679.219,3961.755a37.4,37.4,0,0,1-5.075-.365,1.252,1.252,0,0,1-.138-.027c-.147-.037-14.674-3.657-19.272-3.472a1.3,1.3,0,1,1-.1-2.6c4.851-.2,18.689,3.222,19.932,3.531,14.263,1.934,17.818-5.174,18.246-6.182.385-3.319-5.971-5.683-8.259-6.255a1.226,1.226,0,0,1-.2-.067c-3.5-1.516-19.735-2.079-25.694-2.167a1.3,1.3,0,0,1-1.283-1.322,1.335,1.335,0,0,1,1.322-1.282c2.23.033,21.8.379,26.589,2.339,1.188.313,11.1,3.117,10.078,9.3a1.305,1.305,0,0,1-.057.221C695.174,3953.786,692.188,3961.755,679.219,3961.755Z" transform="translate(-653.382 -3941.544)" fill="#fff"/></g><g transform="translate(31.946)"><path d="M589.045,3949.728l5.569,15.488s.391,2.64,8.465.476c0,0,27.643-6.5,39.037-7.369,0,0,7.58.951,9.194-3.908l2.634-13.157s1.574-3.1-4.337-4.322c0,0-34.016-4.338-54.222,7.5C595.387,3944.431,587.7,3947.154,589.045,3949.728Z" transform="translate(-588.888 -3936.16)" fill="#aed3f2"/><g clip-path="url(#i)"><path d="M591.51,3963.213a13.749,13.749,0,0,0,8.852,2.6,40.112,40.112,0,0,0,7.193-.639c4.848-.864,9.8-2.182,14.543-3.424a63.962,63.962,0,0,1,16.759-2.229,41.057,41.057,0,0,0,6.244-.385c1.659-.251,7.6-2.215,8.907-1.365,2.154,1.4-1.271,4.288-2.432,4.8-4.249,1.869-9.918,2.487-14.461,3.509-8.97,2.017-17.938,4.276-26.794,6.738-4.511,1.254-10.664,1.7-13.81-2.229a18.246,18.246,0,0,1-2.453-3.688c-.569-1.2-.725-2.845-1.682-3.688" transform="translate(-589.234 -3938.987)" fill="#aed3f2" opacity="0.3" style="mix-blend-mode:multiply;isolation:isolate"/></g></g><path d="M601.01,3950.944l.495-.065a6.178,6.178,0,0,0,1.345-.358,15.544,15.544,0,0,0,1.965-.918c.744-.392,1.554-.889,2.508-1.342s1.98-.887,3.069-1.376c1.1-.466,2.212-1.039,3.45-1.465l3.781-1.391.969-.357,1.018-.268,2.009-.52,2.081-.333c.693-.116,1.382-.218,2.064-.268,1.366-.142,2.71-.266,4.011-.317.637-.024,1.31-.1,1.932-.07a17.124,17.124,0,0,1,1.845.089c1.217.092,2.323.287,3.353.455l2.792.483c.83.149,1.558.227,2.158.3s1.077.075,1.4.1l.5.03-.5.017c-.324,0-.8.054-1.411.019s-1.348-.053-2.189-.144c-.846-.067-1.792-.193-2.821-.32s-2.149-.268-3.31-.305a16.281,16.281,0,0,0-1.814-.009c-.63,0-1.229.069-1.888.108-1.293.07-2.619.21-3.964.37-.678.06-1.346.169-2.013.292l-2.013.345-2.016.491-.982.244-.961.338-3.754,1.323c-1.22.416-2.375.93-3.487,1.349-1.1.44-2.166.842-3.11,1.238s-1.789.847-2.566,1.188a15.986,15.986,0,0,1-2.054.79,5.6,5.6,0,0,1-1.394.244Z" transform="translate(-558.543 -3936.917)" fill="#6595bf"/><path d="M607.01,3955.766l.389-.075a5.076,5.076,0,0,0,1.073-.28,11.234,11.234,0,0,0,1.569-.676l1.954-1.09c.714-.408,1.5-.846,2.363-1.267a22,22,0,0,1,2.85-.969c.993-.277,1.988-.64,3.07-.833,1.076-.224,2.132-.472,3.258-.682l3.255-.358c1.068-.152,2.149-.142,3.182-.2l5.631-.17c.824-.01,1.573-.059,2.237-.117l1.724-.131,1.509-.1-1.486.266-1.715.285c-.332.055-.685.115-1.057.175s-.768.07-1.179.108c-1.643.13-3.57.313-5.6.445-1.021.076-2.071.113-3.144.267l-3.253.387c-1.031.185-2.118.426-3.157.632-1.049.182-2.075.5-3.07.756-1,.273-1.961.485-2.8.813-.853.359-1.649.748-2.386,1.118s-1.428.689-2.047.952a11.621,11.621,0,0,1-1.666.549,4.449,4.449,0,0,1-1.1.163Z" transform="translate(-559.336 -3937.833)" fill="#6595bf"/><path d="M610.01,3961.917l5.412-2.134c.817-.308,1.7-.643,2.651-.975s1.954-.668,3.022-.942c.527-.159,1.077-.271,1.632-.391a15.96,15.96,0,0,1,1.691-.319c.578-.076,1.147-.171,1.742-.234.575-.05,1.157-.1,1.75-.119,2.349-.09,4.666-.057,6.837-.1,1.085-.029,2.131-.064,3.12-.13s1.92-.177,2.769-.322,1.62-.329,2.3-.512a11.914,11.914,0,0,0,1.7-.645,7.814,7.814,0,0,0,1.035-.554l.36-.213-.333.251a6.258,6.258,0,0,1-.984.665,12.208,12.208,0,0,1-1.671.8,16.765,16.765,0,0,1-2.307.685c-.86.192-1.8.346-2.8.474s-2.059.216-3.153.262c-2.185.122-4.523.1-6.822.207-.568.017-1.146.055-1.726.1-.556.053-1.127.143-1.685.211s-1.111.179-1.655.28-1.085.2-1.606.343c-1.05.25-2.06.521-3.016.8s-1.852.568-2.682.835c-1.654.544-3.057.959-4.03,1.248Z" transform="translate(-559.732 -3938.56)" fill="#6595bf"/><g transform="translate(34.657 12.51)"><path d="M597.352,3963.451a.435.435,0,0,1-.427-.357,10.774,10.774,0,0,0-.756-2.38.434.434,0,0,1,.8-.346,11.65,11.65,0,0,1,.814,2.572.433.433,0,0,1-.35.5A.5.5,0,0,1,597.352,3963.451Zm-1.944-4.806a.433.433,0,0,1-.383-.229l-.114-.212c-.372-.7-.758-1.415-1.088-2.127a.434.434,0,0,1,.788-.365c.318.69.681,1.366,1.065,2.082l.113.212a.431.431,0,0,1-.178.586A.413.413,0,0,1,595.408,3958.645Zm-2.042-4.774a.435.435,0,0,1-.417-.311,10.931,10.931,0,0,0-.879-2.333.434.434,0,0,1,.749-.439,11.594,11.594,0,0,1,.962,2.526.435.435,0,0,1-.292.54A.472.472,0,0,1,593.366,3953.87Z" transform="translate(-592.011 -3950.574)" fill="#fff"/></g><g transform="translate(91.416 4.047)"><path d="M657.846,3954.459a.471.471,0,0,1-.114-.015.435.435,0,0,1-.306-.532c.2-.748.383-1.567.553-2.506a.439.439,0,0,1,.5-.351.435.435,0,0,1,.35.5c-.174.963-.361,1.805-.568,2.578A.433.433,0,0,1,657.846,3954.459Zm.971-5.113a.489.489,0,0,1-.062,0,.434.434,0,0,1-.367-.493l.1-.718c.089-.622.179-1.243.275-1.862a.434.434,0,1,1,.858.134c-.1.615-.185,1.234-.273,1.853l-.1.719A.433.433,0,0,1,658.817,3949.347Zm.837-5.139a.459.459,0,0,1-.09-.01.434.434,0,0,1-.334-.515,24.653,24.653,0,0,1,.675-2.561.434.434,0,1,1,.825.27,23.637,23.637,0,0,0-.652,2.471A.434.434,0,0,1,659.654,3944.208Z" transform="translate(-657.411 -3940.823)" fill="#fff"/></g></g><g transform="translate(0 20.923)"><path d="M515.971,3933.216s-5.137-25.558,1.294-58.367l29.674,7.8,1.453,14.215s27.257,6.429,42.914,11.889l19.539,4.29s5.292,1.764,7.309,5.125c0,0,8.368,8.886,6.947,10.406s-5.1-2.647-7.594-4.948A19.9,19.9,0,0,0,609,3919.34s13.891,16.6,10.717,18.931c-2.177,1.6-4.183-3.6-8.2-7.335s-8.15-6.889-8.15-6.889,13.8,14.756,11.1,17.163c-1.961,1.756-4.586-3.391-8.429-7.151a24.461,24.461,0,0,0-8.505-5.4s13.7,13.55,12.182,15.34c-1.928,2.274-4.269-2.129-8.819-5.29s-9.379-7.355-9.379-7.355-11.007,2.52-14.788-5.043C576.732,3926.314,533.915,3936,515.971,3933.216Z" transform="translate(-514.028 -3874.849)" fill="#ffbf9d"/><g clip-path="url(#j)"><path d="M511.427,3927.016c2.445,7.381,11.328,4.781,17.074,4.63a118.644,118.644,0,0,0,18.722-2.244c4.848-.906,9.627-1.658,14.47-2.16,3.115-.323,6.5-1.385,9.625-1.1a8.15,8.15,0,0,1,5.568,2.618c1.512,1.555,2.135,3.072,4.26,3.987,2.263.974,4.894.581,7.233,1.285,2.215.668,3.447,2.108,5.193,3.464,3.274,2.545,11.1,7.54,10.139,12.672-.808,4.324-8.734,2.682-11.562,1.092-3.31-1.862-5.6-4.9-9.169-6.431a21.229,21.229,0,0,0-10.152-1.343c-10.378.963-20.719,3.743-31.036,5.25-4.845.707-9.911-.106-14.756-.529-3.281-.288-6.966-1.2-9.194-3.9-1.931-2.339-2.578-6.413-3.891-9.248a29.69,29.69,0,0,1-2-6.88l-.24-.29" transform="translate(-513.685 -3881.619)" fill="#ffbf9d" opacity="0.5" style="mix-blend-mode:multiply;isolation:isolate"/></g></g><g transform="translate(116.87)"><g transform="translate(26.866)"><path d="M696.97,3867.083s11.828,27.276,15.271,31.21c0,0-22.629,7.709-32.469,11.808,0,0-3.281,20.007,23.614,17.381,0,0,34.6-6.724,40.505-11.478,0,0-2.092-32.755-22.441-65.264Z" transform="translate(-679.646 -3850.741)" fill="#ffbf9d"/><g clip-path="url(#k)"><path d="M704.919,3937.95c2.443-.508,4.639-2.379,6.766-3.584,2.677-1.515,5.325-3.1,7.982-4.653,5.322-3.119,11.251-4.857,16.932-7.2a55.651,55.651,0,0,1,8.933-3.332c1.868-.4,2.691.353,3.322,2.239.736,2.2-1.012,5.93-2.451,7.565-1.691,1.921-3.958,2.677-6.191,3.8a43.828,43.828,0,0,1-10.018,3.769c-5.575,1.281-11.415,2.353-17.14,1.841-2.611-.233-5.166-.965-7.709-1.338-.057-.009-.666-.2-.427-.113" transform="translate(-682.977 -3859.769)" fill="#ffbf9d" opacity="0.5" style="mix-blend-mode:multiply;isolation:isolate"/></g></g><g transform="translate(0 56.418)"><path d="M667.669,3916.517s13.594-3.722,20.9,5.208c0,0,12.918,16.907,3.653,18.262,0,0-4.96,1.375-11.687-2.547a31.1,31.1,0,0,0-6.816,3.935c-3.344,2.579-4,7.9-6.56,6.377-2.809-1.673,8.03-16.408,8.03-16.408s-3.4,2.24-7.544,5.476-6.743,10.084-9.05,7.472,11.179-17.358,11.179-17.358a79.2,79.2,0,0,0-8.325,5.634c-4.451,3.438-7.341,9.512-9.482,8.117-3.7-2.407,13.552-17.357,13.552-17.357a44.85,44.85,0,0,0-7.735,4.413c-4.018,2.854-5.639,8.643-8.337,7.008s2.344-7.1,6.9-11.656S667.669,3916.517,667.669,3916.517Z" transform="translate(-648.69 -3915.748)" fill="#ffbf9d"/><g clip-path="url(#l)"><path d="M671.911,3952.514c-.5-1.81.851-4.394,1.594-6.083a14.512,14.512,0,0,1,3.794-5.782c1.253-1.046,3.4-2.806,4.995-3.213,1.9-.485,2.443,1,3.971,1.669,3.374,1.473,7.923-.927,11.144,1.222a2.578,2.578,0,0,1,.191,4.051c-1.269.9-4.247,1.361-5.765,1.492-2.393.207-4.747-.506-7.135-.592-3.761-.134-5.739,2.687-8.267,5.173-1.028,1.012-3.866,3.2-4.52.615" transform="translate(-651.743 -3918.601)" fill="#ffbf9d" opacity="0.5" style="mix-blend-mode:multiply;isolation:isolate"/></g></g></g></g><g transform="translate(166.354)"><rect width="6.655" height="12.644" transform="translate(15.012 9.123)" fill="#d9a171"/><g transform="translate(81.977 6.393)"><path d="M1.165,0H15.831a1.162,1.162,0,0,1,1.162,1.162V12.929a1.162,1.162,0,0,1-1.162,1.162H1.162A1.162,1.162,0,0,1,0,12.929V1.165A1.165,1.165,0,0,1,1.165,0Z" fill="#fff"/><g clip-path="url(#m)"><g transform="translate(-1.383 3.552)" opacity="0.4"><rect width="22.092" height="0.217" fill="#aed3f2"/></g><g transform="translate(-1.383 5.433)" opacity="0.4"><rect width="22.092" height="0.217" fill="#aed3f2"/></g><g transform="translate(-1.856 8.905)" opacity="0.4"><rect width="24.157" height="0.217" fill="#aed3f2"/></g><g transform="translate(-3.447 11.942)" opacity="0.4"><rect width="26.325" height="0.217" fill="#aed3f2"/></g></g></g><rect width="19.571" height="2.943" rx="1.162" transform="translate(80.594 3.45)" fill="#344154"/><path d="M1.163,0H3.1A1.162,1.162,0,0,1,4.259,1.162V2.288A1.162,1.162,0,0,1,3.1,3.45H1.162A1.162,1.162,0,0,1,0,2.288V1.163A1.163,1.163,0,0,1,1.163,0Z" transform="translate(88.177)" fill="#d9a171"/><rect width="7.776" height="15.033" rx="1.162" transform="translate(123.718 5.306)" fill="#344154"/><rect width="5.221" height="5.885" transform="translate(154.107 14.949)" fill="#344154"/><rect width="0.686" height="17.631" transform="translate(21.07 111.604)" fill="#344154"/><rect width="2.105" height="17.631" transform="translate(20.361 98.578)" fill="#d9a171"/><g transform="translate(0 20.246)"><path d="M635.757,3867.876s0-42.431,3.065-44.553c0,0,166.232-2.785,182.984,2.329,0,0,2.467,90.767-.767,109.3,0,0-24.673,14.243-60.545,4.181,0,0,3.477-67.649-41.715-67.108l-38.273-.472s-10.846,32.6-34,34.437c0,0-10.237-.372-9.907-25.965,0,0-4.636,1.874-4.84-4.712C631.763,3875.316,630.065,3867.866,635.757,3867.876Z" transform="translate(-631.526 -3822.566)" fill="#d9a171"/><g clip-path="url(#n)"><path d="M646.849,3817.024h23.383v87.454l-23.383,4.367Z" transform="translate(-633.55 -3821.834)" fill="#f0d9c6"/><path d="M687.405,3839.311a5.213,5.213,0,1,1,5.212,5.211A5.213,5.213,0,0,1,687.405,3839.311Z" transform="translate(-638.909 -3824.09)" fill="#412648"/><path d="M736.419,3855.727a9.628,9.628,0,1,1,9.627,9.628A9.629,9.629,0,0,1,736.419,3855.727Z" transform="translate(-645.384 -3825.675)" fill="#f0d9c6"/><path d="M744.869,3856.139a3.991,3.991,0,1,1,3.99,3.99A3.99,3.99,0,0,1,744.869,3856.139Z" transform="translate(-646.501 -3826.474)" fill="#412648"/><path d="M798.98,3865.695a4.421,4.421,0,1,1,4.42,4.42A4.42,4.42,0,0,1,798.98,3865.695Z" transform="translate(-653.65 -3827.68)" fill="#412648"/><path d="M834.761,3874.674a3.5,3.5,0,1,1,3.5,3.5A3.5,3.5,0,0,1,834.761,3874.674Z" transform="translate(-658.377 -3828.989)" fill="#412648"/><path d="M774.921,3927.983s31.792-.826,31.121,16.813l-.206,15.749-29.605-4.515Z" transform="translate(-650.471 -3836.492)" fill="#f0d9c6"/><path d="M635.76,3899.912c6.29,7.036,17.123.038,22.491-4.355a79.4,79.4,0,0,0,10.5-10.045c2.172-2.619,3.178-5.941,5.483-8.469,8.444-9.26,27.422-7.176,38.418-6.576,11.435.624,24.643,2.432,33.978,9.758,8.629,6.771,17.443,17.653,19.317,28.645,1.027,6.021.354,12.164.638,18.235.22,4.728,1.912,8.381-.137,12.946-1.853,4.132-6.315,9.2-10.892,10.276-8.064,1.9-11.97-2.3-16.873-7.6-6.817-7.363-8.939-17.792-17.582-23.432-8.55-5.579-16.486-3.47-25.432-.508a112.2,112.2,0,0,1-36.771,5.424c-6.627-.067-14.56-1.582-16.839-8.186-1.646-4.77-4.9-11.027-5.143-15.825" transform="translate(-632.085 -3828.812)" fill="#d9a171" opacity="0.3" style="mix-blend-mode:multiply;isolation:isolate"/><path d="M682.76,3821.381c5.029,5.026,16.342,2.377,22.855,3.184,9.5,1.177,19.07.386,28.566,1.51,16.472,1.952,33.081,1.6,49.47,4.782,11.917,2.312,24.308,5.164,33.341,13.741a38.174,38.174,0,0,1,6.011,7.175c1.377,2.131,2.8,4.618,5.85,4.055,6.567-1.212,8.024-13.212,8.324-18.324.317-5.376.562-11.542-4.9-14.384-7.249-3.775-18.943-2.648-26.8-2.331a283.97,283.97,0,0,1-31.872.006c-9.931-.709-19.831-1.991-29.747-2.965a288.852,288.852,0,0,0-40.8-1.3c-3.208.144-19.3.467-19.441,5.432" transform="translate(-638.295 -3821.737)" fill="#f0d9c6" opacity="0.4"/></g></g></g></g></g></svg>