<svg xmlns="http://www.w3.org/2000/svg" width="833.844" height="396.734" viewBox="0 0 833.844 396.734"><g transform="translate(-277.876 -1349.223)"><path d="M989.164,1442.057c.59-4.27-5.45-7.79-10-8.16-2.17-.17-4.41.16-6.46-.56-4.44-1.54-6.22-7.28-10.55-9.11-3.24-1.36-7-.15-10.11,1.43s-6.24,3.57-9.75,3.8c-3.05.19-6.36-.94-9,.55-2,1.11-3,3.41-4.87,4.76s-4.13,1.6-6.36,1.72-4.53.15-6.56,1.07-3.7,3.07-3.28,5.26Z" fill="#aed3f2"/><path d="M872.755,1398.628c-2.15-10.71-13.15-18.94-24.1-17.98-3.61.32-7.24,1.5-10.78.7-5.27-1.18-8.64-6.37-10.62-11.43s-3.29-10.56-6.91-14.58c-5-5.55-13.34-6.88-20.72-5.74a39.863,39.863,0,0,0-24.8,14.37c-2.69,3.35-5.25,7.44-9.45,8.32-3.23.67-6.46-.79-9.71-1.33a17.88,17.88,0,0,0-17.72,8c-3.19,5.14-3.8,12-8.5,15.85-5.52,4.47-13.62,2.43-20.66,3.41a23.118,23.118,0,0,0-18.58,30.77l16,1.61c-4.6-3.65-2.62-11.67,2.24-15s11.17-3.25,17-3.11q67.1,1.7,134.22.58c3.29-.06,6.82-.19,9.49-2.13C872.885,1408.358,873.665,1403.088,872.755,1398.628Z" fill="#f2e9e4"/><rect width="63.19" height="200.25" transform="translate(368.206 1545.707)" fill="#aed3f2"/><rect width="31.59" height="199.7" transform="translate(399.796 1545.707)" fill="#839eb6"/><rect width="22.31" height="19.66" transform="translate(375.426 1526.047)" fill="#aed3f2"/><rect width="5.32" height="19.66" transform="translate(392.416 1526.047)" fill="#839eb6"/><path d="M362.946,1545.707v-1.15h70.3v1.15" fill="#e0e0e0"/><rect width="5.35" height="11.28" transform="translate(380.676 1554.287)" fill="#fafafa"/><path d="M399.8,1569.987c0,.12-7.07.22-15.79.22s-15.8-.1-15.8-.22,7.07-.22,15.8-.22S399.8,1569.867,399.8,1569.987Z" fill="#e0e0e0"/><rect width="5.35" height="11.28" transform="translate(412.546 1554.287)" fill="#e0e0e0"/><path d="M431.666,1569.987c0,.12-7.07.22-15.79.22s-15.8-.1-15.8-.22,7.07-.22,15.8-.22S431.666,1569.867,431.666,1569.987Z" fill="#e0e0e0"/><rect width="5.35" height="11.28" transform="translate(412.546 1576.677)" fill="#e0e0e0"/><path d="M431.666,1592.367c0,.12-7.07.22-15.79.22s-15.8-.1-15.8-.22,7.07-.21,15.8-.21S431.666,1592.257,431.666,1592.367Z" fill="#e0e0e0"/><rect width="5.35" height="11.28" transform="translate(412.546 1599.737)" fill="#e0e0e0"/><path d="M431.666,1615.447c0,.12-7.07.21-15.79.21s-15.8-.09-15.8-.21,7.07-.22,15.8-.22S431.666,1615.367,431.666,1615.447Z" fill="#e0e0e0"/><rect width="5.35" height="11.28" transform="translate(412.546 1622.807)" fill="#e0e0e0"/><path d="M431.666,1638.507c0,.12-7.07.22-15.79.22s-15.8-.1-15.8-.22,7.07-.21,15.8-.21S431.666,1638.367,431.666,1638.507Z" fill="#e0e0e0"/><rect width="5.35" height="11.28" transform="translate(412.546 1645.217)" fill="#e0e0e0"/><path d="M431.666,1660.917c0,.12-7.07.22-15.79.22s-15.8-.1-15.8-.22,7.07-.21,15.8-.21S431.666,1660.8,431.666,1660.917Z" fill="#e0e0e0"/><rect width="5.35" height="11.28" transform="translate(412.546 1667.707)" fill="#e0e0e0"/><rect width="5.35" height="11.28" transform="translate(412.546 1690.507)" fill="#e0e0e0"/><path d="M431.666,1683.417c0,.12-7.07.21-15.79.21s-15.8-.09-15.8-.21,7.07-.22,15.8-.22S431.666,1683.3,431.666,1683.417Z" fill="#e0e0e0"/><rect width="5.35" height="11.28" transform="translate(380.676 1577.017)" fill="#fafafa"/><path d="M399.8,1592.717c0,.12-7.07.22-15.79.22s-15.8-.1-15.8-.22,7.07-.21,15.8-.21S399.8,1592.6,399.8,1592.717Z" fill="#e0e0e0"/><rect width="5.35" height="11.28" transform="translate(380.676 1599.747)" fill="#fafafa"/><path d="M399.8,1615.457c0,.11-7.07.21-15.79.21s-15.8-.1-15.8-.21,7.07-.22,15.8-.22S399.8,1615.367,399.8,1615.457Z" fill="#e0e0e0"/><rect width="5.35" height="11.28" transform="translate(380.676 1622.477)" fill="#fafafa"/><path d="M399.8,1638.187c0,.12-7.07.21-15.79.21s-15.8-.09-15.8-.21,7.07-.22,15.8-.22S399.8,1638.067,399.8,1638.187Z" fill="#e0e0e0"/><rect width="5.35" height="11.28" transform="translate(380.676 1645.217)" fill="#fafafa"/><path d="M399.8,1660.917c0,.12-7.07.22-15.79.22s-15.8-.1-15.8-.22,7.07-.21,15.8-.21S399.8,1660.8,399.8,1660.917Z" fill="#e0e0e0"/><rect width="5.35" height="11.28" transform="translate(380.676 1667.947)" fill="#fafafa"/><path d="M399.8,1683.647c0,.12-7.07.22-15.79.22s-15.8-.1-15.8-.22,7.07-.21,15.8-.21S399.8,1683.527,399.8,1683.647Z" fill="#e0e0e0"/><rect width="5.35" height="11.28" transform="translate(380.676 1690.677)" fill="#fafafa"/><rect width="63.19" height="200.25" transform="translate(431.056 1545.707)" fill="#aed3f2"/><rect width="31.59" height="199.7" transform="translate(462.656 1545.707)" fill="#839eb6"/><rect width="22.31" height="19.66" transform="translate(438.276 1526.047)" fill="#aed3f2"/><rect width="5.32" height="19.66" transform="translate(455.266 1526.047)" fill="#839eb6"/><path d="M425.8,1545.707v-1.15h70.3v1.15" fill="#e0e0e0"/><rect width="5.35" height="11.28" transform="translate(443.526 1554.277)" fill="#fafafa"/><path d="M462.656,1569.987c0,.11-7.08.21-15.8.21s-15.8-.1-15.8-.21,7.07-.22,15.8-.22S462.656,1569.867,462.656,1569.987Z" fill="#e0e0e0"/><rect width="5.35" height="11.28" transform="translate(475.396 1554.277)" fill="#e0e0e0"/><path d="M494.516,1569.987c0,.11-7.07.21-15.79.21s-15.8-.1-15.8-.21,7.07-.22,15.8-.22S494.516,1569.867,494.516,1569.987Z" fill="#e0e0e0"/><rect width="5.35" height="11.28" transform="translate(475.396 1576.667)" fill="#e0e0e0"/><path d="M494.516,1592.377c0,.12-7.07.21-15.79.21s-15.8-.09-15.8-.21,7.07-.22,15.8-.22S494.516,1592.287,494.516,1592.377Z" fill="#e0e0e0"/><rect width="5.35" height="11.28" transform="translate(475.396 1599.737)" fill="#e0e0e0"/><path d="M494.516,1615.437c0,.12-7.07.22-15.79.22s-15.8-.1-15.8-.22,7.07-.21,15.8-.21S494.516,1615.287,494.516,1615.437Z" fill="#e0e0e0"/><rect width="5.35" height="11.28" transform="translate(475.396 1622.807)" fill="#e0e0e0"/><path d="M494.516,1638.507c0,.12-7.07.21-15.79.21s-15.8-.09-15.8-.21,7.07-.22,15.8-.22S494.516,1638.387,494.516,1638.507Z" fill="#e0e0e0"/><rect width="5.35" height="11.28" transform="translate(475.396 1645.207)" fill="#e0e0e0"/><path d="M494.516,1660.917c0,.12-7.07.21-15.79.21s-15.8-.09-15.8-.21,7.07-.22,15.8-.22S494.516,1660.8,494.516,1660.917Z" fill="#e0e0e0"/><rect width="5.35" height="11.28" transform="translate(475.396 1667.707)" fill="#e0e0e0"/><rect width="5.35" height="11.28" transform="translate(475.396 1690.497)" fill="#e0e0e0"/><path d="M494.516,1683.407c0,.12-7.07.22-15.79.22s-15.8-.1-15.8-.22,7.07-.21,15.8-.21S494.516,1683.287,494.516,1683.407Z" fill="#e0e0e0"/><rect width="5.35" height="11.28" transform="translate(443.526 1577.007)" fill="#fafafa"/><path d="M462.656,1592.717c0,.12-7.08.21-15.8.21s-15.8-.09-15.8-.21,7.07-.22,15.8-.22S462.656,1592.6,462.656,1592.717Z" fill="#e0e0e0"/><rect width="5.35" height="11.28" transform="translate(443.526 1599.747)" fill="#fafafa"/><path d="M462.656,1615.447c0,.12-7.08.22-15.8.22s-15.8-.1-15.8-.22,7.07-.21,15.8-.21S462.656,1615.287,462.656,1615.447Z" fill="#e0e0e0"/><rect width="5.35" height="11.28" transform="translate(443.526 1622.477)" fill="#fafafa"/><path d="M462.656,1638.177c0,.12-7.08.22-15.8.22s-15.8-.1-15.8-.22,7.07-.21,15.8-.21S462.656,1638.057,462.656,1638.177Z" fill="#e0e0e0"/><rect width="5.35" height="11.28" transform="translate(443.526 1645.207)" fill="#fafafa"/><path d="M462.656,1660.917c0,.12-7.08.21-15.8.21s-15.8-.09-15.8-.21,7.07-.22,15.8-.22S462.656,1660.8,462.656,1660.917Z" fill="#e0e0e0"/><rect width="5.35" height="11.28" transform="translate(443.526 1667.937)" fill="#fafafa"/><path d="M462.656,1683.647c0,.12-7.08.21-15.8.21s-15.8-.09-15.8-.21,7.07-.22,15.8-.22S462.656,1683.527,462.656,1683.647Z" fill="#e0e0e0"/><rect width="5.35" height="11.28" transform="translate(443.526 1690.677)" fill="#fafafa"/><path d="M379.006,1745.957h-92.98l-.4-146.95h92.98Z" fill="#839eb6"/><rect width="46.49" height="146.95" transform="translate(332.116 1599.007)" fill="#e0e0e0"/><rect width="32.83" height="28.93" transform="translate(296.236 1570.077)" fill="#839eb6"/><rect width="7.83" height="28.93" transform="translate(321.246 1570.077)" fill="#e0e0e0"/><rect width="103.45" height="1.69" transform="translate(277.876 1597.317)" fill="#e0e0e0"/><rect width="7.87" height="16.6" transform="translate(303.976 1611.627)" fill="#fff"/><path d="M332.086,1634.737c0,.17-10.41.31-23.25.31s-23.24-.14-23.24-.31,10.4-.32,23.24-.32S332.086,1634.6,332.086,1634.737Z" fill="#e0e0e0"/><rect width="7.87" height="16.6" transform="translate(350.876 1611.627)" fill="#aed3f2"/><path d="M379.006,1634.737c0,.17-10.41.31-23.24.31s-23.25-.14-23.25-.31,10.41-.32,23.25-.32S379.006,1634.6,379.006,1634.737Z" fill="#839eb6"/><rect width="7.87" height="16.6" transform="translate(350.876 1644.577)" fill="#aed3f2"/><path d="M379.006,1667.677c0,.18-10.41.32-23.24.32s-23.25-.14-23.25-.32,10.41-.31,23.25-.31S379.006,1667.507,379.006,1667.677Z" fill="#839eb6"/><rect width="7.87" height="16.6" transform="translate(350.876 1678.517)" fill="#aed3f2"/><path d="M379.006,1701.6c0,.17-10.41.31-23.24.31s-23.25-.14-23.25-.31,10.41-.32,23.25-.32S379.006,1701.447,379.006,1701.6Z" fill="#839eb6"/><rect width="7.87" height="16.6" transform="translate(350.876 1712.457)" fill="#aed3f2"/><path d="M379.006,1735.6c0,.18-10.41.32-23.24.32s-23.25-.14-23.25-.32,10.41-.32,23.25-.32S379.006,1735.4,379.006,1735.6Z" fill="#839eb6"/><rect width="7.87" height="16.6" transform="translate(303.976 1645.077)" fill="#fff"/><path d="M332.086,1668.187c0,.17-10.41.31-23.25.31s-23.24-.14-23.24-.31,10.4-.32,23.24-.32S332.086,1668.007,332.086,1668.187Z" fill="#e0e0e0"/><rect width="7.87" height="16.6" transform="translate(303.976 1678.527)" fill="#fff"/><path d="M332.086,1701.6c0,.17-10.41.32-23.25.32s-23.24-.15-23.24-.32,10.4-.32,23.24-.32S332.086,1701.457,332.086,1701.6Z" fill="#e0e0e0"/><rect width="7.87" height="16.6" transform="translate(303.976 1711.977)" fill="#fff"/><path d="M332.086,1735.087c0,.18-10.41.32-23.25.32s-23.24-.14-23.24-.32,10.4-.32,23.24-.32S332.086,1734.917,332.086,1735.087Z" fill="#e0e0e0"/><path d="M827.851,1692.917h-92.98l-.4-146.95h92.98Z" fill="#839eb6"/><rect width="46.49" height="146.95" transform="translate(780.961 1545.967)" fill="#e0e0e0"/><rect width="32.83" height="28.93" transform="translate(745.091 1517.037)" fill="#839eb6"/><rect width="7.83" height="28.93" transform="translate(770.091 1517.037)" fill="#e0e0e0"/><rect width="103.45" height="1.69" transform="translate(726.721 1544.287)" fill="#e0e0e0"/><rect width="7.87" height="16.6" transform="translate(752.821 1558.587)" fill="#fff"/><path d="M780.961,1581.7c0,.17-10.41.32-23.25.32s-23.24-.15-23.24-.32,10.4-.32,23.24-.32S780.961,1581.517,780.961,1581.7Z" fill="#e0e0e0"/><rect width="7.87" height="16.6" transform="translate(799.721 1558.587)" fill="#aed3f2"/><path d="M827.851,1581.7c0,.17-10.4.32-23.24.32s-23.25-.15-23.25-.32,10.41-.32,23.25-.32S827.851,1581.517,827.851,1581.7Z" fill="#839eb6"/><rect width="7.87" height="16.6" transform="translate(799.721 1591.537)" fill="#aed3f2"/><path d="M827.851,1614.647c0,.17-10.4.31-23.24.31s-23.25-.14-23.25-.31,10.41-.32,23.25-.32S827.851,1614.467,827.851,1614.647Z" fill="#839eb6"/><rect width="7.87" height="16.6" transform="translate(799.721 1625.477)" fill="#aed3f2"/><path d="M827.851,1648.587c0,.17-10.4.32-23.24.32s-23.25-.15-23.25-.32,10.41-.32,23.25-.32S827.851,1648.407,827.851,1648.587Z" fill="#839eb6"/><rect width="7.87" height="16.6" transform="translate(799.721 1659.417)" fill="#aed3f2"/><path d="M827.851,1682.527c0,.18-10.4.32-23.24.32s-23.25-.14-23.25-.32,10.41-.31,23.25-.31S827.851,1682.357,827.851,1682.527Z" fill="#839eb6"/><rect width="7.87" height="16.6" transform="translate(752.821 1592.037)" fill="#fff"/><path d="M780.961,1615.147c0,.17-10.41.32-23.25.32s-23.24-.15-23.24-.32,10.4-.32,23.24-.32S780.961,1614.967,780.961,1615.147Z" fill="#e0e0e0"/><rect width="7.87" height="16.6" transform="translate(752.821 1625.487)" fill="#fff"/><path d="M780.961,1648.6c0,.18-10.41.32-23.25.32s-23.24-.14-23.24-.32,10.4-.32,23.24-.32S780.961,1648.427,780.961,1648.6Z" fill="#e0e0e0"/><rect width="7.87" height="16.6" transform="translate(752.821 1658.937)" fill="#fff"/><path d="M780.961,1682.027c0,.18-10.41.32-23.25.32s-23.24-.14-23.24-.32,10.4-.31,23.24-.31S780.961,1681.877,780.961,1682.027Z" fill="#e0e0e0"/><rect width="63.19" height="200.25" transform="translate(965.861 1544.397)" fill="#aed3f2"/><rect width="31.59" height="199.7" transform="translate(997.451 1544.397)" fill="#839eb6"/><rect width="22.31" height="19.66" transform="translate(973.081 1524.737)" fill="#aed3f2"/><rect width="5.32" height="19.66" transform="translate(990.071 1524.737)" fill="#839eb6"/><path d="M960.591,1544.4v-1.14h70.31v1.14" fill="#e0e0e0"/><rect width="5.35" height="11.28" transform="translate(978.331 1552.977)" fill="#fafafa"/><path d="M997.451,1568.677c0,.12-7.07.22-15.79.22s-15.8-.1-15.8-.22,7.07-.21,15.8-.21S997.451,1568.557,997.451,1568.677Z" fill="#e0e0e0"/><rect width="5.35" height="11.28" transform="translate(1010.201 1552.977)" fill="#e0e0e0"/><path d="M1029.321,1568.677c0,.12-7.07.22-15.79.22s-15.8-.1-15.8-.22,7.07-.21,15.8-.21S1029.321,1568.557,1029.321,1568.677Z" fill="#e0e0e0"/><rect width="5.35" height="11.28" transform="translate(1010.201 1575.367)" fill="#e0e0e0"/><path d="M1029.321,1591.027c0,.12-7.07.22-15.79.22s-15.8-.1-15.8-.22,7.07-.21,15.8-.21S1029.321,1590.947,1029.321,1591.027Z" fill="#e0e0e0"/><rect width="5.35" height="11.28" transform="translate(1010.201 1598.437)" fill="#e0e0e0"/><path d="M1029.321,1614.137c0,.12-7.07.21-15.79.21s-15.8-.09-15.8-.21,7.07-.22,15.8-.22S1029.321,1614.027,1029.321,1614.137Z" fill="#e0e0e0"/><rect width="5.35" height="11.28" transform="translate(1010.201 1621.497)" fill="#e0e0e0"/><path d="M1029.321,1637.207c0,.11-7.07.21-15.79.21s-15.8-.1-15.8-.21,7.07-.22,15.8-.22S1029.321,1637.087,1029.321,1637.207Z" fill="#e0e0e0"/><rect width="5.35" height="11.28" transform="translate(1010.201 1643.907)" fill="#e0e0e0"/><path d="M1029.321,1659.607c0,.12-7.07.22-15.79.22s-15.8-.1-15.8-.22,7.07-.21,15.8-.21S1029.321,1659.487,1029.321,1659.607Z" fill="#e0e0e0"/><rect width="5.35" height="11.28" transform="translate(1010.201 1666.407)" fill="#e0e0e0"/><rect width="5.35" height="11.28" transform="translate(1010.201 1689.197)" fill="#e0e0e0"/><path d="M1029.321,1682.107c0,.12-7.07.21-15.79.21s-15.8-.09-15.8-.21,7.07-.22,15.8-.22S1029.321,1682.027,1029.321,1682.107Z" fill="#e0e0e0"/><rect width="5.35" height="11.28" transform="translate(978.331 1575.707)" fill="#fafafa"/><path d="M997.451,1591.407c0,.12-7.07.22-15.79.22s-15.8-.1-15.8-.22,7.07-.21,15.8-.21S997.451,1591.3,997.451,1591.407Z" fill="#e0e0e0"/><rect width="5.35" height="11.28" transform="translate(978.331 1598.437)" fill="#fafafa"/><path d="M997.451,1614.147c0,.12-7.07.21-15.79.21s-15.8-.09-15.8-.21,7.07-.22,15.8-.22S997.451,1614.027,997.451,1614.147Z" fill="#e0e0e0"/><rect width="5.35" height="11.28" transform="translate(978.331 1621.177)" fill="#fafafa"/><path d="M997.451,1636.877c0,.12-7.07.22-15.79.22s-15.8-.1-15.8-.22,7.07-.22,15.8-.22S997.451,1636.757,997.451,1636.877Z" fill="#e0e0e0"/><rect width="5.35" height="11.28" transform="translate(978.331 1643.907)" fill="#fafafa"/><path d="M997.451,1659.607c0,.12-7.07.22-15.79.22s-15.8-.1-15.8-.22,7.07-.21,15.8-.21S997.451,1659.487,997.451,1659.607Z" fill="#e0e0e0"/><rect width="5.35" height="11.28" transform="translate(978.331 1666.637)" fill="#fafafa"/><path d="M997.451,1682.337c0,.12-7.07.22-15.79.22s-15.8-.1-15.8-.22,7.07-.21,15.8-.21S997.451,1682.227,997.451,1682.337Z" fill="#e0e0e0"/><rect width="5.35" height="11.28" transform="translate(978.331 1689.367)" fill="#fafafa"/><rect width="46.65" height="147.83" transform="translate(1026.751 1596.647)" fill="#aed3f2"/><rect width="23.32" height="147.42" transform="translate(1050.071 1596.647)" fill="#839eb6"/><rect width="16.47" height="14.51" transform="translate(1032.081 1582.127)" fill="#aed3f2"/><rect width="3.93" height="14.51" transform="translate(1044.621 1582.127)" fill="#839eb6"/><path d="M1022.861,1596.647v-.85h51.9v.85" fill="#e0e0e0"/><rect width="3.95" height="8.33" transform="translate(1035.961 1602.977)" fill="#fafafa"/><path d="M1050.071,1614.567c0,.09-5.22.16-11.66.16s-11.66-.07-11.66-.16,5.22-.16,11.66-.16S1050.071,1614.477,1050.071,1614.567Z" fill="#e0e0e0"/><rect width="3.95" height="8.33" transform="translate(1059.491 1602.977)" fill="#e0e0e0"/><path d="M1073.591,1614.567c0,.09-5.22.16-11.66.16s-11.66-.07-11.66-.16,5.22-.16,11.66-.16S1073.591,1614.477,1073.591,1614.567Z" fill="#e0e0e0"/><rect width="3.95" height="8.33" transform="translate(1059.491 1619.507)" fill="#e0e0e0"/><path d="M1073.591,1631.1c0,.09-5.22.16-11.66.16s-11.66-.07-11.66-.16,5.22-.16,11.66-.16S1073.591,1631.027,1073.591,1631.1Z" fill="#e0e0e0"/><rect width="3.95" height="8.33" transform="translate(1059.491 1636.527)" fill="#e0e0e0"/><path d="M1073.591,1648.127c0,.08-5.22.16-11.66.16s-11.66-.08-11.66-.16,5.22-.16,11.66-.16S1073.591,1648.027,1073.591,1648.127Z" fill="#e0e0e0"/><rect width="3.95" height="8.33" transform="translate(1059.491 1653.557)" fill="#e0e0e0"/><path d="M1073.591,1665.147c0,.09-5.22.16-11.66.16s-11.66-.07-11.66-.16,5.22-.15,11.66-.15S1073.591,1665.027,1073.591,1665.147Z" fill="#e0e0e0"/><rect width="3.95" height="8.33" transform="translate(1059.491 1670.097)" fill="#e0e0e0"/><path d="M1073.591,1681.7c0,.08-5.22.15-11.66.15s-11.66-.07-11.66-.15,5.22-.16,11.66-.16S1073.591,1681.607,1073.591,1681.7Z" fill="#e0e0e0"/><rect width="3.95" height="8.33" transform="translate(1059.491 1686.707)" fill="#e0e0e0"/><rect width="3.95" height="8.33" transform="translate(1059.491 1703.537)" fill="#e0e0e0"/><path d="M1073.591,1698.3c0,.09-5.22.16-11.66.16s-11.66-.07-11.66-.16,5.22-.16,11.66-.16S1073.591,1698.217,1073.591,1698.3Z" fill="#e0e0e0"/><rect width="3.95" height="8.33" transform="translate(1035.961 1619.757)" fill="#fafafa"/><path d="M1050.071,1631.347c0,.09-5.22.16-11.66.16s-11.66-.07-11.66-.16,5.22-.16,11.66-.16S1050.071,1631.257,1050.071,1631.347Z" fill="#e0e0e0"/><rect width="3.95" height="8.33" transform="translate(1035.961 1636.537)" fill="#fafafa"/><path d="M1050.071,1648.127c0,.09-5.22.16-11.66.16s-11.66-.07-11.66-.16,5.22-.16,11.66-.16S1050.071,1648.027,1050.071,1648.127Z" fill="#e0e0e0"/><rect width="3.95" height="8.33" transform="translate(1035.961 1653.317)" fill="#fafafa"/><path d="M1050.071,1664.907c0,.09-5.22.16-11.66.16s-11.66-.07-11.66-.16,5.22-.15,11.66-.15S1050.071,1664.827,1050.071,1664.907Z" fill="#e0e0e0"/><rect width="3.95" height="8.33" transform="translate(1035.961 1670.097)" fill="#fafafa"/><path d="M1050.071,1681.7c0,.08-5.22.15-11.66.15s-11.66-.07-11.66-.15,5.22-.16,11.66-.16S1050.071,1681.607,1050.071,1681.7Z" fill="#e0e0e0"/><rect width="3.95" height="8.33" transform="translate(1035.961 1686.877)" fill="#fafafa"/><path d="M1050.071,1698.477c0,.08-5.22.16-11.66.16s-11.66-.08-11.66-.16,5.22-.16,11.66-.16S1050.071,1698.387,1050.071,1698.477Z" fill="#e0e0e0"/><rect width="3.95" height="8.33" transform="translate(1035.961 1703.667)" fill="#fafafa"/><path d="M1075.591,1474.937c.86-6.25-8-11.4-14.6-11.93-3.16-.26-6.45.23-9.45-.82-6.49-2.26-9.08-10.65-15.42-13.32-4.73-2-10.19-.22-14.78,2.09s-9.13,5.22-14.26,5.55c-4.46.28-9.31-1.37-13.21.81-2.91,1.62-4.44,5-7.12,7s-6,2.35-9.3,2.52-6.62.21-9.59,1.57-5.41,4.49-4.8,7.69Z" fill="#aed3f2"/><path d="M514.1,1450.78c.86-6.25-8-11.4-14.6-11.93-3.16-.26-6.45.23-9.44-.82-6.5-2.26-9.09-10.65-15.43-13.32-4.73-2-10.19-.22-14.78,2.09s-9.13,5.22-14.26,5.55c-4.46.28-9.31-1.37-13.21.81-2.91,1.62-4.44,5-7.12,6.95s-6,2.35-9.3,2.53-6.62.2-9.59,1.56-5.41,4.49-4.8,7.69Z" fill="#aed3f2"/><path d="M882.591,1461.207c.74-5.44-6.94-9.92-12.71-10.38-2.75-.22-5.61.2-8.21-.71-5.65-2-7.91-9.27-13.42-11.59-4.12-1.74-8.86-.19-12.86,1.82s-7.94,4.54-12.4,4.82c-3.89.25-8.1-1.19-11.5.71-2.53,1.41-3.85,4.33-6.19,6.05s-5.26,2-8.09,2.19-5.76.19-8.34,1.37-4.71,3.9-4.18,6.69Z" fill="#aed3f2"/><g opacity="0.3"><path d="M1111.721,1744.587c0,.14-160.35.26-358.11.26s-358.15-.12-358.15-.26,160.32-.26,358.15-.26S1111.721,1744.437,1111.721,1744.587Z"/></g><path d="M837,1628.477v-105.67h7.38v-14.76H947.7v14.76h6.81v105.67Z" fill="#5e6178"/><path d="M951.221,1522.867c0,.14-25.57.26-57.11.26s-57.11-.12-57.11-.26,25.57-.26,57.11-.26S951.221,1522.717,951.221,1522.867Z" fill="#344154"/><rect width="96.93" height="10.72" transform="translate(847.421 1529.827)" fill="#fff"/><path d="M855.791,1540.547a55.377,55.377,0,0,1,0-10.72,55.377,55.377,0,0,1,0,10.72Z" fill="#e0e0e0"/><path d="M864.411,1540.547a55.377,55.377,0,0,1,0-10.72,55.377,55.377,0,0,1,0,10.72Z" fill="#e0e0e0"/><path d="M873.041,1540.547a55.377,55.377,0,0,1,0-10.72,55.377,55.377,0,0,1,0,10.72Z" fill="#e0e0e0"/><path d="M881.671,1540.547a55.377,55.377,0,0,1,0-10.72,55.377,55.377,0,0,1,0,10.72Z" fill="#e0e0e0"/><path d="M890.3,1540.547a55.377,55.377,0,0,1,0-10.72,55.39,55.39,0,0,1,0,10.72Z" fill="#e0e0e0"/><path d="M898.921,1540.547a55.377,55.377,0,0,1,0-10.72,55.377,55.377,0,0,1,0,10.72Z" fill="#e0e0e0"/><path d="M907.591,1540.547a55.377,55.377,0,0,1,0-10.72,55.377,55.377,0,0,1,0,10.72Z" fill="#e0e0e0"/><path d="M916.181,1540.547a55.377,55.377,0,0,1,0-10.72,55.39,55.39,0,0,1,0,10.72Z" fill="#e0e0e0"/><path d="M924.811,1540.547a55.39,55.39,0,0,1,0-10.72,55.377,55.377,0,0,1,0,10.72Z" fill="#e0e0e0"/><path d="M933.431,1540.547a55.377,55.377,0,0,1,0-10.72,55.39,55.39,0,0,1,0,10.72Z" fill="#e0e0e0"/><rect width="96.93" height="10.72" transform="translate(847.421 1548.397)" fill="#fff"/><path d="M855.791,1559.117a55.377,55.377,0,0,1,0-10.72,55.377,55.377,0,0,1,0,10.72Z" fill="#e0e0e0"/><path d="M864.411,1559.117a55.377,55.377,0,0,1,0-10.72,55.377,55.377,0,0,1,0,10.72Z" fill="#e0e0e0"/><path d="M873.041,1559.117a55.377,55.377,0,0,1,0-10.72,55.377,55.377,0,0,1,0,10.72Z" fill="#e0e0e0"/><path d="M881.671,1559.117a55.377,55.377,0,0,1,0-10.72,55.377,55.377,0,0,1,0,10.72Z" fill="#e0e0e0"/><path d="M890.3,1559.117a55.377,55.377,0,0,1,0-10.72,55.39,55.39,0,0,1,0,10.72Z" fill="#e0e0e0"/><path d="M898.921,1559.117a55.377,55.377,0,0,1,0-10.72,55.377,55.377,0,0,1,0,10.72Z" fill="#e0e0e0"/><path d="M907.591,1559.117a55.377,55.377,0,0,1,0-10.72,55.377,55.377,0,0,1,0,10.72Z" fill="#e0e0e0"/><path d="M916.181,1559.117a55.377,55.377,0,0,1,0-10.72,55.39,55.39,0,0,1,0,10.72Z" fill="#e0e0e0"/><path d="M924.811,1559.117a55.39,55.39,0,0,1,0-10.72,55.377,55.377,0,0,1,0,10.72Z" fill="#e0e0e0"/><path d="M933.431,1559.117a55.377,55.377,0,0,1,0-10.72,55.39,55.39,0,0,1,0,10.72Z" fill="#e0e0e0"/><rect width="96.93" height="10.72" transform="translate(847.421 1566.957)" fill="#fff"/><path d="M855.791,1577.677a55.484,55.484,0,0,1,0-10.72A55.328,55.328,0,0,1,855.791,1577.677Z" fill="#e0e0e0"/><path d="M864.411,1577.677a55.484,55.484,0,0,1,0-10.72A55.328,55.328,0,0,1,864.411,1577.677Z" fill="#e0e0e0"/><path d="M873.041,1577.677a55.484,55.484,0,0,1,0-10.72A55.328,55.328,0,0,1,873.041,1577.677Z" fill="#e0e0e0"/><path d="M881.671,1577.677a55.484,55.484,0,0,1,0-10.72A55.328,55.328,0,0,1,881.671,1577.677Z" fill="#e0e0e0"/><path d="M890.3,1577.677a55.484,55.484,0,0,1,0-10.72A55.328,55.328,0,0,1,890.3,1577.677Z" fill="#e0e0e0"/><path d="M898.921,1577.677a55.484,55.484,0,0,1,0-10.72A55.328,55.328,0,0,1,898.921,1577.677Z" fill="#e0e0e0"/><path d="M907.591,1577.677a55.484,55.484,0,0,1,0-10.72A55.328,55.328,0,0,1,907.591,1577.677Z" fill="#e0e0e0"/><path d="M916.181,1577.677a55.484,55.484,0,0,1,0-10.72A55.328,55.328,0,0,1,916.181,1577.677Z" fill="#e0e0e0"/><path d="M924.811,1577.677a55.494,55.494,0,0,1,0-10.72A55.319,55.319,0,0,1,924.811,1577.677Z" fill="#e0e0e0"/><path d="M933.431,1577.677a55.484,55.484,0,0,1,0-10.72A55.328,55.328,0,0,1,933.431,1577.677Z" fill="#e0e0e0"/><rect width="96.93" height="10.72" transform="translate(847.421 1585.527)" fill="#fff"/><path d="M855.791,1596.247a55.484,55.484,0,0,1,0-10.72A55.328,55.328,0,0,1,855.791,1596.247Z" fill="#e0e0e0"/><path d="M864.411,1596.247a55.484,55.484,0,0,1,0-10.72A55.328,55.328,0,0,1,864.411,1596.247Z" fill="#e0e0e0"/><path d="M873.041,1596.247a55.484,55.484,0,0,1,0-10.72A55.328,55.328,0,0,1,873.041,1596.247Z" fill="#e0e0e0"/><path d="M881.671,1596.247a55.484,55.484,0,0,1,0-10.72A55.328,55.328,0,0,1,881.671,1596.247Z" fill="#e0e0e0"/><path d="M890.3,1596.247a55.484,55.484,0,0,1,0-10.72A55.328,55.328,0,0,1,890.3,1596.247Z" fill="#e0e0e0"/><path d="M898.921,1596.247a55.484,55.484,0,0,1,0-10.72A55.328,55.328,0,0,1,898.921,1596.247Z" fill="#e0e0e0"/><path d="M907.591,1596.247a55.484,55.484,0,0,1,0-10.72A55.328,55.328,0,0,1,907.591,1596.247Z" fill="#e0e0e0"/><path d="M916.181,1596.247a55.484,55.484,0,0,1,0-10.72A55.328,55.328,0,0,1,916.181,1596.247Z" fill="#e0e0e0"/><path d="M924.811,1596.247a55.494,55.494,0,0,1,0-10.72A55.319,55.319,0,0,1,924.811,1596.247Z" fill="#e0e0e0"/><path d="M933.431,1596.247a55.484,55.484,0,0,1,0-10.72A55.328,55.328,0,0,1,933.431,1596.247Z" fill="#e0e0e0"/><rect width="96.93" height="10.72" transform="translate(847.421 1604.087)" fill="#fff"/><path d="M855.791,1614.807a55.484,55.484,0,0,1,0-10.72A55.328,55.328,0,0,1,855.791,1614.807Z" fill="#e0e0e0"/><path d="M864.411,1614.807a55.484,55.484,0,0,1,0-10.72A55.328,55.328,0,0,1,864.411,1614.807Z" fill="#e0e0e0"/><path d="M873.041,1614.807a55.484,55.484,0,0,1,0-10.72A55.328,55.328,0,0,1,873.041,1614.807Z" fill="#e0e0e0"/><path d="M881.671,1614.807a55.484,55.484,0,0,1,0-10.72A55.328,55.328,0,0,1,881.671,1614.807Z" fill="#e0e0e0"/><path d="M890.3,1614.807a55.484,55.484,0,0,1,0-10.72A55.328,55.328,0,0,1,890.3,1614.807Z" fill="#e0e0e0"/><path d="M898.921,1614.807a55.484,55.484,0,0,1,0-10.72A55.328,55.328,0,0,1,898.921,1614.807Z" fill="#e0e0e0"/><path d="M907.591,1614.807a55.484,55.484,0,0,1,0-10.72A55.328,55.328,0,0,1,907.591,1614.807Z" fill="#e0e0e0"/><path d="M916.181,1614.807a55.484,55.484,0,0,1,0-10.72A55.328,55.328,0,0,1,916.181,1614.807Z" fill="#e0e0e0"/><path d="M924.811,1614.807a55.494,55.494,0,0,1,0-10.72A55.319,55.319,0,0,1,924.811,1614.807Z" fill="#e0e0e0"/><path d="M933.431,1614.807a55.484,55.484,0,0,1,0-10.72A55.328,55.328,0,0,1,933.431,1614.807Z" fill="#e0e0e0"/><rect width="281.91" height="120.1" transform="translate(724.891 1624.477)" fill="#5e6178"/><rect width="186.04" height="25.95" transform="translate(800.101 1646.367)" fill="#fff"/><rect width="106.11" height="50.99" transform="translate(827.121 1693.597)" fill="#344154"/><g opacity="0.3"><path d="M813.811,1698.207a4.123,4.123,0,0,1,0-.72c0-.5,0-1.16-.05-2,0-1.75-.06-4.18-.1-7.16l.19.18-24.82.08.26-.26h0v9.79l-.25-.25,17.72.11,5.18.07h1.41a2.073,2.073,0,0,1,.51,0,2.41,2.41,0,0,1-.45,0h-1.35l-5.13.07-17.89.11h-.25v-10.04h0l.26-.26,24.82.08h.18v.18c0,3-.08,5.49-.1,7.27,0,.8,0,1.44-.05,1.93A4.921,4.921,0,0,1,813.811,1698.207Z"/></g><g opacity="0.3"><path d="M997.121,1639.617a7.027,7.027,0,0,1,0-.71v-2c0-1.75-.06-4.18-.1-7.16l.18.18-24.81.08.26-.26h0v9.78l-.25-.24,17.71.11,5.19.07h.12l-5.14.07-17.88.11h-.25v-10.04h0c-.06.05.49-.5.26-.26l24.81.08h.19v.18c-.05,3-.08,5.49-.1,7.27v1.93A2.517,2.517,0,0,1,997.121,1639.617Z"/></g><g opacity="0.3"><rect width="24.81" height="9.85" transform="translate(800.751 1678.037)"/></g><path d="M986.141,1659.027c0,.14-41.65.26-93,.26s-93-.12-93-.26,41.64-.26,93-.26S986.141,1658.9,986.141,1659.027Z" fill="#5e6178"/><path d="M810.651,1673.947c-.15,0-.26-6.54-.26-14.6s.11-14.61.26-14.61.26,6.54.26,14.61S810.791,1673.947,810.651,1673.947Z" fill="#5e6178"/><path d="M821.881,1673.947c-.14,0-.26-6.54-.26-14.6s.12-14.61.26-14.61.26,6.54.26,14.61S822.031,1673.947,821.881,1673.947Z" fill="#5e6178"/><path d="M833.591,1673.947c-.14,0-.26-6.54-.26-14.6s.12-14.61.26-14.61.26,6.54.26,14.61S833.761,1673.947,833.591,1673.947Z" fill="#5e6178"/><path d="M845.351,1673.947c-.15,0-.26-6.54-.26-14.6s.11-14.61.26-14.61.26,6.54.26,14.61S845.491,1673.947,845.351,1673.947Z" fill="#5e6178"/><path d="M857.081,1673.947c-.14,0-.26-6.54-.26-14.6s.12-14.61.26-14.61.26,6.54.26,14.61S857.221,1673.947,857.081,1673.947Z" fill="#5e6178"/><path d="M868.811,1673.947c-.14,0-.26-6.54-.26-14.6s.12-14.61.26-14.61.26,6.54.26,14.61S868.961,1673.947,868.811,1673.947Z" fill="#5e6178"/><path d="M880.591,1673.947c-.15,0-.26-6.54-.26-14.6s.11-14.61.26-14.61.26,6.54.26,14.61S880.691,1673.947,880.591,1673.947Z" fill="#5e6178"/><path d="M892.281,1673.947c-.15,0-.26-6.54-.26-14.6s.11-14.61.26-14.61.26,6.54.26,14.61S892.421,1673.947,892.281,1673.947Z" fill="#5e6178"/><path d="M904.011,1673.947c-.14,0-.26-6.54-.26-14.6s.12-14.61.26-14.61.26,6.54.26,14.61S904.161,1673.947,904.011,1673.947Z" fill="#5e6178"/><path d="M915.741,1673.947c-.14,0-.26-6.54-.26-14.6s.12-14.61.26-14.61.26,6.54.26,14.61S915.891,1673.947,915.741,1673.947Z" fill="#5e6178"/><path d="M927.481,1673.947c-.15,0-.26-6.54-.26-14.6s.11-14.61.26-14.61.26,6.54.26,14.61S927.591,1673.947,927.481,1673.947Z" fill="#5e6178"/><path d="M939.211,1673.947c-.14,0-.26-6.54-.26-14.6s.12-14.61.26-14.61.26,6.54.26,14.61S939.351,1673.947,939.211,1673.947Z" fill="#5e6178"/><path d="M950.941,1673.947c-.14,0-.26-6.54-.26-14.6s.12-14.61.26-14.61.26,6.54.26,14.61S951.091,1673.947,950.941,1673.947Z" fill="#5e6178"/><path d="M962.681,1673.947c-.15,0-.26-6.54-.26-14.6s.11-14.61.26-14.61.26,6.54.26,14.61S962.821,1673.947,962.681,1673.947Z" fill="#5e6178"/><path d="M974.411,1673.947c-.14,0-.26-6.54-.26-14.6s.12-14.61.26-14.61.26,6.54.26,14.61S974.591,1673.947,974.411,1673.947Z" fill="#5e6178"/><path d="M986.141,1673.947c-.14,0-.26-6.54-.26-14.6s.12-14.61.26-14.61.26,6.54.26,14.61S986.291,1673.947,986.141,1673.947Z" fill="#5e6178"/><rect width="16.29" height="12.56" transform="translate(898.801 1719.467)" fill="#d9a171"/><g opacity="0.3"><rect width="16.29" height="12.56" transform="translate(898.801 1719.467)"/></g><path d="M911.011,1731.947v-6.26C911.011,1729.137,911.021,1731.947,911.011,1731.947Z" fill="#344154"/><rect width="1.25" height="1.41" transform="translate(912.461 1729.167)" fill="#aed3f2"/><rect width="1.85" height="2.68" transform="translate(903.771 1719.497)" fill="#344154"/><rect width="1.85" height="2.68" transform="translate(903.771 1729.317)" fill="#344154"/><path d="M914.951,1719.467" fill="#344154"/><rect width="16.29" height="12.56" transform="translate(912.361 1719.457)" fill="#d9a171"/><path d="M924.591,1731.927v0Z" fill="#344154"/><rect width="1.25" height="1.41" transform="translate(926.021 1729.157)" fill="#aed3f2"/><g opacity="0.5"><rect width="1.85" height="2.68" transform="translate(917.331 1719.487)" fill="#fff"/></g><g opacity="0.5"><rect width="1.85" height="2.68" transform="translate(917.331 1729.297)" fill="#fff"/></g><path d="M928.5,1719.457" fill="#344154"/><rect width="16.29" height="12.56" transform="translate(913.271 1706.887)" fill="#d9a171"/><path d="M925.481,1719.367v-6.26C925.481,1716.557,925.491,1719.367,925.481,1719.367Z" fill="#344154"/><rect width="1.25" height="1.41" transform="translate(926.931 1716.597)" fill="#aed3f2"/><rect width="1.85" height="2.68" transform="translate(918.241 1706.927)" fill="#344154"/><rect width="1.85" height="2.68" transform="translate(918.241 1716.737)" fill="#344154"/><path d="M929.421,1706.887" fill="#344154"/><rect width="16.29" height="12.56" transform="translate(912.901 1732.017)" fill="#d9a171"/><g opacity="0.3"><rect width="16.29" height="12.56" transform="translate(912.901 1732.017)"/></g><path d="M925.111,1744.5v-6.26C925.111,1741.687,925.121,1744.5,925.111,1744.5Z" fill="#344154"/><rect width="1.25" height="1.41" transform="translate(926.561 1741.727)" fill="#aed3f2"/><rect width="1.85" height="2.68" transform="translate(917.871 1732.057)" fill="#344154"/><rect width="1.85" height="2.68" transform="translate(917.871 1741.867)" fill="#344154"/><path d="M929.051,1732.027" fill="#344154"/><rect width="16.29" height="12.56" transform="translate(895.821 1732.017)" fill="#d9a171"/><path d="M908.031,1744.5v-6.26C908.031,1741.687,908.041,1744.5,908.031,1744.5Z" fill="#344154"/><rect width="1.25" height="1.41" transform="translate(909.481 1741.727)" fill="#aed3f2"/><g opacity="0.5"><rect width="1.85" height="2.68" transform="translate(900.791 1732.057)" fill="#fff"/></g><g opacity="0.5"><rect width="1.85" height="2.68" transform="translate(900.791 1741.867)" fill="#fff"/></g><path d="M911.961,1732.027" fill="#344154"/><rect width="3.81" height="51.9" transform="translate(878.101 1692.597)" fill="#5e6178"/><path d="M1001.421,1624.477c0,.15-47.31.26-105.66.26s-105.67-.11-105.67-.26,47.31-.26,105.67-.26S1001.421,1624.337,1001.421,1624.477Z" fill="#344154"/><path d="M679.631,1430.418l-8.81,162.3h54.03l-8.73-162.3Z" fill="#e0e0e0"/><path d="M716.641,1440.038H679.1l.53-9.62h36.63Z" fill="#d9a171"/><path d="M718.191,1468.938h-40.65l.69-12.89H717.5Z" fill="#d9a171"/><path d="M719.621,1495.408H676.1l.7-12.89h42.25Z" fill="#d9a171"/><path d="M721.041,1521.888h-46.38l.7-12.89h44.99Z" fill="#d9a171"/><path d="M722.471,1548.468l-49.24-.11.64-12.89h47.91Z" fill="#d9a171"/><path d="M723.9,1575.058l-52.11-.22.7-12.89H723.2Z" fill="#d9a171"/><path d="M679.591,1430.418h9.53l27-.08h.14v.14c1.93,35.56,5.16,94.72,8.84,162.29v.28h-54.51v-.27c2.57-46.49,4.81-87.09,6.41-116.08.81-14.45,1.47-26,1.91-34,.23-4,.41-7,.53-9.1.06-1,.11-1.81.15-2.35a3.718,3.718,0,0,0,0-.78v.82c0,.54-.07,1.33-.11,2.37-.11,2.1-.27,5.18-.47,9.16-.41,8-1,19.55-1.77,34-1.54,28.95-3.7,69.49-6.17,115.92l-.26-.27h54l-.26.27c-3.59-67.57-6.73-126.75-8.62-162.3l.15.13-26.88-.08h-8.98Z" fill="#344154"/><path d="M719.731,1451.9h-43.78a4.121,4.121,0,0,1-4.13-4.11v-.02h0a4.12,4.12,0,0,1,4.11-4.13h43.8a4.13,4.13,0,0,1,4.13,4.13h0a4.12,4.12,0,0,1-4.11,4.13Z" fill="#e0e0e0"/><path d="M719.731,1451.9a7.308,7.308,0,0,0,1.12-.21,4.021,4.021,0,0,0-1.09-7.89H716.1l-40.13.08a3.87,3.87,0,0,0-1.41,7.47,6.852,6.852,0,0,0,2.62.27h7.91l18,.06,12.16.08h0l-12.16.08H675.8a4.1,4.1,0,0,1-1.42-.29,4.381,4.381,0,0,1-1.26-7.42,4.48,4.48,0,0,1,2.85-1.06l40.13.08h3.66a4.264,4.264,0,0,1,3.68,6.3,4.148,4.148,0,0,1-2.58,2A3.134,3.134,0,0,1,719.731,1451.9Z" fill="#344154"/><path d="M421.5,1744.587v-187.2l87.6-42.42v43.34l93.14-43.34v44.26h186.28v185.36Z" fill="#d9a171"/><rect width="304.57" height="50.22" transform="translate(444.061 1611.737)" fill="#fff"/><path d="M760.281,1636.847c0,.14-71.09.26-158.76.26s-158.77-.08-158.77-.26,71.07-.26,158.77-.26S760.281,1636.707,760.281,1636.847Z" fill="#d9a171"/><path d="M462.311,1661.177a4.851,4.851,0,0,1,0,.66v1.91h-.21c-.09-4.43-.15-14.43-.15-26,0-7.87.05-15,.07-20.23,0-2.54.06-4.61.08-6.13v-1.67a2.265,2.265,0,0,1,.06-.58,3.748,3.748,0,0,1,0,.58v1.67c0,1.52.05,3.59.08,6.13,0,5.24,0,12.36.08,20.23,0,11.6-.07,21.6-.16,26h-.21v-1.91A2.9,2.9,0,0,1,462.311,1661.177Z" fill="#d9a171"/><path d="M484.331,1660.737a2.81,2.81,0,0,1,.06.66v1.91h-.22c-.09-4.43-.15-14.43-.15-26,0-7.87.06-15,.08-20.23,0-2.54.06-4.61.08-6.13v-1.67a2.678,2.678,0,0,1,0-.58,1.983,1.983,0,0,1,.05.58v1.67c0,1.52,0,3.59.09,6.13,0,5.24,0,12.36.07,20.23,0,11.6-.06,21.6-.15,26h-.22a17.506,17.506,0,0,1,.06-1.91A2.687,2.687,0,0,1,484.331,1660.737Z" fill="#d9a171"/><path d="M506.361,1660.437a3.159,3.159,0,0,1,0,.63c0,.47,0,1.06.05,1.8h-.21c-.09-4.19-.15-13.64-.15-24.61,0-7.43,0-14.16.07-19.12,0-2.39.06-4.35.08-5.79v-1.57a2.032,2.032,0,0,1,.06-.55,3.363,3.363,0,0,1,0,.55c0,.41,0,.93.05,1.57,0,1.44,0,3.4.08,5.79,0,5,0,11.69.08,19.12,0,11-.07,20.42-.16,24.61h-.21v-1.8A2.647,2.647,0,0,1,506.361,1660.437Z" fill="#d9a171"/><path d="M528.381,1659.857a2.808,2.808,0,0,1,.06.66c0,.49,0,1.12.05,1.91h-.22c-.09-4.44-.15-14.43-.15-26,0-7.86.06-15,.08-20.22,0-2.54.06-4.62.08-6.13a16.108,16.108,0,0,1,.05-1.67,2.678,2.678,0,0,1,0-.58,1.984,1.984,0,0,1,.05.58v1.67c0,1.51.05,3.59.09,6.13,0,5.24,0,12.36.07,20.22,0,11.61-.06,21.6-.15,26h-.22a17.316,17.316,0,0,1,.06-1.91A2.654,2.654,0,0,1,528.381,1659.857Z" fill="#d9a171"/><path d="M550.411,1659.6a2.9,2.9,0,0,1,.05.61v1.78h-.21c-.09-4.12-.15-13.41-.15-24.19,0-7.3.05-13.91.07-18.79,0-2.35.06-4.28.09-5.7v-1.54a1.891,1.891,0,0,1,.06-.54,3.147,3.147,0,0,1,.05.54v1.54c0,1.42.05,3.35.08,5.7,0,4.88.05,11.49.08,18.79,0,10.78-.07,20.07-.16,24.19h-.21v-1.78A2.478,2.478,0,0,1,550.411,1659.6Z" fill="#d9a171"/><path d="M572.431,1661.087a2.986,2.986,0,0,1,.06.68v2h-.21c-.1-4.6-.16-15-.16-27,0-8.17.06-15.56.08-21,0-2.63.06-4.79.08-6.36v-1.73a2.968,2.968,0,0,1,.05-.61,2.224,2.224,0,0,1,0,.61c0,.45,0,1,.05,1.73,0,1.57.05,3.73.09,6.36,0,5.44,0,12.83.07,21,0,12.05-.06,22.43-.15,27h-.21v-2A2.733,2.733,0,0,1,572.431,1661.087Z" fill="#d9a171"/><path d="M594.461,1658.937a2.865,2.865,0,0,1,0,.6c0,.46,0,1,.05,1.75h-.21c-.09-4.06-.15-13.22-.15-23.85,0-7.24,0-13.79.07-18.54,0-2.31.07-4.21.09-5.61v-1.53a1.9,1.9,0,0,1,.06-.53,2.132,2.132,0,0,1,0,.53c0,.41,0,.91.05,1.53,0,1.4.05,3.3.08,5.61,0,4.75.08,11.3.08,18.54,0,10.63-.07,19.79-.16,23.85h-.21c0-.71,0-1.29.05-1.75A2.435,2.435,0,0,1,594.461,1658.937Z" fill="#d9a171"/><path d="M616.481,1660.867a2.484,2.484,0,0,1,.06.62c0,.47,0,1.07.05,1.8h-.21c-.09-4.18-.16-13.61-.16-24.56,0-7.42.06-14.13.08-19.09,0-2.38.06-4.34.08-5.78a14.371,14.371,0,0,1,.05-1.57,2.4,2.4,0,0,1,0-.55,1.956,1.956,0,0,1,.06.55v1.57c0,1.44,0,3.4.09,5.78,0,5,0,11.67.07,19.09,0,10.95-.06,20.38-.15,24.56h-.21c0-.73,0-1.33.05-1.8A2.316,2.316,0,0,1,616.481,1660.867Z" fill="#d9a171"/><path d="M638.511,1660.427a2.262,2.262,0,0,1,.05.62v1.78h-.21c-.09-4.14-.15-13.49-.15-24.34,0-7.36,0-14,.07-18.92,0-2.36.07-4.3.09-5.73a14.193,14.193,0,0,1,.05-1.56,1.848,1.848,0,0,1,.05-.54,2.27,2.27,0,0,1,.05.54v1.56c0,1.43.05,3.37.08,5.73,0,4.91,0,11.56.08,18.92,0,10.85-.06,20.2-.16,24.34h-.21c0-.73,0-1.32.05-1.78A2.547,2.547,0,0,1,638.511,1660.427Z" fill="#d9a171"/><path d="M660.531,1660.027a2.407,2.407,0,0,1,.06.61c0,.47,0,1.05.05,1.77h-.21c-.09-4.11-.16-13.37-.16-24.12,0-7.29.06-13.88.08-18.75,0-2.34.06-4.26.08-5.68a13.808,13.808,0,0,1,.05-1.54,3.254,3.254,0,0,1,.05-.54,1.854,1.854,0,0,1,.06.54v1.54c0,1.42,0,3.34.09,5.68,0,4.87,0,11.46.07,18.75,0,10.75-.06,20-.15,24.12h-.21c0-.72,0-1.3.05-1.77A2.986,2.986,0,0,1,660.531,1660.027Z" fill="#d9a171"/><path d="M682.591,1659.547a2.224,2.224,0,0,1,0,.61l.06,1.75h-.22c-.09-4.07-.15-13.25-.15-23.9,0-7.26,0-13.83.07-18.58,0-2.32.07-4.22.09-5.63a13.692,13.692,0,0,1,.05-1.53,1.719,1.719,0,0,1,.05-.53,2.138,2.138,0,0,1,0,.53c0,.41,0,.92.05,1.53,0,1.41.05,3.31.08,5.63.05,4.75.08,11.32.08,18.58,0,10.65-.06,19.83-.15,23.9h-.22c0-.71,0-1.29.05-1.75A2.46,2.46,0,0,1,682.591,1659.547Z" fill="#d9a171"/><path d="M704.591,1659.107a2.371,2.371,0,0,1,.06.6c0,.46,0,1,.05,1.74h-.21c-.09-4-.16-13.13-.16-23.69,0-7.18,0-13.69.08-18.4,0-2.3.06-4.18.08-5.58a13.239,13.239,0,0,1,.05-1.51,3.245,3.245,0,0,1,.05-.53,1.821,1.821,0,0,1,.06.53v1.51c0,1.4.05,3.28.09,5.58,0,4.71.07,11.22.07,18.4,0,10.56-.06,19.65-.15,23.69h-.21c0-.71,0-1.28.05-1.74A2.89,2.89,0,0,1,704.591,1659.107Z" fill="#d9a171"/><path d="M726.591,1658.757a2.2,2.2,0,0,1,.05.6c0,.45,0,1,.06,1.72h-.22c-.09-4-.15-13-.15-23.51,0-7.13,0-13.59.07-18.27,0-2.27.07-4.15.09-5.53a13.329,13.329,0,0,1,.05-1.51,1.676,1.676,0,0,1,0-.52,2.111,2.111,0,0,1,.05.52c0,.41,0,.9.05,1.51,0,1.38.05,3.26.08,5.53.05,4.68.08,11.14.08,18.27,0,10.48-.06,19.51-.15,23.51h-.22v-1.72A2.439,2.439,0,0,1,726.591,1658.757Z" fill="#d9a171"/><g opacity="0.3"><path d="M528.031,1744.587h-16.44v-144.5a8.21,8.21,0,0,1,8.21-8.21h0a8.208,8.208,0,0,1,8.22,8.2v.01Z"/></g><g opacity="0.3"><path d="M562.591,1591.877h0a8.209,8.209,0,0,1,8.21,8.21v144.5h-16.41v-144.5a8.21,8.21,0,0,1,8.21-8.21Z"/></g><path d="M519.071,1744.587h-16.42v-153.46a8.21,8.21,0,0,1,8.21-8.21h0a8.219,8.219,0,0,1,8.21,8.21Z" fill="#5e6178"/><path d="M560.4,1744.587h-16.42v-153.46a8.22,8.22,0,0,1,8.21-8.21h0a8.209,8.209,0,0,1,8.21,8.21Z" fill="#5e6178"/><g opacity="0.3"><path d="M422.5,1557.387l86.6-35.86v-6.56Z"/></g><g opacity="0.3"><path d="M512.2,1557.917l90.04-35.52v-6.56Z"/></g><rect width="102.21" height="2" transform="translate(421.077 1556.483) rotate(-25.99)" fill="#344154"/><rect width="102.73" height="2" transform="matrix(0.907, -0.422, 0.422, 0.907, 508.681, 1557.426)" fill="#344154"/><g opacity="0.3"><path d="M446.311,1590.517v-2.72c0-1.75-.06-4.17-.1-7.16l.18.18-24.81.08.26-.26h0v9.79l-.25-.25,17.71.12,5.19.07h1.91a2.3,2.3,0,0,1-.44,0H444.6l-5.13.07-17.88.12h-.25v-10.04h0l.26-.26,24.81.08h.19v.18l-.09,7.27v1.93A2.741,2.741,0,0,1,446.311,1590.517Z"/></g><g opacity="0.3"><rect width="24.81" height="9.85" transform="translate(432.701 1570.867)"/></g><g opacity="0.3"><path d="M629.791,1724.8a3.821,3.821,0,0,1,0-.71v-2c0-1.75-.06-4.18-.1-7.16l.19.18-24.82.08.26-.26h0v9.78l-.25-.24,17.72.11,5.18.07h.12l-5.13.07-17.89.11h-.25v-10.04h0l.26-.26,24.82.08h.18v.18c0,3-.08,5.49-.1,7.27,0,.79,0,1.44-.05,1.93A4.479,4.479,0,0,1,629.791,1724.8Z"/></g><g opacity="0.3"><rect width="24.81" height="9.85" transform="translate(616.171 1705.147)"/></g><g opacity="0.3"><path d="M479.841,1694.377v-2.71c0-1.74-.06-4.17-.1-7.15l.18.18-24.81.08.26-.26h0v9.83l-.25-.25,17.71.12,5.19.07h1.91a2.3,2.3,0,0,1-.44,0h-1.36l-5.13.06-17.88.12h-.25v-10.08h0c-.06.05.49-.5.26-.27l24.81.08h.19v.19c0,3-.07,5.49-.09,7.26v1.94A3.535,3.535,0,0,1,479.841,1694.377Z"/></g><g opacity="0.3"><path d="M584.461,1574.117v-2.72c0-1.75-.06-4.18-.1-7.16l.18.18-24.81.08.26-.26h0v9.83l-.24-.25,17.71.11,5.13.1h1.4a2.716,2.716,0,0,1,.51,0,2.409,2.409,0,0,1-.45,0H582.7l-5.13.07-17.88.11h-.25v-10.04h0l.26-.26,24.81.08h.18v.18c0,3-.07,5.49-.1,7.27v1.93A5.787,5.787,0,0,1,584.461,1574.117Z"/></g><g opacity="0.3"><path d="M733.911,1589.027v-2.72c0-1.75-.06-4.17-.1-7.16l.18.18-24.81.08.26-.26h0v9.88l-.25-.25,17.71.12,5.19.07H734a2.324,2.324,0,0,1-.44,0H732.2l-5.13.07-17.88.12h-.25v-9.92h0l.26-.26,24.81.08h.19v.18c0,3-.07,5.5-.1,7.27v1.93A3.718,3.718,0,0,1,733.911,1589.027Z"/></g><g opacity="0.3"><path d="M773.061,1681.807a3.832,3.832,0,0,1,0-.71c0-.5,0-1.16-.05-2,0-1.75-.05-4.18-.09-7.16l.18.18-24.82.08.26-.26h0v9.87l-.25-.25,17.72.12,5.19.07h1.91a2.8,2.8,0,0,1-.45,0h-1.35l-5.13.07-17.89.11h-.25v-9.9h0l.26-.26,24.82.07h.18v.18c0,3-.08,5.49-.1,7.26v1.94A5.2,5.2,0,0,1,773.061,1681.807Z"/></g><g opacity="0.3"><rect width="24.81" height="9.85" transform="translate(615.781 1590.777)"/></g><g opacity="0.3"><rect width="24.81" height="9.85" transform="translate(733.911 1569.547)"/></g><rect width="54.63" height="54.63" transform="translate(660.531 1689.947)" fill="#344154"/><rect width="20.35" height="6.38" transform="translate(1057.981 1732.087)" fill="#5e6178"/><path d="M1043.761,1729.207v8.43h6.95l2.78-4.04h50.74v-4.39Z" fill="#344154"/><path d="M1043.331,1702.487a.51.51,0,0,0-.538-.48h0c-2.75.11-15.79.71-18.47,2-2.05,1-4.3,4.67-5.88,7.15-1.14,1.78-3.65,5.73-4.16,7.75a35.981,35.981,0,0,0-.66,7l.72,9.33h11.82l1.18-3.08a5.2,5.2,0,0,1,4.85-3.34h11.75v-15.45Z" fill="#d9a171"/><path d="M1022.921,1705.027a36.076,36.076,0,0,0-4.48,6.12,44.229,44.229,0,0,0-4,7.27,1.033,1.033,0,0,0,0,.11,1.739,1.739,0,0,0,1.08-.64c.26-.52.59-2.29,4.7-9C1021.421,1706.887,1022.641,1705.687,1022.921,1705.027Z" fill="#5e6178"/><path d="M1037.261,1704.347c-3,.17-9.58.61-11.67,1.33-2.73.93-5.78,8.15-5.93,8.46l-2.07,5.28a.24.24,0,0,0,.16.3.245.245,0,0,0,.06.011h5.33a1.72,1.72,0,0,0,.59-.11l14-5.22a1.63,1.63,0,0,0,1.05-1.52v-7.06a1.469,1.469,0,0,0-1.469-1.471Z" fill="#344154"/><path d="M1018.191,1719.207s2-4.43,2.64-5.88c1-2.2,3.35-6.69,4.93-7.16a68.744,68.744,0,0,1,11.53-1.31h0a1,1,0,0,1,1,1v7.17a.851.851,0,0,1-.56.81l-10.36,1.28a2.91,2.91,0,0,0-2.06,1.28l-1.79,2.74a1.024,1.024,0,0,1-.33.06Z" fill="#5e6178"/><path d="M1026.991,1715.207l-3.52,3.92,2-13,.48-.16-1,9.64a.28.28,0,0,0,.245.311.277.277,0,0,0,.145-.021Z" fill="#344154"/><path d="M1013.391,1726.837c0-.17.05-.31.13-.32l1.89-.17c.16,0,.3.28.32.63l.08,1.44c0,.24-.05.43-.16.45l-1.92.33c-.09,0-.17-.11-.18-.28Z" fill="#839eb6"/><rect width="13.6" height="5.45" transform="translate(1013.391 1733.607)" fill="#344154"/><path d="M1028.351,1737.207a7.44,7.44,0,1,0,7.55-7.33,7.441,7.441,0,0,0-7.55,7.33Z" fill="#344154"/><path d="M1028.351,1737.187h0a7.441,7.441,0,1,0,14.88.21h0Z" fill="#344154"/><path d="M1030.591,1737.237a5.23,5.23,0,1,0,5.309-5.15h-.009a5.219,5.219,0,0,0-5.3,5.139Z" fill="#fafafa"/><path d="M1035.871,1732.087a5.23,5.23,0,0,0-5.3,5.15l10.45.15A5.229,5.229,0,0,0,1035.871,1732.087Z" fill="#e0e0e0"/><path d="M1032.591,1737.267a3.49,3.49,0,1,0,0-.011Z" fill="#344154"/><rect width="3.09" height="7.4" rx="1.39" transform="translate(1019.511 1709.067)" fill="#344154"/><path d="M1018.231,1721.027h-.15v-7.8a1.41,1.41,0,0,1,1.41-1.41h.37v.15h-.37a1.27,1.27,0,0,0-1.26,1.26Z" fill="#344154"/><path d="M1019.291,1721.027l-.43-7.33a.872.872,0,0,1,.25-.68.881.881,0,0,1,.67-.29v.15a.8.8,0,0,0-.56.24.822.822,0,0,0-.21.58l.44,7.32Z" fill="#344154"/><rect width="2.09" height="2.42" transform="translate(1017.691 1720.347)" fill="#344154"/><rect width="0.85" height="0.16" transform="translate(1018.161 1715.747)" fill="#344154"/><path d="M1026.111,1704.557h.18l.55-.06,2.11-.25,7.87-.89,1.29-.14a2.149,2.149,0,0,1,.67,0,2.693,2.693,0,0,1,.65.25,2.381,2.381,0,0,1,1,1,2.155,2.155,0,0,1,.22.71,1.433,1.433,0,0,1,0,.37v21.9h-8.17a9.246,9.246,0,0,0-1.4.07,5.694,5.694,0,0,0-1.34.38,5.548,5.548,0,0,0-2.95,3.05,5.665,5.665,0,0,0-.29,1v.94h-10.47v-12.12a2.961,2.961,0,0,1,.06-.73,7.323,7.323,0,0,1,.88-2.68c.42-.8.84-1.58,1.24-2.32.79-1.5,1.53-2.88,2.19-4.13l1.79-3.35c.13-.24.25-.48.38-.7a2.5,2.5,0,0,1,.18-.33,1.613,1.613,0,0,1,.21-.3,4.265,4.265,0,0,1,.94-.88,4.759,4.759,0,0,1,1.61-.7,4.375,4.375,0,0,1,.6-.09h-.15l-.45.09a4.826,4.826,0,0,0-1.6.7,4.458,4.458,0,0,0-.93.88l-.21.29c-.06.11-.11.22-.18.33l-.37.71-1.78,3.35q-1,1.89-2.19,4.13c-.39.75-.8,1.53-1.23,2.33a7.387,7.387,0,0,0-.87,2.66,5.76,5.76,0,0,0,0,.72v12.17h10.24v-.96a4.647,4.647,0,0,1,.3-1.04,5.591,5.591,0,0,1,3-3.1,6.042,6.042,0,0,1,1.37-.38,9.5,9.5,0,0,1,1.41-.07h8.12v-21.43a4.33,4.33,0,0,0,0-.74,1.988,1.988,0,0,0-.22-.68,2.26,2.26,0,0,0-1-1,2.058,2.058,0,0,0-.63-.24,2.393,2.393,0,0,0-.66-.05l-1.29.14-7.87.87-2.11.23-.55.06Z" fill="#344154"/><path d="M1038.2,1721.707h.12a1.181,1.181,0,0,0,.32-.13.84.84,0,0,0,.32-.42.751.751,0,0,0,0-.34.791.791,0,0,0-.09-.36.816.816,0,0,0-.7-.43h-3.37a.812.812,0,0,0-.54.21.8.8,0,0,0-.25.5.878.878,0,0,0,.09.53.839.839,0,0,0,.39.35,1.26,1.26,0,0,0,.51.06h-.26a1.137,1.137,0,0,1-.27-.06.934.934,0,0,1-.43-.38,1.007,1.007,0,0,1-.11-.58.847.847,0,0,1,.28-.55.884.884,0,0,1,.59-.23h3.37a.851.851,0,0,1,.84.85.8.8,0,0,1-.049.35.846.846,0,0,1-.35.44.811.811,0,0,1-.33.11Z" fill="#344154"/><path d="M1037.911,1719.767h-1.33q-.665.033-1.33,0a9.231,9.231,0,0,1,1.33,0A9.519,9.519,0,0,1,1037.911,1719.767Z" fill="#fff"/><path d="M1027.591,1739.1l-1.24-.09c.33-4.44.8-7.1,1.46-8.13a4.931,4.931,0,0,1,3.88-2.56,18.265,18.265,0,0,1,3.84-.12h.31c2.59.1,8,0,8.07,0v1.24c-.06,0-5.52.09-8.14,0h-.31a17.078,17.078,0,0,0-3.58.1,3.719,3.719,0,0,0-3.05,2C1028.591,1732.027,1028.011,1733.627,1027.591,1739.1Z" fill="#344154"/><rect width="61.17" height="40.73" transform="translate(1044.591 1688.427)" fill="#6595bf"/><path d="M1105.021,1728.357v-39h-59.78v39h0v-39h59.86C1105.041,1713.157,1105.021,1728.087,1105.021,1728.357Z" fill="#344154"/><path d="M1035.891,1707.717l-.06.05-.17.12-.64.44c-.54.37-1.3.87-2.14,1.41s-1.61,1-2.17,1.35l-.66.4-.19.1h-.06l.18-.12.65-.42,2.16-1.37,2.15-1.39.65-.41.18-.12Z" fill="#fafafa"/><path d="M1033.241,1708.417l-.06.05-.17.12-.64.44c-.54.37-1.29.87-2.14,1.41s-1.61,1-2.17,1.35l-.66.4-.19.1h-.06l.06-.05.17-.12.65-.41,2.16-1.38,2.15-1.39.65-.41.18-.11Z" fill="#fafafa"/><path d="M1020.171,1712.937a.276.276,0,0,0-.05-.13,1.649,1.649,0,0,1-.1-.39,5.417,5.417,0,0,1-.16-1.28,2.78,2.78,0,0,1,.29-1.27,1.94,1.94,0,0,1,.22-.33c.06-.07.1-.1.11-.1a3.9,3.9,0,0,0-.28.46,3.009,3.009,0,0,0-.26,1.24,6.861,6.861,0,0,0,.14,1.27C1020.141,1712.737,1020.181,1712.937,1020.171,1712.937Z" fill="#fafafa"/><path d="M1013.851,1723.947v-.65a10.187,10.187,0,0,1,.09-1.55c.09-.6.11-1.16.16-1.55a1.051,1.051,0,0,1,.06-.47.14.14,0,0,0,0-.17v.64c0,.42-.08,1-.13,1.55s-.08,1.14-.11,1.56v.47A.188.188,0,0,1,1013.851,1723.947Z" fill="#fafafa"/><path d="M1030.861,1726.957a7.4,7.4,0,0,0-.76.21,6.635,6.635,0,0,0-.8.32,7.464,7.464,0,0,0-.89.55,6.892,6.892,0,0,0-.79.69,5.606,5.606,0,0,0-.54.66c-.28.4-.41.67-.43.66l.09-.19c0-.06.07-.14.12-.22a3.157,3.157,0,0,1,.17-.28,5.7,5.7,0,0,1,.54-.68,6.176,6.176,0,0,1,.79-.71,6.376,6.376,0,0,1,.91-.54,4.693,4.693,0,0,1,.81-.31l.32-.09h.25Z" fill="#fafafa"/><path d="M1046.151,1717.587v-3.79c0-2.34-.1-5.57-.16-9.13s-.12-6.8-.14-9.14v-3.77a.268.268,0,0,0,0-.07v3.86c0,2.34.1,5.57.16,9.14s.12,6.79.14,9.13v3.77Z" fill="#fafafa"/><path d="M1083.331,1737.207a7.44,7.44,0,1,0,7.55-7.33,7.44,7.44,0,0,0-7.55,7.33Z" fill="#344154"/><path d="M1083.331,1737.187h0a7.441,7.441,0,1,0,14.88.21h0Z" fill="#344154"/><path d="M1085.591,1737.237a5.323,5.323,0,1,0,0-.031Z" fill="#fafafa"/><path d="M1090.851,1732.087a5.23,5.23,0,0,0-5.3,5.15l10.44.15a5.219,5.219,0,0,0-5.138-5.3Z" fill="#e0e0e0"/><path d="M1087.591,1737.267a3.49,3.49,0,1,0,0-.011Z" fill="#344154"/><path d="M1080.991,1739.357s-1.14-10.56,9.8-10.56c10.1,0,9.87,9.08,9.78,10.49h-1.59s.81-8.95-8.19-8.95-8.21,9.13-8.21,9.13Z" fill="#5e6178"/><path d="M1086.851,1729.887h-.09l-.25.08a8.589,8.589,0,0,0-.89.35,7.1,7.1,0,0,0-2.48,1.89,7.205,7.205,0,0,0-1.43,2.77,6.518,6.518,0,0,0-.19.94v.25a.691.691,0,0,1,0,.09v-.09a1.4,1.4,0,0,1,0-.26,5.968,5.968,0,0,1,.16-.94,7.058,7.058,0,0,1,1.43-2.81,7.133,7.133,0,0,1,2.52-1.9,6.691,6.691,0,0,1,.9-.32l.26-.06Z" fill="#fafafa"/><rect width="20.35" height="6.38" transform="translate(1012.841 1732.087)" fill="#5e6178"/><path d="M998.621,1729.207v8.43h6.95l2.78-4.04h50.75v-4.39Z" fill="#344154"/><path d="M998.191,1702.487a.51.51,0,0,0-.538-.48h0c-2.75.11-15.79.71-18.47,2-2.05,1-4.3,4.67-5.88,7.15-1.14,1.78-3.65,5.73-4.16,7.75a35.976,35.976,0,0,0-.66,7l.72,9.33h11.82l1.18-3.08a5.2,5.2,0,0,1,4.85-3.34H998.8v-15.45Z" fill="#6595bf"/><path d="M977.781,1705.027a36.076,36.076,0,0,0-4.48,6.12,45.036,45.036,0,0,0-4,7.27,1,1,0,0,0,0,.11,1.739,1.739,0,0,0,1.08-.64c.26-.52.6-2.29,4.7-9C976.281,1706.887,977.5,1705.687,977.781,1705.027Z" fill="#5e6178"/><path d="M992.121,1704.347c-3,.17-9.57.61-11.67,1.33-2.72.93-5.78,8.15-5.93,8.46l-2.06,5.28a.24.24,0,0,0,.16.3.245.245,0,0,0,.06.011h5.33a1.72,1.72,0,0,0,.59-.11l14-5.22a1.63,1.63,0,0,0,1.05-1.52v-7.06a1.468,1.468,0,0,0-1.468-1.471A.619.619,0,0,0,992.121,1704.347Z" fill="#344154"/><path d="M973.051,1719.207s2-4.43,2.64-5.88c1-2.2,3.35-6.69,4.93-7.16a68.948,68.948,0,0,1,11.53-1.31h.05a1,1,0,0,1,.95,1v7.17a.851.851,0,0,1-.56.81l-10.36,1.28a2.91,2.91,0,0,0-2.06,1.28l-1.79,2.74a1.024,1.024,0,0,1-.33.06Z" fill="#aed3f2"/><path d="M981.851,1715.207l-3.52,3.92,2-13,.48-.16-1,9.64a.29.29,0,0,0,.272.307.279.279,0,0,0,.118-.017Z" fill="#344154"/><path d="M968.251,1726.837c0-.17.05-.31.13-.32l1.89-.17c.16,0,.3.28.32.63l.09,1.44c0,.24-.06.43-.17.45l-1.92.33c-.09,0-.17-.11-.18-.28Z" fill="#839eb6"/><rect width="13.6" height="5.45" transform="translate(968.251 1733.607)" fill="#344154"/><path d="M983.211,1737.207a7.44,7.44,0,1,0,7.55-7.33A7.44,7.44,0,0,0,983.211,1737.207Z" fill="#344154"/><path d="M983.211,1737.187h0a7.441,7.441,0,1,0,14.88.21h0Z" fill="#344154"/><path d="M985.431,1737.237a5.23,5.23,0,1,0,5.309-5.15h-.009a5.219,5.219,0,0,0-5.3,5.139Z" fill="#fafafa"/><path d="M990.731,1732.087a5.23,5.23,0,0,0-5.3,5.15l10.45.15A5.229,5.229,0,0,0,990.731,1732.087Z" fill="#e0e0e0"/><path d="M987.471,1737.267a3.19,3.19,0,1,0,3.24-3.14h-.01A3.19,3.19,0,0,0,987.471,1737.267Z" fill="#344154"/><rect width="3.09" height="7.4" rx="1.39" transform="translate(974.371 1709.067)" fill="#344154"/><path d="M973.091,1721.027h-.15v-7.8a1.41,1.41,0,0,1,1.41-1.41h.37v.15h-.37a1.27,1.27,0,0,0-1.26,1.26Z" fill="#344154"/><path d="M974.151,1721.027l-.43-7.33a.921.921,0,0,1,.837-1l.083,0v.15a.8.8,0,0,0-.56.24.772.772,0,0,0-.2.58l.43,7.32Z" fill="#344154"/><rect width="2.09" height="2.42" transform="translate(972.551 1720.347)" fill="#344154"/><rect width="0.85" height="0.16" transform="translate(973.021 1715.747)" fill="#344154"/><path d="M980.971,1704.557h.18l.55-.06,2.11-.25,7.87-.89,1.29-.14a2.149,2.149,0,0,1,.67,0,2.693,2.693,0,0,1,.65.25,2.381,2.381,0,0,1,1,1,2.155,2.155,0,0,1,.22.71,2.081,2.081,0,0,1,0,.37v21.81h-8.18a9.23,9.23,0,0,0-1.4.07,5.694,5.694,0,0,0-1.34.38,5.548,5.548,0,0,0-2.95,3.05,5.665,5.665,0,0,0-.29,1v.94h-10.46v-12.03a5.948,5.948,0,0,1,.05-.73,7.323,7.323,0,0,1,.88-2.68c.42-.8.84-1.58,1.24-2.32.79-1.5,1.53-2.88,2.19-4.13l1.79-3.35.38-.7a2.5,2.5,0,0,1,.18-.33,1.609,1.609,0,0,1,.21-.3,4.266,4.266,0,0,1,.94-.88,4.759,4.759,0,0,1,1.61-.7,4.349,4.349,0,0,1,.6-.09h-.15l-.45.09a4.827,4.827,0,0,0-1.6.7,4.46,4.46,0,0,0-.93.88,2.92,2.92,0,0,0-.2.29c-.07.11-.12.22-.18.33l-.38.71c-.52,1-1.11,2.1-1.78,3.35l-2.17,4.12-1.24,2.33a7.387,7.387,0,0,0-.87,2.66v12.89h10.32v-.96a6.691,6.691,0,0,1,.3-1,5.578,5.578,0,0,1,3-3.1,5.846,5.846,0,0,1,1.36-.38,9.5,9.5,0,0,1,1.41-.07h8.14v-21.44a3.52,3.52,0,0,0,0-.74,2.22,2.22,0,0,0-.21-.68,2.343,2.343,0,0,0-1-1,2.06,2.06,0,0,0-.63-.24,2.4,2.4,0,0,0-.66-.05l-1.29.14-7.87.87-2.11.23-.55.06Z" fill="#344154"/><path d="M993.061,1721.707h.12a1.079,1.079,0,0,0,.32-.13.839.839,0,0,0,.32-.42.751.751,0,0,0,0-.34.79.79,0,0,0-.09-.36.816.816,0,0,0-.7-.43h-3.37a.812.812,0,0,0-.54.21.85.85,0,0,0-.019,1.2.859.859,0,0,0,.249.178,1.26,1.26,0,0,0,.51.06h-.26a1.253,1.253,0,0,1-.27-.06.933.933,0,0,1-.43-.38,1.006,1.006,0,0,1-.11-.58.847.847,0,0,1,.28-.55.884.884,0,0,1,.59-.23h3.37a.851.851,0,0,1,.84.85.789.789,0,0,1-.05.35.837.837,0,0,1-.35.44.8.8,0,0,1-.33.11Z" fill="#344154"/><path d="M992.771,1719.767h-1.33q-.664.033-1.33,0a9.229,9.229,0,0,1,1.33,0A9.52,9.52,0,0,1,992.771,1719.767Z" fill="#fff"/><path d="M982.471,1739.1l-1.24-.09c.33-4.44.8-7.1,1.46-8.13a4.932,4.932,0,0,1,3.88-2.56,18.266,18.266,0,0,1,3.84-.12h.31c2.59.1,8,0,8.07,0v1.24c-.06,0-5.52.09-8.14,0h-.31a17.078,17.078,0,0,0-3.58.1,3.732,3.732,0,0,0-3.05,2C983.441,1732.027,982.871,1733.627,982.471,1739.1Z" fill="#344154"/><rect width="61.17" height="40.73" transform="translate(999.451 1688.427)" fill="#6595bf"/><path d="M1059.881,1728.357v-39H1000.1v39h0v-39h59.86C1059.9,1713.157,1059.891,1728.087,1059.881,1728.357Z" fill="#344154"/><path d="M990.751,1707.717l-.06.05-.17.12-.64.44c-.54.37-1.3.87-2.14,1.41s-1.61,1-2.17,1.35l-.66.4-.19.1h-.06l.18-.12c.16-.1.39-.24.65-.42l2.16-1.37,2.15-1.39.65-.41.18-.12Z" fill="#fafafa"/><path d="M988.1,1708.417l-.06.05-.17.12-.64.44c-.54.37-1.29.87-2.13,1.41s-1.62,1-2.18,1.35l-.66.4-.18.1h-.07l.06-.05.17-.12.65-.41,2.16-1.38,2.15-1.39.65-.41.18-.11Z" fill="#fafafa"/><path d="M975.031,1712.937a.276.276,0,0,0-.05-.13,1.652,1.652,0,0,1-.1-.39,6.005,6.005,0,0,1-.16-1.28,2.78,2.78,0,0,1,.29-1.27,1.937,1.937,0,0,1,.22-.33l.11-.1a4.4,4.4,0,0,0-.27.46,2.823,2.823,0,0,0-.27,1.24,6.855,6.855,0,0,0,.14,1.27C975,1712.737,975.041,1712.937,975.031,1712.937Z" fill="#fafafa"/><path d="M968.711,1723.947v-.65a10.181,10.181,0,0,1,.09-1.55c.09-.6.11-1.16.16-1.55a1.051,1.051,0,0,1,.06-.47.14.14,0,0,0,0-.17v.64c0,.42-.08,1-.13,1.55s-.08,1.14-.11,1.56v.47C968.781,1723.907,968.721,1723.947,968.711,1723.947Z" fill="#fafafa"/><path d="M985.721,1726.957a7.4,7.4,0,0,0-.76.21,6.632,6.632,0,0,0-.8.32,7.474,7.474,0,0,0-.89.55,6.9,6.9,0,0,0-.79.69,5.6,5.6,0,0,0-.54.66c-.28.4-.41.67-.43.66l.09-.19c0-.06.07-.14.12-.22a3.171,3.171,0,0,1,.17-.28,5.71,5.71,0,0,1,.54-.68,6.177,6.177,0,0,1,.79-.71,6.372,6.372,0,0,1,.91-.54,4.694,4.694,0,0,1,.81-.31l.32-.09h.25Z" fill="#fafafa"/><path d="M1001.011,1717.587v-3.79c0-2.34-.1-5.57-.16-9.13s-.12-6.8-.14-9.14v-3.77a.274.274,0,0,0,0-.07v3.86c0,2.34.1,5.57.16,9.14s.12,6.79.14,9.13v3.72A.428.428,0,0,0,1001.011,1717.587Z" fill="#fafafa"/><path d="M1038.191,1737.207a7.44,7.44,0,1,0,7.55-7.33,7.44,7.44,0,0,0-7.55,7.33Z" fill="#344154"/><path d="M1038.191,1737.187h0a7.441,7.441,0,1,0,14.88.21h0Z" fill="#344154"/><path d="M1040.411,1737.237a5.23,5.23,0,1,0,5.309-5.15h-.009a5.21,5.21,0,0,0-5.3,5.119Z" fill="#fafafa"/><path d="M1045.711,1732.087a5.23,5.23,0,0,0-5.3,5.15l10.45.15A5.229,5.229,0,0,0,1045.711,1732.087Z" fill="#e0e0e0"/><path d="M1042.451,1737.267a3.136,3.136,0,1,0,0-.011Z" fill="#344154"/><path d="M1035.851,1739.357s-1.14-10.56,9.8-10.56c10.1,0,9.87,9.08,9.78,10.49h-1.59s.81-8.95-8.19-8.95-8.21,9.13-8.21,9.13Z" fill="#5e6178"/><path d="M1041.711,1729.887h-.09l-.25.08a8.589,8.589,0,0,0-.89.35,7.1,7.1,0,0,0-2.48,1.89,7.206,7.206,0,0,0-1.41,2.82,6.536,6.536,0,0,0-.19.94v.25a.691.691,0,0,1,0,.09v-.35a7.436,7.436,0,0,1,.16-.94,7.057,7.057,0,0,1,1.43-2.81,7.131,7.131,0,0,1,2.52-1.9,6.674,6.674,0,0,1,.9-.32l.26-.06Z" fill="#fafafa"/></g></svg>