<svg xmlns="http://www.w3.org/2000/svg" xmlns:xlink="http://www.w3.org/1999/xlink" width="418" height="418" viewBox="0 0 418 418"><defs><clipPath id="a"><rect width="98.631" height="70.349" fill="none"/></clipPath><clipPath id="b"><rect width="103.321" height="26.342" fill="none"/></clipPath><clipPath id="c"><path d="M1104.394,2193.587s-17.556,1.555-20.85,3.536-10.809,2.726-10.809,2.726a32.414,32.414,0,0,1,0,19.27l3.085,2.692s5.735-.543,7.056,0,14.964,4.506,14.964,4.506" transform="translate(-1072.735 -2193.587)" fill="none"/></clipPath><clipPath id="d"><path d="M1164.636,2271.15s5.76,15.591,2.558,25.465-26.117,17.171-31.208,17.171-45.8-10.182-45.8-10.182l-2.04,2.232-6.27-2.55,9.873,45.512s4.774,2.55,0,4.138-22.915,1.6-23.232,0a16.553,16.553,0,0,1,0-4.138l-2.692-5.091s.493-8.912,0-10.182-20.858-43.623-12.3-53.805,59.356-1.914,59.356-1.914l6.479-6.688Z" transform="translate(-1051.425 -2271.117)" fill="none"/></clipPath><clipPath id="e"><path d="M1091.4,2218.359c7.783,13.485,27.789,34.518,27.789,34.518s-1.254,1.906,1.522,5.409a5.38,5.38,0,0,0-1.522,3.227c-.167,1.906,16.285,11.453,31.885,8.912s22.28-7.006,22.572-10.191-15.784-45.729-26.6-58.779a51.258,51.258,0,0,0-29.477-9.489c-12.49-.067-22.229,4.054-26.652,10.182" transform="translate(-1090.915 -2191.966)" fill="none"/></clipPath><clipPath id="f"><path d="M1160.142,2301.8c-1.271,6.044-6.044,14.5-7.95,18.007s-9.873,31.208-9.873,31.208.318,5.091-7,6.362-21.193-3.495-17.506-5.735,7.666-27.9,7.666-27.9-1.948-3.495,1.614-8.653,3.854-34.51,10.784-36.533c12.1-3.495,26.225,4.038,26.225,4.038s4,1.254,5.317,4.891" transform="translate(-1117.203 -2277.63)" fill="none"/></clipPath><clipPath id="g"><path d="M980.436,2110.693H965.505l.711-15.048a2.742,2.742,0,0,1,2.734-2.608h8.042a2.742,2.742,0,0,1,2.734,2.608Z" transform="translate(-965.505 -2093.037)" fill="none"/></clipPath></defs><g transform="translate(-781.361 -1953.767)"><g transform="translate(787.724 1953.904)"><path d="M838.726,2339.751s-85.362-116.862-32.464-206.683,157.958-28.177,177.962-112,93.02-97.565,162.265,7.256,52.678,250.6,16.013,311.429Z" transform="translate(-788.972 -1953.931)" fill="#fff" opacity="0.31"/></g><g transform="translate(810.273 2316.75)"><line x2="364.463" fill="none" stroke="#263238" stroke-linecap="round" stroke-linejoin="round" stroke-width="1"/></g><g transform="translate(998.872 2108.727)"><rect width="98.631" height="70.349" transform="translate(35.123 137.673)" fill="#6595bf"/><g transform="translate(35.123 137.673)"><g clip-path="url(#a)"><g transform="translate(0 25.565)"><path d="M1083.555,2379.18h51.113V2339l47.527-2.057v-2.558h-98.64Z" transform="translate(-1083.555 -2334.387)" fill="rgba(0,0,0,0.7)" opacity="0.3" style="isolation:isolate"/></g></g></g><rect width="98.631" height="70.349" transform="translate(35.123 137.673)" fill="none" stroke="#263238" stroke-linecap="round" stroke-linejoin="round" stroke-width="1"/><rect width="103.321" height="26.342" transform="translate(32.782 136.67)" fill="#6595bf"/><g transform="translate(32.782 136.67)"><g clip-path="url(#b)"><rect width="54.775" height="26.342" fill="rgba(0,0,0,0.7)" opacity="0.3" style="isolation:isolate"/></g></g><rect width="103.321" height="26.342" transform="translate(32.782 136.67)" fill="none" stroke="#263238" stroke-linecap="round" stroke-linejoin="round" stroke-width="1"/><path d="M1146.275,2325.927v3.67" transform="translate(-1058.718 -2169.761)" fill="none" stroke="#263238" stroke-linecap="round" stroke-linejoin="round" stroke-width="1"/><path d="M1146.275,2317.207v4.071" transform="translate(-1058.718 -2168.332)" fill="none" stroke="#263238" stroke-linecap="round" stroke-linejoin="round" stroke-width="1"/><path d="M1146.275,2302.607v9.3" transform="translate(-1058.718 -2165.937)" fill="none" stroke="#263238" stroke-linecap="round" stroke-linejoin="round" stroke-width="1"/><line y2="1.522" transform="translate(86.236 203.492)" fill="none" stroke="#263238" stroke-linecap="round" stroke-linejoin="round" stroke-width="1"/><line y2="19.186" transform="translate(86.236 181.003)" fill="none" stroke="#263238" stroke-linecap="round" stroke-linejoin="round" stroke-width="1"/><line y2="10.993" transform="translate(86.236 163.23)" fill="none" stroke="#263238" stroke-linecap="round" stroke-linejoin="round" stroke-width="1"/><rect width="4.957" height="13.125" transform="translate(112.971 157.411)" fill="#bfbfbf" stroke="#263238" stroke-linecap="round" stroke-linejoin="round" stroke-width="1"/><path d="M1087.015,2192.68c-5.267,2.19-28.633,4.74-28.633,4.74a131.346,131.346,0,0,1,13.443-22.965l-6.88-4.6s-18.175,19.554-22.647,33.332c0,0-1.338,6.228-.451,7.114s8.36,3.645,22.48,4.69,24.244,1.3,24.244,1.3" transform="translate(-1041.542 -2144.166)" fill="#fff" stroke="#263238" stroke-linecap="round" stroke-linejoin="round" stroke-width="1"/><path d="M1063.735,2171.557s5.375,5.2,9.673,4.932l3.344-5.259s10.726-5.342,9.5-8.017-2.324-.836-2.324-.836l4.749-3.2s-5.944-3.536-7.206-3.528-4.489-.6-6.638.284-6.069,10.35-6.069,10.35Z" transform="translate(-1045.182 -2141.803)" fill="#d9a171" stroke="#263238" stroke-linecap="round" stroke-linejoin="round" stroke-width="1"/><path d="M1077.935,2170.9a6.37,6.37,0,0,0,3.06-2.508c.752-1.605,0-4.632,0-4.632" transform="translate(-1047.51 -2143.166)" fill="#d9a171" stroke="#263238" stroke-linecap="round" stroke-linejoin="round" stroke-width="1"/><path d="M1080.445,2161.527a3.127,3.127,0,0,0,4.18.886" transform="translate(-1047.922 -2142.8)" fill="#d9a171" stroke="#263238" stroke-linecap="round" stroke-linejoin="round" stroke-width="1"/><path d="M1082.525,2159.887a48.113,48.113,0,0,1,4.447,3.2" transform="translate(-1048.263 -2142.531)" fill="#d9a171" stroke="#263238" stroke-linecap="round" stroke-linejoin="round" stroke-width="1"/><path d="M1089.62,2161.49l-3.495-2.893" transform="translate(-1048.854 -2142.319)" fill="#d9a171" stroke="#263238" stroke-linecap="round" stroke-linejoin="round" stroke-width="1"/><path d="M1061.116,2202.827a20.9,20.9,0,0,1-2.8,9.522" transform="translate(-1044.293 -2149.573)" fill="none" stroke="#263238" stroke-linecap="round" stroke-linejoin="round" stroke-width="1"/><path d="M1104.394,2193.587s-17.556,1.555-20.85,3.536-10.809,2.726-10.809,2.726a32.414,32.414,0,0,1,0,19.27l3.085,2.692s5.735-.543,7.056,0,14.964,4.506,14.964,4.506" transform="translate(-1046.658 -2148.058)" fill="#d9a171"/><g transform="translate(26.077 45.529)"><g clip-path="url(#c)"><g transform="translate(1.354 12.942)"><path d="M1092.53,2227.225c-3.929-1.162-8.636-2.567-9.388-2.876-1.321-.543-7.056,0-7.056,0l-1.731-1.513c2.508-3.7,4-8.36,5.016-8.36.543,0,1.722,1.513,2.826,3.227-.836-5.309,1.045-12.314,1.981-6.354C1084.872,2215.73,1089.052,2222.376,1092.53,2227.225Z" transform="translate(-1074.355 -2209.069)" opacity="0.2" style="isolation:isolate"/></g></g></g><path d="M1104.394,2193.587s-17.556,1.555-20.85,3.536-10.809,2.726-10.809,2.726a32.414,32.414,0,0,1,0,19.27l3.085,2.692s5.735-.543,7.056,0,14.964,4.506,14.964,4.506" transform="translate(-1046.658 -2148.058)" fill="none" stroke="#263238" stroke-linecap="round" stroke-linejoin="round" stroke-width="1"/><path d="M1086.909,2356.437s6.521,18.961,6.236,24.913c0,0-10.617,2.65-16.034,1.99s-16.219.209-21.953.1-6.4-1.429-6.4-1.429-.443-2.424,3.344-4.623,18.96-3.344,20.281-14.346S1086.909,2356.437,1086.909,2356.437Z" transform="translate(-1042.723 -2174.623)" fill="#bfbfbf" stroke="#263238" stroke-linecap="round" stroke-linejoin="round" stroke-width="1"/><path d="M1164.636,2271.15s5.76,15.591,2.558,25.465-26.117,17.171-31.208,17.171-45.8-10.182-45.8-10.182l-2.04,2.232-6.27-2.55,9.873,45.512s4.774,2.55,0,4.138-22.915,1.6-23.232,0a16.553,16.553,0,0,1,0-4.138l-2.692-5.091s.493-8.912,0-10.182-20.858-43.623-12.3-53.805,59.356-1.914,59.356-1.914l6.479-6.688Z" transform="translate(-1043.163 -2160.773)" fill="#344154"/><g transform="translate(8.262 110.344)"><g clip-path="url(#d)"><g transform="translate(13.217 0.033)"><path d="M1089.345,2304.26l5.016,2.04,2.04-2.232s40.713,10.224,45.8,10.224,28.014-7.315,31.208-17.188a17.608,17.608,0,0,0,.577-2.333c-3.5,3.461-10.291,9.4-17.422,11.437,0,0,2.082-2.182-3.453-3.344s-22.514-28.081-22.514-28.081l-7.44-.585-4.063,4.146s-7.833-1.279-17.865-2.207A268.3,268.3,0,0,1,1089.345,2304.26Z" transform="translate(-1070.861 -2271.656)" opacity="0.2" style="isolation:isolate"/><path d="M1068.414,2340.227c.493,1.271,0,10.182,0,10.182l2.692,5.091a16.553,16.553,0,0,0,0,4.138c.318,1.588,18.459,1.588,23.232,0s0-4.138,0-4.138l-9.422-43.414c-5.016,9.856-11.119,19.6-17.681,25.531C1067.912,2339.123,1068.347,2340.051,1068.414,2340.227Z" transform="translate(-1067.235 -2277.869)" opacity="0.2" style="isolation:isolate"/><path d="M1087.845,2307.819s2.884-5.208,1.279-8.962" transform="translate(-1070.615 -2275.7)" fill="none" stroke="#fff" stroke-linecap="round" stroke-linejoin="round" stroke-width="1"/><path d="M1086.285,2300.157a29.463,29.463,0,0,1,.209,4.623" transform="translate(-1070.359 -2275.913)" fill="none" stroke="#fff" stroke-linecap="round" stroke-linejoin="round" stroke-width="1"/><path d="M1084.715,2292.977a29.939,29.939,0,0,1,.886,3.386" transform="translate(-1070.102 -2274.736)" fill="none" stroke="#fff" stroke-linecap="round" stroke-linejoin="round" stroke-width="1"/><path d="M1077.155,2318.267s-.267,15.165-8.51,22.973" transform="translate(-1067.466 -2278.883)" fill="none" stroke="#fff" stroke-linecap="round" stroke-linejoin="round" stroke-width="1"/><path d="M1080.626,2353.027c-2.232,3.344-4.966,7.44-8.761,9.2" transform="translate(-1067.994 -2284.584)" fill="none" stroke="#fff" stroke-linecap="round" stroke-linejoin="round" stroke-width="1"/><path d="M1085.373,2347.577c-.426.786-.878,1.555-1.338,2.324" transform="translate(-1069.99 -2283.69)" fill="none" stroke="#fff" stroke-linecap="round" stroke-linejoin="round" stroke-width="1"/><path d="M1187.06,2280.027a67.711,67.711,0,0,0-2.449-8.87h-1.981l-9.355,5.434S1171.577,2280.662,1187.06,2280.027Z" transform="translate(-1084.616 -2271.157)" opacity="0.2" style="isolation:isolate"/><path d="M1182.9,2284.776a18.178,18.178,0,0,0-9.614-1.254" transform="translate(-1084.627 -2273.147)" fill="none" stroke="#fff" stroke-linecap="round" stroke-linejoin="round" stroke-width="1"/></g></g></g><path d="M1164.636,2271.15s5.76,15.591,2.558,25.465-26.117,17.171-31.208,17.171-45.8-10.182-45.8-10.182l-2.04,2.232-6.27-2.55,9.873,45.512s4.774,2.55,0,4.138-22.915,1.6-23.232,0a16.553,16.553,0,0,1,0-4.138l-2.692-5.091s.493-8.912,0-10.182-20.858-43.623-12.3-53.805,59.356-1.914,59.356-1.914l6.479-6.688Z" transform="translate(-1043.163 -2160.773)" fill="none" stroke="#263238" stroke-miterlimit="10" stroke-width="1"/><path d="M1133.5,2368.066s.886,5.484,0,6.479-2.667,12.682-2.667,12.682-23.074,3.586-29.946,3.093c-9.2-.66-11.344-3.344-11.344-3.344s-.159-3.528,8.494-6.295c10.676-3.411,18.9-14.814,18.9-14.814Z" transform="translate(-1049.414 -2176.312)" fill="#bfbfbf" stroke="#263238" stroke-linecap="round" stroke-linejoin="round" stroke-width="1"/><path d="M1091.4,2218.359c7.783,13.485,27.789,34.518,27.789,34.518s-1.254,1.906,1.522,5.409a5.38,5.38,0,0,0-1.522,3.227c-.167,1.906,16.285,11.453,31.885,8.912s22.28-7.006,22.572-10.191-15.784-45.729-26.6-58.779a51.258,51.258,0,0,0-29.477-9.489c-12.49-.067-22.229,4.054-26.652,10.182" transform="translate(-1049.639 -2147.792)" fill="#d9a171"/><g transform="translate(41.276 44.174)"><g clip-path="url(#e)"><g transform="translate(28.272 35.969)"><path d="M1159.328,2276.93c-.836.167-1.772.334-2.709.485-15.6,2.508-32.052-7.006-31.885-8.912a5.377,5.377,0,0,1,1.522-3.185c-.1-.134-.2-.259-.284-.385,7.616-1.471,14.588-5.559,11.386-5.417-4.389.2-7.081-.451-2.291-3.3s3.587-19.813,3.587-19.813,9.714-7.524,19.863,12.2C1168.1,2267.216,1163.9,2271.855,1159.328,2276.93Z" transform="translate(-1124.734 -2234.991)" opacity="0.2" style="isolation:isolate"/></g></g></g><path d="M1091.4,2218.359c7.783,13.485,27.789,34.518,27.789,34.518s-1.254,1.906,1.522,5.409a5.38,5.38,0,0,0-1.522,3.227c-.167,1.906,16.285,11.453,31.885,8.912s22.28-7.006,22.572-10.191-15.784-45.729-26.6-58.779a51.258,51.258,0,0,0-29.477-9.489c-12.49-.067-22.229,4.054-26.652,10.182" transform="translate(-1049.639 -2147.792)" fill="none" stroke="#263238" stroke-linecap="round" stroke-linejoin="round" stroke-width="1"/><path d="M1127.8,2189.066s-6.011-9.238-12.465-8.026-24.662-18.8-26.384-21.276-4.038,3.2-4.038,3.2-2.817,2.215-3.478,4.632,1.162,14.153,0,16.636a14.141,14.141,0,0,0-.986,5.743l4.79-3.444s3.52,8.452,6.061,11.094,8.886-4.063,13.735-7.649,11.788-5.258,15.591.945" transform="translate(-1047.922 -2142.408)" fill="#bfbfbf" stroke="#263238" stroke-linecap="round" stroke-linejoin="round" stroke-width="1"/><path d="M1086.175,2186.925l2.508-.644s-2.976-11.662-2.508-13.192,2.458-9.589,2.508-11.562" transform="translate(-1048.854 -2142.8)" fill="none" stroke="#263238" stroke-linecap="round" stroke-linejoin="round" stroke-width="1"/><path d="M1095.055,2197.721c1.5,1.672,6.069-1.873,7.524-2.784" transform="translate(-1050.318 -2148.279)" fill="none" stroke="#263238" stroke-linecap="round" stroke-linejoin="round" stroke-width="1"/><path d="M1091.675,2190.007a31.974,31.974,0,0,0,1.237,4.021" transform="translate(-1049.764 -2147.471)" fill="none" stroke="#263238" stroke-linecap="round" stroke-linejoin="round" stroke-width="1"/><path d="M1098.236,2191.641c1.714.334,3.185,2.065,4.18,3.586a17.857,17.857,0,0,1,1.346,2.508s-2.508,8.268,5.777,6.688,10.985-10.032,10.985-10.032a10.133,10.133,0,0,1-4.464-8.552c-5.284-1.847-15.357,2.508-17.757,4.707C1097.667,2191.048,1097.575,2191.516,1098.236,2191.641Z" transform="translate(-1050.765 -2146.714)" fill="#fff" stroke="#263238" stroke-linecap="round" stroke-linejoin="round" stroke-width="1"/><path d="M1098.236,2192.4c1.714.334,3.185,2.065,4.18,3.586a8.868,8.868,0,0,0,3.712-5.977l-7.808,1.246C1097.668,2191.8,1097.576,2192.272,1098.236,2192.4Z" transform="translate(-1050.766 -2147.471)" fill="#344154"/><path d="M1128.515,2262.243s15.1-1.087,18.927-9.756" transform="translate(-1055.806 -2157.717)" fill="none" stroke="#263238" stroke-linecap="round" stroke-linejoin="round" stroke-width="1"/><path d="M1164.491,2274.346c-11.537,1.2-23.767.878-34.736-3.219" transform="translate(-1056.009 -2160.774)" fill="none" stroke="#263238" stroke-linecap="round" stroke-linejoin="round" stroke-width="1"/><path d="M1180.4,2273.477c-1.831.376-3.678.66-5.534.9" transform="translate(-1063.407 -2161.16)" fill="none" stroke="#263238" stroke-linecap="round" stroke-linejoin="round" stroke-width="1"/><path d="M1112.85,2180s3.762-4.665,4.8-7.942c4.439-14.045,5.217-23.057-10.7-26.51-11.244-2.433-17.021,12.64-16.762,18.091.15,3.076-1.363,6.078-2.124,8.519-.836,2.726.769,13.376,4.255,14.287,4.456,1.112,11.813-.426,12.966-2.893" transform="translate(-1049.136 -2140.136)" fill="#fff" stroke="#263238" stroke-linecap="round" stroke-linejoin="round" stroke-width="1"/><path d="M1101.791,2171.781c-.2.736.042,1.446.552,1.588s1.087-.343,1.287-1.078-.042-1.446-.552-1.588S1101.992,2171.079,1101.791,2171.781Z" transform="translate(-1051.411 -2144.301)" fill="#344154"/><path d="M1092.591,2168.733c-.2.736.042,1.446.552,1.588s1.087-.343,1.287-1.079-.042-1.446-.552-1.58S1092.792,2168,1092.591,2168.733Z" transform="translate(-1049.903 -2143.803)" fill="#344154"/><path d="M1095.113,2171.227s-3.979,3.5-4.18,4.18,2.232,2.6,2.232,2.6" transform="translate(-1049.64 -2144.391)" fill="none" stroke="#263238" stroke-linecap="round" stroke-linejoin="round" stroke-width="1"/><path d="M1091.935,2182.587a8.833,8.833,0,0,0,6.471.794" transform="translate(-1049.807 -2146.254)" fill="none" stroke="#263238" stroke-linecap="round" stroke-linejoin="round" stroke-width="1"/><path d="M1102.765,2163.876s1.789-.886,4.18,1.538" transform="translate(-1051.583 -2143.159)" fill="none" stroke="#263238" stroke-linecap="round" stroke-linejoin="round" stroke-width="1"/><path d="M1095.377,2162.414s-2.182-1.99-2.842,0" transform="translate(-1049.905 -2142.8)" fill="none" stroke="#263238" stroke-linecap="round" stroke-linejoin="round" stroke-width="1"/><path d="M1111.845,2157.865a13.994,13.994,0,0,1,1.672,7.056,37.1,37.1,0,0,1-1.672,7.524l.836.66s3.386-1.764,4.264,0-2.433,6.4-2.433,6.4,1.931,4.18,4.832,4.623c0,0-.167-1.538.836-1.981s4.673-3.6,4.673-6.922c0,0,.769,1.037,0,3.344,0,0,5.852-11.829.343-20.649S1111.845,2157.865,1111.845,2157.865Z" transform="translate(-1053.072 -2141.563)" fill="#344154"/><path d="M1114.545,2176.946s4.23-3.57,4.774,0-5.409,8.594-6.839,6.847,0-2.073,0-2.073" transform="translate(-1053.072 -2145.068)" fill="#fff" stroke="#263238" stroke-linecap="round" stroke-linejoin="round" stroke-width="1"/><path d="M1090.882,2192.608s2.592-.334,4.046.836-.259,2.943-2.734,1.5S1090.882,2192.608,1090.882,2192.608Z" transform="translate(-1049.589 -2147.89)" fill="#344154"/><path d="M1095.385,2188.06s12.649.092,20.34-28.173h1.3s-.435,23.885-20.8,29.3Z" transform="translate(-1050.372 -2142.531)" fill="#344154"/><path d="M1093.075,2149.067s-4.18,1.772-3.912,2.658,7.215,5.735,21.218,5.852c10.366.084,15.65,9.2,15.65,9.2.995-2.818-.895-6.287-.895-6.287s1.338-9.43-3.4-13.51c0,0-1.011-4.063-7.382-6.613-8.552-3.419-11.136,1.329-11.136,1.329A11.362,11.362,0,0,0,1093.075,2149.067Z" transform="translate(-1049.35 -2139.126)" fill="#d9a171" stroke="#263238" stroke-linecap="round" stroke-linejoin="round" stroke-width="1"/><path d="M1116.375,2157.027c5.091.46,10.157,2.056,13.225,6.4" transform="translate(-1053.815 -2142.062)" fill="none" stroke="#263238" stroke-linecap="round" stroke-linejoin="round" stroke-width="1"/><path d="M1107.2,2156.717c1.605,0,3.21,0,4.815.092" transform="translate(-1052.311 -2142.011)" fill="none" stroke="#263238" stroke-linecap="round" stroke-linejoin="round" stroke-width="1"/><path d="M1093.845,2151.017c.995,4.18,4.665,4.581,8.293,4.707" transform="translate(-1050.12 -2141.076)" fill="none" stroke="#263238" stroke-linecap="round" stroke-linejoin="round" stroke-width="1"/><path d="M1118.275,2144.771a10.367,10.367,0,0,1,8.235,3.135" transform="translate(-1054.126 -2140.047)" fill="none" stroke="#263238" stroke-linecap="round" stroke-linejoin="round" stroke-width="1"/><path d="M1105.7,2142.207c-4.372,6.688,4.464,3.411,7.691,2.591" transform="translate(-1051.869 -2139.632)" fill="none" stroke="#263238" stroke-linecap="round" stroke-linejoin="round" stroke-width="1"/><path d="M1111.745,2169.474c0,.4-.928,1.547-.284,2.115s1.154-1.212.711-3.152" transform="translate(-1052.971 -2143.933)" fill="none" stroke="#263238" stroke-linecap="round" stroke-linejoin="round" stroke-width="0.5"/><path d="M1110.775,2163.387c0,.4-1.279,2.282-.635,2.843s1.137-.728.836-1.672" transform="translate(-1052.762 -2143.105)" fill="none" stroke="#263238" stroke-linecap="round" stroke-linejoin="round" stroke-width="0.5"/><path d="M1154.782,2236.7s-19.412-4.565-18.392,2.333,5.626,20.8,5.626,20.8-25.64,15.7-27.086,16.862c-.452.36,5.325,5.944,5.325,5.944,4.69-2.65,37.536-10.609,38.807-16.335S1154.782,2236.7,1154.782,2236.7Z" transform="translate(-1053.574 -2154.885)" fill="#fff" stroke="#263238" stroke-linecap="round" stroke-linejoin="round" stroke-width="1"/><path d="M1147.109,2201.077s8.912,8.276,8.594,14.321,3.821,17.464,3.821,17.464l-1.914,1.948s-12.732.635-18.777,4.18c0,0-2.658,1.672-1.906-4.456a12.448,12.448,0,0,0-4.038-8.694c-2.232-1.981-2.015-13.268-2.015-13.268" transform="translate(-1056.192 -2149.286)" fill="#d9a171" stroke="#263238" stroke-linecap="round" stroke-linejoin="round" stroke-width="1"/><path d="M1160.142,2301.8c-1.271,6.044-6.044,14.5-7.95,18.007s-9.873,31.208-9.873,31.208.318,5.091-7,6.362-21.193-3.495-17.506-5.735,7.666-27.9,7.666-27.9-1.948-3.495,1.614-8.653,3.854-34.51,10.784-36.533c12.1-3.495,26.225,4.038,26.225,4.038s4,1.254,5.317,4.891" transform="translate(-1053.951 -2161.841)" fill="#344154"/><g transform="translate(63.253 115.79)"><g clip-path="url(#f)"><g transform="translate(8.286 2.087)"><path d="M1163.222,2289.624c-2.19-4.5-5.852-8.519-10.927-9.5" transform="translate(-1131.245 -2280.127)" fill="none" stroke="#fff" stroke-linecap="round" stroke-linejoin="round" stroke-width="1"/><path d="M1167.73,2298.027a25.8,25.8,0,0,0-1.045-3.52" transform="translate(-1133.604 -2282.485)" fill="none" stroke="#fff" stroke-linecap="round" stroke-linejoin="round" stroke-width="1"/><path d="M1129.991,2332.847a10.055,10.055,0,0,1-2.876-.05" transform="translate(-1127.115 -2288.765)" fill="none" stroke="#fff" stroke-linecap="round" stroke-linejoin="round" stroke-width="1"/><path d="M1152.028,2315.037c-4.782,5.76-11.035,11.913-18.283,14.287" transform="translate(-1128.202 -2285.852)" fill="none" stroke="#fff" stroke-linecap="round" stroke-linejoin="round" stroke-width="1"/></g></g></g><path d="M1160.142,2301.8c-1.271,6.044-6.044,14.5-7.95,18.007s-9.873,31.208-9.873,31.208.318,5.091-7,6.362-21.193-3.495-17.506-5.735,7.666-27.9,7.666-27.9-1.948-3.495,1.614-8.653,3.854-34.51,10.784-36.533c12.1-3.495,26.225,4.038,26.225,4.038s4,1.254,5.317,4.891" transform="translate(-1053.951 -2161.841)" fill="none" stroke="#263238" stroke-miterlimit="10" stroke-width="1"/><path d="M1121.3,2304.677a1.237,1.237,0,0,1,1.462-.961h0l3.963.836a4.6,4.6,0,0,0-8.477-2.174l-29.611-6.1a4.6,4.6,0,0,0-8.644-1.363l3.963.836a1.238,1.238,0,1,1-.5,2.424h0l-3.963-.836a4.6,4.6,0,0,0,8.477,2.174l29.611,6.061a4.6,4.6,0,0,0,8.644,1.354l-3.963-.836A1.246,1.246,0,0,1,1121.3,2304.677Z" transform="translate(-1047.766 -2164.261)" fill="#bfbfbf" stroke="#263238" stroke-linecap="round" stroke-linejoin="round" stroke-width="1"/><path d="M1119.236,2278.157a37.353,37.353,0,0,0-6.889,5.4c-1.58,1.246-10.534,8.719-10.417,9.848s-.677,8.686,0,9.371,3.511-1.555,3.511-1.555.794,2.04,1.672,2.157a14.246,14.246,0,0,0,2.608-.117s1.471,2.265,2.826,2.04,3.177-2.834,1.848-2.943a1.909,1.909,0,0,0-1.848.786v-2.826a25.253,25.253,0,0,0,3.177-2.834c1.471-1.588,2.291-6.763,2.291-6.763.61-.343,4.69-2.232,6.069-2.726Z" transform="translate(-1051.4 -2161.927)" fill="#d9a171" stroke="#263238" stroke-linecap="round" stroke-linejoin="round" stroke-width="1"/><line x1="1.379" y1="5.275" transform="translate(52.662 134.028)" fill="none" stroke="#263238" stroke-linecap="round" stroke-linejoin="round" stroke-width="1"/><line x1="1.212" y1="3.194" transform="translate(57.135 138.15)" fill="none" stroke="#263238" stroke-linecap="round" stroke-linejoin="round" stroke-width="1"/><line x1="1.154" y2="2.065" transform="translate(52.194 136.67)" fill="none" stroke="#263238" stroke-linecap="round" stroke-linejoin="round" stroke-width="1"/><path d="M1108.931,2307.24c-1.179-.836-2.006-4.673-2.006-4.673" transform="translate(-1052.265 -2165.93)" fill="none" stroke="#263238" stroke-linecap="round" stroke-linejoin="round" stroke-width="1"/><path d="M1125.3,2185.877s8.627,2.8,8.594,10.283c0,3.285-9.2,24.085-7.566,34.209s1.831,11.152,1.831,11.152-3.946.159-5.367,0-.911,2.508-.911,2.508l-5.016.953s-1.5-16.586-1.672-23.784,8.2-29.561,8.2-29.561a3.971,3.971,0,0,0-1.563-3.662" transform="translate(-1053.621 -2146.793)" fill="#bfbfbf" stroke="#263238" stroke-linecap="round" stroke-linejoin="round" stroke-width="1"/><path d="M1123.322,2232.737c-.543,5.016-.911,10.032-1.137,15.106" transform="translate(-1054.768 -2154.479)" fill="none" stroke="#263238" stroke-linecap="round" stroke-linejoin="round" stroke-width="1"/><path d="M1125.159,2219.507c-.443,2.592-.836,5.191-1.154,7.8" transform="translate(-1055.066 -2152.309)" fill="none" stroke="#263238" stroke-linecap="round" stroke-linejoin="round" stroke-width="1"/><path d="M1129.156,2199.8q-1.806,6.5-3.051,13.15" transform="translate(-1055.41 -2149.076)" fill="none" stroke="#263238" stroke-linecap="round" stroke-linejoin="round" stroke-width="1"/><path d="M1130.657,2190.007c.736,1.722.067,3.687-.242,5.434" transform="translate(-1056.117 -2147.471)" fill="none" stroke="#263238" stroke-linecap="round" stroke-linejoin="round" stroke-width="1"/><path d="M1079.805,2213.507a28.42,28.42,0,0,0,3.135,7.833" transform="translate(-1047.817 -2151.325)" fill="none" stroke="#263238" stroke-linecap="round" stroke-linejoin="round" stroke-width="1"/><path d="M1077.935,2202.367c.1,1.438.284,2.867.5,4.3" transform="translate(-1047.51 -2149.498)" fill="none" stroke="#263238" stroke-linecap="round" stroke-linejoin="round" stroke-width="1"/><path d="M1146.259,2226.877a10.587,10.587,0,0,1-4.874,2.658" transform="translate(-1057.916 -2153.517)" fill="none" stroke="#263238" stroke-linecap="round" stroke-linejoin="round" stroke-width="1"/><path d="M1154.664,2213.157a32.133,32.133,0,0,1-4.849,9.087" transform="translate(-1059.299 -2151.267)" fill="none" stroke="#263238" stroke-linecap="round" stroke-linejoin="round" stroke-width="1"/></g><g transform="translate(835.345 2004.554)"><path d="M1015.537,2155.224v-62.257l-5.292,4.18v58.077Z" transform="translate(-872.882 -2027.383)" fill="#6595bf" stroke="#263238" stroke-linecap="round" stroke-linejoin="round" stroke-width="1"/><path d="M980.436,2110.693H965.505l.711-15.048a2.742,2.742,0,0,1,2.734-2.608h8.042a2.742,2.742,0,0,1,2.734,2.608Z" transform="translate(-865.544 -2027.395)" fill="#d9a171"/><g transform="translate(99.961 65.642)"><g clip-path="url(#g)"><g transform="translate(0.569 1.538)"><path d="M980.72,2099.291a4.422,4.422,0,1,1-4.431-4.414h.008A4.422,4.422,0,0,1,980.72,2099.291Z" transform="translate(-967.118 -2094.877)" fill="#fff" opacity="0.5" style="isolation:isolate"/><path d="M980.155,2099.427a3.72,3.72,0,1,1-3.72-3.72h0A3.72,3.72,0,0,1,980.155,2099.427Z" transform="translate(-967.256 -2095.013)" fill="#fff" opacity="0.5" style="isolation:isolate"/><circle cx="1.998" cy="1.998" r="1.998" transform="translate(0 2.792)" fill="#fff" opacity="0.2" style="isolation:isolate"/><circle cx="1.145" cy="1.145" r="1.145" transform="translate(0.853 3.645)" fill="#fff" opacity="0.2" style="isolation:isolate"/><path d="M975.563,2107.406a3.829,3.829,0,1,1-3.829-3.829A3.828,3.828,0,0,1,975.563,2107.406Z" transform="translate(-966.467 -2096.304)" fill="#fff" opacity="0.2" style="isolation:isolate"/><path d="M974.85,2107.58a2.943,2.943,0,1,1-2.943-2.943,2.943,2.943,0,0,1,2.943,2.943Z" transform="translate(-966.641 -2096.478)" fill="#fff" opacity="0.3" style="isolation:isolate"/></g></g></g><path d="M980.436,2110.693H965.505l.711-15.048a2.742,2.742,0,0,1,2.734-2.608h8.042a2.742,2.742,0,0,1,2.734,2.608Z" transform="translate(-865.544 -2027.395)" fill="none" stroke="#263238" stroke-linecap="round" stroke-linejoin="round" stroke-width="1"/><path d="M985.805,2120.412h-28.29l3.344-7.625h21.6Z" transform="translate(-864.234 -2030.634)" fill="#6595bf" stroke="#263238" stroke-linecap="round" stroke-linejoin="round" stroke-width="1"/><path d="M1012.5,2252.967v70.165a7.616,7.616,0,0,1-7.616,7.616h-13.15V2324.9H1003.9a3.344,3.344,0,0,0,3.344-3.344v-68.585Z" transform="translate(-869.846 -2053.623)" fill="#6595bf" stroke="#263238" stroke-linecap="round" stroke-linejoin="round" stroke-width="1"/><path d="M857.355,2154.023v-49.734a5.392,5.392,0,0,1,5.392-5.392h4.289v4.18h-3.586a2.342,2.342,0,0,0-2.349,2.333v48.262Z" transform="translate(-847.808 -2028.356)" fill="#6595bf" stroke="#263238" stroke-linecap="round" stroke-linejoin="round" stroke-width="1"/><rect width="3.311" height="13.393" transform="translate(26.033 77.564)" fill="#6595bf" stroke="#263238" stroke-linecap="round" stroke-linejoin="round" stroke-width="1"/><rect width="3.311" height="13.393" transform="translate(51.113 77.564)" fill="#6595bf" stroke="#263238" stroke-linecap="round" stroke-linejoin="round" stroke-width="1"/><rect width="45.203" height="33.95" rx="3.69" transform="translate(17.631 46.113)" fill="#bfbfbf" stroke="#263238" stroke-linecap="round" stroke-linejoin="round" stroke-width="1"/><rect width="36.817" height="24.47" transform="translate(21.82 50.845)" fill="#344154"/><path d="M857.355,2198.9V2231.9a5.4,5.4,0,0,0,5.392,5.4h4.289v-4.18h-3.586a2.349,2.349,0,0,1-2.349-2.349v-31.526Z" transform="translate(-847.808 -2044.756)" fill="#6595bf" stroke="#263238" stroke-linecap="round" stroke-linejoin="round" stroke-width="1"/><path d="M854.389,2155.507H866v45.8H854.389a3.344,3.344,0,0,1-3.344-3.344v-39.091a3.344,3.344,0,0,1,3.327-3.361Z" transform="translate(-846.773 -2037.64)" fill="#6595bf" stroke="#263238" stroke-linecap="round" stroke-linejoin="round" stroke-width="1"/><rect width="114.883" height="214.827" rx="3.96" transform="translate(15.734 88.942)" fill="#5e6178" stroke="#263238" stroke-linecap="round" stroke-linejoin="round" stroke-width="1"/><rect width="97.177" height="193.827" transform="translate(24.587 99.433)" fill="#6595bf" stroke="#263238" stroke-linecap="round" stroke-linejoin="round" stroke-width="1"/><rect width="92.161" height="188.811" transform="translate(27.095 101.95)" fill="#344154"/><path d="M930.463,2323.941h-2.868v-41.566a1.438,1.438,0,0,1,1.43-1.438h0a1.438,1.438,0,0,1,1.438,1.438h0Z" transform="translate(-859.327 -2058.21)" fill="#5e6178" stroke="#263238" stroke-linecap="round" stroke-linejoin="round" stroke-width="1"/><path d="M936.722,2323.941h-2.867v-41.566a1.438,1.438,0,0,1,1.43-1.438h0a1.438,1.438,0,0,1,1.438,1.438h0Z" transform="translate(-860.354 -2058.21)" fill="#5e6178" stroke="#263238" stroke-linecap="round" stroke-linejoin="round" stroke-width="1"/><path d="M942.982,2323.941h-2.867v-41.566a1.438,1.438,0,0,1,1.43-1.438h0a1.438,1.438,0,0,1,1.438,1.438h0Z" transform="translate(-861.38 -2058.21)" fill="#5e6178" stroke="#263238" stroke-linecap="round" stroke-linejoin="round" stroke-width="1"/><path d="M949.242,2323.941h-2.867v-41.566a1.438,1.438,0,0,1,1.43-1.438h0a1.438,1.438,0,0,1,1.438,1.438h0Z" transform="translate(-862.407 -2058.21)" fill="#5e6178" stroke="#263238" stroke-linecap="round" stroke-linejoin="round" stroke-width="1"/><path d="M955.5,2323.941h-2.867v-41.566a1.438,1.438,0,0,1,1.43-1.438h0a1.438,1.438,0,0,1,1.438,1.438h0Z" transform="translate(-863.434 -2058.21)" fill="#5e6178" stroke="#263238" stroke-linecap="round" stroke-linejoin="round" stroke-width="1"/><path d="M961.769,2323.941h-2.834v-41.566a1.438,1.438,0,0,1,1.43-1.438h0a1.438,1.438,0,0,1,1.438,1.438h0Z" transform="translate(-864.467 -2058.21)" fill="#5e6178" stroke="#263238" stroke-linecap="round" stroke-linejoin="round" stroke-width="1"/><path d="M883.815,2271.057H912.7a4.849,4.849,0,0,1,4.849,4.849v46.415H883.815v-51.263Z" transform="translate(-852.147 -2056.59)" fill="#5e6178" stroke="#263238" stroke-linecap="round" stroke-linejoin="round" stroke-width="1"/><rect width="25.908" height="12.791" transform="translate(31.668 225.151)" fill="#6595bf" stroke="#263238" stroke-linecap="round" stroke-linejoin="round" stroke-width="1"/><line y2="5.618" transform="translate(53.713 228.738)" fill="none" stroke="#263238" stroke-linecap="round" stroke-linejoin="round" stroke-width="1"/><line y2="5.618" transform="translate(51.18 228.738)" fill="none" stroke="#263238" stroke-linecap="round" stroke-linejoin="round" stroke-width="1"/><line y2="5.618" transform="translate(48.647 228.738)" fill="none" stroke="#263238" stroke-linecap="round" stroke-linejoin="round" stroke-width="1"/><line y2="5.618" transform="translate(46.106 228.738)" fill="none" stroke="#263238" stroke-linecap="round" stroke-linejoin="round" stroke-width="1"/><line y2="5.618" transform="translate(43.572 228.738)" fill="none" stroke="#263238" stroke-linecap="round" stroke-linejoin="round" stroke-width="1"/><path d="M919.795,2314.277h-7.524a.836.836,0,1,1,0-1.672h7.524c5.409,0,7.524-4.941,9.723-10.182,1.747-4.138,3.561-8.419,7.2-10.133a13.553,13.553,0,0,1,12.891.46,9.631,9.631,0,0,1,4.615,8.235.836.836,0,0,1-1.672,0,7.882,7.882,0,0,0-3.837-6.822,11.872,11.872,0,0,0-11.286-.36c-3.06,1.488-4.673,5.25-6.345,9.271C928.723,2308.584,926.307,2314.277,919.795,2314.277Z" transform="translate(-856.677 -2059.841)" fill="#bfbfbf" stroke="#263238" stroke-linecap="round" stroke-linejoin="round" stroke-width="1"/><rect width="35.388" height="25.64" rx="8.19" transform="translate(80.398 238.377)" fill="#6595bf" stroke="#263238" stroke-linecap="round" stroke-linejoin="round" stroke-width="1"/><path d="M885.515,2301.827h16.8a10.4,10.4,0,0,1,10.4,10.4h0v10.408a3.01,3.01,0,0,1-3.01,3.01H885.515a3.01,3.01,0,0,1-3.01-3.01h0v-17.79a3.01,3.01,0,0,1,3-3.018Z" transform="translate(-851.932 -2061.636)" fill="#6595bf" stroke="#263238" stroke-linecap="round" stroke-linejoin="round" stroke-width="1"/><rect width="16.595" height="16.595" rx="2.11" transform="translate(98.364 218.438)" fill="#6595bf" stroke="#263238" stroke-linecap="round" stroke-linejoin="round" stroke-width="1"/><path d="M976.5,2285.009a3.67,3.67,0,1,1-3.678-3.662h.008A3.67,3.67,0,0,1,976.5,2285.009Z" transform="translate(-866.143 -2058.278)" fill="#bfbfbf" stroke="#263238" stroke-linecap="round" stroke-linejoin="round" stroke-width="1"/><rect width="5.075" height="15.433" transform="translate(48.647 250.298)" fill="#bfbfbf" stroke="#263238" stroke-linecap="round" stroke-linejoin="round" stroke-width="1"/><path d="M963.63,2308.377h9.589a2.015,2.015,0,0,1,2.015,2.015h0v18.049H961.615v-18.049a2.015,2.015,0,0,1,2.015-2.015Z" transform="translate(-864.906 -2062.711)" fill="#bfbfbf" stroke="#263238" stroke-linecap="round" stroke-linejoin="round" stroke-width="1"/><path d="M887.866,2305.317h-1.287l-.644,1.12.644,1.12h1.287l.652-1.12Z" transform="translate(-852.495 -2062.209)" fill="#bfbfbf" stroke="#263238" stroke-linecap="round" stroke-linejoin="round" stroke-width="1"/><path d="M887.866,2323.577h-1.287l-.644,1.12.644,1.12h1.287l.652-1.12Z" transform="translate(-852.495 -2065.203)" fill="#bfbfbf" stroke="#263238" stroke-linecap="round" stroke-linejoin="round" stroke-width="1"/><path d="M973.915,2284.387h-1.3l-.644,1.12.644,1.12h1.3l.644-1.12Z" transform="translate(-866.606 -2058.776)" fill="#bfbfbf" stroke="#263238" stroke-linecap="round" stroke-linejoin="round" stroke-width="1"/><path d="M887.866,2273.937h-1.287l-.644,1.12.644,1.12h1.287l.652-1.12Z" transform="translate(-852.495 -2057.063)" fill="#6595bf" stroke="#263238" stroke-linecap="round" stroke-linejoin="round" stroke-width="1"/><path d="M919.025,2273.937h-1.3l-.644,1.12.644,1.12h1.3l.644-1.12Z" transform="translate(-857.604 -2057.063)" fill="#6595bf" stroke="#263238" stroke-linecap="round" stroke-linejoin="round" stroke-width="1"/><rect width="84.093" height="18.96" transform="translate(31.685 267.979)" fill="#5e6178" stroke="#263238" stroke-linecap="round" stroke-linejoin="round" stroke-width="1"/><rect width="27.379" height="13.669" transform="translate(85.398 270.404)" fill="#6595bf" stroke="#263238" stroke-linecap="round" stroke-linejoin="round" stroke-width="1"/><path d="M953.026,2340.677h-1.287l-.644,1.112.644,1.12h1.287l.652-1.12Z" transform="translate(-863.181 -2068.008)" fill="#bfbfbf" stroke="#263238" stroke-linecap="round" stroke-linejoin="round" stroke-width="1"/><path d="M953.026,2348.877h-1.287L951.1,2350l.644,1.12h1.287l.652-1.12Z" transform="translate(-863.181 -2069.353)" fill="#bfbfbf" stroke="#263238" stroke-linecap="round" stroke-linejoin="round" stroke-width="1"/><path d="M977.026,2340.677h-1.287l-.644,1.112.644,1.12h1.287l.652-1.12Z" transform="translate(-867.117 -2068.008)" fill="#bfbfbf" stroke="#263238" stroke-linecap="round" stroke-linejoin="round" stroke-width="1"/><path d="M977.026,2348.877h-1.287L975.1,2350l.644,1.12h1.287l.652-1.12Z" transform="translate(-867.117 -2069.353)" fill="#bfbfbf" stroke="#263238" stroke-linecap="round" stroke-linejoin="round" stroke-width="1"/><rect width="3.219" height="3.219" transform="translate(36.023 280.486)" fill="#6595bf" stroke="#263238" stroke-linecap="round" stroke-linejoin="round" stroke-width="1"/><rect width="3.219" height="3.219" transform="translate(42.126 280.486)" fill="#6595bf" stroke="#263238" stroke-linecap="round" stroke-linejoin="round" stroke-width="1"/><rect width="3.219" height="3.219" transform="translate(48.237 280.486)" fill="#6595bf" stroke="#263238" stroke-linecap="round" stroke-linejoin="round" stroke-width="1"/><path d="M914.162,2351.632a1.613,1.613,0,1,1-1.622-1.6h.008a1.6,1.6,0,0,1,1.613,1.6Z" transform="translate(-856.595 -2069.541)" fill="#6595bf" stroke="#263238" stroke-linecap="round" stroke-linejoin="round" stroke-width="1"/><path d="M921.462,2351.632a1.613,1.613,0,1,1-1.622-1.6h.017a1.6,1.6,0,0,1,1.605,1.6Z" transform="translate(-857.792 -2069.541)" fill="#6595bf" stroke="#263238" stroke-linecap="round" stroke-linejoin="round" stroke-width="1"/><path d="M884.935,2256.362c27.488,0,56.012-23.015,81.092-23.015" transform="translate(-852.331 -2050.406)" fill="none" stroke="#999" stroke-linecap="round" stroke-linejoin="round" stroke-width="1"/><path d="M884.935,2150.757c15.583,0,47.159,34.527,81.092,34.527" transform="translate(-852.331 -2036.861)" fill="none" stroke="#92e3a9" stroke-linecap="round" stroke-linejoin="round" stroke-width="1"/><path d="M966.027,2150.757c-18.551,0-53.462,57.542-81.092,57.542" transform="translate(-852.331 -2036.861)" fill="none" stroke="#bfbfbf" stroke-linecap="round" stroke-linejoin="round" stroke-width="1"/><path d="M885.935,2224.317c17.857,0,61.563-46.272,80.256-46.03" transform="translate(-852.495 -2041.376)" fill="none" stroke="#757575" stroke-linecap="round" stroke-linejoin="round" stroke-width="1"/><path d="M884.935,2192.057c31.459,0,57.968,57.533,81.092,57.533" transform="translate(-852.331 -2043.634)" fill="none" stroke="#92e3a9" stroke-linecap="round" stroke-linejoin="round" stroke-width="1"/><path d="M884.935,2242.642c12.273,0,56.012-23.015,81.092-23.015" transform="translate(-852.331 -2048.156)" fill="none" stroke="#757575" stroke-linecap="round" stroke-linejoin="round" stroke-width="1"/><path d="M966.027,2233.612c-15.683,0-56.33-69.045-81.092-69.045" transform="translate(-852.331 -2039.126)" fill="none" stroke="#bfbfbf" stroke-linecap="round" stroke-linejoin="round" stroke-width="1"/><path d="M884.935,2176.031c12.933,0,46.064-11.5,81.092-11.5" transform="translate(-852.331 -2039.119)" fill="none" stroke="#92e3a9" stroke-linecap="round" stroke-linejoin="round" stroke-width="1"/><path d="M884.935,2205.817c16.244,0,31.985,7.524,42.3,7.524s27.354-7.524,38.79-7.524" transform="translate(-852.331 -2045.891)" fill="none" stroke="#999" stroke-linecap="round" stroke-linejoin="round" stroke-width="1"/><rect width="1.881" height="5.509" transform="translate(112.777 111.146)" fill="#5e6178" stroke="#263238" stroke-linecap="round" stroke-linejoin="round" stroke-width="1"/><rect width="1.881" height="5.509" transform="translate(112.777 122.649)" fill="#5e6178" stroke="#263238" stroke-linecap="round" stroke-linejoin="round" stroke-width="1"/><rect width="1.881" height="5.509" transform="translate(112.777 134.161)" fill="#5e6178" stroke="#263238" stroke-linecap="round" stroke-linejoin="round" stroke-width="1"/><rect width="1.881" height="5.509" transform="translate(112.777 145.664)" fill="#5e6178" stroke="#263238" stroke-linecap="round" stroke-linejoin="round" stroke-width="1"/><rect width="1.881" height="5.509" transform="translate(112.777 157.176)" fill="#5e6178" stroke="#263238" stroke-linecap="round" stroke-linejoin="round" stroke-width="1"/><rect width="1.881" height="5.509" transform="translate(112.777 168.679)" fill="#5e6178" stroke="#263238" stroke-linecap="round" stroke-linejoin="round" stroke-width="1"/><rect width="1.881" height="5.509" transform="translate(112.777 180.191)" fill="#5e6178" stroke="#263238" stroke-linecap="round" stroke-linejoin="round" stroke-width="1"/><rect width="1.881" height="5.509" transform="translate(112.777 191.694)" fill="#5e6178" stroke="#263238" stroke-linecap="round" stroke-linejoin="round" stroke-width="1"/><rect width="1.881" height="5.509" transform="translate(112.777 203.206)" fill="#5e6178" stroke="#263238" stroke-linecap="round" stroke-linejoin="round" stroke-width="1"/><rect width="1.881" height="5.509" transform="translate(31.685 111.146)" fill="#5e6178" stroke="#263238" stroke-linecap="round" stroke-linejoin="round" stroke-width="1"/><rect width="1.881" height="5.509" transform="translate(31.685 122.649)" fill="#5e6178" stroke="#263238" stroke-linecap="round" stroke-linejoin="round" stroke-width="1"/><rect width="1.881" height="5.509" transform="translate(31.685 134.161)" fill="#5e6178" stroke="#263238" stroke-linecap="round" stroke-linejoin="round" stroke-width="1"/><rect width="1.881" height="5.509" transform="translate(31.685 145.664)" fill="#5e6178" stroke="#263238" stroke-linecap="round" stroke-linejoin="round" stroke-width="1"/><rect width="1.881" height="5.509" transform="translate(31.685 157.176)" fill="#5e6178" stroke="#263238" stroke-linecap="round" stroke-linejoin="round" stroke-width="1"/><rect width="1.881" height="5.509" transform="translate(31.685 168.679)" fill="#5e6178" stroke="#263238" stroke-linecap="round" stroke-linejoin="round" stroke-width="1"/><rect width="1.881" height="5.509" transform="translate(31.685 180.191)" fill="#5e6178" stroke="#263238" stroke-linecap="round" stroke-linejoin="round" stroke-width="1"/><rect width="1.881" height="5.509" transform="translate(31.685 191.694)" fill="#5e6178" stroke="#263238" stroke-linecap="round" stroke-linejoin="round" stroke-width="1"/><rect width="1.881" height="5.509" transform="translate(31.685 203.206)" fill="#5e6178" stroke="#263238" stroke-linecap="round" stroke-linejoin="round" stroke-width="1"/><path d="M857.528,2371.567H983.362a3.453,3.453,0,0,1,3.453,3.453h0v11.127H854.075v-11.136A3.453,3.453,0,0,1,857.528,2371.567Z" transform="translate(-847.27 -2073.074)" fill="#6595bf" stroke="#263238" stroke-linecap="round" stroke-linejoin="round" stroke-width="1"/><path d="M848.226,2386.4H989.986a2.325,2.325,0,0,1,2.324,2.324v5.91H845.935V2388.7A2.324,2.324,0,0,1,848.226,2386.4Z" transform="translate(-845.935 -2075.506)" fill="#bfbfbf" stroke="#263238" stroke-linecap="round" stroke-linejoin="round" stroke-width="1"/><rect width="11.027" height="153.832" rx="2.92" transform="translate(134.496 109.156)" fill="#bfbfbf" stroke="#263238" stroke-linecap="round" stroke-linejoin="round" stroke-width="1"/><path d="M1008.885,2148.577a1.02,1.02,0,1,0,1.02,1.02,1.02,1.02,0,0,0-1.02-1.02Z" transform="translate(-872.491 -2036.503)" fill="#344154"/><path d="M1008.885,2156.477a1.02,1.02,0,1,0,1.02,1.02,1.02,1.02,0,0,0-1.02-1.02Z" transform="translate(-872.491 -2037.799)" fill="#344154"/><path d="M1008.885,2164.377a1.02,1.02,0,1,0,1.02,1.02,1.02,1.02,0,0,0-1.02-1.02Z" transform="translate(-872.491 -2039.095)" fill="#344154"/><path d="M1008.885,2172.277a1.02,1.02,0,1,0,1.02,1.02,1.02,1.02,0,0,0-1.02-1.02Z" transform="translate(-872.491 -2040.39)" fill="#344154"/><path d="M1008.9,2180.156a1.02,1.02,0,1,0,.185,0A.934.934,0,0,0,1008.9,2180.156Z" transform="translate(-872.51 -2041.682)" fill="#344154"/><path d="M1008.9,2188.086a1.02,1.02,0,1,0,.185,0A1.02,1.02,0,0,0,1008.9,2188.086Z" transform="translate(-872.51 -2042.982)" fill="#344154"/><path d="M1008.9,2195.986a1.02,1.02,0,1,0,.185,0,1.112,1.112,0,0,0-.185,0Z" transform="translate(-872.51 -2044.278)" fill="#344154"/><path d="M1008.9,2203.886a1.02,1.02,0,1,0,.185,0A.973.973,0,0,0,1008.9,2203.886Z" transform="translate(-872.51 -2045.573)" fill="#344154"/><path d="M1008.885,2211.787a1.02,1.02,0,1,0,1.02,1.02v-.008a1.012,1.012,0,0,0-1.012-1.011Z" transform="translate(-872.491 -2046.87)" fill="#344154"/><path d="M1008.885,2219.687a1.02,1.02,0,1,0,1.02,1.02,1.02,1.02,0,0,0-1.02-1.02Z" transform="translate(-872.491 -2048.166)" fill="#344154"/><path d="M1008.885,2227.587a1.02,1.02,0,1,0,1.02,1.02,1.02,1.02,0,0,0-1.02-1.02Z" transform="translate(-872.491 -2049.461)" fill="#344154"/><path d="M1008.885,2235.487a1.02,1.02,0,1,0,1.02,1.02,1.02,1.02,0,0,0-1.02-1.02Z" transform="translate(-872.491 -2050.757)" fill="#344154"/><path d="M1008.885,2243.387a1.02,1.02,0,1,0,1.02,1.02,1.02,1.02,0,0,0-1.02-1.02Z" transform="translate(-872.491 -2052.052)" fill="#344154"/><path d="M1008.9,2251.3a1.02,1.02,0,1,0,.185,0A.973.973,0,0,0,1008.9,2251.3Z" transform="translate(-872.51 -2053.349)" fill="#344154"/><path d="M1008.9,2259.156a1.02,1.02,0,1,0,.185,0A.973.973,0,0,0,1008.9,2259.156Z" transform="translate(-872.51 -2054.638)" fill="#344154"/><path d="M1008.9,2267.1a1.02,1.02,0,1,0,.185,0A.973.973,0,0,0,1008.9,2267.1Z" transform="translate(-872.51 -2055.94)" fill="#344154"/><path d="M1008.9,2275a1.02,1.02,0,1,0,.185,0A.973.973,0,0,0,1008.9,2275Z" transform="translate(-872.51 -2057.235)" fill="#344154"/><path d="M1008.885,2282.9a1.02,1.02,0,1,0,1.02,1.02v-.009a1.012,1.012,0,0,0-1.012-1.011Z" transform="translate(-872.491 -2058.532)" fill="#344154"/><path d="M1008.885,2290.8a1.012,1.012,0,1,0,.017,0Z" transform="translate(-872.491 -2059.828)" fill="#344154"/><path d="M1008.885,2298.7a1.02,1.02,0,1,0,1.02,1.02,1.02,1.02,0,0,0-1.02-1.02Z" transform="translate(-872.491 -2061.123)" fill="#344154"/><path d="M1008.885,2306.6a1.02,1.02,0,1,0,1.02,1.02,1.02,1.02,0,0,0-1.02-1.02Z" transform="translate(-872.491 -2062.419)" fill="#344154"/><path d="M1008.885,2314.5a1.02,1.02,0,1,0,1.02,1.02,1.02,1.02,0,0,0-1.02-1.02Z" transform="translate(-872.491 -2063.714)" fill="#344154"/><path d="M1008.888,2322.407a1.016,1.016,0,1,0,.008,0Z" transform="translate(-872.495 -2065.011)" fill="#344154"/><circle cx="1.012" cy="1.012" r="1.012" transform="translate(138.993 115.384)" fill="#344154"/><path d="M1013.2,2160.427a1.02,1.02,0,1,0,1.02,1.02,1.02,1.02,0,0,0-1.02-1.02Z" transform="translate(-873.2 -2038.447)" fill="#344154"/><circle cx="1.012" cy="1.012" r="1.012" transform="translate(138.993 128.593)" fill="#344154"/><circle cx="1.012" cy="1.012" r="1.012" transform="translate(138.993 135.197)" fill="#344154"/><path d="M1013.2,2184.157a1.02,1.02,0,1,0,1.02,1.02v-.008a1.012,1.012,0,0,0-1.012-1.011Z" transform="translate(-873.2 -2042.339)" fill="#344154"/><circle cx="1.012" cy="1.012" r="1.012" transform="translate(138.993 148.406)" fill="#344154"/><path d="M1013.2,2199.937a1.02,1.02,0,1,0,1.02,1.02v-.008a1.012,1.012,0,0,0-1.012-1.011Z" transform="translate(-873.2 -2044.927)" fill="#344154"/><circle cx="1.012" cy="1.012" r="1.012" transform="translate(138.993 161.615)" fill="#344154"/><circle cx="1.012" cy="1.012" r="1.012" transform="translate(138.993 168.228)" fill="#344154"/><path d="M1013.2,2223.637a1.02,1.02,0,1,0,1.02,1.02,1.02,1.02,0,0,0-1.02-1.02Z" transform="translate(-873.2 -2048.813)" fill="#344154"/><circle cx="1.012" cy="1.012" r="1.012" transform="translate(138.993 181.437)" fill="#344154"/><circle cx="1.012" cy="1.012" r="1.012" transform="translate(138.993 188.041)" fill="#344154"/><circle cx="1.012" cy="1.012" r="1.012" transform="translate(138.993 194.645)" fill="#344154"/><circle cx="1.012" cy="1.012" r="1.012" transform="translate(138.993 201.25)" fill="#344154"/><path d="M1013.2,2263.157a1.02,1.02,0,1,0,1.02,1.02v-.008a1.012,1.012,0,0,0-1.012-1.011Z" transform="translate(-873.2 -2055.294)" fill="#344154"/><circle cx="1.012" cy="1.012" r="1.012" transform="translate(138.993 214.459)" fill="#344154"/><path d="M1013.2,2278.947a1.02,1.02,0,1,0,1.02,1.02v-.008a1.012,1.012,0,0,0-1.012-1.011Z" transform="translate(-873.2 -2057.884)" fill="#344154"/><path d="M1013.2,2286.847a1.012,1.012,0,1,0,.017,0Z" transform="translate(-873.2 -2059.18)" fill="#344154"/><circle cx="1.012" cy="1.012" r="1.012" transform="translate(138.993 234.28)" fill="#344154"/><path d="M1013.2,2302.647a1.02,1.02,0,1,0,1.02,1.02,1.02,1.02,0,0,0-1.02-1.02Z" transform="translate(-873.2 -2061.771)" fill="#344154"/><circle cx="1.012" cy="1.012" r="1.012" transform="translate(138.993 247.489)" fill="#344154"/><circle cx="1.012" cy="1.012" r="1.012" transform="translate(138.993 254.093)" fill="#344154"/><path d="M1017.535,2150.607a1.02,1.02,0,1,0-1.02-1.02v.009a1.012,1.012,0,0,0,1.012,1.011Z" transform="translate(-873.91 -2036.502)" fill="#344154"/><circle cx="1.012" cy="1.012" r="1.012" transform="translate(142.613 118.686)" fill="#344154"/><circle cx="1.012" cy="1.012" r="1.012" transform="translate(142.613 125.291)" fill="#344154"/><path d="M1017.533,2172.277a1.02,1.02,0,1,0,1.012,1.028v-.009A1.02,1.02,0,0,0,1017.533,2172.277Z" transform="translate(-873.909 -2040.39)" fill="#344154"/><circle cx="1.012" cy="1.012" r="1.012" transform="translate(142.613 138.5)" fill="#344154"/><path d="M1017.533,2188.087a1.02,1.02,0,1,0,1.012,1.028v-.016a1.012,1.012,0,0,0-1.012-1.012Z" transform="translate(-873.909 -2042.983)" fill="#344154"/><path d="M1017.532,2195.987a1.02,1.02,0,1,0,1,1.036c0-.02,0-.039,0-.058A1.011,1.011,0,0,0,1017.532,2195.987Z" transform="translate(-873.907 -2044.279)" fill="#344154"/><circle cx="1.012" cy="1.012" r="1.012" transform="translate(142.613 158.313)" fill="#344154"/><path d="M1017.533,2211.787a1.02,1.02,0,1,0,1.012,1.028v-.017A1.012,1.012,0,0,0,1017.533,2211.787Z" transform="translate(-873.909 -2046.87)" fill="#344154"/><circle cx="1.012" cy="1.012" r="1.012" transform="translate(142.613 171.53)" fill="#344154"/><path d="M1017.533,2227.587a1.02,1.02,0,1,0,1.012,1.028v-.009A1.02,1.02,0,0,0,1017.533,2227.587Z" transform="translate(-873.909 -2049.461)" fill="#344154"/><path d="M1017.533,2235.487a1.02,1.02,0,1,0,1.012,1.028v-.009A1.02,1.02,0,0,0,1017.533,2235.487Z" transform="translate(-873.909 -2050.757)" fill="#344154"/><circle cx="1.012" cy="1.012" r="1.012" transform="translate(142.613 191.343)" fill="#344154"/><path d="M1017.533,2251.3a1.02,1.02,0,1,0,1.012,1.028v-.017A1.012,1.012,0,0,0,1017.533,2251.3Z" transform="translate(-873.909 -2053.35)" fill="#344154"/><path d="M1017.533,2259.157a1.02,1.02,0,1,0,1.012,1.028v-.017A1.012,1.012,0,0,0,1017.533,2259.157Z" transform="translate(-873.909 -2054.638)" fill="#344154"/><circle cx="1.012" cy="1.012" r="1.012" transform="translate(142.613 211.156)" fill="#344154"/><path d="M1017.533,2275a1.02,1.02,0,1,0,1.012,1.028v-.017A1.012,1.012,0,0,0,1017.533,2275Z" transform="translate(-873.909 -2057.236)" fill="#344154"/><circle cx="1.012" cy="1.012" r="1.012" transform="translate(142.613 224.365)" fill="#344154"/><path d="M1017.533,2290.8a1.02,1.02,0,1,0,1.012,1.028v-.008a1.012,1.012,0,0,0-1-1.02Z" transform="translate(-873.909 -2059.828)" fill="#344154"/><circle cx="1.012" cy="1.012" r="1.012" transform="translate(142.613 237.582)" fill="#344154"/><circle cx="1.012" cy="1.012" r="1.012" transform="translate(142.613 244.187)" fill="#344154"/><path d="M1017.533,2314.5a1.02,1.02,0,1,0,1.012,1.028v-.009A1.02,1.02,0,0,0,1017.533,2314.5Z" transform="translate(-873.909 -2063.714)" fill="#344154"/><circle cx="1.012" cy="1.012" r="1.012" transform="translate(142.613 257.396)" fill="#344154"/><path d="M1002.646,2061.617a6.73,6.73,0,0,0,0,13.209h.084a4.012,4.012,0,0,0,3.678,2.416,3.969,3.969,0,0,0,2.6-.978h0a3.688,3.688,0,0,0,.911.117" transform="translate(-871.018 -2022.242)" fill="none" stroke="#263238" stroke-linecap="round" stroke-linejoin="round" stroke-width="1"/><path d="M1016.862,2066.064a4,4,0,0,0-4-4,4.125,4.125,0,0,0-.451.05,3.754,3.754,0,0,0-7.031-.451" transform="translate(-872.083 -2021.882)" fill="none" stroke="#263238" stroke-linecap="round" stroke-linejoin="round" stroke-width="1"/><path d="M1015.615,2076.474a3.972,3.972,0,0,0,2.115-6.237" transform="translate(-873.763 -2023.656)" fill="none" stroke="#263238" stroke-linecap="round" stroke-linejoin="round" stroke-width="1"/><path d="M1038.995,2063.762h0a5,5,0,0,0,1.078.134,4.772,4.772,0,0,0,3.5-1.555,4.724,4.724,0,0,0,2.508-7.424" transform="translate(-877.597 -2021.143)" fill="none" stroke="#263238" stroke-linecap="round" stroke-linejoin="round" stroke-width="1"/><path d="M1024.575,2058.1a4.481,4.481,0,0,0,4.481,4.481h.1a4.757,4.757,0,0,0,4.372,2.884" transform="translate(-875.232 -2021.665)" fill="none" stroke="#263238" stroke-linecap="round" stroke-linejoin="round" stroke-width="1"/><path d="M1044.715,2049.947a4.765,4.765,0,0,0-4.765-4.765h0a1.938,1.938,0,0,0-.543.05,4.464,4.464,0,0,0-8.36-.527,4.413,4.413,0,0,0-1.981-.485,4.464,4.464,0,0,0-2.909,7.867" transform="translate(-875.233 -2019.032)" fill="none" stroke="#263238" stroke-linecap="round" stroke-linejoin="round" stroke-width="1"/><path d="M998.235,2037.417a5.693,5.693,0,0,0,9.363,4.071,5.986,5.986,0,0,0,.451-.468" transform="translate(-870.912 -2018.273)" fill="none" stroke="#263238" stroke-linecap="round" stroke-linejoin="round" stroke-width="1"/><path d="M995.973,2022.007a11.583,11.583,0,0,0-1.7,10.993" transform="translate(-870.046 -2015.746)" fill="none" stroke="#263238" stroke-linecap="round" stroke-linejoin="round" stroke-width="1"/><path d="M1014.889,2020.754a5.351,5.351,0,0,0-8.728-4.974l-.084.084a5.685,5.685,0,0,0-8.193,4.18h0" transform="translate(-870.855 -2014.518)" fill="none" stroke="#263238" stroke-linecap="round" stroke-linejoin="round" stroke-width="1"/><path d="M1012.565,2039.7a5.281,5.281,0,0,0,4.23-1.179,5.358,5.358,0,0,0,1.672-5.609,5.294,5.294,0,0,0,2.19-1.087,5.359,5.359,0,0,0,.66-7.524" transform="translate(-873.262 -2016.121)" fill="none" stroke="#263238" stroke-linecap="round" stroke-linejoin="round" stroke-width="1"/></g><rect width="418" height="418" transform="translate(781.361 1953.766)" fill="none"/></g></svg>