<svg xmlns="http://www.w3.org/2000/svg" width="697.649" height="293.623" viewBox="0 0 697.649 293.623"><g transform="translate(-355.855 -2710.689)"><g transform="translate(355.855 2759.536)"><rect width="46.212" height="0.349" transform="translate(581.532 209.587)" fill="#aed3f2"/><rect width="12.125" height="0.349" transform="translate(450.026 213.383)" fill="#aed3f2"/><rect width="26.776" height="0.349" transform="translate(553.361 196.639)" fill="#aed3f2"/><rect width="60.263" height="0.349" transform="translate(73.197 198.983)" fill="#aed3f2"/><rect width="8.832" height="0.349" transform="translate(145.892 198.983)" fill="#aed3f2"/><rect width="130.712" height="0.349" transform="translate(183.44 204.871)" fill="#aed3f2"/><rect width="697.649" height="0.349" transform="translate(0 187.137)" fill="#aed3f2"/><path d="M750.366,2876.665c.167-16.925-1.563-35.329,1.06-51.012a16.049,16.049,0,0,0-.46-8.079c-5.8,3.753-6.46,18.683-6.642,24.739-4.842-14.553-7.8-30.878-6.223-45.794.572-5.414.572-13.437-5.121-8.54-5.051,4.34-3.181,19.451-2.023,24.5-3.823-11.846-8.553-23.72-12.39-35.231-4.549-13.688-16.283-10.339-7.493,2.9,5.749,8.651,14.218,28.869,14.218,28.869s-26.957-32.692-31.631-27.348c-3.446,3.935,27.152,26.022,31.938,33.892-4.116-4.186-18.264-14.079-20.929-8.26-1.4,3.181,3.921,4.451,7.3,6.111,9.028,4.465,16.451,10.576,21.013,19.883,2.163,4.939,3.153,7.451,4.953,12.558-2.791-4.4-14.525-14.274-16.339-10.227-1.228,2.791,5.944,8.106,9.46,11.623,8.651,8.665,13.116,18.139,15.53,30.013Z" transform="translate(-222.428 -2737.289)" fill="#e6e6e6"/><path d="M739.745,2866.933c3.851-13.953,9.614-28.548,11.162-42a13.642,13.642,0,0,1,2.288-6.516c3.865,4.451.865,16.744-.4,21.809,7.4-10.757,13.674-23.413,15.906-36,.809-4.562,2.707-11.163,6.209-5.791,3.1,4.758-2,16.744-4.186,20.539,5.93-8.791,12.558-17.357,18.446-25.911,6.977-10.13,15.767-4.618,5.442,4.186-6.739,5.721-18.446,20.274-18.446,20.274s29.79-20.386,32.343-14.916c1.9,4.032-28.353,14.888-34.129,20.2,4.339-2.414,18.264-7.214,19.032-1.842.419,2.944-4.27,2.791-7.409,3.279-8.455,1.521-15.976,4.772-21.892,11.316a112.19,112.19,0,0,0-6.976,9.1c3.363-2.93,15.251-8.26,15.781-4.521.363,2.54-6.781,5.232-10.479,7.283-9.125,5.051-15,11.707-19.8,20.93Z" transform="translate(-204.105 -2729.72)" fill="#e0e0e0"/><path d="M741.471,2888.052c-3.167-21.1-4.186-44.343-10.186-63.458a20.137,20.137,0,0,1-.823-10.172c7.883,3.683,11.288,22.185,12.558,29.706,3.516-18.99,4.367-39.864-.181-58.212-1.66-6.656-3.056-16.66,4.9-11.553,7.06,4.549,7.339,23.72,6.781,30.236,2.791-15.46,6.558-31.031,9.335-46.114,3.307-17.874,18.53-15.725,9.851,2.316-5.665,11.79-12.725,38.5-12.725,38.5s27.976-45.472,34.715-39.626c4.981,4.325-29.3,37.185-33.948,47.845,4.409-5.86,20.329-20.734,24.6-13.953,2.344,3.726-4.116,6.237-8.037,8.9-10.493,7.13-18.7,16.046-22.757,28.45-1.856,6.53-2.665,9.837-4.019,16.506,2.791-5.972,15.655-20.329,18.613-15.585,2,3.2-6.014,11.163-9.767,16.144-9.279,12.32-13.214,24.836-14.148,40.143Z" transform="translate(-207.896 -2746.123)" fill="#f5f5f5"/><path d="M717.345,2839.082l6.488,49.7a10.06,10.06,0,0,0,9.962,8.749H763.4a10.058,10.058,0,0,0,9.963-8.749l6.488-49.7Z" transform="translate(-212.959 -2709.375)" fill="#aed3f2"/><rect width="116.926" height="155.59" transform="translate(88.867 32.566)" fill="#f0f0f0"/><rect width="22.311" height="155.59" transform="translate(205.793 32.566)" fill="#e6e6e6"/><rect width="101.145" height="37.785" transform="translate(97.057 44.105)" fill="#fafafa"/><path d="M452.2,2777.732l.447,5.037a3.224,3.224,0,0,0,3.209,2.944h19.088a3.223,3.223,0,0,0,3.2-2.944l.446-5.037Z" transform="translate(-317.769 -2733.627)" fill="#aed3f2"/><rect width="101.145" height="37.785" transform="translate(97.057 86.02)" fill="#fafafa"/><path d="M452.2,2807.772l.447,5.037a3.208,3.208,0,0,0,3.209,2.93h19.088a3.208,3.208,0,0,0,3.2-2.93l.446-5.037Z" transform="translate(-317.769 -2721.752)" fill="#aed3f2"/><rect width="101.145" height="37.785" transform="translate(97.057 127.934)" fill="#fafafa"/><path d="M452.2,2837.842l.447,5.037a3.208,3.208,0,0,0,3.209,2.93h19.088a3.208,3.208,0,0,0,3.2-2.93l.446-5.037Z" transform="translate(-317.769 -2709.866)" fill="#aed3f2"/></g><g transform="translate(427.42 2972.723)"><ellipse cx="270.534" cy="15.795" rx="270.534" ry="15.795" fill="#dfedfa"/></g><g transform="translate(527.917 2727.433)"><rect width="7.939" height="44.301" transform="translate(61.986 166.023)" fill="#344154"/><rect width="7.939" height="44.301" transform="translate(61.986 166.023)" fill="#fff" opacity="0.2" style="isolation:isolate"/><path d="M579.173,2910.357l-40.227-14.818-40.673,14.832a2.149,2.149,0,0,1-2.757-1.278,2.188,2.188,0,0,1-.131-.745h0a2.163,2.163,0,0,1,1.242-1.953l42.319-19.632,41.859,19.632a2.118,2.118,0,0,1,1.228,1.939h0a2.148,2.148,0,0,1-2.86,2.023Z" transform="translate(-472.761 -2658.425)" fill="#344154"/><path d="M579.173,2910.357l-40.227-14.818-40.673,14.832a2.149,2.149,0,0,1-2.757-1.278,2.188,2.188,0,0,1-.131-.745h0a2.163,2.163,0,0,1,1.242-1.953l42.319-19.632,41.859,19.632a2.118,2.118,0,0,1,1.228,1.939h0a2.148,2.148,0,0,1-2.86,2.023Z" transform="translate(-472.761 -2658.425)" fill="#fff" opacity="0.3" style="isolation:isolate"/><path d="M519.805,2899l9.488-3.46,9.042,3.335v-7.884l-9.042-4.228-9.488,4.4Z" transform="translate(-463.108 -2658.425)" opacity="0.2" style="isolation:isolate"/><path d="M527.773,2921.333h0a3.572,3.572,0,0,1-3.558-3.223l-1.13-11.93v-46.338h9.446v46.324l-1.13,11.93A3.571,3.571,0,0,1,527.773,2921.333Z" transform="translate(-461.812 -2669.066)" fill="#344154"/><path d="M527.773,2921.333h0a3.572,3.572,0,0,1-3.558-3.223l-1.13-11.93v-46.338h9.446v46.324l-1.13,11.93A3.571,3.571,0,0,1,527.773,2921.333Z" transform="translate(-461.812 -2669.066)" fill="#fff" opacity="0.3" style="isolation:isolate"/><circle cx="5.232" cy="5.232" r="5.232" transform="translate(18.982 253.229)" fill="#d9a171"/><circle cx="2.609" cy="2.609" r="2.609" transform="translate(21.606 255.852)" fill="#344154"/><circle cx="5.232" cy="5.232" r="5.232" transform="translate(104.068 253.229)" fill="#d9a171"/><circle cx="2.609" cy="2.609" r="2.609" transform="translate(106.691 255.852)" fill="#344154"/><ellipse cx="3.837" cy="5.232" rx="3.837" ry="5.232" transform="translate(62.125 253.229)" fill="#d9a171"/><rect width="6.181" height="17.204" transform="translate(24.215 71.617)" fill="#344154"/><rect width="6.181" height="17.204" transform="translate(24.215 71.617)" fill="#fff" opacity="0.3" style="isolation:isolate"/><path d="M527.064,2778.732a3.5,3.5,0,0,1,3.139,1.814,121.236,121.236,0,0,1,15.181,83.718,3.069,3.069,0,0,1-2.916,2.721c-2.274.153-42.766,0-44.231,0a4.089,4.089,0,0,1-4.171-4,4.259,4.259,0,0,1,.054-.753,113.167,113.167,0,0,0-14.413-77.83,3.767,3.767,0,0,1,3.4-5.581C484.284,2778.718,524.482,2778.788,527.064,2778.732Z" transform="translate(-479.143 -2701.129)" fill="#d9a171"/><path d="M527.064,2778.732a3.5,3.5,0,0,1,3.139,1.814,121.236,121.236,0,0,1,15.181,83.718,3.069,3.069,0,0,1-2.916,2.721c-2.274.153-42.766,0-44.231,0a4.089,4.089,0,0,1-4.171-4,4.259,4.259,0,0,1,.054-.753,113.167,113.167,0,0,0-14.413-77.83,3.767,3.767,0,0,1,3.4-5.581C484.284,2778.718,524.482,2778.788,527.064,2778.732Z" transform="translate(-479.143 -2701.129)" opacity="0.2" style="isolation:isolate"/><path d="M494.148,2862.2a113.166,113.166,0,0,0-14.413-77.83c-2.512-4.186,4.032-8,6.544-3.823a121.218,121.218,0,0,1,15.167,83.718c-.865,4.786-8.163,2.791-7.3-2.023Z" transform="translate(-479.171 -2701.127)" fill="#d9a171"/><path d="M614.267,2838.121a128.222,128.222,0,0,0-28.38-3.907c-9.851-.251-46.742,0-55.5,0a128.379,128.379,0,0,0-31.673,3.949c-6.5,1.66-4.493,11.05,1.4,11.162H612.551C618.676,2849.548,620.922,2839.823,614.267,2838.121Z" transform="translate(-473.043 -2679.241)" fill="#d9a171"/><path d="M614.267,2838.121a128.222,128.222,0,0,0-28.38-3.907c-9.851-.251-46.742,0-55.5,0a128.379,128.379,0,0,0-31.673,3.949c-6.5,1.66-4.493,11.05,1.4,11.162H612.551C618.676,2849.548,620.922,2839.823,614.267,2838.121Z" transform="translate(-473.043 -2679.241)" opacity="0.3" style="isolation:isolate"/><path d="M501.716,2849.066a116.467,116.467,0,0,1,57.375,0c7.088,1.814,10.1-9.139,3.014-10.953a128.784,128.784,0,0,0-63.347,0c-7.074,1.814-4.074,12.767,3.028,10.953Z" transform="translate(-473.023 -2679.22)" fill="#d9a171"/><path d="M514.966,2787.612a2.482,2.482,0,0,0,2.567-1.967,63.028,63.028,0,0,0,0-30.92,2.483,2.483,0,0,0-2.316-1.968h-24.25a2.793,2.793,0,0,0-3.028,3.432,56.855,56.855,0,0,1,0,27.976,2.79,2.79,0,0,0,3.042,3.446Z" transform="translate(-475.738 -2711.404)" fill="#d9a171"/><path d="M514.966,2787.612a2.482,2.482,0,0,0,2.567-1.967,63.028,63.028,0,0,0,0-30.92,2.483,2.483,0,0,0-2.316-1.968h-24.25a2.793,2.793,0,0,0-3.028,3.432,56.855,56.855,0,0,1,0,27.976,2.79,2.79,0,0,0,3.042,3.446Z" transform="translate(-475.738 -2711.404)" opacity="0.2" style="isolation:isolate"/><path d="M487.943,2784.162a56.856,56.856,0,0,0,0-27.976c-.879-3.446,4.465-4.925,5.344-1.465a62.664,62.664,0,0,1,0,30.92c-.879,3.446-6.223,1.981-5.344-1.479Z" transform="translate(-475.742 -2711.4)" fill="#d9a171"/><path d="M572.257,2877.792l-6.572,28.618,8.162,3.153,11.748-28.785Z" transform="translate(-444.972 -2661.971)" fill="#ce7a63"/><path d="M575.387,2900.692l-7.409-3.963a.782.782,0,0,0-.963.168l-5.288,6.125a1.3,1.3,0,0,0,.114,1.832l.011.01a1.35,1.35,0,0,0,.223.154c3.112,1.6,5.944,2.916,9.767,4.981,4.535,2.442,3.1,2.372,8.372,5.3,3.2,1.772,5.735-1.549,4.479-2.47-5.8-4.186-6.572-6.977-7.786-10.521A3.078,3.078,0,0,0,575.387,2900.692Z" transform="translate(-446.665 -2654.523)" fill="#344154"/><path d="M523.152,2814.8l40.073-2.219S629.8,2823,628.8,2841.618s-28.032,77.369-28.032,77.369l-15.892-4.423s12.111-58.993,19.995-68.774c0,0-49.714-5.833-62.161-9.153C535.878,2834.739,519.371,2837.823,523.152,2814.8Z" transform="translate(-462.005 -2687.748)" fill="#344154"/><path d="M598.15,2844.654a35.6,35.6,0,0,0-3.056-16.074c-3.7-8.372-34.171-13.38-48.752-15.348l-23.19,1.284c-3.781,23.022,12.725,19.939,19.534,21.767C552.328,2838.878,584.141,2842.924,598.15,2844.654Z" transform="translate(-462.005 -2687.491)" opacity="0.3" style="isolation:isolate"/><path d="M551.182,2883.442l-1.047,29.343,8.832.418,5.874-29.343Z" transform="translate(-451.119 -2659.738)" fill="#ce7a63"/><path d="M559.127,2902.845l-8.567.181a.84.84,0,0,0-.767.642l-1.633,8.079a1.4,1.4,0,0,0,1.019,1.563.922.922,0,0,0,.279,0c3.558-.125,6.725-.377,11.162-.447,5.246-.1,3.921.558,10.088.531,3.7,0,4.312-4.186,2.791-4.423-7.214-.781-9.335-2.944-12.167-5.469A3.22,3.22,0,0,0,559.127,2902.845Z" transform="translate(-451.906 -2652.071)" fill="#344154"/><path d="M538.062,2814.172s53.635,1.883,56.789,18.292-14.818,89.927-14.818,89.927h-16.1s1.9-65.942,7.256-79.825c0,0-44.161,6.977-55.812-3.083-8.372-7.172,1.577-25.311,1.577-25.311Z" transform="translate(-466.184 -2687.12)" fill="#344154"/><path d="M566.869,2883.142l19.995,5.567-3.656,7.688-18.223-4.535Z" transform="translate(-445.248 -2659.856)" fill="#344154"/><path d="M566.869,2883.142l19.995,5.567-3.656,7.688-18.223-4.535Z" transform="translate(-445.248 -2659.856)" fill="#fff" opacity="0.3" style="isolation:isolate"/><path d="M548.1,2888.792l20.2.949-1.9,8.037-18.306-.949Z" transform="translate(-451.925 -2657.623)" fill="#344154"/><path d="M548.1,2888.792l20.2.949-1.9,8.037-18.306-.949Z" transform="translate(-451.925 -2657.623)" fill="#fff" opacity="0.3" style="isolation:isolate"/><path d="M563.425,2790.513l25.994.446,13.06-5.637,8.372,7.116-3.307,3.656-8.637-1.493-10.981,3.042-25.911,1.549Z" transform="translate(-446.423 -2698.524)" fill="#ce7a63"/><path d="M563.425,2790.513l25.994.446,13.06-5.637,8.372,7.116-3.307,3.656-8.637-1.493-10.981,3.042-25.911,1.549Z" transform="translate(-446.423 -2698.524)" opacity="0.1" style="isolation:isolate"/><path d="M563.925,2759.512s5.093,3.712,3.865,15.948-7.144,24.794-.53,25.115h1.716v8.874s-16.423,4.186-17.455-3.865S563.925,2759.512,563.925,2759.512Z" transform="translate(-450.593 -2708.727)" fill="#d9a171"/><path d="M563.925,2759.512s5.093,3.712,3.865,15.948-7.144,24.794-.53,25.115h1.716v8.874s-16.423,4.186-17.455-3.865S563.925,2759.512,563.925,2759.512Z" transform="translate(-450.593 -2708.727)" fill="#fff" opacity="0.6" style="isolation:isolate"/><path d="M551.522,2804.853c1.032,8.093,17.455,3.865,17.455,3.865v-2.33c-10.046,1.716-8.79-2.651-8.176-5.149,5.9-23.846,3.6-35.859,2.288-40.017C560.187,2769.664,550.615,2797.988,551.522,2804.853Z" transform="translate(-450.594 -2708.051)" opacity="0.1" style="isolation:isolate"/><path d="M562.375,2787.732l.014,12.376,4.744-.475v-11.121Z" transform="translate(-446.28 -2697.571)" fill="#d9a171"/><path d="M562.375,2787.732l.014,12.376,4.744-.475v-11.121Z" transform="translate(-446.28 -2697.571)" fill="#fff" opacity="0.7" style="isolation:isolate"/><path d="M513.775,2841.335s5.581-71.16,13.59-81.5,46.366-6.139,51.459,1.967c5.47,8.693-7.158,26.637-10.116,74.3C568.708,2836.1,536.463,2845.312,513.775,2841.335Z" transform="translate(-465.492 -2711.018)" fill="#d9a171"/><path d="M513.775,2841.335s5.581-71.16,13.59-81.5,46.366-6.139,51.459,1.967c5.47,8.693-7.158,26.637-10.116,74.3C568.708,2836.1,536.463,2845.312,513.775,2841.335Z" transform="translate(-465.492 -2711.018)" fill="#fff" opacity="0.4" style="isolation:isolate"/><path d="M547.206,2752.3c0,.07-6.753-.628-6.753-.628l-2.358,2.791a48.983,48.983,0,0,1,5.093,18.613s3.432-5.4,5.665-5.5,4.256,2.609,4.256,2.609,2.86-2.972,4.479-2.972,3.893,4.506,3.893,4.506-1.73-17.259-3.739-18.306S547.206,2752.3,547.206,2752.3Z" transform="translate(-455.878 -2711.825)" fill="#d9a171"/><path d="M547.206,2752.3c0,.07-6.753-.628-6.753-.628l-2.358,2.791a48.983,48.983,0,0,1,5.093,18.613s3.432-5.4,5.665-5.5,4.256,2.609,4.256,2.609,2.86-2.972,4.479-2.972,3.893,4.506,3.893,4.506-1.73-17.259-3.739-18.306S547.206,2752.3,547.206,2752.3Z" transform="translate(-455.878 -2711.825)" fill="#fff" opacity="0.7" style="isolation:isolate"/><path d="M540.871,2752.672s-.628,2.581,2.358,8.023a8.765,8.765,0,0,0,8.637,4.883c2.358,0,5.665-1.661,4.786-7.242S549.242,2752.755,540.871,2752.672Z" transform="translate(-454.803 -2711.431)" fill="#ce7a63"/><path d="M555.5,2753.666l-8.846-9.614c-.837,7.368-3.711,11.553-5.386,13.423l.8,3.613c10.73,12.056,13.2.475,13.2.475C552.651,2759.386,555.5,2753.666,555.5,2753.666Z" transform="translate(-454.625 -2714.838)" fill="#ce7a63"/><path d="M548.851,2746.961l-4.186-.419s.181,12.363,8.651,13.423c-1.577-2.484.781-7.242.781-7.242Z" transform="translate(-453.281 -2713.854)" fill="#344154" opacity="0.1" style="isolation:isolate"/><path d="M559.855,2731.986s8.19-1.758,8.735,1.256-6.572,3.851-6.572,3.851Z" transform="translate(-447.277 -2719.809)" fill="#344154"/><path d="M546.607,2739.147c-1.926,8.749-3.488,13.744-.461,19.534a11.622,11.622,0,0,0,20.581.237c4.018-7.1,6.488-20.2-.837-26.288a11.749,11.749,0,0,0-19.283,6.53Z" transform="translate(-453.368 -2720.51)" fill="#ce7a63"/><path d="M554.738,2741.461c-.209.7,0,1.4.474,1.479s.963-.307,1.172-.99,0-1.4-.474-1.493S554.933,2740.763,554.738,2741.461Z" transform="translate(-449.331 -2716.265)" fill="#344154"/><path d="M560.328,2743.261c-.209.7,0,1.4.474,1.493s.963-.307,1.172-1,0-1.4-.474-1.493S560.523,2742.563,560.328,2743.261Z" transform="translate(-447.122 -2715.553)" fill="#344154"/><path d="M553.59,2739.22a.442.442,0,0,1-.181-.084.419.419,0,0,1,0-.586h0a4.186,4.186,0,0,1,3.823-.684.418.418,0,0,1,.239.541v0h0a.419.419,0,0,1-.534.256l-.01,0h0a3.3,3.3,0,0,0-2.972.516A.38.38,0,0,1,553.59,2739.22Z" transform="translate(-449.872 -2717.36)" fill="#344154"/><path d="M563.876,2742.891a.394.394,0,0,1-.237-.307,3.554,3.554,0,0,0-1.772-2.609.448.448,0,0,1-.112-.6.432.432,0,0,1,.474-.168h0a4.377,4.377,0,0,1,2.232,3.224.418.418,0,0,1-.333.488h0A.351.351,0,0,1,563.876,2742.891Z" transform="translate(-446.553 -2716.76)" fill="#344154"/><path d="M555.452,2750.065a6.863,6.863,0,0,0,1.186.237.222.222,0,0,0,.262-.176l0-.019h0a.25.25,0,0,0-.209-.265,6.493,6.493,0,0,1-4.939-3.181.237.237,0,0,0-.315-.115l-.006,0a.239.239,0,0,0-.114.315l0,.005A6.769,6.769,0,0,0,555.452,2750.065Z" transform="translate(-450.659 -2713.861)" fill="#344154"/><path d="M548.893,2750.375s1.73,2.595,2.791.684.321-9.335.321-9.335,5.009-3.391,8.26-3.739,14.427.349,16.283-7.437c1.591-6.655-10.311-2.679-10.311-2.679a6.182,6.182,0,0,0-7.423-4.591c-3.893.642-6.446,4.479-6.446,4.479s-7.255-.67-10.381,2.665c-2.344,2.512,0,6.056,0,6.056a8.5,8.5,0,0,0-2.651,6.977c.2,3.056,1.521,3.99,1.521,3.99s2.023,7.786,4.758,9.656c1.256.851.656-.488,1.158-2.177A22.468,22.468,0,0,1,548.893,2750.375Z" transform="translate(-455.402 -2723.115)" fill="#344154"/><path d="M558.893,2742.652a27.663,27.663,0,0,0,1.591,6.976,4.192,4.192,0,0,1-3.488-.4Z" transform="translate(-448.407 -2715.392)" fill="#ba4d3c"/><path d="M567.922,2742.489a5.445,5.445,0,0,0-3.014-.335l-2.679-.837a5.43,5.43,0,0,0-2.679-1.4,6.658,6.658,0,0,0-2.581-.432l-11.274-.377v.7l9.99.321a2.606,2.606,0,0,0-.544.977,3.865,3.865,0,0,0,7.367,2.3,2.421,2.421,0,0,0,.084-1.242l1.535.489a2.5,2.5,0,0,0-.628,1.06A3.865,3.865,0,0,0,570.88,2746C571.606,2743.633,569.387,2742.921,567.922,2742.489Zm-6.083.7a3.167,3.167,0,0,1-6.042-1.884c.447-1.4,1.507-1.4,3.544-.739S562.285,2741.749,561.839,2743.186Zm8.372,2.6a3.167,3.167,0,0,1-6.042-1.87c.446-1.4,1.507-1.4,3.544-.754S570.657,2744.316,570.21,2745.781Z" transform="translate(-452.874 -2716.791)" fill="#d9a171"/><path d="M567.922,2742.489a5.445,5.445,0,0,0-3.014-.335l-2.679-.837a5.43,5.43,0,0,0-2.679-1.4,6.658,6.658,0,0,0-2.581-.432l-11.274-.377v.7l9.99.321a2.606,2.606,0,0,0-.544.977,3.865,3.865,0,0,0,7.367,2.3,2.421,2.421,0,0,0,.084-1.242l1.535.489a2.5,2.5,0,0,0-.628,1.06A3.865,3.865,0,0,0,570.88,2746C571.606,2743.633,569.387,2742.921,567.922,2742.489Zm-6.083.7a3.167,3.167,0,0,1-6.042-1.884c.447-1.4,1.507-1.4,3.544-.739S562.285,2741.749,561.839,2743.186Zm8.372,2.6a3.167,3.167,0,0,1-6.042-1.87c.446-1.4,1.507-1.4,3.544-.754S570.657,2744.316,570.21,2745.781Z" transform="translate(-452.874 -2716.791)" fill="#fff" opacity="0.4" style="isolation:isolate"/><path d="M542.205,2741.971a7.906,7.906,0,0,0,2.219,5.344c1.828,1.87,3.935.46,4.4-2,.432-2.232,0-5.874-2.33-6.809S542.177,2739.487,542.205,2741.971Z" transform="translate(-454.254 -2717.124)" fill="#ce7a63"/><path d="M545.325,2788.784l28.548,2.791,13.214-5.763,5.832,4.535-2.093,2.609-6.391,1.061-8.832,3.907-29.539.739Z" transform="translate(-453.02 -2698.33)" fill="#ce7a63"/><path d="M533.171,2796.405a75.37,75.37,0,0,1-10-26.943c-.167,13.116,2.3,39.487,25.255,36.278A21.073,21.073,0,0,1,533.171,2796.405Z" transform="translate(-461.782 -2704.793)" opacity="0.1" style="isolation:isolate"/><path d="M526.31,2757.73c5.2-2.692,10,1.967,14.19,21.027s16.744,20.176,16.744,20.176l1.116,11.455s-16.995,3.949-25.45-9.069S517.757,2762.14,526.31,2757.73Z" transform="translate(-462.106 -2709.708)" fill="#d9a171"/><path d="M526.31,2757.73c5.2-2.692,10,1.967,14.19,21.027s16.744,20.176,16.744,20.176l1.116,11.455s-16.995,3.949-25.45-9.069S517.757,2762.14,526.31,2757.73Z" transform="translate(-462.106 -2709.708)" fill="#fff" opacity="0.6" style="isolation:isolate"/><path d="M546.355,2785.812l1.619,14.93,4.911-.642-1.521-13.646Z" transform="translate(-452.613 -2698.33)" fill="#d9a171"/><path d="M546.355,2785.812l1.619,14.93,4.911-.642-1.521-13.646Z" transform="translate(-452.613 -2698.33)" fill="#fff" opacity="0.7" style="isolation:isolate"/></g><g transform="translate(621.674 2747.731)"><rect width="215.992" height="4.8" transform="translate(10.716 87.025)" fill="#344154"/><rect width="111.973" height="4.8" transform="translate(10.716 87.025)" fill="#fff" opacity="0.3" style="isolation:isolate"/><rect width="104.019" height="4.8" transform="translate(122.703 87.025)" fill="#fff" opacity="0.2" style="isolation:isolate"/><rect width="237.452" height="4.8" transform="translate(0 82.239)" fill="#d9a171"/><rect width="125.479" height="4.8" transform="translate(111.973 82.239)" opacity="0.3" style="isolation:isolate"/><path d="M635.886,2951.667l-30.766-9.851V2803.472H593.846v138.344l-30.78,9.851v6.055H566.2l33.278-4,33.278,4h3.125Z" transform="translate(-539.764 -2711.648)" fill="#344154"/><path d="M635.886,2951.667l-30.766-9.851V2803.472H593.846v138.344l-30.78,9.851v6.055H566.2l33.278-4,33.278,4h3.125Z" transform="translate(-539.764 -2711.648)" fill="#fff" opacity="0.1" style="isolation:isolate"/><path d="M601.994,2941.816V2803.472h-8.149v138.344l-30.78,9.851v6.055l34.855-4.186,34.841,4.186v-6.055Z" transform="translate(-539.764 -2711.648)" fill="#344154"/><path d="M601.994,2941.816V2803.472h-8.149v138.344l-30.78,9.851v6.055l34.855-4.186,34.841,4.186v-6.055Z" transform="translate(-539.764 -2711.648)" fill="#fff" opacity="0.3" style="isolation:isolate"/><path d="M720.466,2951.667l-30.78-9.851V2803.472h-11.26v138.344l-30.78,9.851v6.055h3.125l33.278-4,33.292,4h3.126Z" transform="translate(-506.33 -2711.648)" fill="#344154"/><path d="M686.56,2941.816V2803.472h-8.135v138.344l-30.78,9.851v6.055l34.841-4.186,34.854,4.186v-6.055Z" transform="translate(-506.33 -2711.648)" fill="#344154"/><path d="M686.56,2941.816V2803.472h-8.135v138.344l-30.78,9.851v6.055l34.841-4.186,34.854,4.186v-6.055Z" transform="translate(-506.33 -2711.648)" fill="#fff" opacity="0.2" style="isolation:isolate"/><path d="M613.745,2792.652l-29.259,1.4v4.158h48.1v-5.553Z" transform="translate(-531.297 -2715.925)" fill="#d9a171"/><path d="M613.745,2798.205H584.485v-4.158l29.259-1.4Z" transform="translate(-531.297 -2715.925)" fill="#fff" opacity="0.3" style="isolation:isolate"/><rect width="18.837" height="5.553" transform="translate(82.448 76.727)" fill="#fff" opacity="0.6" style="isolation:isolate"/><path d="M569.721,2798.889a1.94,1.94,0,0,1-1.927-1.952,1.964,1.964,0,0,1,.2-.838c1.758-3.544,6.837-5.176,11.288-5.176,4.73,0,7.228,1.841,7.842,5.846a1.925,1.925,0,0,1-1.688,2.136c-.078.008-.158.012-.237.012Z" transform="translate(-537.895 -2716.609)" fill="#d9a171"/><path d="M569.721,2798.889a1.94,1.94,0,0,1-1.927-1.952,1.964,1.964,0,0,1,.2-.838c1.758-3.544,6.837-5.176,11.288-5.176,4.73,0,7.228,1.841,7.842,5.846a1.925,1.925,0,0,1-1.688,2.136c-.078.008-.158.012-.237.012Z" transform="translate(-537.895 -2716.609)" fill="#fff" opacity="0.6" style="isolation:isolate"/><path d="M697.406,2738l-66.3-.335-6.977,66.5,66.374-.349a9.682,9.682,0,0,0,5.079-7.4l5.358-51.026A7.544,7.544,0,0,0,697.406,2738Z" transform="translate(-515.627 -2737.662)" fill="#6595bf"/><path d="M624.743,2803.813l-.628.349,6.977-66.5.558.335a7.573,7.573,0,0,1,3.516,7.395l-5.358,51.026A9.685,9.685,0,0,1,624.743,2803.813Z" transform="translate(-515.631 -2737.662)" fill="#d9a171"/><path d="M624.743,2803.813l-.628.349,6.977-66.5.558.335a7.573,7.573,0,0,1,3.516,7.395l-5.358,51.026A9.685,9.685,0,0,1,624.743,2803.813Z" transform="translate(-515.631 -2737.662)" fill="#aed3f2" opacity="0.3" style="isolation:isolate"/><path d="M645.664,2788.488l-.349.2,13.534-.07-1.242-11.246-6.377-.935-.488,4.66A9.682,9.682,0,0,1,645.664,2788.488Z" transform="translate(-507.251 -2722.336)" opacity="0.1" style="isolation:isolate"/><path d="M667.979,2801.872H655.087l-5.581-25.52H662.4Z" transform="translate(-505.594 -2722.368)" fill="#d9a171"/><path d="M662.415,2792.652l-29.259,1.4v4.158h48.1v-5.553Z" transform="translate(-512.057 -2715.925)" fill="#d9a171"/><path d="M662.415,2798.205H633.155v-4.158l29.259-1.4Z" transform="translate(-512.057 -2715.925)" fill="#fff" opacity="0.3" style="isolation:isolate"/><rect width="18.837" height="5.553" transform="translate(150.357 76.727)" fill="#fff" opacity="0.6" style="isolation:isolate"/></g><line x1="11.945" y1="11.945" transform="translate(711.014 2724.682)" fill="none"/><line x1="13.186" y1="19.784" transform="translate(716.986 2719.317)" fill="none" stroke="#aed3f2" stroke-linecap="round" stroke-miterlimit="10" stroke-width="3"/><line x1="29.42" y1="6.963" transform="translate(688.376 2747.731)" fill="none" stroke="#aed3f2" stroke-linecap="round" stroke-miterlimit="10" stroke-width="3"/><line y1="21.383" transform="translate(759.738 2712.189)" fill="none" stroke="#aed3f2" stroke-linecap="round" stroke-miterlimit="10" stroke-width="3"/><line y1="21.503" x2="9.364" transform="translate(788.473 2715.125)" fill="none" stroke="#aed3f2" stroke-linecap="round" stroke-miterlimit="10" stroke-width="3"/><line y1="15.75" x2="16.959" transform="translate(815.726 2733.572)" fill="none" stroke="#aed3f2" stroke-linecap="round" stroke-miterlimit="10" stroke-width="3"/><line y1="2.851" x2="16.351" transform="translate(822.434 2767.28)" fill="none" stroke="#aed3f2" stroke-linecap="round" stroke-miterlimit="10" stroke-width="3"/></g></svg>