<svg xmlns="http://www.w3.org/2000/svg" width="386.539" height="221.064" viewBox="0 0 386.539 221.064"><g transform="translate(-119.764 -5720.463)"><g transform="translate(119.764 5757.231)"><rect width="33.08" height="9.121" transform="translate(346.883 83.375)" fill="#f5f5f5"/><path d="M132.352,5853.973h.19a5.325,5.325,0,0,0,5.1-3.77l5.493-17.9H121.49l5.787,17.948A5.33,5.33,0,0,0,132.352,5853.973Z" transform="translate(-120.551 -5808.242)" fill="#e0e0e0"/><path d="M124.27,5830.053c.19.065,6.059,19.064,6.059,19.064h2.839v-19.064Z" transform="translate(-121.819 -5807.215)" fill="#fafafa"/><path d="M143.18,5830.053v19.064h3.03l5.493-19.064Z" transform="translate(-130.444 -5807.215)" fill="#fafafa"/><circle cx="3.889" cy="3.889" r="3.889" transform="translate(7.623 0)" fill="#e0e0e0"/><path d="M141.007,5819.96a2.147,2.147,0,0,0,2.274-2.388,5.1,5.1,0,0,0-1.267-2.175,32.3,32.3,0,0,0-4.177-4.14h-3.019l-.033-1.631s1.512-.321,1.773-1.088-4.068-2.263-4.068-2.263.413-1.631-1.126-1.631-1.235,1.631-1.235,1.631c-.468.62-3.873.93-4.03,2.018s2.018,1.393,2.018,1.393v1.571h-3.1s-2.785,2.785-4.493,4.645,0,4.025,0,4.025Z" transform="translate(-119.764 -5795.626)" fill="#e0e0e0"/><path d="M141.256,5804.1a82.281,82.281,0,0,1,0-9.644,82.281,82.281,0,0,1,0,9.644Z" transform="translate(-129.494 -5790.978)" fill="#e0e0e0"/><path d="M784.132,5853.973h.19a5.33,5.33,0,0,0,5.1-3.77l5.493-17.9H773.27l5.788,17.948A5.329,5.329,0,0,0,784.132,5853.973Z" transform="translate(-417.826 -5808.242)" fill="#e0e0e0"/><path d="M776.05,5830.053c.19.065,6.059,19.064,6.059,19.064h2.839v-19.064Z" transform="translate(-419.094 -5807.215)" fill="#fafafa"/><path d="M794.96,5830.053v19.064h3.03l5.493-19.064Z" transform="translate(-427.719 -5807.215)" fill="#fafafa"/><circle cx="3.889" cy="3.889" r="3.889" transform="translate(362.128 0)" fill="#e0e0e0"/><path d="M792.789,5819.987a2.147,2.147,0,0,0,2.273-2.388,5.1,5.1,0,0,0-1.267-2.175,32.319,32.319,0,0,0-4.193-4.107h-3l-.033-1.631s1.512-.321,1.773-1.088-4.068-2.263-4.068-2.263.413-1.632-1.126-1.632-1.235,1.632-1.235,1.632c-.468.62-3.873.93-4.03,2.018s2.012,1.393,2.012,1.393v1.539H776.8s-2.79,2.785-4.493,4.645,0,4.025,0,4.025Z" transform="translate(-417.041 -5795.653)" fill="#e0e0e0"/><path d="M793.036,5804.1a82.272,82.272,0,0,1,0-9.644,82.272,82.272,0,0,1,0,9.644Z" transform="translate(-426.768 -5790.978)" fill="#e0e0e0"/><rect width="25.89" height="9.121" transform="translate(360.649 55.821)" fill="#fafafa"/><rect width="33.08" height="9.121" transform="translate(223.401 175.175)" fill="#f5f5f5"/></g><g transform="translate(136.748 5937.535)"><path d="M497.919,6119.694c0,.076-77.675.136-173.462.136s-173.467-.055-173.467-.136,77.653-.13,173.505-.13S497.919,6119.628,497.919,6119.694Z" transform="translate(-150.99 -6119.563)" fill="#344154"/></g><g transform="translate(238.344 5763.823)"><rect width="211.899" height="146.631" transform="translate(0 0)" fill="#344154"/><rect width="203.104" height="138.168" transform="translate(5.319 4.232)" fill="#aed3f2"/><rect width="64.229" height="4.036" transform="translate(19.015 17.084)" fill="#344154"/><path d="M376.821,5838.908v4.237h1.088s-1.811,1.5-1.969,2.909H382.4s0-1.088-1.974-2.877h1.088v-4.395Z" transform="translate(-355.185 -5817.789)" fill="#344154"/><path d="M401.886,5838.908v4.237h1.088s-1.811,1.5-1.963,2.909h6.462s0-1.088-1.974-2.877h1.088v-4.395Z" transform="translate(-366.619 -5817.789)" fill="#344154"/><path d="M426.946,5838.908v4.237h1.088s-1.806,1.5-1.964,2.909h6.483s0-1.088-1.974-2.877h1.088v-4.395Z" transform="translate(-378.049 -5817.789)" fill="#344154"/><path d="M452,5838.908v4.237h1.088s-1.811,1.5-1.969,2.909h6.456s0-1.088-1.974-2.877h1.088v-4.395Z" transform="translate(-389.474 -5817.789)" fill="#344154"/><path d="M477.061,5838.908v4.237h1.088s-1.811,1.5-1.969,2.909h6.456s0-1.088-1.974-2.877h1.088v-4.395Z" transform="translate(-400.904 -5817.789)" fill="#344154"/><path d="M381.046,5807.713c.071,0,.131,3.323.131,7.419s-.06,7.413-.131,7.413-.136-3.317-.136-7.413S380.954,5807.713,381.046,5807.713Z" transform="translate(-357.452 -5803.617)" fill="#344154"/><path d="M482.131,5807.713c.076,0,.136,3.323.136,7.419s-.06,7.413-.136,7.413-.131-3.317-.131-7.413S482.06,5807.713,482.131,5807.713Z" transform="translate(-403.559 -5803.617)" fill="#344154"/><rect width="64.229" height="4.036" transform="translate(123.673 17.084)" fill="#344154"/><path d="M569.256,5838.908v4.237h1.088s-1.811,1.5-1.964,2.909h6.451s0-1.088-1.974-2.877h1.088v-4.395Z" transform="translate(-442.956 -5817.789)" fill="#344154"/><path d="M594.251,5838.908v4.237h1.088s-1.811,1.5-1.969,2.909h6.456s0-1.088-1.974-2.877h1.088v-4.395Z" transform="translate(-454.354 -5817.789)" fill="#344154"/><path d="M619.351,5838.908v4.237h1.088s-1.811,1.5-1.969,2.909h6.456s0-1.088-1.974-2.877h1.088v-4.395Z" transform="translate(-465.802 -5817.789)" fill="#344154"/><path d="M644.411,5838.908v4.237H645.5s-1.811,1.5-1.969,2.909h6.456s0-1.088-1.974-2.877H649.1v-4.395Z" transform="translate(-477.232 -5817.789)" fill="#344154"/><path d="M669.471,5838.908v4.237h1.088s-1.811,1.5-1.969,2.909h6.472s0-1.088-1.974-2.877h1.088v-4.395Z" transform="translate(-488.662 -5817.789)" fill="#344154"/><path d="M573.456,5807.713c.071,0,.131,3.323.131,7.419s-.06,7.413-.131,7.413-.136-3.317-.136-7.413S573.38,5807.713,573.456,5807.713Z" transform="translate(-445.209 -5803.617)" fill="#344154"/><path d="M674.541,5807.713c.076,0,.136,3.323.136,7.419s-.06,7.413-.136,7.413-.131-3.317-.131-7.413S674.47,5807.713,674.541,5807.713Z" transform="translate(-491.316 -5803.617)" fill="#344154"/><rect width="36.485" height="2.747" transform="translate(157.629 46.857)" fill="#344154"/><rect width="24.329" height="14.849" rx="4.97" transform="translate(88.341 82.168)" fill="#d9a171"/><g transform="translate(88.341 82.168)" opacity="0.3"><rect width="24.329" height="14.849" rx="4.97"/></g><rect width="24.329" height="14.849" rx="4.97" transform="translate(86.426 82.168)" fill="#d9a171"/><path d="M518.976,5965.994a2.256,2.256,0,0,0,.3-.223,2.06,2.06,0,0,0,.544-.881c.354-.875.147-2.251.12-3.921s-.12-3.683-.19-5.9a5.416,5.416,0,0,0-.136-1.631.9.9,0,0,0-.506-.544,2.627,2.627,0,0,0-.838-.114l-3.737-.065c-5.118-.044-9.752.049-13.108-.055a15.974,15.974,0,0,0-2.252.033,4.112,4.112,0,0,0-1.594.5,3.08,3.08,0,0,0-1.039.979.2.2,0,0,1,.038-.092,2.21,2.21,0,0,1,.147-.239,2.691,2.691,0,0,1,.8-.74,4.124,4.124,0,0,1,1.632-.544,14.492,14.492,0,0,1,2.273-.07c3.356.049,7.984-.071,13.108-.033l3.737.076a2.758,2.758,0,0,1,.93.136,1.156,1.156,0,0,1,.653.7A5.644,5.644,0,0,1,520,5955.1c.054,2.208.1,4.2.136,5.885,0,.837.027,1.594.038,2.268a4.337,4.337,0,0,1-.25,1.7,2.027,2.027,0,0,1-.631.887A1.081,1.081,0,0,1,518.976,5965.994Z" transform="translate(-410.19 -5869.631)" fill="#344154"/><rect width="6.38" height="1.137" transform="translate(95.624 88.803)" fill="#344154"/><path d="M501.683,5959.729a.163.163,0,1,0-.163-.163A.163.163,0,0,0,501.683,5959.729Z" transform="translate(-412.462 -5872.803)" fill="#fafafa"/><path d="M506.4,5959.473l.033-.033c.125-.119-.065-.315-.185-.19l-.033.033a.133.133,0,0,0,.185.19Z" transform="translate(-414.585 -5872.714)" fill="#fafafa"/><path d="M504.4,5963.226a.141.141,0,1,0-.14-.14A.141.141,0,0,0,504.4,5963.226Z" transform="translate(-413.712 -5874.417)" fill="#fafafa"/><path d="M510.236,5962.855a.136.136,0,1,0-.136-.136A.136.136,0,0,0,510.236,5962.855Z" transform="translate(-416.375 -5874.253)" fill="#fafafa"/><path d="M502.41,5970.28a.169.169,0,1,0-.168-.168A.168.168,0,0,0,502.41,5970.28Z" transform="translate(-412.791 -5877.61)" fill="#fafafa"/><path d="M499.246,5964.265a.136.136,0,1,0-.136-.136A.136.136,0,0,0,499.246,5964.265Z" transform="translate(-411.362 -5874.896)" fill="#fafafa"/><path d="M498.54,5961.561a.108.108,0,0,0,.108-.109.108.108,0,1,0-.108.109Z" transform="translate(-411.053 -5873.688)" fill="#fafafa"/><path d="M499.775,5956.836a.114.114,0,1,0-.086-.087A.116.116,0,0,0,499.775,5956.836Z" transform="translate(-411.625 -5871.53)" fill="#fafafa"/><path d="M503.662,5955.306a.141.141,0,1,0-.14-.14A.142.142,0,0,0,503.662,5955.306Z" transform="translate(-413.375 -5870.805)" fill="#fafafa"/><path d="M504.063,5957.759a.131.131,0,1,0-.1-.1A.131.131,0,0,0,504.063,5957.759Z" transform="translate(-413.574 -5871.936)" fill="#fafafa"/><path d="M510.541,5955.364a.131.131,0,1,0-.131-.131A.131.131,0,0,0,510.541,5955.364Z" transform="translate(-416.516 -5870.842)" fill="#fafafa"/><path d="M508.272,5961.323a.158.158,0,1,0-.126-.126A.157.157,0,0,0,508.272,5961.323Z" transform="translate(-415.483 -5873.537)" fill="#fafafa"/><path d="M511.489,5959.289a.1.1,0,1,0-.1-.1A.1.1,0,0,0,511.489,5959.289Z" transform="translate(-416.964 -5872.661)" fill="#fafafa"/><path d="M507.105,5955.972a.087.087,0,0,0,.063-.105.069.069,0,1,0-.126.043A.087.087,0,0,0,507.105,5955.972Z" transform="translate(-414.979 -5871.161)" fill="#fafafa"/><path d="M507.116,5965.593a.125.125,0,1,0-.124-.124A.124.124,0,0,0,507.116,5965.593Z" transform="translate(-414.957 -5875.512)" fill="#fafafa"/><path d="M501.911,5966.347a.12.12,0,1,0-.091-.091A.119.119,0,0,0,501.911,5966.347Z" transform="translate(-412.597 -5875.863)" fill="#fafafa"/><path d="M498.181,5969.477a.119.119,0,0,0,.092-.142.1.1,0,1,0-.092.142Z" transform="translate(-410.896 -5877.291)" fill="#fafafa"/><path d="M501.622,5961.926a.082.082,0,1,0,0-.163h0a.082.082,0,0,0,0,.163Z" transform="translate(-412.472 -5873.879)" fill="#fafafa"/><path d="M497.445,5957.7h.071a.114.114,0,0,0,.087-.136.115.115,0,0,0-.087-.087h-.071a.114.114,0,0,0,0,.223Z" transform="translate(-410.562 -5871.923)" fill="#fafafa"/><path d="M499.941,5954.063a.044.044,0,0,0,.026-.057.05.05,0,0,0-.026-.025.044.044,0,0,0-.055.025.043.043,0,0,0,.026.057A.04.04,0,0,0,499.941,5954.063Z" transform="translate(-411.715 -5870.329)" fill="#fafafa"/><path d="M508.389,5964.441a.082.082,0,1,0-.058-.058A.081.081,0,0,0,508.389,5964.441Z" transform="translate(-415.567 -5875.029)" fill="#fafafa"/><path d="M505.77,5968.742a.12.12,0,1,0-.12-.119A.119.119,0,0,0,505.77,5968.742Z" transform="translate(-414.345 -5876.953)" fill="#fafafa"/><path d="M506.337,5973.528a.125.125,0,0,0,.1-.148.1.1,0,1,0-.193.052A.124.124,0,0,0,506.337,5973.528Z" transform="translate(-414.613 -5879.133)" fill="#fafafa"/><path d="M501.174,5976.412a.114.114,0,1,0-.114-.114A.114.114,0,0,0,501.174,5976.412Z" transform="translate(-412.252 -5880.456)" fill="#fafafa"/><path d="M498.879,5972.721a.082.082,0,1,0-.058-.058A.081.081,0,0,0,498.879,5972.721Z" transform="translate(-411.23 -5878.805)" fill="#fafafa"/><path d="M502.227,5972.959a.256.256,0,1,0-.215-.216A.256.256,0,0,0,502.227,5972.959Z" transform="translate(-412.685 -5878.755)" fill="#fafafa"/><path d="M505.423,5976.85a.163.163,0,1,0-.163-.163.163.163,0,0,0,.163.163Z" transform="translate(-414.167 -5880.611)" fill="#fafafa"/><path d="M498.151,5975.8h.038c.147-.114-.087-.348-.2-.2v.038a.136.136,0,0,0,.19.19Z" transform="translate(-410.838 -5880.17)" fill="#fafafa"/><path d="M498.377,5966.222h.038a.152.152,0,0,0,0-.3h-.038a.147.147,0,0,0,0,.294Z" transform="translate(-410.961 -5875.776)" fill="#fafafa"/><path d="M509.309,5968.818a.218.218,0,1,0-.216-.217A.218.218,0,0,0,509.309,5968.818Z" transform="translate(-415.916 -5876.898)" fill="#fafafa"/><path d="M511.363,5966.169a.131.131,0,1,0-.1-.1A.131.131,0,0,0,511.363,5966.169Z" transform="translate(-416.904 -5875.772)" fill="#fafafa"/><path d="M513.87,5970.577h.038a.12.12,0,0,0,.163-.164v-.038c-.109-.2-.375.076-.18.18Z" transform="translate(-418.072 -5877.776)" fill="#fafafa"/><path d="M508.429,5971.438a.1.1,0,0,0,.1-.1.1.1,0,1,0-.194,0A.1.1,0,0,0,508.429,5971.438Z" transform="translate(-415.569 -5878.203)" fill="#fafafa"/><path d="M511.639,5974.109a.288.288,0,1,0-.287-.287A.287.287,0,0,0,511.639,5974.109Z" transform="translate(-416.946 -5879.248)" fill="#fafafa"/><path d="M509.244,5976.725a.169.169,0,1,0-.135-.135A.168.168,0,0,0,509.244,5976.725Z" transform="translate(-415.921 -5880.552)" fill="#fafafa"/><path d="M508.937,5973.227a.147.147,0,1,0-.147-.147A.147.147,0,0,0,508.937,5973.227Z" transform="translate(-415.777 -5878.974)" fill="#fafafa"/><path d="M518.085,5974.441a.087.087,0,1,0-.063-.062A.086.086,0,0,0,518.085,5974.441Z" transform="translate(-419.987 -5879.585)" fill="#fafafa"/><path d="M513.76,5976.851a.169.169,0,1,0-.168-.168A.168.168,0,0,0,513.76,5976.851Z" transform="translate(-417.968 -5880.607)" fill="#fafafa"/><path d="M516.3,5972.112a.092.092,0,1,0-.067-.067A.092.092,0,0,0,516.3,5972.112Z" transform="translate(-419.171 -5878.518)" fill="#fafafa"/><path d="M517.911,5966.594h0a.289.289,0,0,0-.348.212.292.292,0,0,0,.027.207h0a.3.3,0,0,0,.4.1.288.288,0,0,0,.082-.072.3.3,0,0,0-.152-.462Z" transform="translate(-419.775 -5876.078)" fill="#fafafa"/><path d="M514.769,5959.791h0c.354-.174-.114-.712-.337-.337h0a.245.245,0,0,0,.332.337Z" transform="translate(-418.335 -5872.767)" fill="#fafafa"/><path d="M523.317,5954.758v-.033c.033-.3-.5-.3-.468,0v.033a.228.228,0,0,0,.457,0Z" transform="translate(-422.189 -5870.567)" fill="#fafafa"/><path d="M528.591,5960.342v-.033a.229.229,0,0,0-.31-.082h-.038a.267.267,0,0,0,.065.484.272.272,0,0,0,.3-.392Z" transform="translate(-424.591 -5873.166)" fill="#fafafa"/><path d="M533.524,5956.632v.027a.245.245,0,0,0,.338.076.241.241,0,0,0,.076-.076v-.027c.2-.479-.642-.479-.435,0Z" transform="translate(-427.034 -5871.375)" fill="#fafafa"/><path d="M537.086,5963.583a.245.245,0,1,0-.244-.244A.245.245,0,0,0,537.086,5963.583Z" transform="translate(-428.572 -5874.486)" fill="#fafafa"/><path d="M532.2,5968.847a.283.283,0,1,0-.194-.194A.283.283,0,0,0,532.2,5968.847Z" transform="translate(-426.36 -5876.862)" fill="#fafafa"/><path d="M525.756,5973.959l.054-.076c.158-.212-.169-.4-.343-.261l-.071.06c-.239.19.147.544.359.277Z" transform="translate(-423.317 -5879.266)" fill="#fafafa"/><path d="M526.032,5969.338h.033a.136.136,0,0,0,.054-.267.128.128,0,0,0-.054,0h-.033a.13.13,0,0,0-.088.162.132.132,0,0,0,.088.088Z" transform="translate(-423.599 -5877.211)" fill="#fafafa"/><path d="M534.961,5973.834a.13.13,0,1,0-.131-.13A.13.13,0,0,0,534.961,5973.834Z" transform="translate(-427.654 -5879.266)" fill="#fafafa"/><path d="M521.685,5959.536a.114.114,0,0,0,.087-.136.092.092,0,1,0-.173.049A.114.114,0,0,0,521.685,5959.536Z" transform="translate(-421.618 -5872.762)" fill="#fafafa"/><path d="M517.189,5957.27a.136.136,0,1,0-.106-.106A.136.136,0,0,0,517.189,5957.27Z" transform="translate(-419.558 -5871.708)" fill="#fafafa"/><path d="M508.989,5957.972a.3.3,0,1,0-.3-.3.3.3,0,0,0,.3.3Z" transform="translate(-415.732 -5871.877)" fill="#fafafa"/><path d="M503.5,5966.821h.065a.283.283,0,0,0,0-.544H503.5c-.479-.158-.479.729,0,.576Z" transform="translate(-413.2 -5875.93)" fill="#fafafa"/><path d="M519.793,5971.254a.1.1,0,0,0,.077-.124.083.083,0,1,0-.077.124Z" transform="translate(-420.76 -5878.117)" fill="#fafafa"/><path d="M514.43,5967.82a.109.109,0,1,0-.108-.108A.108.108,0,0,0,514.43,5967.82Z" transform="translate(-418.301 -5876.543)" fill="#fafafa"/><path d="M523.512,5967.161h.033a.158.158,0,0,0,0-.3h-.033c-.267-.1-.267.424,0,.321Z" transform="translate(-422.401 -5876.199)" fill="#fafafa"/><path d="M520.736,5968.8a.125.125,0,1,0-.124-.124A.125.125,0,0,0,520.736,5968.8Z" transform="translate(-421.169 -5876.976)" fill="#fafafa"/><path d="M523.258,5970.2a.038.038,0,0,0,.038-.038.038.038,0,0,0-.038-.038h0a.039.039,0,0,0-.038.038A.038.038,0,0,0,523.258,5970.2Z" transform="translate(-422.359 -5877.692)" fill="#fafafa"/><path d="M521.781,5975.191a.147.147,0,1,0-.116-.116A.147.147,0,0,0,521.781,5975.191Z" transform="translate(-421.648 -5879.872)" fill="#fafafa"/><path d="M518.146,5977.705a.136.136,0,1,0-.136-.136A.136.136,0,0,0,518.146,5977.705Z" transform="translate(-419.983 -5881.026)" fill="#fafafa"/><path d="M514.7,5975.313" transform="translate(-418.473 -5880.059)" fill="#fafafa"/><path d="M514.286,5975.113a.06.06,0,1,0,0-.12C514.215,5974.993,514.215,5975.113,514.286,5975.113Z" transform="translate(-418.26 -5879.914)" fill="#fafafa"/><path d="M511.507,5969.414h.033a.1.1,0,0,0,0-.19h-.033a.1.1,0,0,0,0,.19Z" transform="translate(-416.983 -5877.282)" fill="#fafafa"/><path d="M517.8,5961.439a.136.136,0,1,0-.106-.106A.136.136,0,0,0,517.8,5961.439Z" transform="translate(-419.837 -5873.61)" fill="#fafafa"/><path d="M514.147,5962.233a.1.1,0,1,0-.072-.072A.1.1,0,0,0,514.147,5962.233Z" transform="translate(-418.187 -5874.007)" fill="#fafafa"/><path d="M518.466,5959.354a.125.125,0,1,0-.124-.124A.125.125,0,0,0,518.466,5959.354Z" transform="translate(-420.134 -5872.667)" fill="#fafafa"/><path d="M514.009,5956a.239.239,0,1,0,0-.479h0a.239.239,0,1,0,0,.479Z" transform="translate(-418.049 -5871.033)" fill="#fafafa"/><path d="M518.233,5954.32a.1.1,0,0,0,0-.207h0a.1.1,0,0,0,0,.207Z" transform="translate(-420.037 -5870.39)" fill="#fafafa"/><path d="M499.369,5959.2a.239.239,0,0,0-.435.185C499.026,5959.716,499.549,5959.5,499.369,5959.2Z" transform="translate(-411.279 -5872.658)" fill="#fafafa"/><path d="M521.927,5956.953a.1.1,0,1,0-.072-.072A.1.1,0,0,0,521.927,5956.953Z" transform="translate(-421.735 -5871.599)" fill="#fafafa"/><path d="M529.235,5954.876a.114.114,0,0,0,.087-.136.092.092,0,1,0-.087.136Z" transform="translate(-425.062 -5870.636)" fill="#fafafa"/><path d="M528.35,5959.722a.12.12,0,1,0-.12-.12A.119.119,0,0,0,528.35,5959.722Z" transform="translate(-424.644 -5872.839)" fill="#fafafa"/><path d="M523.813,5957.993a.048.048,0,0,0,.063-.03.049.049,0,0,0-.03-.062.053.053,0,0,0-.033,0,.05.05,0,0,0-.03.063A.048.048,0,0,0,523.813,5957.993Z" transform="translate(-422.614 -5872.117)" fill="#fafafa"/><path d="M526.347,5956.037a.087.087,0,1,0-.087-.087A.087.087,0,0,0,526.347,5956.037Z" transform="translate(-423.745 -5871.188)" fill="#fafafa"/><path d="M525.978,5960.512h0a.109.109,0,0,0,0-.147h0a.131.131,0,0,0-.218.093.125.125,0,0,0,.122.127.122.122,0,0,0,.1-.041Z" transform="translate(-423.517 -5873.227)" fill="#fafafa"/><path d="M521.793,5961.68a.1.1,0,1,0-.1-.1A.1.1,0,0,0,521.793,5961.68Z" transform="translate(-421.661 -5873.747)" fill="#fafafa"/><path d="M528.218,5964.247a.283.283,0,1,0-.194-.194A.283.283,0,0,0,528.218,5964.247Z" transform="translate(-424.545 -5874.764)" fill="#fafafa"/><path d="M527.839,5968.752a.179.179,0,1,0-.18-.179A.179.179,0,0,0,527.839,5968.752Z" transform="translate(-424.384 -5876.903)" fill="#fafafa"/><path d="M527.815,5966.9a.114.114,0,1,0-.086-.086A.114.114,0,0,0,527.815,5966.9Z" transform="translate(-424.414 -5876.119)" fill="#fafafa"/><path d="M531.087,5966.356a.147.147,0,1,0-.147-.146A.146.146,0,0,0,531.087,5966.356Z" transform="translate(-425.88 -5875.84)" fill="#fafafa"/><path d="M534.149,5963.839a.158.158,0,1,0-.157-.157A.158.158,0,0,0,534.149,5963.839Z" transform="translate(-427.272 -5874.682)" fill="#fafafa"/><path d="M531.711,5961.584a.13.13,0,1,0,0-.261h0a.13.13,0,1,0,0,.261Z" transform="translate(-426.172 -5873.679)" fill="#fafafa"/><path d="M536.936,5960.644a.125.125,0,1,0-.124-.124A.125.125,0,0,0,536.936,5960.644Z" transform="translate(-428.558 -5873.255)" fill="#fafafa"/><path d="M531.23,5956.652a.12.12,0,1,0-.12-.12.12.12,0,0,0,.12.12Z" transform="translate(-425.957 -5871.439)" fill="#fafafa"/><path d="M530.1,5958.069h0a.1.1,0,0,0,0-.19h0a.109.109,0,0,0-.067.207.106.106,0,0,0,.067,0Z" transform="translate(-425.432 -5872.105)" fill="#fafafa"/><path d="M534.544,5959.352a.114.114,0,0,0,0-.229h0a.114.114,0,0,0,0,.229Z" transform="translate(-427.472 -5872.675)" fill="#fafafa"/><path d="M536.719,5954.71a.229.229,0,1,0-.227-.228A.228.228,0,0,0,536.719,5954.71Z" transform="translate(-428.412 -5870.454)" fill="#fafafa"/><path d="M537.387,5968.068a.125.125,0,1,0-.1-.1A.125.125,0,0,0,537.387,5968.068Z" transform="translate(-428.775 -5876.643)" fill="#fafafa"/><path d="M535.011,5966.465a.071.071,0,0,0,.071-.071.071.071,0,0,0-.141,0A.071.071,0,0,0,535.011,5966.465Z" transform="translate(-427.704 -5875.959)" fill="#fafafa"/><path d="M537.144,5971.3a.032.032,0,0,0,.017-.043.03.03,0,0,0-.017-.017.033.033,0,0,0-.017.043A.035.035,0,0,0,537.144,5971.3Z" transform="translate(-428.701 -5878.203)" fill="#fafafa"/><path d="M533.639,5970.7a.1.1,0,0,0,.1-.1.1.1,0,1,0-.1.1Z" transform="translate(-427.067 -5877.865)" fill="#fafafa"/><path d="M529.543,5974.074a.1.1,0,1,0-.077-.077A.1.1,0,0,0,529.543,5974.074Z" transform="translate(-425.207 -5879.402)" fill="#fafafa"/><path d="M531.327,5977.337a.147.147,0,0,0,0-.294h0a.147.147,0,0,0,0,.294Z" transform="translate(-425.989 -5880.848)" fill="#fafafa"/><path d="M524.063,5977.519a.13.13,0,0,0,.1-.153.107.107,0,1,0-.2.052A.13.13,0,0,0,524.063,5977.519Z" transform="translate(-422.696 -5880.949)" fill="#fafafa"/><path d="M526.393,5976.409a.13.13,0,1,0-.1-.1A.13.13,0,0,0,526.393,5976.409Z" transform="translate(-423.759 -5880.443)" fill="#fafafa"/><path d="M520.019,5972.969a.1.1,0,1,0-.1-.1A.1.1,0,0,0,520.019,5972.969Z" transform="translate(-420.855 -5878.901)" fill="#fafafa"/><path d="M530.73,5970.173v.033a.065.065,0,1,0,.13,0h0v-.033a.06.06,0,1,0-.12,0Z" transform="translate(-425.784 -5877.688)" fill="#fafafa"/><path d="M528.6,5971.745a.106.106,0,1,0,0-.212h0a.106.106,0,1,0,0,.212Z" transform="translate(-424.765 -5878.335)" fill="#fafafa"/><path d="M522.777,5972.348a.027.027,0,0,0,.027-.027.027.027,0,0,0-.027-.027.028.028,0,0,0-.027.027.027.027,0,0,0,.027.027Z" transform="translate(-422.145 -5878.682)" fill="#fafafa"/><path d="M534.3,5976.781a.147.147,0,1,0-.116-.116A.147.147,0,0,0,534.3,5976.781Z" transform="translate(-427.359 -5880.598)" fill="#fafafa"/><path d="M505.344,5975.492a.114.114,0,1,0-.114-.114A.114.114,0,0,0,505.344,5975.492Z" transform="translate(-414.154 -5880.037)" fill="#fafafa"/><path d="M503.107,5975.855a.076.076,0,1,0-.076-.076A.076.076,0,0,0,503.107,5975.855Z" transform="translate(-413.151 -5880.237)" fill="#fafafa"/><path d="M499.121,5973.893a.093.093,0,1,0-.067-.067A.094.094,0,0,0,499.121,5973.893Z" transform="translate(-411.336 -5879.33)" fill="#fafafa"/><path d="M499.95,5970.091a.108.108,0,0,0,.108-.109.108.108,0,1,0-.108.109Z" transform="translate(-411.696 -5877.578)" fill="#fafafa"/><path d="M505.727,5971.808a.124.124,0,0,0,.1-.147.1.1,0,1,0-.193.051A.124.124,0,0,0,505.727,5971.808Z" transform="translate(-414.335 -5878.349)" fill="#fafafa"/><path d="M527.43,5974.307l2-5.053h10.389l1.969,5.053Z" transform="translate(-424.279 -5877.295)" fill="#f5f5f5"/><path d="M548.905,5969.253l-1.545,5.053h3.514Z" transform="translate(-433.369 -5877.295)" fill="#e0e0e0"/><path d="M532.809,5974.715a1.336,1.336,0,0,0,.647.049.719.719,0,0,0,.473-.43.447.447,0,0,0,0-.337.288.288,0,0,0-.288-.136,1.45,1.45,0,0,0-.294.038l-.082-.25a.738.738,0,0,0,.43-.544.6.6,0,0,0,0-.294.223.223,0,0,0-.136-.157.591.591,0,0,0-.381,0c-.092.027-.152.043-.163.027s.033-.055.125-.114a.6.6,0,0,1,.468-.1.39.39,0,0,1,.283.261.768.768,0,0,1,.033.4.972.972,0,0,1-.544.719l-.082-.25a1.375,1.375,0,0,1,.354-.049.544.544,0,0,1,.544.289.668.668,0,0,1,0,.544.9.9,0,0,1-.658.544.813.813,0,0,1-.544-.092C532.841,5974.819,532.8,5974.727,532.809,5974.715Z" transform="translate(-426.732 -5878.755)" fill="#344154"/><path d="M536.039,5976.465c-.065-.039-.065-.158,0-.267s.169-.163.228-.125.065.158,0,.261S536.1,5976.514,536.039,5976.465Z" transform="translate(-428.183 -5880.4)" fill="#344154"/><path d="M538.715,5972.662c0,.076-.266.168-.609.206s-.631,0-.636-.054.261-.168.6-.207S538.7,5972.591,538.715,5972.662Z" transform="translate(-428.858 -5878.817)" fill="#344154"/><path d="M537.62,5974.791c0-.038.212.065.506,0a.623.623,0,0,0,.392-.288.543.543,0,0,0,0-.544.462.462,0,0,0-.626-.19.472.472,0,0,0-.125.1l-.207.267v-.332c.027-.44.065-.718.109-.718s.082.283.1.718l-.185-.065a.675.675,0,0,1,.544-.272.686.686,0,0,1,.609.364.75.75,0,0,1-.038.811.78.78,0,0,1-.544.337C537.794,5975,537.6,5974.813,537.62,5974.791Z" transform="translate(-428.899 -5879.042)" fill="#344154"/><path d="M541.138,5972.725a.446.446,0,0,1,.19-.131.552.552,0,0,1,.283-.043.413.413,0,0,1,.315.255,1.545,1.545,0,0,1,0,.941,1.781,1.781,0,0,1-.653.962.545.545,0,0,1-.359.087.452.452,0,0,1-.31-.212.957.957,0,0,1-.12-.582,2,2,0,0,1,.2-.9c.272-.5.685-.544.674-.5a1.437,1.437,0,0,0-.506.577,1.974,1.974,0,0,0-.12.827.8.8,0,0,0,.082.43.212.212,0,0,0,.293.065.22.22,0,0,0,.028-.021,1.772,1.772,0,0,0,.625-1.632.311.311,0,0,0-.4-.18C541.225,5972.719,541.143,5972.746,541.138,5972.725Z" transform="translate(-430.23 -5878.798)" fill="#344154"/><path d="M544.55,5974.164c0-.049.3.082.734.087a.657.657,0,0,0,.544-.337c.1-.218-.076-.5-.348-.68a3.99,3.99,0,0,1-.451-.283.664.664,0,0,1-.272-.511.577.577,0,0,1,.283-.452,1.531,1.531,0,0,1,.37-.174.963.963,0,0,1,.778,0,5.52,5.52,0,0,0-.712.179c-.185.087-.479.25-.473.452a.451.451,0,0,0,.19.31c.114.093.272.158.435.267a1.188,1.188,0,0,1,.4.419.645.645,0,0,1,0,.582.814.814,0,0,1-.794.419A1.2,1.2,0,0,1,544.55,5974.164Z" transform="translate(-432.087 -5878.426)" fill="#344154"/><path d="M545.26,5974.975a13.685,13.685,0,0,1,.9-3.671A13.646,13.646,0,0,1,545.26,5974.975Z" transform="translate(-432.411 -5878.231)" fill="#344154"/><rect width="41.092" height="45.682" transform="translate(80.4 97.011)" fill="#344154"/><rect width="32.895" height="45.682" transform="translate(80.4 97.011)" fill="#455a64"/><rect width="60.123" height="22.844" transform="translate(142.862 119.855)" fill="#344154"/><rect width="60.123" height="22.844" transform="translate(136.286 119.855)" fill="#455a64"/><rect width="1.708" height="4.03" transform="translate(155.317 115.835)" fill="#344154"/><path d="M618.195,5994.8l-.044.881a2.626,2.626,0,0,1-1.942,2.534l-2.176.588s-.446,8.441,5.722,8.643,6.3-8.6,6.3-8.6-.99-.212-1.969-.479a2.469,2.469,0,0,1-1.817-2.475l.038-1.088Z" transform="translate(-463.776 -5888.949)" fill="#344154"/><rect width="1.055" height="2.366" transform="translate(155.964 104.468)" fill="#344154"/><circle cx="1.104" cy="1.104" r="1.104" transform="translate(155.399 102.771)" fill="#344154"/><path d="M625.395,5999.353a2.041,2.041,0,0,1-.375,1.033,3.449,3.449,0,0,1-.8.9,2.647,2.647,0,0,1-1.376.588,2.175,2.175,0,0,1-1.43-.446,3.43,3.43,0,0,1-.827-.881,3.375,3.375,0,0,1-.511-.969,6.63,6.63,0,0,1,.664.859,3.908,3.908,0,0,0,.816.789,2,2,0,0,0,1.267.381,2.509,2.509,0,0,0,1.251-.517,3.694,3.694,0,0,0,.794-.811C625.243,5999.75,625.346,5999.342,625.395,5999.353Z" transform="translate(-466.532 -5891.024)" fill="#f5f5f5"/><path d="M624.543,6003.8a.686.686,0,1,0,.218.033" transform="translate(-468.263 -5893.054)" fill="#d9a171"/><path d="M624.821,6006.313a.413.413,0,1,0,.136,0" transform="translate(-468.541 -5894.198)" fill="#d9a171"/><rect width="1.708" height="4.03" transform="translate(173.347 115.835)" fill="#344154"/><path d="M651.35,5994.8l-.049.881a2.626,2.626,0,0,1-1.942,2.534l-2.176.588s-.446,8.441,5.716,8.643,6.3-8.6,6.3-8.6-.99-.212-1.969-.479a2.475,2.475,0,0,1-1.817-2.475l.038-1.088Z" transform="translate(-478.895 -5888.949)" fill="#344154"/><rect width="1.055" height="2.366" transform="translate(174 104.468)" fill="#344154"/><circle cx="1.104" cy="1.104" r="1.104" transform="translate(173.429 102.771)" fill="#344154"/><path d="M658.529,5999.353a1.978,1.978,0,0,1-.375,1.033,3.355,3.355,0,0,1-.8.9,2.628,2.628,0,0,1-1.371.588,2.147,2.147,0,0,1-1.43-.446,3.345,3.345,0,0,1-.827-.881,3.205,3.205,0,0,1-.511-.969,6.636,6.636,0,0,1,.664.859,3.657,3.657,0,0,0,.848.789,1.982,1.982,0,0,0,1.267.381,2.505,2.505,0,0,0,1.245-.517,3.694,3.694,0,0,0,.794-.811A10.1,10.1,0,0,0,658.529,5999.353Z" transform="translate(-481.647 -5891.024)" fill="#f5f5f5"/><path d="M658.861,5998.11c.027,0-.13.255-.495.543a3.135,3.135,0,0,1-1.632.593,3.206,3.206,0,0,1-1.713-.392c-.392-.223-.577-.441-.544-.468a4.753,4.753,0,0,1,.642.3,3.669,3.669,0,0,0,1.632.293,3.575,3.575,0,0,0,1.566-.484C658.632,5998.262,658.834,5998.077,658.861,5998.11Z" transform="translate(-482.223 -5890.455)" fill="#f5f5f5"/><path d="M658.8,5996.974a6.833,6.833,0,0,1-4.123.093c0-.076.93.038,2.061,0A18.382,18.382,0,0,1,658.8,5996.974Z" transform="translate(-482.317 -5889.928)" fill="#f5f5f5"/><path d="M658.516,6001.083a1.357,1.357,0,0,1-.06.446,4.768,4.768,0,0,1-.441,1.148,5.349,5.349,0,0,1-1.12,1.436,3.391,3.391,0,0,1-2.034.958,2.886,2.886,0,0,1-2.061-.875,5.605,5.605,0,0,1-1.131-1.425,5.087,5.087,0,0,1-.468-1.137,1.235,1.235,0,0,1-.071-.44,12.9,12.9,0,0,0,.7,1.479,5.617,5.617,0,0,0,1.131,1.338,2.684,2.684,0,0,0,1.887.794,3.265,3.265,0,0,0,1.882-.875,5.425,5.425,0,0,0,1.12-1.365A10.967,10.967,0,0,0,658.516,6001.083Z" transform="translate(-480.698 -5891.813)" fill="#f5f5f5"/><path d="M658,6006.355a3.143,3.143,0,0,1-.158-1.246.634.634,0,1,1,.266-.006A2.919,2.919,0,0,1,658,6006.355Z" transform="translate(-483.747 -5893.076)" fill="#f5f5f5"/><path d="M652.682,6003.755c-.06-.049.179-.424.544-.843s.68-.712.734-.664-.179.424-.544.837S652.737,6003.8,652.682,6003.755Z" transform="translate(-481.402 -5892.342)" fill="#f5f5f5"/><path d="M662.2,6003.877c-.06.044-.358-.261-.663-.68s-.506-.794-.446-.838.354.261.663.68S662.261,6003.834,662.2,6003.877Z" transform="translate(-485.237 -5892.394)" fill="#f5f5f5"/><path d="M656.293,6001.659c-.076,0,0-.435.06-.941s.125-.925.2-.925.141.43.065.963S656.358,6001.681,656.293,6001.659Z" transform="translate(-483.039 -5891.225)" fill="#f5f5f5"/><path d="M659.934,6001.4c-.06.043-.37-.294-.544-.821s-.071-.974,0-.968.12.414.261.9S659.994,6001.348,659.934,6001.4Z" transform="translate(-484.422 -5891.143)" fill="#f5f5f5"/><path d="M658.339,5998.7c-.071,0-.212-.3-.245-.724s.06-.762.131-.75.1.332.136.729S658.41,5998.681,658.339,5998.7Z" transform="translate(-483.872 -5890.052)" fill="#f5f5f5"/><path d="M661.059,5998.274c-.065.044-.223-.1-.332-.326s-.109-.435-.038-.457.185.136.283.348S661.119,5998.236,661.059,5998.274Z" transform="translate(-485.036 -5890.174)" fill="#f5f5f5"/><path d="M655.156,5998.287c-.065-.032,0-.233,0-.473a2.4,2.4,0,0,1,.082-.381l.115.044h-.093c-.016,0,0-.049,0-.093l.038-.082.076.125a.754.754,0,0,1,.044.44C655.384,5998.146,655.215,5998.326,655.156,5998.287Z" transform="translate(-482.521 -5890.089)" fill="#f5f5f5"/><path d="M657.832,6008.3a.788.788,0,0,0-.392.179.48.48,0,0,0-.049.626.473.473,0,1,0,.218-.734" transform="translate(-483.511 -5895.106)" fill="#455a64"/><path d="M663.294,6004.363a.877.877,0,0,0-.4.179.473.473,0,0,0,.577.74.484.484,0,0,0,.18-.6.489.489,0,0,0-.582-.245" transform="translate(-486.004 -5893.31)" fill="#455a64"/><path d="M652.009,6004.423a.832.832,0,0,0-.4.174.48.48,0,1,0,.174-.1" transform="translate(-480.848 -5893.336)" fill="#455a64"/><path d="M654.6,6007.143a.432.432,0,0,0-.2.087.245.245,0,0,0,.31.37.234.234,0,0,0-.2-.419" transform="translate(-482.164 -5894.577)" fill="#455a64"/><path d="M660.984,6006.983a.384.384,0,0,0-.2.092.241.241,0,0,0,0,.311.234.234,0,0,0,.4-.245.239.239,0,0,0-.288-.12" transform="translate(-485.075 -5894.504)" fill="#455a64"/><path d="M684.988,6012.676l2.089-9.453H677.52l-2.779,9.453Z" transform="translate(-491.467 -5892.79)" fill="#ebebeb"/><path d="M695.669,6003.224l2.959,9.453h-5.047Z" transform="translate(-500.06 -5892.79)" fill="#e0e0e0"/><path d="M681.39,6006.169a42.642,42.642,0,0,1,6.793,0A44.313,44.313,0,0,1,681.39,6006.169Z" transform="translate(-494.5 -5894.071)" fill="#344154"/><path d="M684.99,6009.833a20.357,20.357,0,0,1,4.607,0A19.542,19.542,0,0,1,684.99,6009.833Z" transform="translate(-496.142 -5895.744)" fill="#344154"/><path d="M680.5,6009.329c0-.076.185-.136.408-.136s.413.06.413.136-.185.13-.413.13S680.5,6009.4,680.5,6009.329Z" transform="translate(-494.094 -5895.512)" fill="#344154"/><path d="M683.84,6012.784a20.414,20.414,0,0,1,4.607,0A19.49,19.49,0,0,1,683.84,6012.784Z" transform="translate(-495.617 -5897.09)" fill="#344154"/><path d="M679.33,6012.284c0-.071.185-.131.408-.131s.413.06.413.131-.185.136-.413.136S679.33,6012.36,679.33,6012.284Z" transform="translate(-493.56 -5896.862)" fill="#344154"/><path d="M682.67,6015.694a20.357,20.357,0,0,1,4.607,0A19.542,19.542,0,0,1,682.67,6015.694Z" transform="translate(-495.084 -5898.417)" fill="#344154"/><path d="M678.16,6015.233c0-.07.185-.13.408-.13s.413.06.413.13-.185.136-.413.136S678.16,6015.31,678.16,6015.233Z" transform="translate(-493.027 -5898.208)" fill="#344154"/><rect width="41.957" height="7.881" transform="translate(146.821 125.832)" fill="#f5f5f5"/><rect width="36.485" height="2.747" transform="translate(158.227 94.579)" fill="#344154"/><rect width="24.329" height="14.849" transform="translate(164.52 79.938)" fill="#d9a171"/><g transform="translate(164.52 79.938)" opacity="0.6"><rect width="24.329" height="14.849"/></g><rect width="24.329" height="14.849" transform="translate(163.34 79.938)" fill="#d9a171"/><path d="M662.426,5947.152a2.5,2.5,0,0,1-.174.207c-.12.13-.3.32-.544.544a14.928,14.928,0,0,1-2.306,1.729,17.952,17.952,0,0,1-9.067,2.578,17.456,17.456,0,0,1-9.11-2.437,16.547,16.547,0,0,1-2.344-1.675,5.4,5.4,0,0,1-.577-.544c-.131-.142-.2-.19-.185-.2s.3.234.827.653a19.391,19.391,0,0,0,2.377,1.588,17.791,17.791,0,0,0,9.007,2.333,18.4,18.4,0,0,0,8.98-2.475,16.654,16.654,0,0,0,2.328-1.632A10.057,10.057,0,0,1,662.426,5947.152Z" transform="translate(-474.764 -5867.215)" fill="#344154"/><path d="M660.447,5955.393a1.033,1.033,0,0,0-.283-.6,1.088,1.088,0,0,0-1.538.044,1.178,1.178,0,0,0-.094.114,1.088,1.088,0,1,0,1.9.44Z" transform="translate(-483.961 -5870.565)" fill="#fafafa"/><path d="M662.218,5946.4a1.486,1.486,0,0,1,.1.142l.289.43c.233.386.587.957.978,1.724a23.968,23.968,0,0,1,2.274,6.918,19.784,19.784,0,0,0,.419,2.366,2.674,2.674,0,0,0,.587,1.088,2.77,2.77,0,0,0,1.088.664,10.542,10.542,0,0,1,1.294.511,2,2,0,0,1,1,1.088,2.79,2.79,0,0,1-.761,2.85,6.907,6.907,0,0,1-2.779,1.491,22.509,22.509,0,0,1-3.166.843,11.664,11.664,0,0,1-6.8-.6,10.426,10.426,0,0,1-2.872-2.007,18.851,18.851,0,0,0-2.567-2.148,6.075,6.075,0,0,0-3.024-.919,16.606,16.606,0,0,0-3.089.207,22.261,22.261,0,0,1-2.975.277,6.946,6.946,0,0,1-2.779-.511,4.348,4.348,0,0,1-2.045-1.681,4.79,4.79,0,0,1-.62-2.355c-.033-.777.033-1.512.06-2.2s.071-1.344.1-1.953c.06-1.218.12-2.268.163-3.133s.093-1.512.119-1.979a2.341,2.341,0,0,1,.033-.517c.033-.131,0-.175,0-.175a.526.526,0,0,1,0,.18v.512c0,.473-.033,1.137-.065,1.985s-.071,1.915-.119,3.133c-.027.609-.05,1.262-.082,1.958s-.077,1.425-.039,2.176a4.581,4.581,0,0,0,.609,2.257,4.12,4.12,0,0,0,1.948,1.583,6.713,6.713,0,0,0,2.72.483,22.173,22.173,0,0,0,2.942-.288,16.973,16.973,0,0,1,3.138-.217,6.3,6.3,0,0,1,3.144.957c1.915,1.191,3.263,3.214,5.439,4.128a11.39,11.39,0,0,0,6.652.582,22.387,22.387,0,0,0,3.127-.821,6.7,6.7,0,0,0,2.687-1.425,2.558,2.558,0,0,0,.713-2.595,1.749,1.749,0,0,0-.881-.968,11.191,11.191,0,0,0-1.262-.505,2.938,2.938,0,0,1-1.164-.724,2.877,2.877,0,0,1-.626-1.164,19.56,19.56,0,0,1-.408-2.393,24.579,24.579,0,0,0-2.176-6.9c-.375-.772-.713-1.354-.935-1.746l-.261-.446A.649.649,0,0,1,662.218,5946.4Z" transform="translate(-474.142 -5866.874)" fill="#344154"/><rect width="36.485" height="2.747" transform="translate(157.454 67.433)" fill="#344154"/><path d="M666.714,5913.533h-16.7v-12.76h14.4Z" transform="translate(-480.188 -5846.062)" fill="#344154"/><path d="M658.14,5913.533H639.56l1.556-12.76H659.2Z" transform="translate(-475.421 -5846.062)" fill="#455a64"/><path d="M660.562,5900.522a1.188,1.188,0,0,1-.076.256c-.054.163-.141.4-.267.707a17.048,17.048,0,0,1-1.256,2.5,11.7,11.7,0,0,1-2.72,3.128,8.08,8.08,0,0,1-4.732,1.8,8.428,8.428,0,0,1-4.9-1.381,8.733,8.733,0,0,1-2.807-3.057,9.22,9.22,0,0,1-.974-2.627,6.014,6.014,0,0,1-.114-.75.912.912,0,0,1,0-.267s.065.359.223,1a10.028,10.028,0,0,0,1.039,2.557,8.822,8.822,0,0,0,2.779,2.948,8.273,8.273,0,0,0,4.727,1.316,7.92,7.92,0,0,0,4.591-1.729,11.8,11.8,0,0,0,2.72-3.029,20.447,20.447,0,0,0,1.316-2.442c.13-.277.234-.506.315-.69S660.551,5900.518,660.562,5900.522Z" transform="translate(-476.859 -5845.947)" fill="#344154"/><path d="M657.7,5918.235a2.914,2.914,0,0,1-.119-1.224,2.87,2.87,0,0,1,.141-1.219,5.558,5.558,0,0,1,0,2.442Z" transform="translate(-483.633 -5852.913)" fill="#344154"/><path d="M660.19,5918.023a2.883,2.883,0,0,1-.218-1.311,2.824,2.824,0,0,1,.147-1.3,3.993,3.993,0,0,1,.12,1.294A3.793,3.793,0,0,1,660.19,5918.023Z" transform="translate(-484.722 -5852.739)" fill="#344154"/><path d="M662.275,5917.411a4.719,4.719,0,0,1,.071-2.518A8.353,8.353,0,0,1,662.275,5917.411Z" transform="translate(-485.718 -5852.502)" fill="#344154"/><path d="M664.612,5916.706a3.487,3.487,0,0,1-.136-1.354,3.44,3.44,0,0,1,.136-1.349,3.623,3.623,0,0,1,.13,1.349A3.663,3.663,0,0,1,664.612,5916.706Z" transform="translate(-486.778 -5852.096)" fill="#344154"/><path d="M667.117,5915.317a4.356,4.356,0,0,1-.082-1.485,4.132,4.132,0,0,1,.185-1.479,4.183,4.183,0,0,1,.082,1.485A4.117,4.117,0,0,1,667.117,5915.317Z" transform="translate(-487.939 -5851.343)" fill="#344154"/><path d="M669.478,5912.957a3.269,3.269,0,0,1-.071-1.463,3.336,3.336,0,0,1,.321-1.43,5.571,5.571,0,0,1-.054,1.452A5.331,5.331,0,0,1,669.478,5912.957Z" transform="translate(-489.011 -5850.299)" fill="#344154"/><path d="M671.526,5910.45a6.093,6.093,0,0,1,0-1.762,5.778,5.778,0,0,1,.294-1.735,6.051,6.051,0,0,1,0,1.762A5.739,5.739,0,0,1,671.526,5910.45Z" transform="translate(-489.972 -5848.88)" fill="#344154"/><path d="M673.7,5906.666a4.073,4.073,0,0,1,0-1.457,4.017,4.017,0,0,1,.272-1.436,4.108,4.108,0,0,1,0,1.463A3.911,3.911,0,0,1,673.7,5906.666Z" transform="translate(-490.965 -5847.43)" fill="#344154"/><path d="M654.617,5917.51a2.983,2.983,0,0,1,.109-2.067c.076,0,.054.479,0,1.039S654.693,5917.5,654.617,5917.51Z" transform="translate(-482.227 -5852.753)" fill="#344154"/><path d="M652.046,5917.105a6.466,6.466,0,0,1,.207-2.632,3.427,3.427,0,0,1,0,1.327A3.389,3.389,0,0,1,652.046,5917.105Z" transform="translate(-481.092 -5852.311)" fill="#344154"/><path d="M649.74,5915.616a20.8,20.8,0,0,1,.033-2.513,2.31,2.31,0,0,1,.212,1.262A2.268,2.268,0,0,1,649.74,5915.616Z" transform="translate(-480.054 -5851.686)" fill="#344154"/><path d="M647.248,5914.29a4.9,4.9,0,0,1-.038-1.6,4.778,4.778,0,0,1,.223-1.588,4.945,4.945,0,0,1,.043,1.6A4.876,4.876,0,0,1,647.248,5914.29Z" transform="translate(-478.888 -5850.773)" fill="#344154"/><path d="M645.047,5911.711a3.525,3.525,0,0,1,0-1.556,5.363,5.363,0,0,1,.31-1.523,4.192,4.192,0,0,1-.044,1.556A6.761,6.761,0,0,1,645.047,5911.711Z" transform="translate(-477.884 -5849.646)" fill="#344154"/><path d="M643.333,5907.97a5.841,5.841,0,0,1,.13-3.117,6.243,6.243,0,0,1,0,1.561A6.578,6.578,0,0,1,643.333,5907.97Z" transform="translate(-477.073 -5847.923)" fill="#344154"/><rect width="4.047" height="0.587" transform="translate(172.499 56.931)" fill="#fafafa"/><rect width="27.304" height="10.035" transform="translate(163.193 36.822)" fill="#d9a171"/><rect width="27.304" height="10.035" transform="translate(160.772 36.822)" fill="#d9a171"/><path d="M663.165,5873.624c0,.076-6.625.136-14.8.136s-14.805-.06-14.805-.136,6.625-.13,14.805-.13S663.165,5873.553,663.165,5873.624Z" transform="translate(-472.685 -5833.62)" fill="#fafafa"/><path d="M662.908,5870.039c0,.076-6.679.13-14.914.13s-14.914-.054-14.914-.13,6.674-.136,14.914-.136S662.908,5869.963,662.908,5870.039Z" transform="translate(-472.466 -5831.982)" fill="#fafafa"/><path d="M663.165,5880.789c0,.071-6.625.13-14.8.13s-14.805-.06-14.805-.13,6.625-.136,14.805-.136S663.165,5880.734,663.165,5880.789Z" transform="translate(-472.685 -5836.885)" fill="#fafafa"/><path d="M662.991,5883.994c0,.076-6.63.136-14.8.136s-14.805-.06-14.805-.136,6.63-.131,14.805-.131S662.991,5883.923,662.991,5883.994Z" transform="translate(-472.603 -5838.349)" fill="#fafafa"/><path d="M662.908,5877.209c0,.071-6.679.131-14.914.131s-14.914-.06-14.914-.131,6.674-.136,14.914-.136S662.908,5877.133,662.908,5877.209Z" transform="translate(-472.466 -5835.252)" fill="#fafafa"/><g transform="translate(188.408 36.822)" opacity="0.6"><rect width="2.089" height="10.035"/></g><path d="M660.66,5867.883a1.3,1.3,0,0,1-.255.152l-.772.4-2.85,1.415-9.492,4.59-.06.027-.054-.027-.2-.092-9.671-4.52-2.915-1.4-.789-.392a1.176,1.176,0,0,1-.267-.152,1.127,1.127,0,0,1,.289.1l.81.348,2.953,1.322,9.7,4.449.2.087h-.115l9.507-4.521,2.888-1.338.789-.348A1.162,1.162,0,0,1,660.66,5867.883Z" transform="translate(-472.584 -5831.061)" fill="#344154"/><path d="M657.769,5876.746a1.533,1.533,0,0,0-1.55.979,1.549,1.549,0,0,0,.544,1.751,1.566,1.566,0,0,0,1.838-.071,1.545,1.545,0,0,0-1.153-2.719" transform="translate(-482.981 -5835.072)" fill="#344154"/><path d="M661.452,5863.231s-.141-.261-.4-.729a11.156,11.156,0,0,0-1.305-1.849,7.471,7.471,0,0,0-2.616-2.007,10.185,10.185,0,0,0-4-.691,12.3,12.3,0,0,0-4,.767,7.159,7.159,0,0,0-2.763,1.812,5.53,5.53,0,0,0-1.159,1.9c-.179.506-.212.805-.234.8s0-.076,0-.217a4.459,4.459,0,0,1,.125-.615,5.3,5.3,0,0,1,1.126-2,7.158,7.158,0,0,1,2.807-1.91,12.141,12.141,0,0,1,4.09-.8,10.017,10.017,0,0,1,4.1.734,7.391,7.391,0,0,1,2.671,2.11,9.762,9.762,0,0,1,1.251,1.92c.114.245.2.435.25.544A.58.58,0,0,1,661.452,5863.231Z" transform="translate(-477.885 -5826.409)" fill="#344154"/><rect width="1.534" height="45.682" transform="translate(46.428 96.891)" fill="#344154"/><path d="M463.887,5935.272a7.07,7.07,0,0,0-.033-9.306l-11.281-12.793-3.024,8.441c.207.136,8.784,9.333,8.784,9.333l-7.37,9.219a5.284,5.284,0,0,0-.876,5.031l.332,1.349a3.263,3.263,0,0,0,3.967,2.358,3.308,3.308,0,0,0,.525-.183l2.072-.93a.435.435,0,0,0,.219-.575.381.381,0,0,0-.034-.062h0a.434.434,0,0,0-.364-.2h-2.812a1.279,1.279,0,0,1-1.24-.974h0Z" transform="translate(-388.758 -5851.717)" fill="#455a64"/><path d="M467.123,5942.861c.054.049-.3.517-.81,1.017s-.908.9-.968.86.267-.544.778-1.05A3.821,3.821,0,0,1,467.123,5942.861Z" transform="translate(-395.959 -5865.258)" fill="#344154"/><path d="M420.382,5868.873a5.913,5.913,0,0,0-5.912,5.912v.033c0,2.6.049,5.379.147,6.815a3.72,3.72,0,0,0,3.318,3.448s.25,3.323.228,4.161l7.582.032.544-14.261a5.918,5.918,0,0,0-5.69-6.137c-.074,0-.148,0-.222,0Z" transform="translate(-372.758 -5831.512)" fill="#455a64"/><path d="M420.84,5897.455a7.488,7.488,0,0,0,4.052-1.452,3.958,3.958,0,0,1-3.976,2.225Z" transform="translate(-375.664 -5843.886)" fill="#344154"/><path d="M430.508,5906.943a16.644,16.644,0,0,0-6.3-.832l-7.751.093h-.065a6.69,6.69,0,0,0-6.8,7.886l1.012,5.6s-1.632,3.764.653,6.951a7.109,7.109,0,0,1,1.218,4.02l-2.143,9.67,21.212-.18-3.106-7.647,2.176-11.585,5.1,3.329,7.4-5.379-7.147-8.039c-2.665-2.894-3.666-3.465-5.439-3.9" transform="translate(-370.483 -5848.485)" fill="#d9a171"/><path d="M422.773,5961.617c3.111,3.622,4.417,8.518,4.542,13.293s-.849,9.5-1.811,14.174l-3.639,17.677c-.169.821-.62,1.866-1.458,1.763s-1.028-1.344-1.632-1.991c-.821-.849-2.257-.457-3.263.168s-2.012,1.469-3.193,1.36c-1.49-.136-2.611-1.79-4.107-1.67-1.632.136-2.632,2.361-4.286,2.274-1.322-.071-2.056-1.572-3.214-2.214-1.942-1.088-4.721.4-6.462-.99a3.375,3.375,0,0,1-.881-3.454,13.4,13.4,0,0,1,1.67-3.361c7.462-12.782,2.546-30.285,10.667-42.653" transform="translate(-363.074 -5871.248)" fill="#d9a171"/><path d="M409.77,5916.979c0-.076,6.059-.272,13.538-.446s13.543-.25,13.543-.174-6.059.271-13.538.44S409.77,5917.049,409.77,5916.979Z" transform="translate(-370.615 -5853.157)" fill="#f5f5f5"/><path d="M412.13,5929.128c0-.07,7.12-.261,15.909-.418s15.915-.229,15.915-.152-7.12.261-15.909.419S412.13,5929.221,412.13,5929.128Z" transform="translate(-371.691 -5858.72)" fill="#f5f5f5"/><path d="M414.73,5945.675c0-.071,3.758-.229,8.4-.343s8.409-.158,8.409-.082-3.758.229-8.4.348S414.73,5945.751,414.73,5945.675Z" transform="translate(-372.877 -5866.331)" fill="#f5f5f5"/><path d="M414.25,5958.026a2.811,2.811,0,0,1,.658-.055l1.784-.065c1.507-.054,3.59-.174,5.874-.408s4.351-.544,5.841-.8l1.757-.3a3.162,3.162,0,0,1,.653-.082,3.217,3.217,0,0,1-.631.185c-.408.1-1.006.239-1.746.386-1.485.3-3.546.642-5.847.876s-4.384.326-5.9.337h-1.789A3.512,3.512,0,0,1,414.25,5958.026Z" transform="translate(-372.658 -5871.394)" fill="#f5f5f5"/><path d="M408.82,5971.3a5.1,5.1,0,0,1,.9.038c.577.055,1.409.1,2.442.142a48.472,48.472,0,0,0,15.92-2.056c.99-.3,1.784-.544,2.328-.756a5.4,5.4,0,0,1,.859-.267,5.932,5.932,0,0,1-.821.365,23.086,23.086,0,0,1-2.312.837,44.307,44.307,0,0,1-7.9,1.779,43.687,43.687,0,0,1-8.088.283c-1.033-.06-1.871-.141-2.442-.223A6.2,6.2,0,0,1,408.82,5971.3Z" transform="translate(-370.181 -5876.908)" fill="#f5f5f5"/><path d="M408.38,5987.976a.937.937,0,0,1,.267,0l.751.087c.653.082,1.594.185,2.763.283s2.567.169,4.117.2,3.263,0,5.042-.147,3.481-.348,5.009-.587,2.9-.543,4.047-.794,2.061-.506,2.692-.685l.734-.2a1.037,1.037,0,0,1,.261-.049,1,1,0,0,1-.245.1l-.718.239c-.625.212-1.539.479-2.681.767s-2.513.593-4.047.859-3.263.474-5.031.609-3.508.158-5.069.131-2.953-.131-4.128-.261-2.116-.25-2.763-.365l-.745-.136A1.485,1.485,0,0,1,408.38,5987.976Z" transform="translate(-369.981 -5884.972)" fill="#f5f5f5"/><path d="M405.2,6006.9a8.4,8.4,0,0,0,.914.512,8.079,8.079,0,0,0,2.72.761,13.816,13.816,0,0,0,4.183-.25c1.566-.288,3.263-.778,5.085-1.088a26.45,26.45,0,0,1,9.426.18,25.277,25.277,0,0,1,2.779.7c.321.1.571.19.74.25a1.525,1.525,0,0,1,.25.1,8.131,8.131,0,0,1-1.017-.255c-.653-.174-1.6-.4-2.785-.615a27.764,27.764,0,0,0-9.35-.1c-1.811.3-3.5.783-5.086,1.061a13.722,13.722,0,0,1-4.248.19,7.609,7.609,0,0,1-2.72-.854,5.049,5.049,0,0,1-.658-.424A1.043,1.043,0,0,1,405.2,6006.9Z" transform="translate(-368.53 -5894.284)" fill="#f5f5f5"/><path d="M400.67,6027.121a1.414,1.414,0,0,1,.25-.125,4.491,4.491,0,0,1,.761-.245,7.279,7.279,0,0,1,2.97-.055,18.873,18.873,0,0,1,4.15,1.354,15.514,15.514,0,0,0,5.053,1.431,17.158,17.158,0,0,0,5.216-.718,42.025,42.025,0,0,1,4.248-.968,10.762,10.762,0,0,1,2.943-.07,6.363,6.363,0,0,1,.789.152.982.982,0,0,1,.267.076c0,.027-.381-.054-1.088-.125a11.655,11.655,0,0,0-2.9.158c-1.218.2-2.632.593-4.221,1.017a16.909,16.909,0,0,1-5.292.746,15.477,15.477,0,0,1-5.134-1.469,19.759,19.759,0,0,0-4.085-1.4,7.612,7.612,0,0,0-2.888-.049C401.029,6026.984,400.681,6027.147,400.67,6027.121Z" transform="translate(-366.464 -5903.437)" fill="#f5f5f5"/><path d="M436.22,5983.157a.963.963,0,0,1,.033-.2l.136-.577c.12-.543.3-1.267.544-2.219.446-1.931,1.088-4.727,1.675-8.213a87.507,87.507,0,0,0,1.316-12.347,49.516,49.516,0,0,0-.332-7.315c-.272-2.54-.495-5.167-.729-7.859s-.473-5.319-.778-7.849-.734-4.955-.87-7.3a123.123,123.123,0,0,1,0-12.45,58.625,58.625,0,0,1,.707-8.365c.174-.974.364-1.724.495-2.23l.169-.544a1.128,1.128,0,0,1,.065-.2,1.927,1.927,0,0,1-.044.2c-.033.142-.082.332-.141.576-.114.506-.283,1.257-.441,2.236a61.538,61.538,0,0,0-.62,8.349c-.082,3.535-.267,7.761.06,12.423.141,2.333.593,4.753.887,7.288s.544,5.167.783,7.859.451,5.319.723,7.854a49.8,49.8,0,0,1,.315,7.348A84.558,84.558,0,0,1,438.8,5972c-.625,3.487-1.284,6.282-1.757,8.2-.239.962-.435,1.708-.577,2.208l-.158.576Z" transform="translate(-382.678 -5848.215)" fill="#f5f5f5"/><path d="M410.99,5985.058a1.022,1.022,0,0,1,.06-.2l.2-.571c.169-.506.462-1.234.767-2.176.653-1.909,1.5-4.71,2.382-8.208s1.784-7.707,2.524-12.422a109.537,109.537,0,0,0,1.365-15.442c0-2.751-.136-5.439-.223-8.039s-.174-5.107-.207-7.5c-.092-4.781.038-9.089.326-12.695a72.133,72.133,0,0,1,1.159-8.479c.179-1,.386-1.752.506-2.274.06-.245.109-.44.141-.587a1.672,1.672,0,0,1,.06-.2.9.9,0,0,1-.033.2c-.027.146-.065.342-.12.6-.1.544-.288,1.284-.451,2.279a77.909,77.909,0,0,0-1.088,8.474c-.261,3.6-.37,7.9-.266,12.673.043,2.388.125,4.9.228,7.49s.234,5.287.229,8.049a108.256,108.256,0,0,1-1.4,15.458c-.756,4.721-1.681,8.931-2.584,12.434s-1.784,6.293-2.469,8.2c-.321.957-.631,1.681-.816,2.175l-.223.544A1.138,1.138,0,0,1,410.99,5985.058Z" transform="translate(-371.171 -5848.57)" fill="#f5f5f5"/><path d="M449.379,5906.713a8.524,8.524,0,0,0-.451,2.551,8.717,8.717,0,0,0,.446,2.758,13.121,13.121,0,0,0,1.507,3.089c.664,1.039,1.387,1.963,2.04,2.812l1.741,2.252,1.153,1.528a3.408,3.408,0,0,1,.4.587,3.4,3.4,0,0,1-.479-.544l-1.218-1.479c-.544-.642-1.12-1.392-1.784-2.213a33.674,33.674,0,0,1-2.072-2.818,13.015,13.015,0,0,1-1.523-3.16,8.718,8.718,0,0,1-.4-2.839,6.413,6.413,0,0,1,.343-1.9c.082-.212.152-.375.207-.484A.978.978,0,0,1,449.379,5906.713Z" transform="translate(-388.386 -5848.771)" fill="#f5f5f5"/><path d="M413.151,5927.5a4.164,4.164,0,0,1-.082-.8c-.038-.544-.065-1.278-.071-2.208a54,54,0,0,1,1.844-14.408c.245-.9.462-1.632.631-2.116a5.174,5.174,0,0,1,.277-.756,3.906,3.906,0,0,1-.179.789c-.136.5-.326,1.229-.544,2.132a64.421,64.421,0,0,0-1.844,14.359v2.2A5.445,5.445,0,0,1,413.151,5927.5Z" transform="translate(-372.087 -5848.995)" fill="#f5f5f5"/><path d="M396.962,6004.578a.37.37,0,0,1-.027-.13c0-.1-.027-.234-.043-.392a4.358,4.358,0,0,1-.033-.642,5.677,5.677,0,0,1,.044-.871,15.4,15.4,0,0,1,1.735-5.259,40.877,40.877,0,0,0,3.291-7.5,72.257,72.257,0,0,0,1.73-9.894c.9-7.07,1.724-13.489,2.322-18.155.3-2.306.544-4.177.734-5.5.087-.631.158-1.131.212-1.49l.06-.386a.6.6,0,0,1,.033-.136.631.631,0,0,1,0,.136,2.9,2.9,0,0,1-.033.391l-.163,1.5c-.158,1.321-.381,3.2-.653,5.5-.577,4.667-1.371,11.079-2.241,18.167a63.222,63.222,0,0,1-1.762,9.926,44.207,44.207,0,0,1-3.35,7.517,15.726,15.726,0,0,0-1.806,5.189A12.209,12.209,0,0,0,396.962,6004.578Z" transform="translate(-364.725 -5870.44)" fill="#f5f5f5"/><g transform="translate(55.418 72.399)" opacity="0.2"><path d="M444.255,5933.358a1.334,1.334,0,0,0-1.36.37,3.725,3.725,0,0,0-.761,1.267c-.544,1.273-1.088,2.557-1.632,3.84a8,8,0,0,0-.832,3.263c.065,1.687,1.169,3.139,2.219,4.466a1.425,1.425,0,0,0,.625.544c.267.076.62-.082.631-.359s-.267-.43-.451-.62a2.3,2.3,0,0,1-.277-2.028q.963-5.406,1.92-10.808" transform="translate(-439.67 -5933.293)"/></g><path d="M462.288,6051.48l-2.877-13.037h13.173l3.835,13.037Z" transform="translate(-393.256 -5908.853)" fill="#ebebeb"/><path d="M455.994,6038.443l-4.074,13.037h6.951Z" transform="translate(-389.839 -5908.853)" fill="#e0e0e0"/><path d="M473.656,6042.53a80.848,80.848,0,0,1-9.366,0,84.173,84.173,0,0,1,9.366,0Z" transform="translate(-395.481 -5910.65)" fill="#344154"/><path d="M471.193,6047.6a38.544,38.544,0,0,1-6.353,0A37.3,37.3,0,0,1,471.193,6047.6Z" transform="translate(-395.732 -5912.967)" fill="#344154"/><path d="M481.828,6046.909c0,.07-.256.13-.544.13s-.544-.06-.544-.13.256-.136.544-.136S481.828,6046.833,481.828,6046.909Z" transform="translate(-402.984 -5912.652)" fill="#344154"/><path d="M472.807,6051.689a38.694,38.694,0,0,1-6.347,0A37.135,37.135,0,0,1,472.807,6051.689Z" transform="translate(-396.471 -5914.833)" fill="#344154"/><path d="M483.438,6050.979c0,.071-.25.131-.544.131s-.544-.06-.544-.131.25-.136.544-.136S483.438,6050.9,483.438,6050.979Z" transform="translate(-403.718 -5914.508)" fill="#344154"/><path d="M474.417,6055.739a38.694,38.694,0,0,1-6.347,0A37.135,37.135,0,0,1,474.417,6055.739Z" transform="translate(-397.205 -5916.68)" fill="#344154"/><path d="M485.078,6055.049c0,.071-.25.131-.544.131s-.544-.06-.544-.131.25-.136.544-.136S485.078,6054.973,485.078,6055.049Z" transform="translate(-404.466 -5916.365)" fill="#344154"/><rect width="62.81" height="25.156" transform="translate(74.715 43.961) rotate(-3.71)" fill="#d9a171"/><g transform="translate(78.436 44.883)" opacity="0.2"><path d="M493.956,5899.037c.212,2.72-1.6,5.243-5.983,5.586a10.626,10.626,0,0,1-5.983-1.2l1.191-2.829a7.388,7.388,0,0,0,4.471,1.044c1.779-.136,2.817-.968,2.72-2.213s-.941-1.937-3.726-1.725l-3.927.3.12-8.7,9.366-.724.223,2.851-6.407.494v2.938l1.251-.1C491.78,5894.419,493.76,5896.317,493.956,5899.037Z" transform="translate(-481.99 -5885.385)" fill="#fff"/><path d="M514.307,5894.627c-.392-5.069,2.176-8.159,5.983-8.453s6.8,2.366,7.2,7.435-2.176,8.159-5.983,8.452S514.7,5899.7,514.307,5894.627Zm9.6-.74c-.266-3.491-1.632-4.84-3.383-4.7s-2.872,1.681-2.605,5.167,1.632,4.841,3.367,4.7S524.162,5897.385,523.907,5893.887Z" transform="translate(-496.712 -5884.276)" fill="#fff"/><path d="M548.784,5887.963c-.2-2.589,1.251-4.352,3.486-4.525s3.922,1.327,4.123,3.938-1.229,4.352-3.465,4.531S548.98,5890.552,548.784,5887.963Zm5.439-.419c-.131-1.632-.827-2.382-1.789-2.312s-1.539.936-1.414,2.562.848,2.382,1.789,2.312,1.517-.914,1.392-2.562Zm7.234-4.64,2.611-.2-9.3,16.165-2.616.207Zm-1.632,11.493c-.2-2.589,1.256-4.351,3.47-4.525s3.943,1.349,4.145,3.938-1.251,4.352-3.492,4.531-3.965-1.354-4.183-3.943Zm5.4-.418c-.125-1.632-.827-2.383-1.789-2.312s-1.545.914-1.414,2.562.843,2.382,1.789,2.312,1.5-.936,1.392-2.562Z" transform="translate(-512.446 -5882.703)" fill="#fff"/></g><path d="M532.319,6091.273a.882.882,0,0,1,0-.152v-2.132c0-1.479,0-3.612-.049-6.31l.087.082-31.177.054c.06-.06-.136.131.131-.136h0v8.572l-.125-.13,22.235.06,6.527.038h.06l-6.527.033-22.3.06h-.19v-8.7h0l.136-.136,31.177.054h.082v.082c0,2.719-.038,4.867-.049,6.358v2.1A1.1,1.1,0,0,1,532.319,6091.273Z" transform="translate(-412.22 -5928.935)" fill="#344154"/><path d="M754.764,5933.027a.894.894,0,0,1,0-.152v-2.132c0-1.479,0-3.611-.044-6.309l.082.082-31.177.054c.06-.06-.136.131.13-.136h0v8.588l-.13-.13,22.235.06,6.527.038h2.393a.738.738,0,0,1-.147,0h-2.187l-6.527.032-22.3.06h-.131v-8.7h0l.136-.136,31.177.054h.082v.082c0,2.72-.033,4.868-.044,6.358v2.1A1.075,1.075,0,0,1,754.764,5933.027Z" transform="translate(-513.701 -5856.767)" fill="#344154"/></g><g transform="translate(135.208 5859.632)"><path d="M156.759,6060.423a6.4,6.4,0,0,1,4.449,2.322,11.286,11.286,0,0,1,2.235,4.6c.832,3.226.272,7.017-.674,10.209-3.47-1.272-5.586-5-6.527-6.967-1.507-3.1-2.35-9.611.544-10.166" transform="translate(-151.216 -6014.686)" fill="#d9a171"/><path d="M177.842,6091.47a5.483,5.483,0,0,1-.207-5.488,7.272,7.272,0,0,1,4.406-3.476,3.05,3.05,0,0,1,2.573.146,2.35,2.35,0,0,1,.881,2.176,4.739,4.739,0,0,1-1.023,2.241c-1.713,2.279-3.807,4.172-6.63,4.378" transform="translate(-161.313 -6024.663)" fill="#d9a171"/><path d="M178.306,6105.469a3.917,3.917,0,0,1-.152-.669c-.087-.479-.2-1.088-.343-1.839a19.131,19.131,0,0,1-.326-6.157,11.766,11.766,0,0,1,2.333-5.689,8.08,8.08,0,0,1,1.333-1.322,4.858,4.858,0,0,1,.413-.293.493.493,0,0,1,.158-.087,12.731,12.731,0,0,0-1.773,1.811,12.134,12.134,0,0,0-2.241,5.613,20.632,20.632,0,0,0,.256,6.1c.12.778.212,1.409.266,1.85A3.674,3.674,0,0,1,178.306,6105.469Z" transform="translate(-161.483 -6027.908)" fill="#344154"/><path d="M160.34,6069.433a1.614,1.614,0,0,1,.141.266c.087.2.207.457.348.778.3.68.729,1.664,1.24,2.888,1.028,2.442,2.4,5.842,3.807,9.627s2.649,7.239,3.492,9.752c.424,1.256.756,2.279.979,2.986l.25.816a1.2,1.2,0,0,1,.071.288,1.987,1.987,0,0,1-.114-.272l-.267-.821c-.261-.723-.615-1.73-1.05-2.954-.892-2.5-2.132-5.945-3.563-9.73s-2.774-7.168-3.764-9.616c-.484-1.213-.881-2.2-1.169-2.915l-.31-.8A1.773,1.773,0,0,1,160.34,6069.433Z" transform="translate(-153.715 -6018.796)" fill="#344154"/><path d="M160.909,6100.542a12.8,12.8,0,0,0-9.872-6.255c-1.028-.082-2.268.082-2.72,1s.136,2.023.832,2.791a10.937,10.937,0,0,0,11.814,2.719" transform="translate(-148.159 -6030.123)" fill="#d9a171"/><path d="M156.28,6099.38a3.223,3.223,0,0,1,.647.032,5.689,5.689,0,0,1,.751.093,9.6,9.6,0,0,1,.984.2,10.3,10.3,0,0,1,1.169.332,13.426,13.426,0,0,1,1.305.511,13.054,13.054,0,0,1,5,3.927,13.238,13.238,0,0,1,.794,1.153,10.687,10.687,0,0,1,.615,1.055,8.591,8.591,0,0,1,.4.919,4.884,4.884,0,0,1,.25.712,3.228,3.228,0,0,1,.163.625c-.049,0-.288-.875-.963-2.175a11.249,11.249,0,0,0-.609-1.039,12.5,12.5,0,0,0-.794-1.126,14.625,14.625,0,0,0-2.252-2.208,14.907,14.907,0,0,0-2.681-1.632,13.137,13.137,0,0,0-1.278-.544c-.4-.158-.794-.256-1.148-.359C157.21,6099.488,156.275,6099.434,156.28,6099.38Z" transform="translate(-151.863 -6032.452)" fill="#344154"/><path d="M731.679,6071.634c.408-1.631-.664-3.263-1.86-4.411s-2.627-2.213-3.263-3.764c-1.017-2.513.315-5.781-1.409-7.875-1.017-1.229-2.823-1.631-3.726-2.948a6.752,6.752,0,0,1-.821-2.355,23.958,23.958,0,0,0-6.021-11.117,20.76,20.76,0,0,0,2.388,10.736,13.693,13.693,0,0,1,1.8,4.074c.386,2.388-.935,4.862-.337,7.212.691,2.682,3.72,4.466,3.878,7.229.136,2.339-1.893,4.406-1.73,6.739a6.33,6.33,0,0,0,1.055,2.769c1.828,3,4.5,5.053,8.523,4.966l4.933.142Z" transform="translate(-406.49 -6004.99)" fill="#d9a171"/><g transform="translate(308.064 34.173)" opacity="0.3"><path d="M731.679,6071.634c.408-1.631-.664-3.263-1.86-4.411s-2.627-2.213-3.263-3.764c-1.017-2.513.315-5.781-1.409-7.875-1.017-1.229-2.823-1.631-3.726-2.948a6.752,6.752,0,0,1-.821-2.355,23.958,23.958,0,0,0-6.021-11.117,20.76,20.76,0,0,0,2.388,10.736,13.693,13.693,0,0,1,1.8,4.074c.386,2.388-.935,4.862-.337,7.212.691,2.682,3.72,4.466,3.878,7.229.136,2.339-1.893,4.406-1.73,6.739a6.33,6.33,0,0,0,1.055,2.769c1.828,3,4.5,5.053,8.523,4.966l4.933.142Z" transform="translate(-714.554 -6039.163)"/></g><path d="M750,6068.5a3.938,3.938,0,0,0,1.36-.033,8.642,8.642,0,0,0,1.6-.414,6.749,6.749,0,0,0,1.974-1.088,2.8,2.8,0,0,0,.81-1.088,5.408,5.408,0,0,0,.223-1.474,14.967,14.967,0,0,1,.1-1.6,4.5,4.5,0,0,1,.593-1.588c.577-1.028,1.539-2,1.844-3.388a11.655,11.655,0,0,0-.163-4.324,9.121,9.121,0,0,1,.092-4.634c.56-1.544,1.594-2.942,2.127-4.683s.267-3.649.37-5.516a7.217,7.217,0,0,1,.625-2.719c.392-.875.941-1.7,1.371-2.622a19.189,19.189,0,0,0,1.235-6.037c.109-1.039.223-2.094.337-3.155a15.268,15.268,0,0,1,.544-3.16,28.376,28.376,0,0,1,1.165-3.057,9.973,9.973,0,0,0,.544-1.6,16.717,16.717,0,0,0,.147-1.7,19.969,19.969,0,0,0-.153-3.415c-.141-1.137-.348-2.263-.479-3.405v-.419l-.2.1a7.7,7.7,0,0,0-2.643,2.257,12.052,12.052,0,0,0-1.632,3.019,38.233,38.233,0,0,0-1.5,6.467,17.516,17.516,0,0,1-1.99,5.983c-.544.881-1.186,1.686-1.751,2.545a6.947,6.947,0,0,0-1.207,2.818c-.283,2.088.876,3.916.647,5.765a6.354,6.354,0,0,1-.887,2.567c-.441.789-.963,1.522-1.458,2.263a14.226,14.226,0,0,0-1.311,2.279,7.168,7.168,0,0,0-.593,2.48c-.109,1.665.136,3.264,0,4.732a10.888,10.888,0,0,1-1.2,4.057c-.587,1.218-1.246,2.317-1.795,3.388a16.9,16.9,0,0,0-.74,1.572,7.8,7.8,0,0,0-.424,1.566,9.785,9.785,0,0,0,0,2.813,7.067,7.067,0,0,0,1.43,3.584,3.48,3.48,0,0,0,.4.43,2.072,2.072,0,0,0,.326.272c.185.136.283.2.283.2a5.742,5.742,0,0,1-.957-.936,7.119,7.119,0,0,1-1.36-3.562,9.546,9.546,0,0,1,.043-2.774,7.81,7.81,0,0,1,.43-1.522,16.042,16.042,0,0,1,.745-1.556c.544-1.088,1.218-2.176,1.817-3.383a11.11,11.11,0,0,0,1.24-4.128c.12-1.523-.12-3.106,0-4.732a7.043,7.043,0,0,1,.577-2.394,14.557,14.557,0,0,1,1.3-2.235c.495-.734,1.023-1.474,1.479-2.278a6.629,6.629,0,0,0,.925-2.671c.229-1.969-.925-3.808-.636-5.749a6.774,6.774,0,0,1,1.164-2.72c.544-.843,1.213-1.632,1.762-2.551a17.754,17.754,0,0,0,2.04-6.081,36.418,36.418,0,0,1,1.49-6.412,11.944,11.944,0,0,1,1.572-2.937,7.243,7.243,0,0,1,2.535-2.175l-.228-.125v.2c.131,1.153.343,2.284.484,3.41a19.951,19.951,0,0,1,.147,3.361,15.919,15.919,0,0,1-.141,1.631,10.462,10.462,0,0,1-.544,1.545,27.837,27.837,0,0,0-1.175,3.089,15.739,15.739,0,0,0-.544,3.214c-.114,1.061-.223,2.116-.332,3.155a19.105,19.105,0,0,1-1.2,5.945c-.413.9-.957,1.724-1.365,2.627a7.618,7.618,0,0,0-.647,2.845c-.092,1.9.163,3.764-.343,5.439s-1.566,3.089-2.1,4.683a9.765,9.765,0,0,0-.076,4.749,11.082,11.082,0,0,1,.185,4.243,13.124,13.124,0,0,1-1.8,3.345,4.632,4.632,0,0,0-.6,1.632,13.986,13.986,0,0,0-.092,1.632,4.975,4.975,0,0,1-.2,1.431,2.607,2.607,0,0,1-.761,1.044,6.679,6.679,0,0,1-1.925,1.088,8.339,8.339,0,0,1-1.577.44,6.751,6.751,0,0,1-1,.1Z" transform="translate(-421.509 -5990.495)" fill="#344154"/><path d="M767.386,6012.743a.635.635,0,0,0-.049.147l-.1.446c-.1.386-.207.974-.392,1.708s-.631,1.561-1.006,2.583-.789,2.176-1.153,3.508-.7,2.779-1.033,4.351a18.47,18.47,0,0,1-1.55,4.825c-.4.8-.854,1.631-1.208,2.507a11.581,11.581,0,0,0-.7,2.834,57.53,57.53,0,0,1-1.028,5.983c-.968,4.047-1.887,7.9-2.72,11.422s-1.632,6.652-2.284,9.312l-1.518,6.282c-.163.723-.3,1.294-.392,1.713-.038.18-.071.326-.1.446a.706.706,0,0,0,0,.152.6.6,0,0,0,.054-.147c.033-.114.076-.261.125-.441l.451-1.7c.392-1.5.941-3.633,1.632-6.255s1.463-5.8,2.35-9.3,1.773-7.37,2.752-11.422a56.954,56.954,0,0,0,1.028-5.983,11.446,11.446,0,0,1,.664-2.763c.348-.87.789-1.681,1.191-2.491a18.506,18.506,0,0,0,1.545-4.895c.326-1.572.642-3.03,1-4.352s.723-2.485,1.088-3.5.789-1.86.963-2.616.261-1.333.332-1.729c.033-.18.06-.332.076-.452A.545.545,0,0,0,767.386,6012.743Z" transform="translate(-423.639 -5992.939)" fill="#344154"/><path d="M741.358,6054.367c3.438-1.5,5.064-7,4.172-10.645s-2.828-7.1-2.72-10.851c.082-2.883,1.382-5.684,1.088-8.551-.419-3.861-3.72-7.233-3.187-11.084.294-2.175,1.784-4.042,1.958-6.217.218-2.67-1.556-5.031-2.518-7.528-1.479-3.807-1.088-8.066-1.224-12.156s-1.142-8.583-4.444-11c-.957,3.34-2.148,5.559-2.448,10.2-.109,1.67,1.414,5.085,1.218,8.746-.12,2.176-.283,4.379-.424,6.565a20.954,20.954,0,0,0,.234,6.374c.386,1.588,1.148,3.079,1.382,4.7.441,3.046-1.028,6.1-.751,9.159.234,2.594,1.708,4.993,1.74,7.615.049,3.66-2.752,7.1-2,10.688.375,1.778,1.6,3.323,1.779,5.129.141,1.4-.381,2.807-.272,4.216.169,2.263,4.166,4.509,6.429,4.655" transform="translate(-414.461 -5976.333)" fill="#d9a171"/><path d="M737.337,5982.8a1.448,1.448,0,0,0,0,.2v.544c0,.5,0,1.234.049,2.176s.408,2.077.636,3.4.468,2.839.62,4.525.234,3.541.3,5.537a22.173,22.173,0,0,0,.865,6.32c.321,1.087.7,2.175.936,3.3a14.373,14.373,0,0,1,.239,3.541,70.231,70.231,0,0,0,0,7.565c.343,5.167.669,10.09.963,14.571s.653,8.5.919,11.884.49,6.1.642,8.012c.082.93.147,1.659.19,2.175.027.234.044.419.06.544a1.385,1.385,0,0,0,.027.19.623.623,0,0,0,0-.19,4.723,4.723,0,0,0-.027-.571c-.033-.517-.076-1.25-.13-2.175-.131-1.915-.315-4.645-.544-8.017s-.544-7.419-.849-11.89-.609-9.4-.941-14.566a71.137,71.137,0,0,1,0-7.539,14.469,14.469,0,0,0-.256-3.611c-.245-1.164-.625-2.251-.946-3.323a22.866,22.866,0,0,1-.887-6.25c-.1-1.985-.174-3.856-.343-5.547s-.4-3.215-.668-4.536-.609-2.442-.691-3.378-.076-1.686-.109-2.176l-.033-.544A.653.653,0,0,0,737.337,5982.8Z" transform="translate(-416.88 -5979.285)" fill="#344154"/></g><g transform="translate(162.268 5762.501)"><rect width="71.284" height="175.175" fill="#344154"/><rect width="61.162" height="151.885" transform="translate(5.064 3.182)" fill="#aed3f2"/><path d="M207.634,5877.134l31.345-11.569V5803.6H207.22Z" transform="translate(-202.157 -5800.421)" fill="#cee5f7"/><rect width="3.476" height="21.751" transform="translate(58.85 76.712)" fill="#344154"/><rect width="34.244" height="16.301" transform="translate(18.95 42.62)" fill="#d9a171"/><path d="M268.038,5866.079a2.221,2.221,0,0,1-.326-.212l-.9-.647-3.263-2.421-10.769-8.061-.473-.354h.169l-10.068,8.327-3.057,2.491-.832.664a2.726,2.726,0,0,1-.3.217,2.166,2.166,0,0,1,.266-.261c.207-.174.473-.408.8-.7l3-2.551,10.013-8.393.082-.065.087.065c.147.109.31.229.468.354,4.177,3.166,7.963,6.027,10.726,8.126l3.236,2.485.87.685A2.848,2.848,0,0,1,268.038,5866.079Z" transform="translate(-216.291 -5823.459)" fill="#344154"/><path d="M201.58,5966.115v-12.374c0-8.039.038-19.754.071-34.478.076-29.463.19-70.979.321-119.186v-.125h67.047v2.975c0,63.68-.027,121.459-.038,163.285v.065l-5.173,5.113h-.038l-59.117-.06h0l-2.306-3.938c-.506-.87-.745-1.294-.745-1.294s.261.418.772,1.284l2.322,3.916h0l59.117-.065-.065.027,5.118-5.124-.027.071c0-41.826,0-99.6-.038-163.285v-2.839l.131.131H202.1l.131-.125c-.174,48.19-.321,89.69-.424,119.147-.06,14.734-.109,26.45-.141,34.489,0,4.014-.038,7.114-.049,9.208v2.382C201.591,5965.844,201.58,5966.115,201.58,5966.115Z" transform="translate(-199.584 -5798.757)" fill="#455a64"/><g transform="translate(21.222 46.765)"><path d="M242.093,5888.525a2.245,2.245,0,0,1-.755,1.61,2.653,2.653,0,0,1-1.8.587,2.383,2.383,0,0,1-1.917-.82,3.362,3.362,0,0,1-.7-2.251v-.388a3.8,3.8,0,0,1,.322-1.61,2.41,2.41,0,0,1,.92-1.068,2.876,2.876,0,0,1,3.157.216,2.41,2.41,0,0,1,.775,1.649H240.8a1.324,1.324,0,0,0-.342-.89,1.265,1.265,0,0,0-.894-.276,1.11,1.11,0,0,0-.977.468,2.629,2.629,0,0,0-.333,1.452v.479a2.806,2.806,0,0,0,.311,1.5,1.088,1.088,0,0,0,.981.475,1.286,1.286,0,0,0,.9-.276,1.25,1.25,0,0,0,.342-.855Z" transform="translate(-236.928 -5883.952)" fill="#fff"/><path d="M249.874,5892.088a2.313,2.313,0,0,1-1.687-.635,2.259,2.259,0,0,1-.65-1.693v-.122a2.845,2.845,0,0,1,.274-1.269,2.008,2.008,0,0,1,.777-.862,2.185,2.185,0,0,1,1.147-.3,1.955,1.955,0,0,1,1.521.609,2.477,2.477,0,0,1,.555,1.728v.514h-3a1.168,1.168,0,0,0,.368.74,1.11,1.11,0,0,0,.777.278,1.357,1.357,0,0,0,1.136-.526l.618.692a1.888,1.888,0,0,1-.766.625A2.512,2.512,0,0,1,249.874,5892.088Zm-.144-3.869a.786.786,0,0,0-.608.254,1.315,1.315,0,0,0-.3.725h1.75v-.1a.938.938,0,0,0-.226-.649A.812.812,0,0,0,249.731,5888.219Z" transform="translate(-241.767 -5885.316)" fill="#fff"/><path d="M259.352,5888.472a3.469,3.469,0,0,0-.453-.035.923.923,0,0,0-.936.483V5892h-1.258v-4.709h1.188l.035.562a1.167,1.167,0,0,1,1.049-.648,1.337,1.337,0,0,1,.392.057Z" transform="translate(-245.949 -5885.316)" fill="#fff"/><path d="M265.329,5888.472a3.47,3.47,0,0,0-.453-.035.922.922,0,0,0-.935.483V5892h-1.258v-4.709h1.188l.035.562a1.167,1.167,0,0,1,1.049-.648,1.337,1.337,0,0,1,.392.057Z" transform="translate(-248.675 -5885.316)" fill="#fff"/><path d="M270.991,5892a1.408,1.408,0,0,1-.126-.422,1.522,1.522,0,0,1-1.188.509,1.67,1.67,0,0,1-1.147-.4,1.286,1.286,0,0,1-.455-1.01,1.331,1.331,0,0,1,.555-1.148,2.729,2.729,0,0,1,1.6-.4h.579v-.27a.776.776,0,0,0-.168-.522.659.659,0,0,0-.529-.2.752.752,0,0,0-.5.152.518.518,0,0,0-.181.418H268.18a1.262,1.262,0,0,1,.252-.758,1.668,1.668,0,0,1,.714-.546,2.594,2.594,0,0,1,1.036-.2,2.056,2.056,0,0,1,1.382.438,1.532,1.532,0,0,1,.511,1.229v2.041a2.246,2.246,0,0,0,.187,1.014V5892Zm-1.04-.875a1.08,1.08,0,0,0,.513-.124.811.811,0,0,0,.348-.333v-.81h-.47q-.944,0-1.005.653l0,.074a.5.5,0,0,0,.165.387A.642.642,0,0,0,269.951,5891.126Z" transform="translate(-251.135 -5885.316)" fill="#fff"/><path d="M276.845,5888.028a2.837,2.837,0,0,1,.494-1.754,1.6,1.6,0,0,1,1.351-.653,1.445,1.445,0,0,1,1.136.514v-2.4h1.262v6.684h-1.136l-.061-.5a1.482,1.482,0,0,1-1.21.587,1.6,1.6,0,0,1-1.334-.655A2.929,2.929,0,0,1,276.845,5888.028Zm1.258.093a1.858,1.858,0,0,0,.231,1.016.751.751,0,0,0,.67.353.842.842,0,0,0,.823-.492v-1.861a.831.831,0,0,0-.814-.493Q278.1,5886.644,278.1,5888.122Z" transform="translate(-255.134 -5883.733)" fill="#fff"/><path d="M286.078,5889.6a2.794,2.794,0,0,1,.27-1.25,1.978,1.978,0,0,1,.777-.848,2.272,2.272,0,0,1,1.178-.3,2.146,2.146,0,0,1,1.556.583,2.34,2.34,0,0,1,.672,1.584l.009.322a2.46,2.46,0,0,1-.6,1.738,2.344,2.344,0,0,1-3.249,0,2.5,2.5,0,0,1-.607-1.775Zm1.258.089a1.76,1.76,0,0,0,.252,1.026.907.907,0,0,0,1.436,0,1.928,1.928,0,0,0,.257-1.122,1.748,1.748,0,0,0-.257-1.021.836.836,0,0,0-.722-.362.821.821,0,0,0-.714.36A1.958,1.958,0,0,0,287.336,5889.692Z" transform="translate(-259.345 -5885.316)" fill="#fff"/></g></g><g transform="translate(233.906 5805.297)"><path d="M346.3,5966.893a15.177,15.177,0,0,1-.511,2.785,15.416,15.416,0,0,1-.767,2.72,14.3,14.3,0,0,1,.511-2.79A15.369,15.369,0,0,1,346.3,5966.893Z" transform="translate(-336.644 -5917.693)" fill="#d9a171"/><path d="M347.6,5993.462H329.65l2.611-19.309H347.6Z" transform="translate(-329.634 -5921.004)" fill="#d9a171"/><path d="M347.607,5993.477H329.62l2.616-19.313h15.371Zm-17.949-.027h17.949v-19.281H332.258Z" transform="translate(-329.62 -5921.009)" fill="#455a64"/><path d="M342.984,5942.523l-3.432,7.343a6.142,6.142,0,0,0,1.838,7.5h0a6.139,6.139,0,0,0,5.439,1.006l4.792-1.4,1.327-4.9-7.071.408,2.654-5.9Z" transform="translate(-333.884 -5906.578)" fill="#ffbe9d"/><path d="M351.72,5960.726a1.413,1.413,0,0,1,.354-.087,1.37,1.37,0,0,1,.957.283,2.29,2.29,0,0,1,.669,1.316,7.568,7.568,0,0,1,.092,1.784,17.177,17.177,0,0,1-.511,3.166,5.306,5.306,0,0,1-.408,1.262c-.092,0,.479-1.975.653-4.443a8.045,8.045,0,0,0-.071-1.719,2.18,2.18,0,0,0-.544-1.224,1.344,1.344,0,0,0-.832-.321C351.867,5960.726,351.72,5960.726,351.72,5960.726Z" transform="translate(-339.7 -5914.838)" fill="#d9a171"/><path d="M410.336,5913.312a.484.484,0,0,0-.658.187l-.005.009-.2.37.185-1.143a.668.668,0,0,0-.332-.69.68.68,0,0,0-.887.212l-.261.392.3-1.088a.674.674,0,0,0-.218-.794.691.691,0,0,0-.957.12l-.963,1.18.838-3.377s.37-1.164-.256-1.186c-.354,0-2.274,4.721-2.274,4.721s-.038-.321-.8-1.191a.932.932,0,0,0-1.463-.109l1.414,2.1a4.751,4.751,0,0,1,.272,2.442l-1.632,13.793-2.056-3.807-5.548,5.058,3.688,7.337a5.466,5.466,0,0,0,6.527,2.757h0a5.438,5.438,0,0,0,3.807-4.993l.767-18.955.887-2.779A.473.473,0,0,0,410.336,5913.312Z" transform="translate(-359.367 -5890.605)" fill="#ffbe9d"/><path d="M381.754,6087.97l-3.073-33.6h10.742l-.158,33.423Z" transform="translate(-351.996 -5957.593)" fill="#ffbe9d"/><path d="M354.25,6029.983l3.1,47.1,7.19-.093.615-45.117Z" transform="translate(-340.854 -5946.469)" fill="#ffbe9d"/><path d="M392.1,6116.16l-.033-.767-7.745.223.065,2.523h.484c2.127.055,10.84.131,12.249-.31C398.69,6117.34,392.1,6116.16,392.1,6116.16Z" transform="translate(-354.569 -5985.424)" fill="#d9a171"/><g transform="translate(29.762 130.583)" opacity="0.6"><path d="M387.19,6118.507a2.448,2.448,0,0,0-1.028-1.5,2.758,2.758,0,0,0-1.822-.473l.06,2Z" transform="translate(-384.34 -6116.521)" fill="#fff"/></g><g transform="translate(29.817 131.411)" opacity="0.6"><path d="M395.378,6118.043s2.312.544,2.04.914-9.083.587-12.978.375v-.158l10.269-.19S394.926,6118.07,395.378,6118.043Z" transform="translate(-384.44 -6118.043)" fill="#fff"/></g><path d="M384.24,6119.834h1.915c1.186,0,2.823,0,4.629-.049s3.443-.12,4.629-.19l1.4-.092h0l-1.4.065c-1.18.054-2.817.119-4.623.163s-3.443.065-4.629.071H384.24Z" transform="translate(-354.532 -5987.298)" fill="#344154"/><path d="M403.34,6119.02a2.634,2.634,0,0,1,.239-.625,2.885,2.885,0,0,1,.462-.512,1.016,1.016,0,0,0-.544.468A.885.885,0,0,0,403.34,6119.02Z" transform="translate(-363.238 -5986.559)" fill="#344154"/><path d="M399.1,6117.6a1.365,1.365,0,0,0,.234-.283c.1-.168.18-.31.158-.326s-.131.114-.234.283S399.075,6117.59,399.1,6117.6Z" transform="translate(-361.306 -5986.152)" fill="#344154"/><path d="M397.982,6117.229a1.332,1.332,0,0,0,.267-.18c.131-.114.218-.217.2-.239s-.136.065-.267.179S397.939,6117.207,397.982,6117.229Z" transform="translate(-360.795 -5986.068)" fill="#344154"/><path d="M397.17,6116.3a.9.9,0,0,0,.408.038,1.068,1.068,0,0,0,.4-.049.9.9,0,0,0-.408-.038A1.1,1.1,0,0,0,397.17,6116.3Z" transform="translate(-360.429 -5985.813)" fill="#344154"/><path d="M396.9,6115.483a.813.813,0,0,0,.451.109.854.854,0,0,0,.462-.07,2.973,2.973,0,0,0-.457,0A2.8,2.8,0,0,0,396.9,6115.483Z" transform="translate(-360.306 -5985.465)" fill="#344154"/><path d="M399.55,6116.405a1.452,1.452,0,0,0,.495,0,2.883,2.883,0,0,0,.544-.125,1.486,1.486,0,0,0,.3-.12.245.245,0,0,0,.12-.146.178.178,0,0,0-.082-.185.952.952,0,0,0-1.115.277.81.81,0,0,0-.152.31v.125a1.344,1.344,0,0,1,.218-.4.867.867,0,0,1,.413-.267.827.827,0,0,1,.593,0c.082.054.049.142-.033.19a2.1,2.1,0,0,1-.277.119,3.3,3.3,0,0,1-.506.136C399.74,6116.384,399.55,6116.389,399.55,6116.405Z" transform="translate(-361.515 -5985.587)" fill="#344154"/><path d="M399.23,6116.249a.428.428,0,0,0,.044-.321.738.738,0,0,0-.141-.332.543.543,0,0,0-.424-.223.18.18,0,0,0-.143.21l0,.008a.454.454,0,0,0,.087.2,1.2,1.2,0,0,0,.245.271.7.7,0,0,0,.288.18,3.03,3.03,0,0,1-.245-.223,1.275,1.275,0,0,1-.212-.272c-.071-.092-.125-.266,0-.288a.435.435,0,0,1,.332.185.7.7,0,0,1,.147.293A1.8,1.8,0,0,1,399.23,6116.249Z" transform="translate(-361.064 -5985.415)" fill="#344154"/><path d="M384.42,6116.44a2.936,2.936,0,0,1,.544,0,2.526,2.526,0,0,1,1.256.441,2.32,2.32,0,0,1,.81,1c.125.3.147.511.163.506a.385.385,0,0,0,0-.141,1.619,1.619,0,0,0-.1-.387,2.219,2.219,0,0,0-.81-1.049,2.5,2.5,0,0,0-1.311-.435,2.2,2.2,0,0,0-.424,0A1.062,1.062,0,0,0,384.42,6116.44Z" transform="translate(-354.614 -5985.867)" fill="#344154"/><path d="M391.33,6118.78a4.89,4.89,0,0,0,1.126.071c.625,0,1.131.027,1.126,0a4.336,4.336,0,0,0-1.126-.092C391.836,6118.78,391.33,6118.78,391.33,6118.78Z" transform="translate(-357.766 -5986.956)" fill="#344154"/><path d="M388.55,6118.909s.044.1.1.2.087.2.114.2.033-.114-.033-.239S388.566,6118.888,388.55,6118.909Z" transform="translate(-356.498 -5987.025)" fill="#344154"/><path d="M387.46,6117.721a.5.5,0,0,0,.12.163c.082.07.163.119.18.1s-.033-.092-.114-.163S387.482,6117.7,387.46,6117.721Z" transform="translate(-356.001 -5986.484)" fill="#344154"/><path d="M385.986,6117.178a.578.578,0,0,1,.223.054c.114.054.2.087.218.071s-.049-.114-.19-.152S385.953,6117.156,385.986,6117.178Z" transform="translate(-355.326 -5986.218)" fill="#344154"/><path d="M384.87,6116.96c0,.027.038.06.1.081a.233.233,0,0,0,.131,0,.166.166,0,0,0-.1-.081C384.941,6116.938,384.881,6116.938,384.87,6116.96Z" transform="translate(-354.819 -5986.131)" fill="#344154"/><path d="M367.352,6116.28l-.027-.767-7.745.223.065,2.523h.479c2.132.055,10.84.125,12.254-.31C373.944,6117.477,367.352,6116.28,367.352,6116.28Z" transform="translate(-343.285 -5985.479)" fill="#d9a171"/><g transform="translate(16.306 130.664)" opacity="0.6"><path d="M362.45,6118.657a2.48,2.48,0,0,0-1.033-1.5,2.752,2.752,0,0,0-1.817-.474l.06,2Z" transform="translate(-359.6 -6116.671)" fill="#fff"/></g><g transform="translate(16.361 131.492)" opacity="0.6"><path d="M370.632,6118.193s2.317.544,2.04.914-9.078.588-12.972.375v-.163l10.269-.185S370.192,6118.22,370.632,6118.193Z" transform="translate(-359.7 -6118.193)" fill="#fff"/></g><path d="M359.472,6119.958a.7.7,0,0,0,.136,0h1.784c1.186,0,2.823,0,4.629-.049s3.443-.119,4.629-.19l1.4-.092.381-.027h.13a.39.39,0,0,0-.13,0h-.381l-1.425.109c-1.186.054-2.817.12-4.623.163s-3.443.065-4.629.071h-1.92Z" transform="translate(-343.225 -5987.339)" fill="#344154"/><path d="M378.592,6119.17a3.164,3.164,0,0,1,.245-.625,2.886,2.886,0,0,1,.462-.512,1.014,1.014,0,0,0-.544.468A.933.933,0,0,0,378.592,6119.17Z" transform="translate(-351.952 -5986.628)" fill="#344154"/><path d="M374.357,6117.751a1.6,1.6,0,0,0,.234-.283c.109-.168.179-.31.158-.327s-.131.114-.239.283S374.335,6117.74,374.357,6117.751Z" transform="translate(-350.022 -5986.22)" fill="#344154"/><path d="M373.2,6117.379a1.333,1.333,0,0,0,.267-.18c.131-.114.218-.218.2-.239s-.136.065-.266.18S373.176,6117.357,373.2,6117.379Z" transform="translate(-349.494 -5986.137)" fill="#344154"/><path d="M372.43,6116.455a.961.961,0,0,0,.4.038,1.1,1.1,0,0,0,.4-.049.859.859,0,0,0-.4-.038A1.092,1.092,0,0,0,372.43,6116.455Z" transform="translate(-349.146 -5985.882)" fill="#344154"/><path d="M372.16,6115.633a.817.817,0,0,0,.451.109.85.85,0,0,0,.462-.071,3.1,3.1,0,0,0-.457,0A2.858,2.858,0,0,0,372.16,6115.633Z" transform="translate(-349.022 -5985.533)" fill="#344154"/><path d="M374.81,6116.555a1.452,1.452,0,0,0,.495,0,2.884,2.884,0,0,0,.544-.125,1.456,1.456,0,0,0,.3-.12.249.249,0,0,0,.12-.147.19.19,0,0,0-.082-.185.953.953,0,0,0-1.115.277.815.815,0,0,0-.152.311v.125a1.253,1.253,0,0,1,.212-.4.885.885,0,0,1,.419-.267.813.813,0,0,1,.587,0c.082.055.054.142-.033.19a1.977,1.977,0,0,1-.272.12c-.185.06-.359.1-.506.136C374.995,6116.533,374.81,6116.539,374.81,6116.555Z" transform="translate(-350.231 -5985.656)" fill="#344154"/><path d="M374.481,6116.4a.492.492,0,0,0,.049-.321.758.758,0,0,0-.147-.332.5.5,0,0,0-.419-.223.185.185,0,0,0-.147.216h0a.491.491,0,0,0,.092.2,1.367,1.367,0,0,0,.239.272.741.741,0,0,0,.294.18,3.19,3.19,0,0,1-.245-.224,1.493,1.493,0,0,1-.218-.271c-.071-.093-.12-.267,0-.294a.47.47,0,0,1,.332.19.706.706,0,0,1,.147.294A1.442,1.442,0,0,1,374.481,6116.4Z" transform="translate(-349.777 -5985.483)" fill="#344154"/><path d="M359.67,6116.59a3.153,3.153,0,0,1,.571,0,2.53,2.53,0,0,1,1.256.44,2.324,2.324,0,0,1,.81,1c.125.3.141.512.163.506a.389.389,0,0,0,0-.142,1.611,1.611,0,0,0-.1-.386,2.248,2.248,0,0,0-.81-1.05,2.514,2.514,0,0,0-1.311-.435,2.28,2.28,0,0,0-.424,0A.5.5,0,0,0,359.67,6116.59Z" transform="translate(-343.326 -5985.936)" fill="#344154"/><path d="M366.58,6118.969a4.992,4.992,0,0,0,1.131.071c.625,0,1.126.027,1.126,0a4.075,4.075,0,0,0-1.126-.093C367.086,6118.964,366.585,6118.942,366.58,6118.969Z" transform="translate(-346.477 -5987.042)" fill="#344154"/><path d="M363.81,6119.06s.044.1.1.2.082.2.109.2.038-.114-.027-.239S363.821,6119.037,363.81,6119.06Z" transform="translate(-345.214 -5987.094)" fill="#344154"/><path d="M362.72,6117.864a.432.432,0,0,0,.114.163c.082.071.163.12.185.1s-.038-.093-.12-.163S362.736,6117.826,362.72,6117.864Z" transform="translate(-344.717 -5986.546)" fill="#344154"/><path d="M361.209,6117.328a.578.578,0,0,1,.223.054c.114.055.2.087.218.071s-.049-.114-.19-.152S361.2,6117.306,361.209,6117.328Z" transform="translate(-344.028 -5986.287)" fill="#344154"/><path d="M360.13,6117.109c0,.027.038.06.1.082a.233.233,0,0,0,.131,0,.19.19,0,0,0-.1-.082C360.206,6117.088,360.141,6117.088,360.13,6117.109Z" transform="translate(-343.536 -5986.199)" fill="#344154"/><path d="M358.454,5898.2a3.611,3.611,0,0,0-4.221,2.676c-.228,1.131.076,2.437-.625,3.355-.794,1.039-2.4.958-3.47,1.714-1.447,1.028-1.436,3.154-1.115,4.895a13.263,13.263,0,0,0,2.5,6.092,6.429,6.429,0,0,0,5.847,2.48,5.714,5.714,0,0,0,3.731-2.6c1.632-2.584,1.278-5.934.642-8.926s-1.49-6.119-.642-9.062" transform="translate(-338.39 -5886.332)" fill="#344154"/><path d="M372.854,5905.171h0a4.074,4.074,0,0,0,4.375-3.749c0-.052.007-.1.009-.156.087-2.22.158-4.466.158-4.466a4,4,0,0,0,3.606-3.639c.245-3.329.136-11.009.136-11.009h0a11.592,11.592,0,0,0-11.721.756l-.517.348.19,17.895A4.074,4.074,0,0,0,372.854,5905.171Z" transform="translate(-347.535 -5878.478)" fill="#ffbe9d"/><path d="M373.853,5886.823a1.632,1.632,0,0,0-2.589.783c-.315,1.147.506,2.6,1.686,2.458a3.55,3.55,0,0,1-.691,3.916,5.875,5.875,0,0,1-3.78,1.692,4.374,4.374,0,0,1-4.052-1.409c-.87-1.224-.658-2.8-1.12-4.183-.544-1.577-1.9-2.845-2.094-4.5s.963-3.263,2.072-4.618a7.227,7.227,0,0,1,3.552-2.768c.81-.19,1.664-.1,2.486-.239,1.436-.234,2.687-1.121,4.106-1.42a5.3,5.3,0,0,1,5.542,2.464,3.42,3.42,0,0,1,.457,2.54,2.044,2.044,0,0,1-1.893,1.561,7.989,7.989,0,0,1-1.365-.31,1.231,1.231,0,0,0-1.267.359c-.261.392-.109.914-.082,1.387a2.619,2.619,0,0,1-.968,2.279" transform="translate(-344.02 -5876.436)" fill="#344154"/><path d="M368.267,5901.714c-.038,0,.158-.272.283-.734a2.331,2.331,0,0,0-.223-1.784,2.379,2.379,0,0,0-1.469-1.034c-.473-.1-.778-.043-.789-.092a1.268,1.268,0,0,1,.821-.093,2.266,2.266,0,0,1,1.838,3.057C368.545,5901.524,368.284,5901.736,368.267,5901.714Z" transform="translate(-346.245 -5886.247)" fill="#d9a171"/><path d="M348.715,5913.677a.758.758,0,0,1-.207.076,2.011,2.011,0,0,1-.62.065,2.846,2.846,0,0,1-2.029-1.006,3.476,3.476,0,0,1-.571-3.264,5.31,5.31,0,0,1,2.747-3.051c.664-.349,1.349-.544,1.958-.854a3.259,3.259,0,0,0,1.479-1.169,4.123,4.123,0,0,0,.506-1.632,13.7,13.7,0,0,1,.25-1.556,2.847,2.847,0,0,1,.587-1.18,1.969,1.969,0,0,1,.827-.543,1.348,1.348,0,0,1,.626-.06.47.47,0,0,1,.212.065,1.708,1.708,0,0,0-.8.093,1.913,1.913,0,0,0-.751.544,2.773,2.773,0,0,0-.517,1.126,13.838,13.838,0,0,0-.218,1.539,4.32,4.32,0,0,1-.517,1.757,3.541,3.541,0,0,1-1.572,1.278c-.631.3-1.316.544-1.947.848a5.1,5.1,0,0,0-2.633,2.888,3.3,3.3,0,0,0,.479,3.084,2.819,2.819,0,0,0,1.887,1.022A4.366,4.366,0,0,0,348.715,5913.677Z" transform="translate(-336.684 -5886.951)" fill="#344154"/><path d="M376.709,5987.157l-5.8-48.75-1.088-5.369,1.343,2.284,7.169-5.82a77.685,77.685,0,0,0-4.476-9.682,7.662,7.662,0,0,0-5.95-3.529,8.464,8.464,0,0,0-1.6-.332l-10.285-.087s-4.455.827-6.957,3.7c-1.365,1.578-3.546,7.071-6.228,12.271l7.653,4.058,1.925-3.394v.146c.1.849,2.371,4.9,2.371,5.755,0,0-10.149,7.07-8.7,56.229h0a10.659,10.659,0,0,0,.354,3.263,3.776,3.776,0,0,0,3.117,1.882c1.583.043,3.095-.919,4.667-.74,2,.229,3.5,2.225,5.515,2.284,2.486.076,4.351-2.822,6.81-2.719,1.909.076,3.563,1.942,5.439,1.545,1.55-.332,2.486-2.1,4.047-2.372a4.278,4.278,0,0,0,1.566-.277,1.993,1.993,0,0,0,.7-1.817,61.144,61.144,0,0,0-1.6-8.534Z" transform="translate(-335.65 -5894.423)" fill="#455a64"/><path d="M361.215,5949.363a9.736,9.736,0,0,1-.582-1.446c-.343-.9-.821-2.138-1.392-3.492s-1.131-2.557-1.545-3.421a10.428,10.428,0,0,1-.636-1.431,8.006,8.006,0,0,1,.8,1.344c.457.848,1.044,2.05,1.632,3.4s1.028,2.616,1.322,3.535A7.806,7.806,0,0,1,361.215,5949.363Z" transform="translate(-342.135 -5905.233)" fill="#344154"/><path d="M369.338,5958.681a12.217,12.217,0,0,1-2.584-.315,13.041,13.041,0,0,1-2.535-.582,12.923,12.923,0,0,1,2.584.321A12.69,12.69,0,0,1,369.338,5958.681Z" transform="translate(-345.401 -5913.538)" fill="#344154"/><path d="M369.64,5957.073a29.645,29.645,0,0,1-5.57-.076,14.2,14.2,0,0,1,2.785-.1A14.447,14.447,0,0,1,369.64,5957.073Z" transform="translate(-345.333 -5913.122)" fill="#344154"/><path d="M387.817,5933.813a3.431,3.431,0,0,1-.364-.62l-.914-1.751c-.761-1.479-1.8-3.519-2.921-5.8a10.162,10.162,0,0,1-1.088-3.437,4.526,4.526,0,0,1,.664-2.861,3.267,3.267,0,0,1,1.485-1.305,2.371,2.371,0,0,1,.544-.147h.19a3.384,3.384,0,0,0-.669.25,3.321,3.321,0,0,0-1.371,1.311,4.461,4.461,0,0,0-.577,2.72,10.34,10.34,0,0,0,1.088,3.345l2.85,5.831c.337.718.615,1.311.838,1.779A3.9,3.9,0,0,1,387.817,5933.813Z" transform="translate(-353.741 -5895.344)" fill="#344154"/><path d="M381.1,6056.044a2.135,2.135,0,0,0-.294-.2,1.834,1.834,0,0,0-.968-.239,3.5,3.5,0,0,0-1.517.446,11.467,11.467,0,0,0-1.692,1.306,4.044,4.044,0,0,1-2.382,1.115,5.836,5.836,0,0,1-2.872-.941,13.164,13.164,0,0,0-1.447-.7,3.268,3.268,0,0,0-1.594-.245,3.121,3.121,0,0,0-1.512.69c-.468.354-.9.772-1.4,1.143a2.866,2.866,0,0,1-3.454.239c-1.023-.582-1.838-1.354-2.79-1.768a3.589,3.589,0,0,0-2.828.054c-.87.327-1.632.772-2.382,1.088a4.459,4.459,0,0,1-2.138.4,2.686,2.686,0,0,1-1.507-.653,1.817,1.817,0,0,1-.544-.865.876.876,0,0,1-.049-.359.93.93,0,0,0,.1.337,1.9,1.9,0,0,0,.582.811,2.719,2.719,0,0,0,1.458.582,4.4,4.4,0,0,0,2.05-.424c.729-.3,1.479-.762,2.371-1.087a4.981,4.981,0,0,1,1.447-.348,3.334,3.334,0,0,1,1.561.277c1.006.43,1.833,1.213,2.817,1.757a2.605,2.605,0,0,0,3.171-.223c.479-.354.919-.772,1.4-1.137a3.436,3.436,0,0,1,1.632-.739,3.571,3.571,0,0,1,1.719.267,14.123,14.123,0,0,1,1.469.723,5.721,5.721,0,0,0,2.747.936,3.837,3.837,0,0,0,2.273-1.039,11.239,11.239,0,0,1,1.741-1.289,3.5,3.5,0,0,1,1.588-.419,1.776,1.776,0,0,1,1,.3A1.041,1.041,0,0,1,381.1,6056.044Z" transform="translate(-338.79 -5958.122)" fill="#344154"/></g><g transform="translate(164.781 5720.463)"><rect width="289.748" height="34.434" fill="#d9a171"/><path d="M258.821,5730.246l.544-.359,1.664-1.088,6.859-4.5h0l209.522-.093h.065l9.9,5.929.065.038v19.287l-.06.043h0l-7.615,4.846h-.038l-213.966-.071h-.033l-6.924-3.807h0v-15.023c0,3.427,0,8.475.027,14.99l-.027-.043,6.929,3.764h0l213.993-.054h-.071l7.615-4.846h0l-.06.114v-19.124l.065.114-9.9-5.929h.071l-209.522-.093h0l-6.875,4.46-1.675,1.088Z" transform="translate(-228.199 -5722.169)" fill="#fff"/><path d="M689.247,5754.184a3.422,3.422,0,0,0,.669-.1,3.214,3.214,0,0,0,2.328-2.176,5.119,5.119,0,0,0,.136-1.632v-4.1c0-3.046,0-6.658-.033-10.671v-7.936a3.084,3.084,0,0,0-5.782-1.556,3.23,3.23,0,0,0-.381,1.55v7.941c0,4.014,0,7.615-.027,10.671v4.1a5.149,5.149,0,0,0,.136,1.632,3.265,3.265,0,0,0,2.328,2.176c.435.092.674.076.674.1a2.412,2.412,0,0,1-.685-.049,3.2,3.2,0,0,1-1.7-.947,3.262,3.262,0,0,1-.734-1.224,5.272,5.272,0,0,1-.169-1.686v-4.1c0-3.041,0-6.658-.027-10.671v-7.941a3.345,3.345,0,1,1,6.684-.27c0,.09,0,.18,0,.27v7.936c0,4.014,0,7.615-.033,10.671v4.1a5.245,5.245,0,0,1-.169,1.687,3.253,3.253,0,0,1-.729,1.224,3.215,3.215,0,0,1-1.708.946A2.342,2.342,0,0,1,689.247,5754.184Z" transform="translate(-423.028 -5722.115)" fill="#fff"/><path d="M706.534,5754.223a3.444,3.444,0,0,0,.674-.1,3.262,3.262,0,0,0,2.328-2.175,5.121,5.121,0,0,0,.136-1.632v-4.1c0-3.046,0-6.657-.027-10.671v-7.936a3.079,3.079,0,0,0-5.776-1.556,3.166,3.166,0,0,0-.381,1.55v22.713a5.15,5.15,0,0,0,.141,1.632,3.144,3.144,0,0,0,.685,1.191,3.224,3.224,0,0,0,1.632.968c.435.092.669.076.669.1a2.411,2.411,0,0,1-.68-.049,3.226,3.226,0,0,1-1.708-.947,3.344,3.344,0,0,1-.734-1.224,5.269,5.269,0,0,1-.163-1.686v-22.714a3.34,3.34,0,0,1,6.272-1.675,3.453,3.453,0,0,1,.413,1.681V5750.3a5.12,5.12,0,0,1-.163,1.686,3.269,3.269,0,0,1-.734,1.224,3.2,3.2,0,0,1-1.7.947A2.418,2.418,0,0,1,706.534,5754.223Z" transform="translate(-430.939 -5722.155)" fill="#fff"/><path d="M723.759,5754.249a3.423,3.423,0,0,0,.669-.1,3.225,3.225,0,0,0,1.632-.968,3.135,3.135,0,0,0,.685-1.191,5.119,5.119,0,0,0,.136-1.632v-4.1c0-3.046,0-6.657-.027-10.671v-7.936a3.084,3.084,0,0,0-5.782-1.556,3.219,3.219,0,0,0-.375,1.55v22.713a5.149,5.149,0,0,0,.136,1.632,3.264,3.264,0,0,0,2.328,2.175c.435.092.674.077.674.1a2.43,2.43,0,0,1-.685-.049,3.2,3.2,0,0,1-1.7-.946,3.271,3.271,0,0,1-.734-1.224,5.121,5.121,0,0,1-.163-1.686v-22.713a3.449,3.449,0,0,1,.413-1.675,3.34,3.34,0,0,1,6.272,1.681v7.936c0,4.014,0,7.614-.027,10.671v4.1a5.274,5.274,0,0,1-.163,1.686,3.349,3.349,0,0,1-.734,1.224,3.226,3.226,0,0,1-1.708.946A2.378,2.378,0,0,1,723.759,5754.249Z" transform="translate(-438.792 -5722.181)" fill="#fff"/><path d="M211.17,5754.242a3.443,3.443,0,0,0,.674-.1,3.263,3.263,0,0,0,2.328-2.175,5.12,5.12,0,0,0,.136-1.632v-4.1c0-3.046,0-6.657-.027-10.671v-7.936a3.078,3.078,0,0,0-5.776-1.556,3.164,3.164,0,0,0-.381,1.55v22.714a5.151,5.151,0,0,0,.136,1.632,3.214,3.214,0,0,0,2.328,2.175c.435.092.669.076.669.1a2.375,2.375,0,0,1-.68-.049,3.223,3.223,0,0,1-1.708-.947,3.264,3.264,0,0,1-.729-1.224,5.123,5.123,0,0,1-.169-1.686v-4.1c0-3.04,0-6.657-.033-10.671v-7.941a3.345,3.345,0,0,1,6.277-1.675,3.442,3.442,0,0,1,.408,1.681v22.708a5.09,5.09,0,0,1-.163,1.686,3.244,3.244,0,0,1-.734,1.224,3.188,3.188,0,0,1-1.7.947A2.415,2.415,0,0,1,211.17,5754.242Z" transform="translate(-204.997 -5722.173)" fill="#fff"/><path d="M228.413,5754.255a3.372,3.372,0,0,0,.669-.1,3.22,3.22,0,0,0,1.632-.968A3.138,3.138,0,0,0,231.4,5752a5.115,5.115,0,0,0,.141-1.631v-22.708a3.078,3.078,0,0,0-6.157-.007v7.948c0,4.014,0,7.615-.027,10.672v4.1a5.15,5.15,0,0,0,.136,1.632,3.265,3.265,0,0,0,2.328,2.176c.435.092.674.076.674.1a2.412,2.412,0,0,1-.685-.049,3.2,3.2,0,0,1-1.7-.947,3.262,3.262,0,0,1-.734-1.224,5.122,5.122,0,0,1-.163-1.686v-22.713a3.451,3.451,0,0,1,.413-1.675,3.34,3.34,0,0,1,5.863,0,3.447,3.447,0,0,1,.413,1.681v7.936c0,4.014,0,7.615-.027,10.672v4.1a5.258,5.258,0,0,1-.163,1.686,3.329,3.329,0,0,1-.734,1.224,3.219,3.219,0,0,1-1.708.947A2.39,2.39,0,0,1,228.413,5754.255Z" transform="translate(-212.869 -5722.188)" fill="#fff"/><path d="M245.584,5754.243a3.443,3.443,0,0,0,.674-.1,3.213,3.213,0,0,0,2.328-2.175,5.121,5.121,0,0,0,.136-1.632v-4.1c0-3.046,0-6.657-.033-10.671v-7.936a3.084,3.084,0,1,0-6.162-.259c0,.086,0,.173,0,.259v7.94c0,4.015,0,7.615-.033,10.672v4.1a5.15,5.15,0,0,0,.136,1.632,3.214,3.214,0,0,0,2.328,2.176c.435.092.674.076.669.1a2.376,2.376,0,0,1-.68-.049,3.222,3.222,0,0,1-1.708-.946,3.342,3.342,0,0,1-.729-1.224,5.278,5.278,0,0,1-.169-1.687v-4.1c0-3.041,0-6.657-.033-10.672v-7.94a3.446,3.446,0,0,1,.408-1.675,3.345,3.345,0,0,1,5.869,0,3.44,3.44,0,0,1,.408,1.68v7.936c0,4.015,0,7.615-.027,10.672v4.1a5.249,5.249,0,0,1-.169,1.687,3.328,3.328,0,0,1-.729,1.224,3.218,3.218,0,0,1-1.708.946A2.406,2.406,0,0,1,245.584,5754.243Z" transform="translate(-220.674 -5722.174)" fill="#fff"/></g></g></svg>