<svg xmlns="http://www.w3.org/2000/svg" width="368.114" height="247.863" viewBox="0 0 368.114 247.863"><g transform="translate(-346.059 -3013.759)"><g transform="translate(371.192 3018.564)"><path d="M395.79,3362.9v25.111H391.6v2.727h4.191v16.813h78.386v-15.3H468.35v-3.326h5.809v-4.989h2.578v-2.273h-3.065V3362.9Z" transform="translate(-391.488 -3174.169)" fill="#f5f5f5"/><path d="M503.019,3362.97v44.3h20.815v-15.293h-5.809v-3.054l5.809.1v-5l2.627.006-.05-2.583-3.065-.072V3362.9Z" transform="translate(-441.146 -3174.17)" fill="#ebebeb"/><path d="M454.752,3412.245c0,.155-14.185.277-31.674.277s-31.679-.122-31.679-.277,14.179-.278,31.679-.278S454.752,3412.09,454.752,3412.245Z" transform="translate(-391.399 -3196.039)" fill="#e0e0e0"/><path d="M454.752,3407.645c0,.155-14.185.277-31.674.277s-31.679-.122-31.679-.277,14.179-.277,31.679-.277S454.752,3407.49,454.752,3407.645Z" transform="translate(-391.399 -3193.989)" fill="#e0e0e0"/><path d="M462.122,3395.255c0,.155-14.185.283-31.674.283s-31.679-.127-31.679-.283,14.179-.277,31.679-.277S462.122,3395.105,462.122,3395.255Z" transform="translate(-394.684 -3188.467)" fill="#e0e0e0"/><path d="M462.8,3429.011c0,.15-14.185.277-31.679.277s-31.674-.127-31.674-.277,14.179-.283,31.674-.283S462.8,3428.855,462.8,3429.011Z" transform="translate(-394.987 -3203.509)" fill="#e0e0e0"/><path d="M684.129,3044.576a23.258,23.258,0,0,1,5.671-2.467l1.17-5.615,9.484-.166,1.364,5.543a23.1,23.1,0,0,1,5.754,2.262l4.784-3.115,6.824,6.591-2.943,4.9a23.143,23.143,0,0,1,2.467,5.676l5.615,1.164.166,9.485-5.571,1.369a23.173,23.173,0,0,1-2.261,5.754l3.137,4.795-6.6,6.824-4.9-2.971a23.314,23.314,0,0,1-5.676,2.461l-1.164,5.615-9.484.166-1.369-5.571a23.159,23.159,0,0,1-5.754-2.262l-4.795,3.143-6.824-6.591,2.971-4.9a23.207,23.207,0,0,1-2.461-5.671l-5.615-1.169-.166-9.484,5.571-1.364a23.119,23.119,0,0,1,2.25-5.754l-3.143-4.795,6.591-6.824,4.9,2.971Zm5.055,12.633a10.273,10.273,0,1,0,.022-.022Z" transform="translate(-514.653 -3028.623)" fill="#ebebeb"/><path d="M784.543,3027.24a13.69,13.69,0,0,1,3.326-1.441l.682-3.276,5.543-.094.771,3.254a13.819,13.819,0,0,1,3.359,1.319l2.772-1.829,4.024,3.836-1.729,2.86a13.648,13.648,0,0,1,1.436,3.326l3.275.682.094,5.543-3.248.8a13.415,13.415,0,0,1-1.319,3.326l1.835,2.771-3.847,3.98-2.86-1.735A13.45,13.45,0,0,1,795.33,3052l-.682,3.271-5.543.1-.793-3.248a13.7,13.7,0,0,1-3.359-1.319l-2.771,1.829-3.986-3.841,1.735-2.861a13.435,13.435,0,0,1-1.436-3.326l-3.276-.682-.1-5.543,3.231-.72a13.479,13.479,0,0,1,1.325-3.326l-1.835-2.771,3.841-3.98,2.861,1.735Zm2.949,7.367a5.937,5.937,0,1,0,8.4-.144,5.937,5.937,0,0,0-8.4.144Z" transform="translate(-562.417 -3022.428)" fill="#ebebeb"/><path d="M931.412,3179.2a18.159,18.159,0,0,1,4.407-1.918l.9-4.357,7.367-.133,1.064,4.329a17.986,17.986,0,0,1,4.468,1.757l3.719-2.439,5.3,5.116-2.312,3.8a18.211,18.211,0,0,1,1.918,4.435l4.357.909.139,7.317-4.324,1.059a17.772,17.772,0,0,1-1.774,4.485l2.439,3.725-5.116,5.3-3.808-2.306a17.853,17.853,0,0,1-4.4,1.912l-.909,4.363-7.367.127-1.059-4.324a18.191,18.191,0,0,1-4.468-1.757l-3.725,2.439-5.3-5.116,2.306-3.808a17.886,17.886,0,0,1-1.912-4.407l-4.374-.9-.127-7.367,4.324-1.064a18.43,18.43,0,0,1,1.757-4.468l-2.439-3.719,5.116-5.3,3.808,2.312Zm3.924,9.812a7.9,7.9,0,1,0,11.181-.194,7.9,7.9,0,0,0-11.181.194Z" transform="translate(-626.465 -3089.441)" fill="#ebebeb"/></g><g transform="translate(346.059 3252.231)"><path d="M707.474,3444.112c0,.078-80.93.144-180.707.144s-180.707-.066-180.707-.144,80.93-.144,180.707-.144S707.474,3444.029,707.474,3444.112Z" transform="translate(-346.059 -3443.968)" fill="#5e6178"/></g><g transform="translate(377.201 3013.758)"><rect width="198.124" height="155.031" fill="#fff"/><rect width="198.867" height="12.893" transform="translate(0.039)" fill="#5e6178"/><rect width="11.064" height="142.138" transform="translate(0.039 12.893)" fill="#344154"/><rect width="198.867" height="8.542" transform="translate(0.039 12.893)" fill="#344154"/><path d="M409.408,3025.763a.267.267,0,0,1-.194-.078.276.276,0,0,1,0-.392h0l6.314-6.419a.272.272,0,0,1,.384,0l0,0a.278.278,0,0,1,0,.392h0l-6.308,6.414A.282.282,0,0,1,409.408,3025.763Z" transform="translate(-405.311 -3016.001)" fill="#fff"/><path d="M415.735,3025.766a.26.26,0,0,1-.194-.083l-6.419-6.319a.278.278,0,1,1,.388-.4l6.419,6.314a.277.277,0,0,1,0,.392h0A.26.26,0,0,1,415.735,3025.766Z" transform="translate(-405.27 -3016.044)" fill="#fff"/><path d="M602.382,3052.313c0,.078-43.664.144-97.516.144s-97.527-.066-97.527-.144,43.658-.145,97.527-.145S602.382,3052.24,602.382,3052.313Z" transform="translate(-404.513 -3030.877)" fill="#5e6178"/><path d="M422.154,3179.913c-.078,0-.144-31.358-.144-70.033s.066-70.032.144-70.032.144,31.347.144,70.032S422.232,3179.913,422.154,3179.913Z" transform="translate(-411.051 -3025.386)" fill="#5e6178"/><path d="M442.639,3046.677a40.526,40.526,0,0,1,0-6.829,40.517,40.517,0,0,1,0,6.829Z" transform="translate(-420.172 -3025.386)" fill="#5e6178"/><path d="M463.12,3046.677a40.517,40.517,0,0,1,0-6.829,40.517,40.517,0,0,1,0,6.829Z" transform="translate(-429.301 -3025.386)" fill="#5e6178"/><path d="M483.609,3046.677a40.517,40.517,0,0,1,0-6.829,40.517,40.517,0,0,1,0,6.829Z" transform="translate(-438.432 -3025.386)" fill="#5e6178"/><path d="M504.09,3046.677a40.526,40.526,0,0,1,0-6.829,40.526,40.526,0,0,1,0,6.829Z" transform="translate(-447.561 -3025.386)" fill="#5e6178"/><path d="M524.579,3046.677a40.526,40.526,0,0,1,0-6.829,40.526,40.526,0,0,1,0,6.829Z" transform="translate(-456.691 -3025.386)" fill="#5e6178"/><path d="M545.06,3046.677a40.509,40.509,0,0,1,0-6.829,40.509,40.509,0,0,1,0,6.829Z" transform="translate(-465.821 -3025.386)" fill="#5e6178"/><path d="M565.549,3046.677a40.509,40.509,0,0,1,0-6.829,40.509,40.509,0,0,1,0,6.829Z" transform="translate(-474.951 -3025.386)" fill="#5e6178"/><path d="M586.03,3046.677a40.526,40.526,0,0,1,0-6.829,40.526,40.526,0,0,1,0,6.829Z" transform="translate(-484.08 -3025.386)" fill="#5e6178"/><path d="M606.519,3046.677a40.509,40.509,0,0,1,0-6.829,40.526,40.526,0,0,1,0,6.829Z" transform="translate(-493.211 -3025.386)" fill="#5e6178"/><path d="M627,3046.677a40.509,40.509,0,0,1,0-6.829,40.526,40.526,0,0,1,0,6.829Z" transform="translate(-502.34 -3025.386)" fill="#5e6178"/><path d="M647.489,3046.677a40.526,40.526,0,0,1,0-6.829,40.509,40.509,0,0,1,0,6.829Z" transform="translate(-511.47 -3025.386)" fill="#5e6178"/><path d="M667.97,3046.677a40.526,40.526,0,0,1,0-6.829,40.526,40.526,0,0,1,0,6.829Z" transform="translate(-520.599 -3025.386)" fill="#5e6178"/><path d="M688.455,3046.677a39.027,39.027,0,0,1,0-6.829,40.526,40.526,0,0,1,0,6.829Z" transform="translate(-529.726 -3025.386)" fill="#5e6178"/><path d="M708.94,3046.677a40.543,40.543,0,0,1,0-6.829,40.509,40.509,0,0,1,0,6.829Z" transform="translate(-538.859 -3025.386)" fill="#5e6178"/><path d="M729.42,3046.677a40.509,40.509,0,0,1,0-6.829,39.027,39.027,0,0,1,0,6.829Z" transform="translate(-547.987 -3025.386)" fill="#5e6178"/><path d="M749.91,3046.677a40.526,40.526,0,0,1,0-6.829,40.509,40.509,0,0,1,0,6.829Z" transform="translate(-557.119 -3025.386)" fill="#5e6178"/><path d="M415.616,3069.728a59.508,59.508,0,0,1-8.276,0,59.508,59.508,0,0,1,8.276,0Z" transform="translate(-404.513 -3038.631)" fill="#5e6178"/><path d="M415.616,3088.608a59.408,59.408,0,0,1-8.276,0,59.609,59.609,0,0,1,8.276,0Z" transform="translate(-404.513 -3047.046)" fill="#5e6178"/><path d="M415.616,3107.488a59.508,59.508,0,0,1-8.276,0,59.508,59.508,0,0,1,8.276,0Z" transform="translate(-404.513 -3055.46)" fill="#5e6178"/><path d="M415.616,3126.367a59.508,59.508,0,0,1-8.276,0,59.508,59.508,0,0,1,8.276,0Z" transform="translate(-404.513 -3063.874)" fill="#5e6178"/><path d="M415.616,3145.238a59.508,59.508,0,0,1-8.276,0,59.508,59.508,0,0,1,8.276,0Z" transform="translate(-404.513 -3072.285)" fill="#5e6178"/><path d="M415.616,3164.168a59.408,59.408,0,0,1-8.276,0,59.408,59.408,0,0,1,8.276,0Z" transform="translate(-404.513 -3080.722)" fill="#5e6178"/><path d="M415.616,3183a59.508,59.508,0,0,1-8.276,0,59.408,59.408,0,0,1,8.276,0Z" transform="translate(-404.513 -3089.112)" fill="#5e6178"/><path d="M415.616,3201.877a59.508,59.508,0,0,1-8.276,0,59.408,59.408,0,0,1,8.276,0Z" transform="translate(-404.513 -3097.527)" fill="#5e6178"/><path d="M415.616,3220.749a59.609,59.609,0,0,1-8.276,0,59.408,59.408,0,0,1,8.276,0Z" transform="translate(-404.513 -3105.938)" fill="#5e6178"/><path d="M415.616,3239.628a59.508,59.508,0,0,1-8.276,0,59.508,59.508,0,0,1,8.276,0Z" transform="translate(-404.513 -3114.353)" fill="#5e6178"/><path d="M415.616,3258.507a59.408,59.408,0,0,1-8.276,0,59.408,59.408,0,0,1,8.276,0Z" transform="translate(-404.513 -3122.766)" fill="#5e6178"/><path d="M415.616,3277.395a57.188,57.188,0,0,1-8.276,0,73.729,73.729,0,0,1,8.276,0Z" transform="translate(-404.513 -3131.194)" fill="#5e6178"/><path d="M609.594,3273.312c0,.078-37.788.144-84.389.144s-84.395-.066-84.395-.144,37.777-.144,84.395-.144S609.594,3273.24,609.594,3273.312Z" transform="translate(-419.43 -3129.373)" fill="#5e6178"/><g transform="translate(10.937 22.153)"><g transform="translate(0.175 0.175)"><rect width="179.694" height="117.864" fill="#fafafa"/></g><path d="M601.84,3171.762c0-1.135-.054-45.978-.139-117.864l.139.139-179.679.035h-.014l.175-.175c0,41.916-.01,81.8-.014,117.863l-.161-.16,179.694.161-179.694.16h-.161v-.161c0-36.059-.009-75.947-.014-117.863v-.175h.19l179.679.036h.14v.14C601.894,3125.784,601.841,3170.628,601.84,3171.762Z" transform="translate(-421.971 -3053.723)" fill="#344154"/><g transform="translate(13.523 45.363)"><g transform="translate(41.466 19.899)"><path d="M521.275,3171.458l17.674.243a17.6,17.6,0,0,1-17.674,17.1h-.1Z" transform="translate(-521.171 -3171.458)" fill="#5e6178"/><g transform="translate(6.228 10.468)"><path d="M555.507,3203.805a1.8,1.8,0,0,1-.378.031l-1.08.028-3.949.045h-.05l-.032-.04-5.831-7.346-4.7-5.993.091.044-5.2-.049-1.454-.032a2.907,2.907,0,0,1-.514-.035,2.766,2.766,0,0,1,.514-.036l1.454-.031,5.2-.049h.056l.035.045,4.731,5.969,5.782,7.384-.082-.039,3.949.046,1.08.028A1.8,1.8,0,0,1,555.507,3203.805Z" transform="translate(-532.407 -3190.342)" fill="#344154"/></g><g transform="translate(24.231 25.833)"><path d="M576.322,3218.2c0,.075-2.56.135-5.718.135s-5.719-.061-5.719-.135,2.56-.135,5.719-.135S576.322,3218.123,576.322,3218.2Z" transform="translate(-564.885 -3218.062)" fill="#344154"/></g><g transform="translate(24.231 27.951)"><path d="M576.322,3222.018c0,.075-2.56.135-5.718.135s-5.719-.06-5.719-.135,2.56-.135,5.719-.135S576.322,3221.943,576.322,3222.018Z" transform="translate(-564.885 -3221.882)" fill="#344154"/></g></g><g transform="translate(21.098 0.045)"><path d="M502.1,3152.979l-.248,17.337a17.345,17.345,0,1,1,17.924-17.337Z" transform="translate(-484.427 -3135.64)" fill="#d9a171"/></g><g transform="translate(15.913 0.898)"><path d="M491.033,3147.995a1.147,1.147,0,0,1-.307.072l-.879.141-3.175.446-.052.007-.039-.038-4.235-4.121c-2.034-2-3.865-3.812-5.181-5.137l-1.548-1.579a4.749,4.749,0,0,1-.542-.605,4.639,4.639,0,0,1,.616.53l1.609,1.518c1.35,1.29,3.2,3.085,5.237,5.082l4.2,4.155-.091-.031,3.187-.351.887-.081A1.15,1.15,0,0,1,491.033,3147.995Z" transform="translate(-475.074 -3137.179)" fill="#344154"/></g><path d="M457.8,3135.694c0,.075-2.56.135-5.718.135s-5.719-.06-5.719-.135,2.56-.135,5.719-.135S457.8,3135.62,457.8,3135.694Z" transform="translate(-446.366 -3135.559)" fill="#344154"/><g transform="translate(0 2.117)"><path d="M457.8,3139.514c0,.075-2.56.136-5.718.136s-5.719-.061-5.719-.136,2.56-.135,5.719-.135S457.8,3139.439,457.8,3139.514Z" transform="translate(-446.366 -3139.379)" fill="#344154"/></g></g><g transform="translate(100.806 17.719)"><path d="M617.153,3096.462l-.07-10.774a13.751,13.751,0,0,0-8.888,3.465,12.743,12.743,0,0,0-4.283,11.159,15.211,15.211,0,0,0,.251,1.565c0,.013,0,.025.007.038h0l12.982-2.921Z" transform="translate(-603.827 -3085.688)" fill="#d9a171"/><g opacity="0.3"><path d="M617.153,3096.462l-.07-10.774a13.751,13.751,0,0,0-8.888,3.465,12.743,12.743,0,0,0-4.283,11.159,15.211,15.211,0,0,0,.251,1.565c0,.013,0,.025.007.038h0l12.982-2.921Z" transform="translate(-603.827 -3085.688)" fill="#fff"/></g><g transform="translate(14.703 0.042)"><path d="M642.354,3093.179a12.781,12.781,0,0,0-10.478-7.335c-.136-.013-.273-.026-.411-.036-.088-.006-.174-.015-.262-.02q-.386-.021-.782-.022h-.07v0h0l.07,10.774.017,2.532,12.986,2.833.016,0h0a12.837,12.837,0,0,0,.288-2.793A13.978,13.978,0,0,0,642.354,3093.179Z" transform="translate(-630.351 -3085.763)" fill="#d9a171"/></g><g transform="translate(14.703 0.042)" opacity="0.3"><path d="M642.354,3093.179a12.781,12.781,0,0,0-10.478-7.335c-.136-.013-.273-.026-.411-.036-.088-.006-.174-.015-.262-.02q-.386-.021-.782-.022h-.07v0h0l.07,10.774.017,2.532,12.986,2.833.016,0h0a12.837,12.837,0,0,0,.288-2.793A13.978,13.978,0,0,0,642.354,3093.179Z" transform="translate(-630.351 -3085.763)" fill="#d9a171"/></g><g transform="translate(1.039 14.651)"><path d="M618.684,3112.119,605.7,3115.04a13.307,13.307,0,0,0,25.985-.087L618.7,3112.12" transform="translate(-605.702 -3112.119)" fill="#d9a171"/></g><g transform="translate(34.574 12.536)"><path d="M696.181,3108.479c0,.1-6.712.175-14.99.175s-14.992-.078-14.992-.175,6.711-.175,14.992-.175S696.181,3108.383,696.181,3108.479Z" transform="translate(-666.199 -3108.304)" fill="#344154"/></g><g transform="translate(34.574 9.119)"><path d="M696.181,3102.314c0,.1-6.712.175-14.99.175s-14.992-.079-14.992-.175,6.711-.175,14.992-.175S696.181,3102.217,696.181,3102.314Z" transform="translate(-666.199 -3102.139)" fill="#344154"/></g><g transform="translate(34.574 5.702)"><path d="M696.181,3096.149c0,.1-6.712.175-14.99.175s-14.992-.078-14.992-.175,6.711-.175,14.992-.175S696.181,3096.052,696.181,3096.149Z" transform="translate(-666.199 -3095.974)" fill="#344154"/></g><g transform="translate(34.574 15.716)"><path d="M696.181,3114.215c0,.1-6.712.174-14.99.174s-14.992-.078-14.992-.174,6.711-.175,14.992-.175S696.181,3114.118,696.181,3114.215Z" transform="translate(-666.199 -3114.04)" fill="#344154"/></g><g transform="translate(34.68 19.177)"><path d="M686.982,3120.458c0,.1-4.61.175-10.3.175s-10.3-.078-10.3-.175,4.609-.175,10.3-.175S686.982,3120.361,686.982,3120.458Z" transform="translate(-666.39 -3120.283)" fill="#344154"/></g></g><g transform="translate(102.476 61.808)"><g transform="translate(1.462)"><rect width="3.088" height="34.489" fill="#d9a171"/></g><g transform="translate(7.424 11.714)"><rect width="3.088" height="22.775" fill="#d9a171"/></g><g transform="translate(13.386 4.287)"><rect width="3.088" height="30.377" fill="#d9a171"/></g><g transform="translate(19.348 1.332)"><rect width="3.088" height="33.157" fill="#d9a171"/></g><g transform="translate(25.31 12.415)"><rect width="3.088" height="22.074" fill="#d9a171"/></g><g transform="translate(31.272 16.744)"><rect width="3.088" height="17.745" fill="#d9a171"/></g><g transform="translate(37.234 3.54)"><rect width="3.088" height="30.949" fill="#d9a171"/></g><g transform="translate(43.196 9.12)"><rect width="3.088" height="25.369" fill="#d9a171"/></g><g transform="translate(49.158 4.661)"><rect width="3.088" height="29.828" fill="#d9a171"/></g><g transform="translate(55.12 14.168)"><rect width="3.088" height="20.321" fill="#d9a171"/></g><g transform="translate(61.082 10.301)"><rect width="3.088" height="24.188" fill="#d9a171"/></g><g transform="translate(0 36.764)"><path d="M672.27,3231.675c0,.071-14.648.127-32.714.127s-32.717-.056-32.717-.127,14.646-.126,32.717-.126S672.27,3231.605,672.27,3231.675Z" transform="translate(-606.839 -3231.549)" fill="#344154"/></g><g transform="translate(1.284 39.479)"><path d="M613.739,3236.573a20.75,20.75,0,1,1-2.292-.127A10.474,10.474,0,0,1,613.739,3236.573Z" transform="translate(-609.155 -3236.446)" fill="#344154"/></g><g transform="translate(7.992 39.617)"><path d="M626.734,3236.822a29.608,29.608,0,1,1-2.739-.127A14.866,14.866,0,0,1,626.734,3236.822Z" transform="translate(-621.256 -3236.695)" fill="#344154"/></g><g transform="translate(14.475 39.617)"><path d="M638.431,3236.822a29.608,29.608,0,1,1-2.739-.127A14.862,14.862,0,0,1,638.431,3236.822Z" transform="translate(-632.953 -3236.695)" fill="#344154"/></g><g transform="translate(20.959 39.617)"><path d="M650.128,3236.822a29.607,29.607,0,1,1-2.739-.127A14.861,14.861,0,0,1,650.128,3236.822Z" transform="translate(-644.65 -3236.695)" fill="#344154"/></g><g transform="translate(27.443 39.617)"><path d="M661.825,3236.822a29.608,29.608,0,1,1-2.738-.127A14.858,14.858,0,0,1,661.825,3236.822Z" transform="translate(-656.347 -3236.695)" fill="#344154"/></g><g transform="translate(33.927 39.617)"><path d="M673.522,3236.822a29.608,29.608,0,1,1-2.738-.127A14.857,14.857,0,0,1,673.522,3236.822Z" transform="translate(-668.044 -3236.695)" fill="#344154"/></g><g transform="translate(40.411 39.617)"><path d="M685.22,3236.822a29.608,29.608,0,1,1-2.739-.127A14.867,14.867,0,0,1,685.22,3236.822Z" transform="translate(-679.742 -3236.695)" fill="#344154"/></g><g transform="translate(46.895 39.617)"><path d="M696.917,3236.822a29.607,29.607,0,1,1-2.739-.127A14.861,14.861,0,0,1,696.917,3236.822Z" transform="translate(-691.439 -3236.695)" fill="#344154"/></g><g transform="translate(53.379 39.617)"><path d="M708.614,3236.822a29.608,29.608,0,1,1-2.739-.127A14.861,14.861,0,0,1,708.614,3236.822Z" transform="translate(-703.136 -3236.695)" fill="#344154"/></g><g transform="translate(59.863 39.617)"><path d="M720.311,3236.822a29.607,29.607,0,1,1-2.738-.127A14.857,14.857,0,0,1,720.311,3236.822Z" transform="translate(-714.833 -3236.695)" fill="#344154"/></g><g transform="translate(7.424 11.714)" opacity="0.3"><rect width="3.088" height="22.775" fill="#fff"/></g><g transform="translate(19.348 1.332)" opacity="0.3"><rect width="3.088" height="33.157" fill="#fff"/></g><g transform="translate(31.272 16.744)" opacity="0.3"><rect width="3.088" height="17.745" fill="#fff"/></g><g transform="translate(43.196 9.12)" opacity="0.3"><rect width="3.088" height="25.369" fill="#fff"/></g><g transform="translate(55.12 14.168)" opacity="0.3"><rect width="3.088" height="20.321" fill="#fff"/></g></g><g transform="translate(16.062 19.356)"><path d="M456.893,3091.614a2.972,2.972,0,1,1-2.972-2.973A2.972,2.972,0,0,1,456.893,3091.614Z" transform="translate(-450.948 -3088.641)" fill="#d9a171"/></g><g transform="translate(28.343 19.809)"><path d="M517.872,3089.633c0,.1-10.023.176-22.383.176s-22.386-.079-22.386-.176,10.02-.175,22.386-.175S517.872,3089.537,517.872,3089.633Z" transform="translate(-473.103 -3089.458)" fill="#d9a171"/></g><g transform="translate(28.67 23.403)"><path d="M491.339,3096.118a2.717,2.717,0,0,1-.693.068c-.447.021-1.093.04-1.891.055-1.6.032-3.8.052-6.238.052s-4.643-.02-6.239-.052c-.8-.015-1.445-.034-1.891-.055a2.712,2.712,0,0,1-.693-.068,2.666,2.666,0,0,1,.693-.068c.446-.021,1.092-.04,1.891-.055,1.6-.032,3.8-.052,6.239-.052s4.641.019,6.238.052c.8.015,1.444.034,1.891.055A2.67,2.67,0,0,1,491.339,3096.118Z" transform="translate(-473.693 -3095.943)" fill="#d9a171"/></g></g><path d="M631.1,3225.848l5.765,13.076,2.012-5.754,4.933-1.807Z" transform="translate(-504.239 -3108.283)" fill="#5e6178"/><rect width="7.245" height="7.245" transform="translate(137.87 127.532)" fill="#fff"/><path d="M658.124,3250.912s0-.205-.028-.554,0-.876-.033-1.486c0-1.3-.039-3.087-.061-5.211l.122.122h-7.239c-.033,0,.272-.271.144-.144h0v7.234l-.122-.127,5.211.061,1.486.033a3.864,3.864,0,0,1,.554.033,4.263,4.263,0,0,1-.493,0l-1.458.033-5.288.061h-.128v-7.356h0l.144-.144H658.3v.127c0,2.156-.05,3.969-.067,5.288,0,.6,0,1.109-.033,1.458A2.573,2.573,0,0,1,658.124,3250.912Z" transform="translate(-513.014 -3116.136)" fill="#5e6178"/><path d="M657.374,3250.936a30.208,30.208,0,0,1,0-5.9A30.313,30.313,0,0,1,657.374,3250.936Z" transform="translate(-515.884 -3116.836)" fill="#5e6178"/><path d="M658.068,3250.242a30.17,30.17,0,0,1-5.9,0A30.323,30.323,0,0,1,658.068,3250.242Z" transform="translate(-513.629 -3119.091)" fill="#5e6178"/><rect width="7.96" height="133.596" transform="translate(190.946 21.435)" fill="#344154"/><path d="M750.69,3080.768h0a3.98,3.98,0,0,1,3.98,3.98v19.407a3.98,3.98,0,0,1-3.98,3.98h0a3.98,3.98,0,0,1-3.98-3.98v-19.407A3.98,3.98,0,0,1,750.69,3080.768Z" transform="translate(-555.764 -3043.623)" fill="#5e6178"/><path d="M482.623,3110.2v-2.04c0-1.331,0-3.26-.033-5.71,0-4.906-.039-11.9-.061-20.271l.122.122H454.636c-.039,0,.272-.272.139-.139h0v28.01l-.128-.127,20.277.066,5.7.033h.05l-5.676.033-20.355.061h-.122v-28.065h0c-.127.122.177-.183.15-.15h28.143v.15c-.028,8.409-.05,15.427-.067,20.349,0,2.439,0,4.357-.033,5.682v1.863A.516.516,0,0,1,482.623,3110.2Z" transform="translate(-425.528 -3044.183)" fill="#5e6178"/><path d="M460.39,3088h1.53l4.374-.033,15.715-.061h.122v21.74c.028-.033-.277.271-.15.144H460.29v-.127c0-6.491.05-11.9.066-15.709,0-1.874,0-3.326.033-4.379v-1.53a.929.929,0,0,1,0,.111v1.469c0,1.037,0,2.522.033,4.434,0,3.792.039,9.174.061,15.632l-.122-.127h21.613l-.139.144v-21.618l.128.127-15.632-.066-4.435-.033h-1.475A.421.421,0,0,1,460.39,3088Z" transform="translate(-428.112 -3046.806)" fill="#5e6178"/><path d="M454.63,3082.3a18.647,18.647,0,0,1,3.27,3.2,8.636,8.636,0,0,1-1.741-1.5A9.408,9.408,0,0,1,454.63,3082.3Z" transform="translate(-425.589 -3044.305)" fill="#5e6178"/><path d="M502.667,3082.478a8.519,8.519,0,0,1-1.38,1.713,8.867,8.867,0,0,1-1.6,1.525,8.324,8.324,0,0,1,1.38-1.719A8.47,8.47,0,0,1,502.667,3082.478Z" transform="translate(-445.672 -3044.385)" fill="#5e6178"/><path d="M502.626,3130.436a14.025,14.025,0,0,1-1.358-1.574,13.523,13.523,0,0,1-1.358-1.563,7.973,7.973,0,0,1,2.694,3.16Z" transform="translate(-445.77 -3064.361)" fill="#5e6178"/><path d="M457.585,3127.018a8.811,8.811,0,0,1-1.452,1.7,8.66,8.66,0,0,1-1.663,1.5,17.214,17.214,0,0,1,3.115-3.193Z" transform="translate(-425.518 -3064.236)" fill="#5e6178"/><path d="M468.882,3095.788a1.1,1.1,0,0,1,.216,0h.66l2.528-.033,9.113-.067h.122v12.638l-.15.144H468.76v-.127c.028-3.753.05-6.885.061-9.113,0-1.064.028-1.918.033-2.528v-.87a1.49,1.49,0,0,1,0,.244v.682c0,.615,0,1.475.028,2.556,0,2.217.039,5.311.067,9.03l-.128-.122h12.511c.133-.127-.172.177-.139.144v-12.511l.128.122-9.03-.061-2.561-.033h-.682Z" transform="translate(-431.887 -3050.273)" fill="#5e6178"/><path d="M601.654,3293.532c0,.078-44.39.144-99.134.144s-99.14-.067-99.14-.144,44.379-.144,99.14-.144S601.654,3293.449,601.654,3293.532Z" transform="translate(-402.748 -3138.385)" fill="#5e6178"/></g><g transform="translate(465.877 3065.143)"><path d="M683.879,3396.26h-6.746s-15.227-5.5-18.359-4.989c-2.816.477-13.143,7.334-15.166,8.692a1.271,1.271,0,0,0-.488.626h0a2.217,2.217,0,0,0,1.231,2.81l.216.089-.094.305a3.671,3.671,0,0,0-.155,1.236,1.491,1.491,0,0,0,2.772.643l-.388.687a1.7,1.7,0,0,0-.216.926l.033.631a1.7,1.7,0,0,0,1.164,1.514h0a1.662,1.662,0,0,0,1.774-.466c1.308-1.441,4.3-3.542,6.208-3.88,1.7-.283,4.379-1.109,6.1-1.109a2.128,2.128,0,0,1,1.968,1.353h0c-1.136.083-7,2.772-9.795,4.224a3.011,3.011,0,0,0-1.63,2.256c-.1.876.344,1.8,2.079,1.386,3.719-.865,8.359-2.483,8.359-2.483s3.453-.986,5.687.588c3.148,2.217,4.59,3.038,7.295,2.14a23.182,23.182,0,0,0,4.7-2.179l5.321-.555S690.763,3398.2,683.879,3396.26Z" transform="translate(-598.211 -3233.379)" fill="#ffbe9d"/><path d="M694.3,3413.358a1.986,1.986,0,0,1-.36.261,2.42,2.42,0,0,1-.466.277,4.223,4.223,0,0,1-.671.3,7.343,7.343,0,0,1-4.64.155,7.2,7.2,0,0,1-2.849-1.546l-.333-.3-.3-.338a6.288,6.288,0,0,1-.554-.748c-.338-.554-.588-1.109-.959-1.635a2.34,2.34,0,0,0-1.519-1.053,7.67,7.67,0,0,0-2.04,0,12.071,12.071,0,0,1-4.4-.432,12.676,12.676,0,0,1-3.78-1.807,12.869,12.869,0,0,1-1.541-1.281.965.965,0,0,1-.255-1.02.976.976,0,0,1,.809-.648h0l9.895-.416,2.838-.094h.754a.99.99,0,0,1,.261,0l-.261.033-.748.055-2.833.172-9.889.516h0a.7.7,0,0,0-.388,1.208,12.839,12.839,0,0,0,1.508,1.241,12.447,12.447,0,0,0,3.7,1.763,11.91,11.91,0,0,0,4.3.427,7.522,7.522,0,0,1,2.118,0,2.507,2.507,0,0,1,.976.416,3.116,3.116,0,0,1,.709.748c.382.554.632,1.147.953,1.663a6.341,6.341,0,0,0,.554.721l.288.333.316.288a7.013,7.013,0,0,0,2.772,1.535,7.362,7.362,0,0,0,4.54-.066A11.162,11.162,0,0,0,694.3,3413.358Z" transform="translate(-610.067 -3238.631)" fill="#eb996e"/><path d="M823.158,3110.3a6.026,6.026,0,0,0-6.486-2.561,8.255,8.255,0,0,0-10.111,1,7.34,7.34,0,0,0-10.532,6.863,6.125,6.125,0,0,0-4.534,10.726,5.887,5.887,0,0,0,3.381,11.219l27.716-20.288A6.03,6.03,0,0,0,823.158,3110.3Z" transform="translate(-662.774 -3106.457)" fill="#344154"/><path d="M799.107,3144.038a25,25,0,0,1,23.01-24.894l1.292-.1c13.975-.3,22.034,11.4,21.946,25.382l1.663,46.491-1.447,5.976-18.814,15.521-9.451-8.37-2.706-13.68s-13.542-1.015-14.773-14.374C799.24,3169.536,799.079,3156.155,799.107,3144.038Z" transform="translate(-667.791 -3112.064)" fill="#ffbe9d"/><path d="M826.869,3242.443a32.529,32.529,0,0,0,17.112-6.525s-3.326,9.95-16.79,9.811Z" transform="translate(-680.165 -3164.156)" fill="#eb996e"/><path d="M807.889,3184.406a1.912,1.912,0,0,0,1.99,1.78,1.829,1.829,0,0,0,1.836-1.823c0-.019,0-.038,0-.057a1.918,1.918,0,0,0-2-1.779,1.83,1.83,0,0,0-1.83,1.828C807.888,3184.373,807.889,3184.389,807.889,3184.406Z" transform="translate(-671.706 -3140.36)" fill="#5e6178"/><path d="M805.03,3174.917c.255.227,1.619-.959,3.67-1.109s3.647.754,3.847.482c.1-.122-.177-.554-.87-.976a5.254,5.254,0,0,0-3.1-.693,5.064,5.064,0,0,0-2.9,1.2C805.085,3174.346,804.908,3174.811,805.03,3174.917Z" transform="translate(-670.416 -3135.937)" fill="#5e6178"/><path d="M839.779,3183.456a1.913,1.913,0,0,0,2,1.779,1.829,1.829,0,0,0,1.835-1.823c0-.017,0-.033,0-.05a1.923,1.923,0,0,0-2-1.785,1.835,1.835,0,0,0-1.835,1.834C839.778,3183.426,839.779,3183.441,839.779,3183.456Z" transform="translate(-685.919 -3139.936)" fill="#5e6178"/><path d="M840.46,3171.566c.255.233,1.619-.953,3.675-1.109s3.642.748,3.847.482c.1-.122-.177-.554-.876-.981a5.243,5.243,0,0,0-3.1-.687,4.991,4.991,0,0,0-2.9,1.2C840.516,3171,840.338,3171.494,840.46,3171.566Z" transform="translate(-686.207 -3134.443)" fill="#5e6178"/><path d="M826.161,3188.052a13.6,13.6,0,0,0-3.381-.338c-.554,0-1.037-.078-1.153-.427a2.689,2.689,0,0,1,.227-1.585c.388-1.308.8-2.677,1.231-4.119,1.7-5.859,2.888-10.659,2.65-10.726s-1.807,4.629-3.5,10.488l-1.17,4.168a3.039,3.039,0,0,0-.105,2.079,1.3,1.3,0,0,0,.92.7,3.5,3.5,0,0,0,.9.055A12.863,12.863,0,0,0,826.161,3188.052Z" transform="translate(-677.461 -3135.159)" fill="#5e6178"/><path d="M836.674,3203.567c-.338,0-.161,2.217-1.946,3.975s-4.179,1.663-4.169,1.99c0,.144.554.394,1.569.338a5.541,5.541,0,0,0,3.492-1.535,4.865,4.865,0,0,0,1.486-3.326C837.117,3204.077,836.823,3203.545,836.674,3203.567Z" transform="translate(-681.81 -3149.737)" fill="#5e6178"/><path d="M839.576,3160.986c.288.51,2.018-.111,4.169-.244s3.98.166,4.163-.383c.072-.261-.321-.715-1.109-1.109a6.428,6.428,0,0,0-3.259-.554,6.172,6.172,0,0,0-3.088,1.059C839.748,3160.226,839.448,3160.736,839.576,3160.986Z" transform="translate(-685.816 -3129.727)" fill="#5e6178"/><path d="M805.025,3164.83c.36.471,1.779,0,3.487-.033s3.154.327,3.487-.167c.15-.233-.078-.7-.71-1.147a5.056,5.056,0,0,0-5.621.155C805.086,3164.143,804.886,3164.6,805.025,3164.83Z" transform="translate(-670.411 -3131.526)" fill="#5e6178"/><path d="M800.455,3136.529s2.86-8.653,6.74-10.931c4.7-2.772,7.234,2.445,11.785.771s9.041-4.318,14.091-1.109c5.543,3.525,3.326,6.486,4.1,12.395,3.221,23.952,8.16,30.4,8.5,18.974.039-1.253,3.4-2.517,3.5-7.8.117-6.857-.277-15.133-2.184-19.839-1.6-3.964-4.146-6.591-8.553-9.357-6.957-4.368-15.981-3.753-22.056-2.65S799.075,3126.091,800.455,3136.529Z" transform="translate(-668.342 -3110.791)" fill="#344154"/><path d="M880.536,3185.566a3.636,3.636,0,0,1,3.461-3.8c.06,0,.121,0,.181,0,2.511.039,5.4,1.23,5.643,6.4.438,9.168-8.869,7.716-8.869,7.455S880.685,3189.4,880.536,3185.566Z" transform="translate(-704.082 -3140.017)" fill="#ffbe9d"/><path d="M884.563,3194.43c.039-.028.166.105.443.216a1.561,1.561,0,0,0,1.192-.033c.953-.4,1.7-1.979,1.663-3.631a5.248,5.248,0,0,0-.554-2.262,1.84,1.84,0,0,0-1.258-1.169.809.809,0,0,0-.92.482c-.111.26-.045.443-.094.459s-.205-.144-.15-.554a1.066,1.066,0,0,1,.332-.593,1.22,1.22,0,0,1,.876-.272,2.217,2.217,0,0,1,1.735,1.342,5.427,5.427,0,0,1,.676,2.528c0,1.846-.837,3.619-2.14,4.068a1.726,1.726,0,0,1-1.474-.172C884.59,3194.652,884.529,3194.453,884.563,3194.43Z" transform="translate(-705.875 -3142.385)" fill="#eb996e"/><path d="M847.485,3136.29a8.641,8.641,0,0,1-3.731,2.1c-1.419.255-3.121-.437-3.476-1.835-.161-.626-.061-1.38-.521-1.834-.554-.554-1.452-.294-2.217-.15a5.859,5.859,0,0,1-6.391-3.7c-.593,1.07-2.178,1.153-3.259.555a13.727,13.727,0,0,1-2.7-2.467,3.783,3.783,0,0,0-3.265-1.32,9.152,9.152,0,0,1-1.951.6c-1.208,0-1.907-1.369-2.184-2.549s-.554-2.556-1.6-3.121-2.184-.083-3.276.172-2.544.105-2.91-.954a2.164,2.164,0,0,1,.277-1.69,5.938,5.938,0,0,1,6.807-2.8,8.049,8.049,0,0,1,14.623-2.733,8.171,8.171,0,0,1,13.254,1.929,5.92,5.92,0,0,1,7.339,8.06,5.618,5.618,0,0,1,3.442,4.213c.183,1.885-1.508,3.925-3.376,3.57a3.282,3.282,0,0,1-5.394,3.714" transform="translate(-672.622 -3108.435)" fill="#344154"/><path d="M876.995,3149.468a2.19,2.19,0,0,1-.427,1.8,2.973,2.973,0,0,1-1.746,1.242,3.165,3.165,0,0,1-2.666-.554l.382-.089a9.33,9.33,0,0,1-1.663,2.422,5.229,5.229,0,0,1-1.58,1.17,3.526,3.526,0,0,1-1.829.316,3.586,3.586,0,0,1-2.772-1.3,5.2,5.2,0,0,1-.892-1.84,1.858,1.858,0,0,1-.133-.732,2.594,2.594,0,0,1,.327.66,6.071,6.071,0,0,0,.981,1.663,3.759,3.759,0,0,0,5.5-.31,9.2,9.2,0,0,0,1.569-2.273l.139-.283.244.194a2.818,2.818,0,0,0,2.262.527,2.7,2.7,0,0,0,1.585-1.009A4.431,4.431,0,0,0,876.995,3149.468Z" transform="translate(-696.567 -3125.626)" fill="#344154"/><path d="M834.447,3112.2c0,.033-.233.083-.626.289a3.163,3.163,0,0,0-1.325,1.319l-.094.183-.139-.156a11.376,11.376,0,0,0-4.706-3.226,8.92,8.92,0,0,0-3.664-.5,7.483,7.483,0,0,0-3.781,1.414,7.619,7.619,0,0,0-2.134,2.373,6.208,6.208,0,0,0-.781,2.833v.294l-.283-.056a5.162,5.162,0,0,0-3.764.765,5.024,5.024,0,0,0-1.9,2.395,6.849,6.849,0,0,0-.355,2.771,1.873,1.873,0,0,1-.172-.742,5.14,5.14,0,0,1,.25-2.112,5.228,5.228,0,0,1,1.946-2.633,5.542,5.542,0,0,1,4.085-.9l-.288.238a6.608,6.608,0,0,1,.82-3.088,8,8,0,0,1,2.272-2.544,7.9,7.9,0,0,1,4.052-1.5,9.28,9.28,0,0,1,3.88.554,11.144,11.144,0,0,1,4.767,3.481h-.233a3.135,3.135,0,0,1,1.513-1.325A1.479,1.479,0,0,1,834.447,3112.2Z" transform="translate(-672.96 -3107.852)" fill="#344154"/><path d="M841.085,3304.365c-.5,0-1.558-42.932-1.558-42.932l-29.318-10.466-22.494,20.261-11.48-18.071L766.13,3257.8c-1.275.588-6.868,2.827-7.982,3.675-3.2,2.445-9.895,8.315-11.785,15.432-2.882,10.892-7.406,47.117-7.406,47.117l-27.538,9.717.6,17.738,26.951,4.218c6.5-.233,14.373-2.982,16.907-7.494v9.468h82.8S841.584,3304.365,841.085,3304.365Z" transform="translate(-628.711 -3170.863)" fill="#d9a171"/><path d="M792.475,3317.838a1.064,1.064,0,0,1,0,.177v2.533c-.033,1.741-.105,4.257-.244,7.373s-.333,6.818-.482,10.931-.205,8.636-.233,13.387c-.044,9.506,0,18.115,0,24.345v9.9a.629.629,0,0,1,0,.183.792.792,0,0,1,0-.177v-.526c0-.477-.028-1.148-.044-2,0-1.763-.05-4.279-.089-7.378-.055-6.23-.111-14.839-.067-24.345.028-4.75.089-9.28.255-13.4s.382-7.822.554-10.931.272-5.626.338-7.367c.033-.854.055-1.53.078-2.007a2.79,2.79,0,0,1,.028-.521A.754.754,0,0,1,792.475,3317.838Z" transform="translate(-664.313 -3200.666)" fill="#5e6178"/><g transform="translate(123.959 121.246)" opacity="0.3"><path d="M790.04,3325.188c-4.7,17.705-5.942,36.89-1.225,54.589C788.9,3360.071,788.793,3341.618,790.04,3325.188Z" transform="translate(-785.838 -3325.188)"/></g><g transform="translate(197.113 121.679)" opacity="0.3"><path d="M917.809,3327.376q2.578,16.579,5.128,33.143a2.218,2.218,0,0,0,.36,1.075c.554.7,1.63.515,2.483.271,2.073-.6,5.338-.826,6.458-2.677l.271-4.717c-.3-1.43-1.663-2.8-2.334-4.113q-6.037-12.194-12.062-24.39" transform="translate(-917.809 -3325.968)"/></g><path d="M931.354,3269.7s9.574,5.388,13.121,12.971c4.329,9.252,23.486,42.583,24.2,50.9s.422,17.821-13.764,20.654a159.421,159.421,0,0,1-29,2.644l-5.781-17.228,16.259-8.4-4.053-3.559a9.5,9.5,0,0,1-2.162-2.772l-12.234-23.559" transform="translate(-720.754 -3179.211)" fill="#d9a171"/><path d="M917.939,3301.383s.111.183.3.554l.865,1.63,3.287,6.269,5.166,9.895,1.563,2.993.815,1.563a14.33,14.33,0,0,0,.892,1.574,9.569,9.569,0,0,0,1.192,1.414c.449.432.948.843,1.43,1.275l3,2.633.122.105-.144.072-16.253,8.414.061-.15,5.8,17.223-.128-.094c4.7,0,9.612-.216,14.651-.659,2.522-.216,5.072-.5,7.644-.865s5.172-.771,7.76-1.38l1.275-.311c.421-.116.831-.277,1.242-.416s.831-.266,1.231-.438l1.175-.554c.2-.094.394-.177.588-.277l.554-.338c.366-.228.737-.444,1.109-.682a14.63,14.63,0,0,0,1.918-1.663,11.832,11.832,0,0,0,2.633-4.274,18.4,18.4,0,0,0,1.009-4.872,38.4,38.4,0,0,0,0-4.923,21.231,21.231,0,0,0-.249-2.406,21.749,21.749,0,0,0-.615-2.312c-.482-1.524-1.059-2.993-1.663-4.435s-1.231-2.854-1.857-4.246c-2.555-5.543-5.2-10.726-7.7-15.56s-4.883-9.3-7.04-13.381l-3.06-5.848c-.477-.926-.937-1.829-1.369-2.711-.211-.443-.421-.876-.632-1.308s-.427-.832-.637-1.236a24.97,24.97,0,0,0-2.971-4.141,37.79,37.79,0,0,0-3.049-3.021,46.025,46.025,0,0,0-4.712-3.625c-.554-.383-1-.66-1.3-.843l-.443-.283s.161.083.46.255.743.449,1.314.82a43.714,43.714,0,0,1,4.75,3.592,36.928,36.928,0,0,1,3.082,3.016,25.012,25.012,0,0,1,3,4.152c.216.4.443.82.654,1.247s.416.859.632,1.3c.438.881.9,1.779,1.375,2.7q1.463,2.773,3.076,5.831c2.173,4.086,4.562,8.548,7.079,13.376s5.161,9.978,7.722,15.554c.637,1.391,1.269,2.8,1.868,4.251s1.181,2.927,1.663,4.435a20.627,20.627,0,0,1,.626,2.35,21.187,21.187,0,0,1,.255,2.439,38.808,38.808,0,0,1,0,4.989,18.679,18.679,0,0,1-1.02,4.95,12.018,12.018,0,0,1-2.7,4.368,14.178,14.178,0,0,1-1.957,1.729c-.36.238-.737.46-1.109.693l-.554.344-.6.283-1.192.554c-.4.177-.832.294-1.247.444s-.831.3-1.253.421l-1.292.311c-2.594.615-5.194,1.02-7.76,1.386s-5.133.648-7.655.87c-5.05.438-9.978.66-14.684.649h-.1l-.028-.094c-2.034-6.059-3.974-11.862-5.776-17.234l-.033-.1.094-.05,16.269-8.387v.177l-3-2.639c-.482-.432-.976-.837-1.436-1.286a9.849,9.849,0,0,1-1.208-1.447,15.38,15.38,0,0,1-.9-1.6c-.272-.554-.554-1.053-.809-1.568q-.8-1.547-1.552-2.994c-1.99-3.88-3.714-7.206-5.122-9.922l-3.232-6.292c-.366-.721-.649-1.269-.837-1.663A3.325,3.325,0,0,0,917.939,3301.383Z" transform="translate(-720.754 -3179.233)" fill="#5e6178"/><path d="M925.038,3268.646a9.287,9.287,0,0,1-.886.554,23.666,23.666,0,0,0-2.328,1.663,21.809,21.809,0,0,0-8.066,16.436,24.01,24.01,0,0,0,.1,2.866c.061.676.111,1.047.089,1.053a1.127,1.127,0,0,1-.072-.266c-.028-.177-.089-.438-.128-.776a18.631,18.631,0,0,1-.188-2.883,21.187,21.187,0,0,1,8.137-16.58,19.967,19.967,0,0,1,2.395-1.613c.294-.177.554-.288.693-.366A.5.5,0,0,1,925.038,3268.646Z" transform="translate(-718.801 -3178.74)" fill="#5e6178"/><path d="M968.492,3368.148a3.143,3.143,0,0,1-.71.205l-1.946.488a54.989,54.989,0,0,0-6.292,2.029,46.817,46.817,0,0,0-5.953,2.86c-.737.421-1.325.771-1.729,1.025a3.689,3.689,0,0,1-.642.36,3.878,3.878,0,0,1,.581-.455c.389-.283.959-.66,1.663-1.109a39.43,39.43,0,0,1,5.981-2.949,44.7,44.7,0,0,1,6.347-1.962c.826-.188,1.5-.321,1.973-.4A4.052,4.052,0,0,1,968.492,3368.148Z" transform="translate(-735.587 -3223.088)" fill="#5e6178"/><g transform="translate(159.076 81.091)" opacity="0.3"><path d="M870.791,3252.77a5.241,5.241,0,0,0-2.334,1.158,113.054,113.054,0,0,0-18.337,16.9l-.931,1.724c2.068-1.364,4.435-2.772,6.851-2.29,2.073.438,3.575,2.173,4.922,3.808a172.82,172.82,0,0,0,13.559-19.74C873.424,3253.485,872.165,3252.592,870.791,3252.77Z" transform="translate(-849.189 -3252.747)"/></g><path d="M849.029,3267.169l8.27-10.46,12.439-14.85,6.608,6.2L864.761,3266l-8.226-4.95Z" transform="translate(-690.042 -3166.803)" fill="#fff"/><g transform="translate(143.965 84.989)" opacity="0.3"><path d="M822.029,3261.629c1.109,5.887,3.83,10.8,4.933,16.685,1.314-1.718,1-2.45,2.311-4.168a4.738,4.738,0,0,1,1.923-1.713c1.414-.554,2.971.272,4.257,1.059a48.068,48.068,0,0,0-6.613-6.059l-.1.477q-3.326-4.129-6.812-8.132" transform="translate(-821.929 -3259.778)"/></g><path d="M836.12,3271.488l-11.618-19.8h0l-4.152,3.825,3.93,17.716,5.576-7.178Z" transform="translate(-677.26 -3171.184)" fill="#fff"/><path d="M835.524,3266.186l-.211-.327-.588-.976-2.217-3.764-8.2-13.885h.155l-4.18,3.669.033-.111c1.2,5.366,2.539,11.38,3.991,17.876l-.238-.055,5.543-7.207.089-.116.111.095,6.269,5.438-.122-.033.676-.127-.072.033c2.012-1.791,4.24-3.559,6.408-5.444l.554-.487.078-.066.089.05c2.888,1.541,5.482,3.453,8.226,4.95l-.189.049,11.591-17.932v.167q-3.443-3.251-6.6-6.208h.172l-14.606,17.738-4.085,4.928-1.054,1.369c-.249.288-.383.432-.383.432s.117-.155.355-.455l1.048-1.313,4.03-4.989,14.534-17.821.083-.095.094.083,6.607,6.2.084.073-.061.088-11.569,17.949-.072.111-.116-.066c-2.772-1.508-5.36-3.42-8.227-4.944h.166l-.554.487c-2.178,1.9-4.435,3.659-6.408,5.444h-.072l-.671.127h-.066l-.055-.044-6.264-5.438h.205l-5.582,7.167-.172.228-.061-.283-3.963-17.9v-.067l.05-.044,4.2-3.653.094-.083.061.111,8.126,13.93,2.19,3.792.554.993C835.469,3266.063,835.524,3266.186,835.524,3266.186Z" transform="translate(-677.13 -3166.673)" fill="#5e6178"/><path d="M791.576,3278.3c.078,0,0,3.6-.116,8.049a79.2,79.2,0,0,1-.438,8.026c-.1,0-.028-3.6.116-8.049S791.487,3278.3,791.576,3278.3Z" transform="translate(-664.168 -3183.043)" fill="#5e6178"/><path d="M877.485,3398.772a5.842,5.842,0,0,0-2.023.738c-1.486,1-1.818,3.01-2.018,4.794-.061.554-.078,1.225.383,1.552a1.581,1.581,0,0,0,1.364,0,42.3,42.3,0,0,0,8.719-3.88c1.469-.859,2.982-1.94,3.481-3.564l.094-.7A41.684,41.684,0,0,0,877.485,3398.772Z" transform="translate(-700.909 -3236.263)" fill="#ffbe9d"/><path d="M900.909,3376.915l3.293,2.76.915-1.064-3.3-2.783Z" transform="translate(-713.164 -3226.511)" fill="#344154"/><path d="M897.431,3387.813c-.055.055-.455-.227-.9-.637s-.748-.787-.7-.843.455.227.9.632S897.481,3387.751,897.431,3387.813Z" transform="translate(-710.9 -3231.19)" fill="#344154"/><path d="M897.379,3397.7l-5.094,1.779s-4.673-1.175-6.652-1.63a5.1,5.1,0,0,0-3.941.693c-2.395,1.552-6.513,4.224-7.987,5.2s-5.238,4.1-5.238,4.1-2.733,3.132-1.841,4.928,3.365,1.541,3.365,1.541a3.73,3.73,0,0,0,2.96,2.772s-.621.976,1.713,1.6,7.76,0,7.76,0,9.978.41,10.926-.072,5.15-4.756,5.15-4.756l3.559-2.128Z" transform="translate(-697.804 -3236.258)" fill="#ffbe9d"/><path d="M878.566,3403.938a12.028,12.028,0,0,1-1.519,1.109c-.958.66-2.3,1.541-3.73,2.577a36.82,36.82,0,0,0-3.5,2.866c-.843.787-1.331,1.319-1.364,1.286s.089-.155.294-.41.521-.61.926-1.025a28.109,28.109,0,0,1,3.475-2.949c1.436-1.042,2.772-1.9,3.786-2.517A12.172,12.172,0,0,1,878.566,3403.938Z" transform="translate(-698.697 -3239.039)" fill="#eb996e"/><path d="M885.183,3412.3a2.517,2.517,0,0,1-.5.31l-1.4.8c-1.2.649-2.844,1.552-4.573,2.688a33.892,33.892,0,0,0-4.2,3.232c-1,.915-1.58,1.53-1.613,1.5a2.185,2.185,0,0,1,.36-.471c.244-.293.626-.7,1.109-1.181a28,28,0,0,1,4.174-3.326,45.066,45.066,0,0,1,4.64-2.627c.61-.3,1.109-.554,1.463-.687A2.015,2.015,0,0,1,885.183,3412.3Z" transform="translate(-700.681 -3242.765)" fill="#eb996e"/><path d="M892.742,3418.918a2.537,2.537,0,0,1-.46.449c-.31.266-.781.643-1.374,1.07-1.192.876-2.932,1.929-4.862,3.071a26.083,26.083,0,0,1-5.277,2.295c-.7.228-1.275.394-1.663.5a3.083,3.083,0,0,1-.626.138,2.722,2.722,0,0,1,.588-.249c.449-.155.992-.355,1.663-.588a30.072,30.072,0,0,0,5.194-2.35c1.935-1.142,3.681-2.162,4.895-2.988.6-.4,1.109-.754,1.419-.992A3.008,3.008,0,0,1,892.742,3418.918Z" transform="translate(-703.167 -3245.716)" fill="#eb996e"/><path d="M902.506,3426.946a4.3,4.3,0,0,1-.854.876,18.294,18.294,0,0,1-2.356,1.769,18.866,18.866,0,0,1-2.6,1.38,4.235,4.235,0,0,1-1.159.4c-.033-.083,1.663-.8,3.6-2.023S902.445,3426.879,902.506,3426.946Z" transform="translate(-710.77 -3249.292)" fill="#eb996e"/><path d="M898.456,3440.047H823.279a4.84,4.84,0,0,1,4.839-4.839h65.5a4.839,4.839,0,0,1,4.839,4.839Z" transform="translate(-678.566 -3252.976)" fill="#5e6178"/><path d="M691.239,3388.3l-34.767-.166-11.785-55.809a4.99,4.99,0,0,0-4.861-3.958H567.172a4.99,4.99,0,0,0-4.85,6.026l11.968,54.877a4,4,0,0,0,3.914,3.149h118.07C696.272,3389.609,694.055,3388.3,691.239,3388.3Z" transform="translate(-562.213 -3205.359)" fill="#e0e0e0"/><path d="M716.585,3392.431c-.078,0-3.354-14.307-7.317-32s-7.117-32.045-7.04-32.067,3.354,14.307,7.323,32S716.662,3392.414,716.585,3392.431Z" transform="translate(-624.615 -3205.359)" fill="#5e6178"/><path d="M643.741,3382.862c1.724,2.317,1.452,5.438-.6,6.962a4.963,4.963,0,0,1-6.84-1.43c-1.724-2.317-1.452-5.438.6-6.962A4.963,4.963,0,0,1,643.741,3382.862Z" transform="translate(-594.725 -3228.639)" fill="#fff"/><rect width="5.033" height="2.306" rx="1.153" transform="translate(107.857 183.69)" fill="#5e6178"/><path d="M812.293,3439.508a1.868,1.868,0,0,1,.15.161,1.482,1.482,0,0,1,.25.587,2.379,2.379,0,0,1-.915,2.217,3.288,3.288,0,0,1-1.663.626,9.068,9.068,0,0,1-2.112-.056,12.065,12.065,0,0,0-2.4-.138,3.725,3.725,0,0,0-1.247.288,1.846,1.846,0,0,0-.987.826,1.177,1.177,0,0,0,.272,1.242,2.936,2.936,0,0,0,1.2.831,11.932,11.932,0,0,1,1.469.632,1.99,1.99,0,0,1,1.014,1.353,2.727,2.727,0,0,1-1.835,2.822,10.667,10.667,0,0,1-3.67.46,60.878,60.878,0,0,1-7.877-.51c-2.716-.321-5.543-.721-8.4-.981a44.158,44.158,0,0,0-8.426,0c-2.716.25-5.338.627-7.86.671a13.311,13.311,0,0,1-3.681-.327,5.17,5.17,0,0,1-2.938-1.863,3.688,3.688,0,0,1-.682-3.148,2.252,2.252,0,0,1,2.356-1.663,1.28,1.28,0,0,1,1.075.92,1.617,1.617,0,0,1-.266,1.331,1.657,1.657,0,0,1-1.075.7,2.1,2.1,0,0,1-1.192-.161,2.83,2.83,0,0,1-1.458-1.524,5.279,5.279,0,0,1-.366-1.741c-.044-1.07.055-1.9.055-2.45v-.638a1.072,1.072,0,0,1,0-.216,1.572,1.572,0,0,1,.028.216c0,.144.028.355.033.638,0,.554-.055,1.386,0,2.439a5.121,5.121,0,0,0,.383,1.7,2.674,2.674,0,0,0,1.391,1.43,1.947,1.947,0,0,0,1.109.144,1.455,1.455,0,0,0,.953-.638,1.438,1.438,0,0,0,.238-1.169,1.109,1.109,0,0,0-.92-.771,2.04,2.04,0,0,0-2.117,1.519,3.486,3.486,0,0,0,.665,2.949,4.9,4.9,0,0,0,2.81,1.752,12.885,12.885,0,0,0,3.609.31c2.505-.05,5.116-.432,7.844-.687a44.281,44.281,0,0,1,8.476,0c2.893.261,5.7.666,8.409.987a61.608,61.608,0,0,0,7.844.526,10.351,10.351,0,0,0,3.575-.433,2.765,2.765,0,0,0,1.308-1.015,2.146,2.146,0,0,0,.383-1.524,1.732,1.732,0,0,0-.892-1.2,10.821,10.821,0,0,0-1.441-.626,3.2,3.2,0,0,1-1.274-.9,1.765,1.765,0,0,1-.361-.693,1.188,1.188,0,0,1,.072-.771,1.99,1.99,0,0,1,1.109-.92,4.182,4.182,0,0,1,1.314-.3,12.5,12.5,0,0,1,2.422.167,8.97,8.97,0,0,0,2.084.078,3.14,3.14,0,0,0,1.608-.554,2.328,2.328,0,0,0,.931-2.1A1.59,1.59,0,0,0,812.293,3439.508Z" transform="translate(-650.817 -3254.892)" fill="#5e6178"/><path d="M898.034,3439.437c0,.078-16.5.144-36.84.144s-36.845-.066-36.845-.144,16.469-.139,36.845-.139S898.034,3439.354,898.034,3439.437Z" transform="translate(-679.042 -3254.798)" fill="#344154"/></g><g transform="translate(653.432 3028.816)"><path d="M904.4,3096.828l9.661-1.48a29.6,29.6,0,1,0-7.666-7.323h0Z" transform="translate(-900.646 -3040.973)" fill="#6595bf"/><path d="M904.321,3096.779l.116-.554.365-1.663c.328-1.5.815-3.708,1.441-6.58a.061.061,0,0,1,.07-.05h0l-.088.083a29.955,29.955,0,0,1-3.243-5.648,30.2,30.2,0,0,1-2.412-12.4,33.4,33.4,0,0,1,.554-4.911,29.566,29.566,0,0,1,37.505-22.888,30.677,30.677,0,0,1,6.558,2.771l1.513.987.765.5c.25.172.477.372.715.554l1.436,1.164c.471.388.887.837,1.336,1.258a27.615,27.615,0,0,1,2.433,2.667l.294.338.261.366.51.737c.338.493.709.965,1.009,1.475s.582,1.031.876,1.546c.144.255.294.51.432.771l.355.809.715,1.6c.222.554.377,1.109.554,1.663a29.645,29.645,0,0,1-18.949,37.4q-1.147.375-2.32.656l-1.23.277-.61.133-.615.072c-.815.094-1.613.205-2.4.283a40.657,40.657,0,0,1-4.59-.044,29.48,29.48,0,0,1-13.741-4.79h.044l-7.206,1.059-1.84.271-.615.083.638-.111,1.851-.294,7.167-1.109h.039a29.761,29.761,0,0,0,5.836,2.966,29.318,29.318,0,0,0,7.855,1.752,38.814,38.814,0,0,0,4.557.033c.781-.083,1.58-.189,2.389-.289l.61-.072.6-.139,1.225-.277a29.378,29.378,0,0,0,21.726-35.414q-.283-1.181-.662-2.335c-.188-.554-.349-1.108-.554-1.663l-.71-1.591-.355-.8c-.133-.255-.283-.5-.427-.765q-.432-.753-.865-1.53c-.3-.5-.665-.97-1-1.458l-.51-.726-.255-.366-.294-.338a27.742,27.742,0,0,0-2.456-2.644c-.443-.416-.859-.859-1.325-1.247l-1.413-1.109c-.238-.183-.466-.382-.71-.554l-.759-.493-1.5-.976a30.578,30.578,0,0,0-6.485-2.771,29.108,29.108,0,0,0-25.238,4.13,29.519,29.519,0,0,0-8.1,8.564,29.2,29.2,0,0,0-3.88,9.978,32.869,32.869,0,0,0-.554,4.878,29.208,29.208,0,0,0,.244,4.567,29.583,29.583,0,0,0,5.383,13.365.066.066,0,0,1,0,.088.061.061,0,0,1-.072,0h0l.094-.033c-.654,2.85-1.159,5.039-1.5,6.53-.172.737-.3,1.3-.393,1.691A2.333,2.333,0,0,1,904.321,3096.779Z" transform="translate(-900.566 -3040.924)" fill="#5e6178"/><g transform="translate(13.631 7.899)"><path d="M925.157,3062.907a7.4,7.4,0,0,1,2.236-5.588,8.105,8.105,0,0,1,5.858-2.145,8.232,8.232,0,0,1,5.91,2.12,7.535,7.535,0,0,1,2.236,5.742v1.85a7.3,7.3,0,0,1-2.236,5.575,9.229,9.229,0,0,1-11.755-.013,7.478,7.478,0,0,1-2.248-5.717Zm4.933,1.979a3.462,3.462,0,0,0,.886,2.479,3.051,3.051,0,0,0,2.325.938,2.912,2.912,0,0,0,2.287-.95,3.681,3.681,0,0,0,.848-2.544v-1.9a3.606,3.606,0,0,0-.848-2.493,3.3,3.3,0,0,0-4.625-.013,3.679,3.679,0,0,0-.874,2.608Zm4.676,25.437-3.623-1.952,18.269-29.24,3.623,1.953Zm8.273-6.372a7.3,7.3,0,0,1,2.261-5.588,8.219,8.219,0,0,1,5.859-2.12,8.307,8.307,0,0,1,5.9,2.094,7.5,7.5,0,0,1,2.248,5.768v1.85a7.358,7.358,0,0,1-2.21,5.563,8.145,8.145,0,0,1-5.884,2.12,8.24,8.24,0,0,1-5.935-2.133,7.451,7.451,0,0,1-2.236-5.653Zm4.933,2a3.433,3.433,0,0,0,.925,2.415,3.016,3.016,0,0,0,2.312,1q3.135,0,3.135-3.468v-1.953a3.494,3.494,0,0,0-.874-2.479,3.319,3.319,0,0,0-4.625,0,3.6,3.6,0,0,0-.874,2.556Z" transform="translate(-925.157 -3055.173)" fill="#f2e9e4"/></g></g></g></svg>