<svg xmlns="http://www.w3.org/2000/svg" width="759.061" height="507.18" viewBox="0 0 759.061 507.18"><g transform="translate(-252.828 -1368.968)"><path d="M964.86,1640.852c16.67-123.48-66.91-238.3-189.13-262.52-17.48-3.46-36.82-6.38-58.13-8.49-123-12-216,103-301,136s-124,29-132,135,89,139,199,118,102-76,228-31,183,55,228-14C952.53,1694.012,961.09,1668.8,964.86,1640.852Z" fill="#aed3f2"/><line x2="10.9" y2="104.43" transform="translate(969.614 1659.36)" fill="none" stroke="#263238" stroke-miterlimit="10" stroke-width="1"/><line x1="4.94" y1="5.21" transform="translate(973.824 1738.59)" fill="none" stroke="#263238" stroke-miterlimit="10" stroke-width="1"/><path d="M975.364,1740.15a5.6,5.6,0,0,0-2-4.19c-1.27-1.13-7.94-3.94-8.58-1.59C964.094,1736.93,970.924,1741.95,975.364,1740.15Z" fill="#92e3a9" stroke="#263238" stroke-miterlimit="10" stroke-width="1"/><line x1="6.36" y1="3.96" transform="translate(968.964 1736.19)" fill="none" stroke="#263238" stroke-miterlimit="10" stroke-width="0.5"/><line x1="4.95" y1="5.22" transform="translate(975.054 1750.46)" fill="none" stroke="#263238" stroke-miterlimit="10" stroke-width="1"/><path d="M976.564,1752.03a5.622,5.622,0,0,0-2-4.2c-1.27-1.13-7.94-3.94-8.58-1.59C965.364,1748.8,972.164,1753.82,976.564,1752.03Z" fill="#92e3a9" stroke="#263238" stroke-miterlimit="10" stroke-width="1"/><line x1="6.36" y1="3.96" transform="translate(970.204 1748.07)" fill="none" stroke="#263238" stroke-miterlimit="10" stroke-width="0.5"/><line x1="4.94" y1="5.21" transform="translate(970.794 1709.61)" fill="none" stroke="#263238" stroke-miterlimit="10" stroke-width="1"/><path d="M972.294,1711.17a5.6,5.6,0,0,0-2-4.19c-1.27-1.13-8-3.94-8.58-1.59C961.064,1707.95,967.894,1712.97,972.294,1711.17Z" fill="#92e3a9" stroke="#263238" stroke-miterlimit="10" stroke-width="1"/><line x1="6.35" y1="3.96" transform="translate(965.944 1707.21)" fill="none" stroke="#263238" stroke-miterlimit="10" stroke-width="0.5"/><line x1="4.94" y1="5.22" transform="translate(972.034 1721.48)" fill="none" stroke="#263238" stroke-miterlimit="10" stroke-width="1"/><path d="M973.534,1723.05a5.629,5.629,0,0,0-2-4.2c-1.27-1.13-8-3.94-8.58-1.58C962.3,1719.82,969.134,1724.84,973.534,1723.05Z" fill="#92e3a9" stroke="#263238" stroke-miterlimit="10" stroke-width="1"/><line x1="6.35" y1="3.96" transform="translate(967.184 1719.09)" fill="none" stroke="#263238" stroke-miterlimit="10" stroke-width="0.5"/><line x1="4.94" y1="5.22" transform="translate(968.784 1690.31)" fill="none" stroke="#263238" stroke-miterlimit="10" stroke-width="1"/><path d="M970.284,1691.88a5.6,5.6,0,0,0-2-4.19c-1.27-1.14-7.94-3.94-8.57-1.59C959.054,1688.65,965.884,1693.67,970.284,1691.88Z" fill="#92e3a9" stroke="#263238" stroke-miterlimit="10" stroke-width="1"/><line x1="6.35" y1="3.96" transform="translate(963.934 1687.92)" fill="none" stroke="#263238" stroke-miterlimit="10" stroke-width="0.5"/><line x1="4.94" y1="5.22" transform="translate(966.764 1670.94)" fill="none" stroke="#263238" stroke-miterlimit="10" stroke-width="2"/><path d="M968.264,1672.53a5.594,5.594,0,0,0-2-4.19c-1.27-1.13-7.94-3.94-8.58-1.59C957.034,1669.28,963.864,1674.3,968.264,1672.53Z" fill="#92e3a9" stroke="#263238" stroke-miterlimit="10" stroke-width="1"/><line x1="6.36" y1="3.96" transform="translate(961.904 1668.54)" fill="none" stroke="#263238" stroke-miterlimit="10" stroke-width="0.5"/><line y1="6.13" x2="3.75" transform="translate(977.934 1730.65)" fill="none" stroke="#263238" stroke-miterlimit="10" stroke-width="2"/><path d="M980.544,1732.53a5.577,5.577,0,0,1,1.06-4.51c1-1.37,7-5.49,8.06-3.32C990.864,1727.02,985.214,1733.34,980.544,1732.53Z" fill="#92e3a9" stroke="#263238" stroke-miterlimit="10" stroke-width="1"/><line y1="5.47" x2="5.72" transform="translate(980.544 1727.02)" fill="none" stroke="#263238" stroke-miterlimit="10" stroke-width="0.5"/><line y1="6.13" x2="3.76" transform="translate(974.664 1699.4)" fill="none" stroke="#263238" stroke-miterlimit="10" stroke-width="1"/><path d="M977.274,1701.24a5.616,5.616,0,0,1,1.09-4.51c1-1.37,7-5.49,8.07-3.32C987.6,1695.77,981.954,1702.09,977.274,1701.24Z" fill="#92e3a9" stroke="#263238" stroke-miterlimit="10" stroke-width="1"/><line y1="5.47" x2="5.73" transform="translate(977.274 1695.77)" fill="none" stroke="#263238" stroke-miterlimit="10" stroke-width="0.5"/><line y1="6.12" x2="3.76" transform="translate(973.234 1685.67)" fill="none" stroke="#263238" stroke-miterlimit="10" stroke-width="1"/><path d="M975.844,1687.53a5.6,5.6,0,0,1,1.06-4.5c1-1.37,7-5.5,8.06-3.33C986.164,1682.03,980.524,1688.35,975.844,1687.53Z" fill="#92e3a9" stroke="#263238" stroke-miterlimit="10" stroke-width="1"/><line y1="5.46" x2="5.72" transform="translate(975.844 1682.04)" fill="none" stroke="#263238" stroke-miterlimit="10" stroke-width="0.5"/><line y1="6.13" x2="3.76" transform="translate(971.134 1665.53)" fill="none" stroke="#263238" stroke-miterlimit="10" stroke-width="1"/><path d="M973.744,1667.37a5.616,5.616,0,0,1,1.06-4.51c1-1.37,7-5.49,8.06-3.32C984.064,1661.9,978.424,1668.22,973.744,1667.37Z" fill="#92e3a9" stroke="#263238" stroke-miterlimit="10" stroke-width="1"/><line y1="5.47" x2="5.72" transform="translate(973.744 1661.9)" fill="none" stroke="#263238" stroke-miterlimit="10" stroke-width="0.5"/><path d="M969.524,1658.78a5.6,5.6,0,0,1,1.06-4.5c1-1.37,7-5.5,8.06-3.33C979.854,1653.31,974.2,1659.63,969.524,1658.78Z" fill="#92e3a9" stroke="#263238" stroke-miterlimit="10" stroke-width="1"/><line y1="5.46" x2="5.72" transform="translate(969.524 1653.32)" fill="none" stroke="#263238" stroke-miterlimit="10" stroke-width="0.5"/><path d="M969.854,1659.02a5.578,5.578,0,0,1-4.37-1.53c-1.25-1.14-4.73-7.49-2.46-8.36C965.494,1648.18,971.194,1654.46,969.854,1659.02Z" fill="#92e3a9" stroke="#263238" stroke-miterlimit="10" stroke-width="1"/><line x1="4.83" y1="6.26" transform="translate(965.024 1652.76)" fill="none" stroke="#263238" stroke-miterlimit="10" stroke-width="0.5"/><line x1="10.84" y2="104.44" transform="translate(987.524 1673.74)" fill="none" stroke="#263238" stroke-miterlimit="10" stroke-width="1"/><line x1="3.76" y1="6.13" transform="translate(986.164 1752.13)" fill="none" stroke="#263238" stroke-miterlimit="10" stroke-width="1"/><path d="M987.3,1753.97a5.55,5.55,0,0,0-1.06-4.5c-1-1.37-7-5.49-8.06-3.32C976.984,1748.53,982.634,1754.83,987.3,1753.97Z" fill="#92e3a9" stroke="#263238" stroke-miterlimit="10" stroke-width="1"/><line x1="5.4" y1="5.18" transform="translate(981.904 1748.79)" fill="none" stroke="#263238" stroke-miterlimit="10" stroke-width="0.5"/><line x1="3.76" y1="6.13" transform="translate(989.164 1723.15)" fill="none" stroke="#263238" stroke-miterlimit="10" stroke-width="1"/><path d="M990.364,1724.99a5.55,5.55,0,0,0-1.06-4.5c-1-1.37-7-5.5-8.06-3.33C979.994,1719.53,985.644,1725.84,990.364,1724.99Z" fill="#92e3a9" stroke="#263238" stroke-miterlimit="10" stroke-width="1"/><line x1="5.4" y1="5.18" transform="translate(984.914 1719.81)" fill="none" stroke="#263238" stroke-miterlimit="10" stroke-width="0.5"/><line x1="3.76" y1="6.12" transform="translate(987.934 1735.03)" fill="none" stroke="#263238" stroke-miterlimit="10" stroke-width="1"/><path d="M989.084,1736.87a5.623,5.623,0,0,0-1.06-4.51c-1-1.37-7-5.49-8.07-3.32C978.754,1731.4,984.364,1737.72,989.084,1736.87Z" fill="#92e3a9" stroke="#263238" stroke-miterlimit="10" stroke-width="1"/><line x1="5.4" y1="5.18" transform="translate(983.684 1731.69)" fill="none" stroke="#263238" stroke-miterlimit="10" stroke-width="0.5"/><line x1="3.76" y1="6.12" transform="translate(991.174 1703.86)" fill="none" stroke="#263238" stroke-miterlimit="10" stroke-width="1"/><path d="M992.364,1705.7a5.581,5.581,0,0,0-1.06-4.51c-1-1.37-7-5.49-8.06-3.32C981.994,1700.23,987.644,1706.53,992.364,1705.7Z" fill="#92e3a9" stroke="#263238" stroke-miterlimit="10" stroke-width="1"/><line x1="5.4" y1="5.18" transform="translate(986.914 1700.52)" fill="none" stroke="#263238" stroke-miterlimit="10" stroke-width="0.5"/><line x1="3.76" y1="6.13" transform="translate(993.184 1684.48)" fill="none" stroke="#263238" stroke-miterlimit="10" stroke-width="1"/><path d="M994.364,1686.32a5.55,5.55,0,0,0-1.06-4.5c-1-1.37-7-5.5-8.06-3.33C984,1680.85,989.654,1687.17,994.364,1686.32Z" fill="#92e3a9" stroke="#263238" stroke-miterlimit="10" stroke-width="1"/><line x1="5.4" y1="5.18" transform="translate(988.924 1681.14)" fill="none" stroke="#263238" stroke-miterlimit="10" stroke-width="0.5"/><line y1="5.22" x2="4.94" transform="translate(990.554 1745.99)" fill="none" stroke="#263238" stroke-miterlimit="10" stroke-width="1"/><path d="M993.994,1747.53a5.617,5.617,0,0,1,2-4.19c1.27-1.13,7.94-3.94,8.58-1.59C1005.224,1744.32,998.364,1749.35,993.994,1747.53Z" fill="#92e3a9" stroke="#263238" stroke-miterlimit="10" stroke-width="1"/><line y1="4.17" x2="6.72" transform="translate(993.994 1743.38)" fill="none" stroke="#263238" stroke-miterlimit="10" stroke-width="0.5"/><line y1="5.22" x2="4.94" transform="translate(993.794 1714.74)" fill="none" stroke="#263238" stroke-miterlimit="10" stroke-width="1"/><path d="M997.234,1716.3a5.588,5.588,0,0,1,2-4.19c1.26-1.14,7.94-3.95,8.57-1.6C1008.464,1713.07,1001.634,1718.09,997.234,1716.3Z" fill="#92e3a9" stroke="#263238" stroke-miterlimit="10" stroke-width="1"/><line y1="4.17" x2="6.73" transform="translate(997.234 1712.13)" fill="none" stroke="#263238" stroke-miterlimit="10" stroke-width="0.5"/><line y1="5.22" x2="4.94" transform="translate(995.224 1701)" fill="none" stroke="#263238" stroke-miterlimit="10" stroke-width="2"/><path d="M998.664,1702.53a5.57,5.57,0,0,1,2-4.19c1.27-1.13,7.94-3.94,8.58-1.59C1009.894,1699.33,1003.064,1704.36,998.664,1702.53Z" fill="#92e3a9" stroke="#263238" stroke-miterlimit="10" stroke-width="1"/><line y1="4.17" x2="6.72" transform="translate(998.664 1698.39)" fill="none" stroke="#263238" stroke-miterlimit="10" stroke-width="0.5"/><line y1="5.22" x2="4.94" transform="translate(997.314 1680.87)" fill="none" stroke="#263238" stroke-miterlimit="10" stroke-width="1"/><path d="M1000.754,1682.43a5.557,5.557,0,0,1,2-4.19c1.27-1.14,7.94-3.95,8.57-1.6C1011.984,1679.2,1005.154,1684.22,1000.754,1682.43Z" fill="#92e3a9" stroke="#263238" stroke-miterlimit="10" stroke-width="1"/><line y1="4.17" x2="6.72" transform="translate(1000.754 1678.26)" fill="none" stroke="#263238" stroke-miterlimit="10" stroke-width="0.5"/><path d="M998.364,1673.16a5.6,5.6,0,0,1,2-4.19c1.27-1.14,7.94-3.95,8.58-1.6C1009.624,1669.93,1002.794,1674.95,998.364,1673.16Z" fill="#92e3a9" stroke="#263238" stroke-miterlimit="10" stroke-width="1"/><line y1="4.17" x2="6.72" transform="translate(998.394 1668.99)" fill="none" stroke="#263238" stroke-miterlimit="10" stroke-width="0.5"/><path d="M998.664,1673.46a5.577,5.577,0,0,1-4-2.4c-1-1.37-3.09-8.3-.69-8.69C996.634,1661.95,1000.914,1669.27,998.664,1673.46Z" fill="#92e3a9" stroke="#263238" stroke-miterlimit="10" stroke-width="1"/><line x1="3.44" y1="7.13" transform="translate(995.224 1666.33)" fill="none" stroke="#263238" stroke-miterlimit="10" stroke-width="0.5"/><line y2="132.06" transform="translate(985.944 1631.22)" fill="none" stroke="#263238" stroke-miterlimit="10" stroke-width="1"/><line x1="4.38" y1="5.7" transform="translate(981.674 1737.72)" fill="none" stroke="#263238" stroke-miterlimit="10" stroke-width="1"/><path d="M983,1739.43a5.591,5.591,0,0,0-1.52-4.37c-1.14-1.26-7.49-4.74-8.36-2.47C972.174,1735.06,978.444,1740.76,983,1739.43Z" fill="#92e3a9" stroke="#263238" stroke-miterlimit="10" stroke-width="1"/><line x1="5.9" y1="4.6" transform="translate(977.104 1734.83)" fill="none" stroke="#263238" stroke-miterlimit="10" stroke-width="0.5"/><line x1="4.38" y1="5.71" transform="translate(981.674 1712.9)" fill="none" stroke="#263238" stroke-miterlimit="10" stroke-width="1"/><path d="M983,1714.61a5.591,5.591,0,0,0-1.52-4.37c-1.14-1.26-7.49-4.74-8.36-2.47C972.174,1710.24,978.444,1715.94,983,1714.61Z" fill="#92e3a9" stroke="#263238" stroke-miterlimit="10" stroke-width="1"/><line x1="5.9" y1="4.59" transform="translate(977.104 1710.02)" fill="none" stroke="#263238" stroke-miterlimit="10" stroke-width="1"/><line x1="4.38" y1="5.7" transform="translate(981.674 1683.77)" fill="none" stroke="#263238" stroke-miterlimit="10" stroke-width="1"/><path d="M983,1685.53a5.621,5.621,0,0,0-1.52-4.38c-1.14-1.25-7.49-4.74-8.36-2.47C972.174,1681.1,978.444,1686.81,983,1685.53Z" fill="#92e3a9" stroke="#263238" stroke-miterlimit="10" stroke-width="1"/><line x1="5.9" y1="4.6" transform="translate(977.104 1680.88)" fill="none" stroke="#263238" stroke-miterlimit="10" stroke-width="0.5"/><line x1="4.38" y1="5.7" transform="translate(981.674 1664.37)" fill="none" stroke="#263238" stroke-miterlimit="10" stroke-width="1"/><path d="M983,1666.08a5.591,5.591,0,0,0-1.52-4.37c-1.14-1.26-7.49-4.75-8.36-2.47C972.174,1661.71,978.444,1667.41,983,1666.08Z" fill="#92e3a9" stroke="#263238" stroke-miterlimit="10" stroke-width="1"/><line x1="5.9" y1="4.6" transform="translate(977.104 1661.48)" fill="none" stroke="#263238" stroke-miterlimit="10" stroke-width="0.5"/><line x1="4.38" y1="5.7" transform="translate(981.674 1644.89)" fill="none" stroke="#263238" stroke-miterlimit="10" stroke-width="1"/><path d="M983,1646.6a5.591,5.591,0,0,0-1.52-4.37c-1.14-1.26-7.49-4.75-8.36-2.47C972.174,1642.23,978.444,1647.93,983,1646.6Z" fill="#92e3a9" stroke="#263238" stroke-miterlimit="10" stroke-width="1"/><line x1="5.9" y1="4.6" transform="translate(977.104 1642)" fill="none" stroke="#263238" stroke-miterlimit="10" stroke-width="1"/><line y1="5.7" x2="4.37" transform="translate(985.954 1745.3)" fill="none" stroke="#263238" stroke-miterlimit="10" stroke-width="1"/><path d="M988.994,1747.01a5.587,5.587,0,0,1,1.52-4.37c1.14-1.26,7.49-4.75,8.36-2.47C999.834,1742.64,993.554,1748.34,988.994,1747.01Z" fill="#92e3a9" stroke="#263238" stroke-miterlimit="10" stroke-width="1"/><line y1="4.85" x2="6.26" transform="translate(988.994 1742.16)" fill="none" stroke="#263238" stroke-miterlimit="10" stroke-width="0.5"/><line y1="5.7" x2="4.37" transform="translate(985.954 1705.83)" fill="none" stroke="#263238" stroke-miterlimit="10" stroke-width="1"/><path d="M988.994,1707.53a5.587,5.587,0,0,1,1.52-4.37c1.14-1.26,7.49-4.75,8.36-2.47C999.834,1703.17,993.554,1708.87,988.994,1707.53Z" fill="#92e3a9" stroke="#263238" stroke-miterlimit="10" stroke-width="1"/><line y1="4.85" x2="6.26" transform="translate(988.994 1702.69)" fill="none" stroke="#263238" stroke-miterlimit="10" stroke-width="0.5"/><line y1="5.7" x2="4.37" transform="translate(985.954 1686.35)" fill="none" stroke="#263238" stroke-miterlimit="10" stroke-width="1"/><path d="M988.994,1688.06a5.588,5.588,0,0,1,1.52-4.37c1.14-1.26,7.49-4.75,8.36-2.48C999.834,1683.69,993.554,1689.39,988.994,1688.06Z" fill="#92e3a9" stroke="#263238" stroke-miterlimit="10" stroke-width="1"/><line y1="4.85" x2="6.26" transform="translate(988.994 1683.21)" fill="none" stroke="#263238" stroke-miterlimit="10" stroke-width="0.5"/><line y1="5.7" x2="4.37" transform="translate(985.954 1660.6)" fill="none" stroke="#263238" stroke-miterlimit="10" stroke-width="1"/><path d="M988.994,1662.31a5.588,5.588,0,0,1,1.52-4.37c1.14-1.26,7.49-4.75,8.36-2.47C999.834,1657.94,993.554,1663.64,988.994,1662.31Z" fill="#92e3a9" stroke="#263238" stroke-miterlimit="10" stroke-width="1"/><line y1="4.85" x2="6.26" transform="translate(988.994 1657.46)" fill="none" stroke="#263238" stroke-miterlimit="10" stroke-width="0.5"/><line y1="5.71" x2="4.37" transform="translate(985.954 1640.35)" fill="none" stroke="#263238" stroke-miterlimit="10" stroke-width="1"/><path d="M988.994,1642.07a5.607,5.607,0,0,1,1.52-4.38c1.14-1.26,7.49-4.74,8.36-2.47C999.834,1637.69,993.554,1643.4,988.994,1642.07Z" fill="#92e3a9" stroke="#263238" stroke-miterlimit="10" stroke-width="1"/><line y1="4.85" x2="6.26" transform="translate(988.994 1637.22)" fill="none" stroke="#263238" stroke-miterlimit="10" stroke-width="0.5"/><path d="M985.694,1633.09a5.614,5.614,0,0,1,1.52-4.38c1.14-1.25,7.49-4.74,8.36-2.47C996.524,1628.71,990.254,1634.42,985.694,1633.09Z" fill="#92e3a9" stroke="#263238" stroke-miterlimit="10" stroke-width="1"/><line y1="4.85" x2="6.25" transform="translate(985.694 1628.24)" fill="none" stroke="#263238" stroke-miterlimit="10" stroke-width="0.5"/><path d="M985.994,1633.36a5.627,5.627,0,0,1-4.19-2c-1.13-1.26-3.93-7.94-1.58-8.57C982.784,1622.12,987.794,1628.96,985.994,1633.36Z" fill="#92e3a9" stroke="#263238" stroke-miterlimit="10" stroke-width="1"/><line x1="4.16" y1="6.74" transform="translate(981.834 1626.62)" fill="none" stroke="#263238" stroke-miterlimit="10" stroke-width="0.5"/><path d="M991.374,1797.53h-13.98l-1.75-35.32h17.48Z" fill="#263238" stroke="#263238" stroke-miterlimit="10" stroke-width="1"/><rect width="71.86" height="76.89" transform="translate(673.32 1683.852)" fill="#fff" stroke="#5e6178" stroke-linecap="round" stroke-linejoin="round" stroke-width="1"/><rect width="6.53" height="27.97" transform="translate(678.97 1683.852)" fill="#6595bf" stroke="#b2b2b2" stroke-miterlimit="10" stroke-width="1"/><rect width="71.86" height="76.89" transform="translate(745.12 1683.852)" fill="#fff" stroke="#5e6178" stroke-linecap="round" stroke-linejoin="round" stroke-width="1"/><rect width="6.53" height="27.97" transform="translate(750.77 1683.852)" fill="#6595bf" stroke="#b2b2b2" stroke-miterlimit="10" stroke-width="1"/><rect width="71.86" height="76.89" transform="translate(673.32 1606.462)" fill="#fff" stroke="#5e6178" stroke-linecap="round" stroke-linejoin="round" stroke-width="1"/><rect width="6.53" height="27.97" transform="translate(678.97 1606.462)" fill="#6595bf" stroke="#b2b2b2" stroke-miterlimit="10" stroke-width="1"/><rect width="71.86" height="76.89" transform="translate(745.12 1606.462)" fill="#fff" stroke="#5e6178" stroke-linecap="round" stroke-linejoin="round" stroke-width="1"/><rect width="6.53" height="27.97" transform="translate(750.77 1606.462)" fill="#6595bf" stroke="#b2b2b2" stroke-miterlimit="10" stroke-width="1"/><rect width="153.85" height="3.67" transform="translate(670.57 1770.282)" fill="#fff" stroke="#5e6178" stroke-linecap="round" stroke-linejoin="round" stroke-width="1"/><rect width="153.85" height="3.67" transform="translate(670.57 1756.962)" fill="#fff" stroke="#5e6178" stroke-linecap="round" stroke-linejoin="round" stroke-width="1"/><rect width="11.94" height="9.32" transform="translate(673.32 1760.742)" fill="#fff" stroke="#5e6178" stroke-linecap="round" stroke-linejoin="round" stroke-width="1"/><rect width="11.94" height="9.32" transform="translate(739.55 1760.742)" fill="#fff" stroke="#5e6178" stroke-linecap="round" stroke-linejoin="round" stroke-width="1"/><rect width="11.94" height="9.32" transform="translate(805.78 1760.742)" fill="#fff" stroke="#5e6178" stroke-linecap="round" stroke-linejoin="round" stroke-width="1"/><rect width="71.86" height="76.89" transform="translate(516.32 1683.852)" fill="#fff" stroke="#5e6178" stroke-linecap="round" stroke-linejoin="round" stroke-width="1"/><rect width="6.53" height="27.97" transform="translate(521.97 1683.852)" fill="#6595bf" stroke="#b2b2b2" stroke-miterlimit="10" stroke-width="1"/><rect width="71.86" height="76.89" transform="translate(588.12 1683.852)" fill="#fff" stroke="#5e6178" stroke-linecap="round" stroke-linejoin="round" stroke-width="1"/><rect width="6.53" height="27.97" transform="translate(593.77 1683.852)" fill="#6595bf" stroke="#b2b2b2" stroke-miterlimit="10" stroke-width="1"/><rect width="71.86" height="76.89" transform="translate(516.32 1606.462)" fill="#fff" stroke="#5e6178" stroke-linecap="round" stroke-linejoin="round" stroke-width="1"/><rect width="6.53" height="27.97" transform="translate(521.97 1606.462)" fill="#6595bf" stroke="#b2b2b2" stroke-miterlimit="10" stroke-width="1"/><rect width="71.86" height="76.89" transform="translate(588.12 1606.462)" fill="#fff" stroke="#5e6178" stroke-linecap="round" stroke-linejoin="round" stroke-width="1"/><rect width="6.53" height="27.97" transform="translate(593.77 1606.462)" fill="#6595bf" stroke="#b2b2b2" stroke-miterlimit="10" stroke-width="1"/><rect width="153.85" height="3.67" transform="translate(513.57 1770.282)" fill="#fff" stroke="#5e6178" stroke-linecap="round" stroke-linejoin="round" stroke-width="1"/><rect width="153.85" height="3.67" transform="translate(513.57 1756.962)" fill="#fff" stroke="#5e6178" stroke-linecap="round" stroke-linejoin="round" stroke-width="1"/><rect width="11.94" height="9.32" transform="translate(516.32 1760.742)" fill="#fff" stroke="#5e6178" stroke-linecap="round" stroke-linejoin="round" stroke-width="1"/><rect width="11.94" height="9.32" transform="translate(582.55 1760.742)" fill="#fff" stroke="#5e6178" stroke-linecap="round" stroke-linejoin="round" stroke-width="1"/><rect width="11.94" height="9.32" transform="translate(648.78 1760.742)" fill="#fff" stroke="#5e6178" stroke-linecap="round" stroke-linejoin="round" stroke-width="1"/><rect width="71.86" height="76.89" transform="translate(359.32 1683.852)" fill="#fff" stroke="#5e6178" stroke-linecap="round" stroke-linejoin="round" stroke-width="1"/><rect width="6.53" height="27.97" transform="translate(364.97 1683.852)" fill="#6595bf" stroke="#b2b2b2" stroke-miterlimit="10" stroke-width="1"/><rect width="71.86" height="76.89" transform="translate(431.12 1683.852)" fill="#fff" stroke="#5e6178" stroke-linecap="round" stroke-linejoin="round" stroke-width="1"/><rect width="6.53" height="27.97" transform="translate(436.77 1683.852)" fill="#6595bf" stroke="#b2b2b2" stroke-miterlimit="10" stroke-width="1"/><rect width="71.86" height="76.89" transform="translate(359.32 1606.462)" fill="#fff" stroke="#5e6178" stroke-linecap="round" stroke-linejoin="round" stroke-width="1"/><rect width="6.53" height="27.97" transform="translate(364.97 1606.462)" fill="#6595bf" stroke="#b2b2b2" stroke-miterlimit="10" stroke-width="1"/><rect width="71.86" height="76.89" transform="translate(431.12 1606.462)" fill="#fff" stroke="#5e6178" stroke-linecap="round" stroke-linejoin="round" stroke-width="1"/><rect width="6.53" height="27.97" transform="translate(436.77 1606.462)" fill="#6595bf" stroke="#b2b2b2" stroke-miterlimit="10" stroke-width="1"/><rect width="71.86" height="76.89" transform="translate(359.32 1530.462)" fill="#fff" stroke="#5e6178" stroke-linecap="round" stroke-linejoin="round" stroke-width="1"/><rect width="6.53" height="27.97" transform="translate(364.97 1530.462)" fill="#6595bf" stroke="#b2b2b2" stroke-miterlimit="10" stroke-width="1"/><rect width="71.86" height="76.89" transform="translate(431.12 1530.462)" fill="#fff" stroke="#5e6178" stroke-linecap="round" stroke-linejoin="round" stroke-width="1"/><rect width="6.53" height="27.97" transform="translate(436.77 1530.462)" fill="#6595bf" stroke="#b2b2b2" stroke-miterlimit="10" stroke-width="1"/><rect width="153.85" height="3.67" transform="translate(356.57 1770.282)" fill="#fff" stroke="#5e6178" stroke-linecap="round" stroke-linejoin="round" stroke-width="1"/><rect width="153.85" height="3.67" transform="translate(356.57 1756.962)" fill="#fff" stroke="#5e6178" stroke-linecap="round" stroke-linejoin="round" stroke-width="1"/><rect width="11.94" height="9.32" transform="translate(359.32 1760.742)" fill="#fff" stroke="#5e6178" stroke-linecap="round" stroke-linejoin="round" stroke-width="1"/><rect width="11.94" height="9.32" transform="translate(425.55 1760.742)" fill="#fff" stroke="#5e6178" stroke-linecap="round" stroke-linejoin="round" stroke-width="1"/><rect width="11.94" height="9.32" transform="translate(491.78 1760.742)" fill="#fff" stroke="#5e6178" stroke-linecap="round" stroke-linejoin="round" stroke-width="1"/><path d="M274.37,1795.156s-4.73,7.61-6.08,8.8-4.74,3.72-6.09,5.07.33,3.05,1.86,3.21,20,0,20,0,2-.33,2.2-1.35,1-4.06-.17-6.76a16.313,16.313,0,0,1-1.19-5.76l.34-.84-.34-2Z" fill="#fff" stroke="#5e6178" stroke-linecap="round" stroke-linejoin="round" stroke-width="1"/><path d="M264.06,1812.236c1.52.17,20,0,20,0s2-.33,2.2-1.35a17.757,17.757,0,0,0,.44-3.83c-2.79.83-5.62,2-5.62,2H262.2C260.84,1810.376,262.58,1812.076,264.06,1812.236Z" fill="#fff" stroke="#5e6178" stroke-linecap="round" stroke-linejoin="round" stroke-width="1"/><line x1="1.3" y2="4.57" transform="translate(280.611 1807.306)" fill="none" stroke="#263238" stroke-linecap="round" stroke-linejoin="round" stroke-width="1"/><path d="M276.47,1805.226a.825.825,0,0,1-.31-.06c-3.51-1.56-5.8-.5-5.89-.45a.751.751,0,0,1-.66-1.35c.12-.06,3-1.44,7.17.42a.749.749,0,0,1,.4.983l-.008.017A.76.76,0,0,1,276.47,1805.226Z" fill="#fff" stroke="#5e6178" stroke-linecap="round" stroke-linejoin="round" stroke-width="1"/><path d="M277.12,1803.316a.868.868,0,0,1-.31-.06c-3.5-1.56-5.79-.5-5.89-.45a.76.76,0,0,1-.67-1.36c.12-.06,3-1.44,7.18.42a.76.76,0,0,1-.31,1.45Z" fill="#fff" stroke="#5e6178" stroke-linecap="round" stroke-linejoin="round" stroke-width="1"/><path d="M277.77,1801.316a.82.82,0,0,1-.3-.06c-3.51-1.57-5.8-.5-5.9-.45a.76.76,0,0,1-.67-1.36c.12-.06,3-1.44,7.18.42a.759.759,0,0,1,.39,1A.781.781,0,0,1,277.77,1801.316Z" fill="#fff" stroke="#5e6178" stroke-linecap="round" stroke-linejoin="round" stroke-width="1"/><path d="M325.75,1795.156s4.73,7.61,6.09,8.8,4.73,3.72,6.091,5.07-.341,3.05-1.87,3.21-20,0-20,0-2-.33-2.19-1.35-1-4.06.159-6.76a16.269,16.269,0,0,0,1.19-5.76l-.34-.84.34-2Z" fill="#fff" stroke="#5e6178" stroke-linecap="round" stroke-linejoin="round" stroke-width="1"/><path d="M336.06,1812.236c-1.52.17-20,0-20,0s-2-.33-2.19-1.35a17.1,17.1,0,0,1-.45-3.83c2.79.83,5.62,2,5.62,2h18.85C339.28,1810.376,337.58,1812.076,336.06,1812.236Z" fill="#fff" stroke="#5e6178" stroke-linecap="round" stroke-linejoin="round" stroke-width="1"/><line x2="1.31" y2="4.57" transform="translate(318.21 1807.306)" fill="none" stroke="#263238" stroke-linecap="round" stroke-linejoin="round" stroke-width="1"/><path d="M323.65,1805.226a.818.818,0,0,0,.31-.06c3.51-1.56,5.8-.5,5.89-.45a.789.789,0,1,0,.73-1.4h0c-.12-.06-3-1.44-7.18.42a.75.75,0,0,0-.4.983l.007.017A.763.763,0,0,0,323.65,1805.226Z" fill="#fff" stroke="#5e6178" stroke-linecap="round" stroke-linejoin="round" stroke-width="1"/><path d="M323,1803.316a.86.86,0,0,0,.31-.06c3.51-1.56,5.79-.5,5.89-.45a.76.76,0,0,0,.67-1.36c-.12-.06-3-1.44-7.18.42a.76.76,0,0,0,.31,1.45Z" fill="#fff" stroke="#5e6178" stroke-linecap="round" stroke-linejoin="round" stroke-width="1"/><path d="M322.35,1801.316a.812.812,0,0,0,.3-.06c3.51-1.57,5.8-.5,5.9-.45a.76.76,0,0,0,.67-1.36c-.12-.06-3-1.44-7.18.42a.76.76,0,0,0,.31,1.45Z" fill="#fff" stroke="#5e6178" stroke-linecap="round" stroke-linejoin="round" stroke-width="1"/><path d="M328.36,1790.486c-.14-.51-.289-1-.429-1.51a77.884,77.884,0,0,1-2.11-15.4q-3.5-50.46-7-100.93c.08,1.14-33.19.44-36.16.39-6.78-.1-6.35,1.73-6.52,8.3s-.32,13.42-.46,20.13q-.76,38.6-.67,77.19a22.647,22.647,0,0,1-.57,6.26c-.461,1.61-1.281,3.09-1.781,4.68a13,13,0,0,0,.16,8.3,31.132,31.132,0,0,1,12.86,2.34c2.5-4.88,3.16-10.46,3.78-15.91l9-78.84,11.56,66.44,2.16,12.39c.92,5.29,1.84,10.59,2.85,15.87a39.92,39.92,0,0,1,13.33-2.46C329.58,1795.586,329.04,1792.976,328.36,1790.486Z" fill="#344154" stroke="#263238" stroke-linecap="round" stroke-linejoin="round" stroke-width="1"/><rect width="27.39" height="2.96" transform="translate(283.66 1675.436)" fill="#575757" stroke="#263238" stroke-linecap="round" stroke-linejoin="round" stroke-width="1"/><rect width="5.29" height="2.96" transform="translate(313.54 1675.436)" fill="#575757" stroke="#263238" stroke-linecap="round" stroke-linejoin="round" stroke-width="1"/><rect width="4.2" height="2.96" transform="translate(276.97 1675.436)" fill="#575757" stroke="#263238" stroke-linecap="round" stroke-linejoin="round" stroke-width="1"/><rect width="6.85" height="2.49" transform="translate(294.24 1675.746)" fill="#fff" stroke="#5e6178" stroke-linecap="round" stroke-linejoin="round" stroke-width="1"/><path d="M267.47,1621s-12.62,43.88-13.17,45,2.75.55,5.85,1.1,7.5-1.83,8-2.75,5.12-15.17,5.12-15.17Z" fill="#aed3f2" stroke="#263238" stroke-linecap="round" stroke-linejoin="round" stroke-width="1"/><line x1="0.52" y1="1.27" transform="translate(267.52 1633.946)" fill="none" stroke="#263238" stroke-linecap="round" stroke-linejoin="round" stroke-width="1"/><line x1="3.53" y1="8.54" transform="translate(268.65 1636.686)" fill="none" stroke="#263238" stroke-linecap="round" stroke-linejoin="round" stroke-width="1"/><path d="M267.74,1658.556l1,.72" fill="#fff" stroke="#5e6178" stroke-linecap="round" stroke-linejoin="round" stroke-width="1"/><path d="M258.42,1656.576a29.791,29.791,0,0,1,4.16-1.26,19.738,19.738,0,0,1,4,2.4" fill="#fff" stroke="#5e6178" stroke-linecap="round" stroke-linejoin="round" stroke-width="1"/><path d="M325.98,1618.436s14.44,38.58,14.81,40a9.981,9.981,0,0,1,.55,4c-.19,1.64-2.74,2.74-3.29,2.74s-4.57-2.56-6.219-3.29-6.58-3.11-6.58-3.11l-2.56-8.23Z" fill="#aed3f2" stroke="#263238" stroke-linecap="round" stroke-linejoin="round" stroke-width="1"/><line y1="0.94" x2="0.24" transform="translate(326.79 1630.016)" fill="none" stroke="#263238" stroke-linecap="round" stroke-linejoin="round" stroke-width="1"/><line y1="12.04" x2="3.06" transform="translate(323.34 1632.486)" fill="none" stroke="#263238" stroke-linecap="round" stroke-linejoin="round" stroke-width="1"/><line x1="5.9" y2="3.69" transform="translate(326.29 1651.406)" fill="none" stroke="#263238" stroke-linecap="round" stroke-linejoin="round" stroke-width="1"/><path d="M288.59,1607.706l.6-9.29h11.83l2.4,10.34-7.94,7.04Z" fill="#ff9a6c" stroke="#263238" stroke-linecap="round" stroke-linejoin="round" stroke-width="1"/><path d="M288.13,1610.026l-20.66,11,9,47.54s-.729,4.39-.19,5.3a4.71,4.71,0,0,0,1.47,1.46h40.41s2.74-2.56,2.74-3.1v-2.41l5.12-51.38-20.5-8.12Z" fill="#aed3f2" stroke="#263238" stroke-linecap="round" stroke-linejoin="round" stroke-width="1"/><path d="M292.76,1612.2l2.71,7.65-3.67,46.56,5.74,9.09,4.95-9.89-5.11-45.76,3.19-6.86-4.62-5.1Z" fill="#344154" stroke="#263238" stroke-linecap="round" stroke-linejoin="round" stroke-width="1"/><path d="M287.82,1605.976l-.48,5.1,4.3,7.02,3.19-7.66Z" fill="#839eb6" stroke="#263238" stroke-linecap="round" stroke-linejoin="round" stroke-width="1"/><path d="M297.7,1610.6l2.55,8.13,5.27-8.45-2.4-4.94Z" fill="#839eb6" stroke="#263238" stroke-linecap="round" stroke-linejoin="round" stroke-width="1"/><path d="M310.8,1664.516l-.73-5.67,4.94.91Z" fill="#fff" stroke="#5e6178" stroke-linecap="round" stroke-linejoin="round" stroke-width="1"/><path d="M297.27,1647.316a31.485,31.485,0,0,1-4.57-.92c-1.65-.54-2.74.19-1.46,1.83s5.85,2.38,6.4,2.38c0,0,.91,4.75,3.47,5.67a13.454,13.454,0,0,0,4,.91,5,5,0,0,0,2.93,2c1.65.19,5.48,2.93,5.48,2.93l1.83-4.21-4-3.29-4-6.95-3.84-1.28-3.31-1.07Z" fill="#ffbf9d" stroke="#263238" stroke-linecap="round" stroke-linejoin="round" stroke-width="1"/><path d="M307.51,1652.316l-1.64,1.64a6.9,6.9,0,0,1,.18,1.46c0,.74-1.28.74-2.2.74a4.756,4.756,0,0,1-2.74-.74c-.73-.54-3.66-3.1-3.66-3.1l3.11-5.49-2.74,1.83a18.791,18.791,0,0,1-2.38,3.47c-1.09,1.1-1.46-.18-1.46-.18a22.946,22.946,0,0,1,1.83-4.39,41.28,41.28,0,0,1,3.29-3.11,7.238,7.238,0,0,1,2.19,0,17.831,17.831,0,0,1,4.94,2.38,6.157,6.157,0,0,1,2.2,2.93,5.888,5.888,0,0,1,.18,1.28" fill="#ffbf9d" stroke="#263238" stroke-linecap="round" stroke-linejoin="round" stroke-width="1"/><path d="M302.76,1655.916a3.454,3.454,0,0,1-.19-2.19,50.4,50.4,0,0,1,2.75-4.39" fill="none" stroke="#263238" stroke-linecap="round" stroke-linejoin="round" stroke-width="1"/><path d="M301.11,1655.366s-.289-.33-.619-.79-.06-1.29-.06-1.89c0-1.1,2.69-5.54,2.69-5.54" fill="none" stroke="#263238" stroke-linecap="round" stroke-linejoin="round" stroke-width="1"/><path d="M337.13,1654.456s4.57,6.95,4.39,8.78-1.28,5.85-2.92,5.85a141.43,141.43,0,0,1-14.08-1.83c-5.08-.91-8.6-1.28-8.6-1.28l-5.12-1.46,3.48-8.41,3.32.69a33.182,33.182,0,0,1,4.831-.8c2.38-.19,10.31-2.09,10.31-2.09" fill="#aed3f2" stroke="#263238" stroke-linecap="round" stroke-linejoin="round" stroke-width="1"/><path d="M317.63,1657.626a10.651,10.651,0,0,1-1.46,5.85" fill="none" stroke="#263238" stroke-linecap="round" stroke-linejoin="round" stroke-width="1"/><path d="M256.68,1660.126s-3.11,7.49-3.29,8,.55,4,3.47,3.29,18.47-2.37,20.48-2.74l5.12-.91h4c1.83,0,7,0,8.05-.37l4.39-1.46c1.09-.37,3.47-1.83,3.65-2.38s-.54-1.09-2.37-.91-7.5.36-7.5.36,5.12-2,6.77-2.74,1.09-1.46,1.09-1.46a9.415,9.415,0,0,0-3.109.55c-1.281.55-13.891,2.19-13.891,2.19l-1.44-1.23a10.811,10.811,0,0,0,.73-3.29c0-1.46-.73-2.56-1.65-2.19s-1.28,2.56-1.46,3.29-1.1,3.65-1.1,3.65l-.36,1.65s-7.5-1.46-9.7-2.38-6.76-2.19-7.49-2-2.2,2.2-2.56,3.11" fill="#ffbf9d" stroke="#263238" stroke-linecap="round" stroke-linejoin="round" stroke-width="1"/><path d="M273.01,1662.746s-1.22,2.68.25,4.39" fill="none" stroke="#263238" stroke-linecap="round" stroke-linejoin="round" stroke-width="1"/><path d="M275.63,1653.116l5.56,11.31a1.211,1.211,0,0,0,1.09.68l20.3.21a1.229,1.229,0,0,0,1.16-1.67l-4.42-11.52a1.219,1.219,0,0,0-1.14-.78H276.73a1.221,1.221,0,0,0-1.231,1.209A1.239,1.239,0,0,0,275.63,1653.116Z" fill="#d9a171" stroke="#263238" stroke-linecap="round" stroke-linejoin="round" stroke-width="1"/><path d="M300.2,1662.686c-1.83.18-7.5.36-7.5.36s5.12-2,6.77-2.74,1.091-1.46,1.091-1.46a9.417,9.417,0,0,0-3.11.55c-1.281.55-13.89,2.19-13.89,2.19l-1.461-1.27a10.811,10.811,0,0,0,.73-3.29c0-1.46-.73-2.56-1.65-2.19s-1.28,2.56-1.46,3.29-1.1,3.65-1.1,3.65l-.36,1.65-1.94-.39a6.414,6.414,0,0,0,.11,3.86,17.4,17.4,0,0,0,.71,1.86h.2l5.12-.91h4c1.83,0,7,0,8.05-.37l4.39-1.46c1.091-.37,3.47-1.83,3.65-2.38S302.03,1662.506,300.2,1662.686Z" fill="#ffbf9d" stroke="#263238" stroke-linecap="round" stroke-linejoin="round" stroke-width="1"/><path d="M301.88,1663.886a35.415,35.415,0,0,1-4.34,1.8c-.54,0-7,.73-7,.73" fill="none" stroke="#263238" stroke-linecap="round" stroke-linejoin="round" stroke-width="1"/><path d="M272.77,1797.936a4.1,4.1,0,0,1,.17-.52c-.07.12-.15.23-.23.35Z" fill="#fff" stroke="#5e6178" stroke-linecap="round" stroke-linejoin="round" stroke-width="1"/><path d="M283.79,1584.156s-1.64-1.2-2.24.6-.9,3.74.3,5.09,2.841,3.75,2.841,3.75Z" fill="#ffbf9d" stroke="#263238" stroke-linecap="round" stroke-linejoin="round" stroke-width="1"/><path d="M306.34,1584.156s1.64-1.2,2.24.6.9,3.74-.3,5.09-2.84,3.75-2.84,3.75Z" fill="#ffbf9d" stroke="#263238" stroke-linecap="round" stroke-linejoin="round" stroke-width="1"/><path d="M285.49,1597.076s6,8.05,7.26,8.47c1.45.48,4.11,1,5.32.24s7.62-7.9,7.8-11.21,1.33-16.25-.54-19.52-5.81-8-16.21-4.6C289.12,1570.456,279.2,1573.606,285.49,1597.076Z" fill="#ffbf9d" stroke="#263238" stroke-linecap="round" stroke-linejoin="round" stroke-width="1"/><path d="M292.41,1596.406a3.292,3.292,0,0,0,3.07,1.72c1.44,0,2.29-1.7,2.29-1.7" fill="none" stroke="#263238" stroke-linecap="round" stroke-linejoin="round" stroke-width="1"/><path d="M293.72,1600.216s1,1.21,3.63,0" fill="none" stroke="#263238" stroke-linecap="round" stroke-linejoin="round" stroke-width="1"/><path d="M287.18,1591.316s3.2,1.58,5.15-.07" fill="none" stroke="#263238" stroke-linecap="round" stroke-linejoin="round" stroke-width="1"/><path d="M298.31,1591.316a10.7,10.7,0,0,0,5.55-.07" fill="none" stroke="#263238" stroke-linecap="round" stroke-linejoin="round" stroke-width="1"/><path d="M292.63,1589.4a6.358,6.358,0,0,0-6-1.2" fill="none" stroke="#263238" stroke-linecap="round" stroke-linejoin="round" stroke-width="1"/><path d="M297.87,1589.4a6.789,6.789,0,0,1,6.74-.45" fill="none" stroke="#263238" stroke-linecap="round" stroke-linejoin="round" stroke-width="1"/><path d="M278.63,1581.376s4.92,6.56,13.12,6.89,11.56-1.15,13.61-2.79,6.07-5.08,6.07-5.08a17.338,17.338,0,0,1-2.3-6.23c-.49-3.45-1-10.17-8.53-12.47s-16.07.82-18.69,6.07S280.43,1579.246,278.63,1581.376Z" fill="#ffd947" stroke="#263238" stroke-linecap="round" stroke-linejoin="round" stroke-width="1"/><path d="M287.15,1581.246s-.219-7.59.67-10.27,5.8-4.91,5.8-4.91v-2.9" fill="none" stroke="#263238" stroke-linecap="round" stroke-linejoin="round" stroke-width="1"/><path d="M301.66,1581.246s1.11-7.81-1.12-11.39-3.789-3.57-3.789-3.57v-3.12" fill="none" stroke="#263238" stroke-linecap="round" stroke-linejoin="round" stroke-width="1"/><rect width="20.51" height="294.66" transform="translate(679.154 1500.525)" fill="#344154" stroke="#263238" stroke-linecap="round" stroke-linejoin="round" stroke-width="1"/><path d="M709.614,1562.635h-12.86a11.48,11.48,0,0,0-11.48,11.48v8.72a5,5,0,0,0,7.35,4.48l22-11.36v-11.94Z" fill="#424242" stroke="#263238" stroke-linecap="round" stroke-linejoin="round" stroke-width="1"/><path d="M709.614,1725.255h-12.86a11.48,11.48,0,0,0-11.48,11.48h0v8.72a5,5,0,0,0,7.35,4.48l22-11.36v-11.99Z" fill="#424242" stroke="#263238" stroke-linecap="round" stroke-linejoin="round" stroke-width="1"/><rect width="9.18" height="65.21" transform="translate(671.494 1492.825)" fill="#424242" stroke="#263238" stroke-linecap="round" stroke-linejoin="round" stroke-width="1"/><rect width="70.9" height="32.49" transform="translate(772.444 1682.655)" fill="#344154" stroke="#263238" stroke-linecap="round" stroke-linejoin="round" stroke-width="1"/><path d="M713.344,1739.255l30.59-158.11a40.638,40.638,0,0,1,38.13-32.89l69.66-3a13.18,13.18,0,0,1,13.7,12.1l12,149.6" fill="#e7e8f3" stroke="#5e6178" stroke-miterlimit="10" stroke-width="11"/><path d="M768.054,1742.955l-73.2-10.72v34.97l77.86-19.12Z" fill="#344154" stroke="#263238" stroke-miterlimit="10" stroke-width="1"/><path d="M762.784,1663.565l-10.23-5.9-5.33,2.59-8.67-6.5-3.42,5.59,3.42,3.73-3.42,1.56,1.86,4s-7.77,5.28-9.63,19.58l-8.08-.31v28.35l10.27-4.69,3.73-.62s19.9-20.51,24.56-30.46S762.784,1663.565,762.784,1663.565Z" fill="#344154" stroke="#263238" stroke-miterlimit="10" stroke-width="1"/><path d="M784.034,1637.075l-3,1.32-21.56-2s-5.64-3.31-8.95-2a14.925,14.925,0,0,0-5.31,3.65s0,6.3,1.66,6.63,4.64-.66,4.64-.66l1.66-1.66s21.22,5.64,24.21,6.3,11.6-3,11.6-3Z" fill="#ffbf9d" stroke="#263238" stroke-linecap="round" stroke-linejoin="round" stroke-width="1"/><path d="M750.554,1634.415a14.923,14.923,0,0,0-5.31,3.65s0,6.3,1.66,6.63,4.64-.66,4.64-.66l1.66-1.66,6.23,1.65a4.785,4.785,0,0,0,1.27-2.95,25.129,25.129,0,0,0-.79-4.63h-.41S753.854,1633.095,750.554,1634.415Z" fill="#d9a171" stroke="#263238" stroke-linecap="round" stroke-linejoin="round" stroke-width="1"/><path d="M753.364,1636.355l-1.95.33s-2.93,3.26-2.93,4.39,1.79,1.79,2.44,1.47a12.932,12.932,0,0,0,2-1.63,4.48,4.48,0,0,0,2.76.82,7.446,7.446,0,0,0,3.26-.82" fill="none" stroke="#263238" stroke-miterlimit="10" stroke-width="1"/><path d="M799.954,1620.825l-18.24,14.59,7.29,10.28,10.95-7.96Z" fill="#fff" stroke="#5e6178" stroke-linecap="round" stroke-linejoin="round" stroke-width="1"/><path d="M781.714,1635.415l6.3,13.26,3.98-3.98-5.64-13.26Z" fill="#fff" stroke="#5e6178" stroke-linecap="round" stroke-linejoin="round" stroke-width="1"/><path d="M800.284,1610.255l-4.64,21.22s2,17.57,2,20.89-1.66,10.61-1.66,10.61l-.67,2.32s0,12.6,5.31,13.93,10.61,2.65,17.24,2.65,11.94-3,14.59-7.62,2.66-14.6,2.66-18.24-5.64-32.17-6.64-39.46-10.61-12.94-12.6-13.6S800.284,1610.255,800.284,1610.255Z" fill="#fff" stroke="#5e6178" stroke-linecap="round" stroke-linejoin="round" stroke-width="1"/><path d="M791.634,1579.545l-1.84,4.07s-4.93,3.61-3.79,4.56a18.7,18.7,0,0,1,1.84,1.72s-1.87,8.13-1.19,8.85a4.931,4.931,0,0,0,5.51.77,3.7,3.7,0,0,1,3.53.63l4.85,9.2,14.92-9-2-7.61,3.7-5.6Z" fill="#ffbf9d" stroke="#263238" stroke-linecap="round" stroke-linejoin="round" stroke-width="1"/><path d="M813.444,1592.725l3.7-5.6-20.47-5.87c-.5.89-1.38,2.68-.63,3.16a8.867,8.867,0,0,1,2,2s-.25,1.91,1.1,1.69,3.42-2.95,5.56-1.36,2.21,3.38.65,4.79a33.772,33.772,0,0,1-2.94,2.37s8.32,6.3,11,5.84l1.56-.27Z" fill="#344154" stroke="#263238" stroke-linecap="round" stroke-linejoin="round" stroke-width="1"/><path d="M789.364,1578.025l-5.46.81s12.75,5,16.43,4.95,18,7.41,18,7.41,6.08-9,1.51-17-12.51-10.1-18.46-8S792.344,1570.385,789.364,1578.025Z" fill="#fff" stroke="#5e6178" stroke-linecap="round" stroke-linejoin="round" stroke-width="1"/><path d="M814.874,1596.945l-17.91,10.94.67,5.64,19.89-11.6Z" fill="#fff" stroke="#5e6178" stroke-linecap="round" stroke-linejoin="round" stroke-width="1"/><path d="M741.944,1719.955s-10.57,5.91-12.44,6.53-14,3.73-13.67,5.91,1.24,2.79,6.21,4,25.8,3.42,28.6,3.11-.31-17.1-.31-17.1Z" fill="#344154" stroke="#263238" stroke-linecap="round" stroke-linejoin="round" stroke-width="1"/><path d="M722.044,1736.435c5,1.24,25.8,3.42,28.6,3.11,1-.11,1.24-2.33,1.14-5.12-16.74,2.38-29.41-.74-35.55-2.86a1,1,0,0,0-.4.83C716.144,1734.565,717.074,1735.185,722.044,1736.435Z" fill="#fff" stroke="#5e6178" stroke-linecap="round" stroke-linejoin="round" stroke-width="1"/><path d="M821.194,1671.165s-13.36-5.91-14.64-6.84-39.79,2.17-43.21,4.66-29.53,48.18-29.53,48.18l16.79,10.88,26.15-39.79s9.94-.31,12.43-1.24,17.1-3.42,17.1-3.42,15.85,2.17,20.2.31-.62-9.64-.62-9.64" fill="#a66d58" stroke="#263238" stroke-linecap="round" stroke-linejoin="round" stroke-width="1"/><path d="M776.134,1687.325l-8.08-9.64,9.01,6.53" fill="none" stroke="#263238" stroke-miterlimit="10" stroke-width="1"/><path d="M784.014,1692.315h59.91v-17.6s-2.56-3.12-7.95-1.14-9.37,9.09-9.37,9.09S787.134,1675.855,784.014,1692.315Z" fill="#344154" stroke="#263238" stroke-linecap="round" stroke-linejoin="round" stroke-width="1"/><path d="M843.354,1681.525h7.95l13.63-38.33-6.25-1.7Z" fill="#344154" stroke="#263238" stroke-linecap="round" stroke-linejoin="round" stroke-width="1"/><path d="M858.684,1641.495l-11.07,30.1-9.52-3.9a8.07,8.07,0,0,1-4.424-10.521c.086-.21.18-.417.284-.619,3.36-6.57,8.73-15.44,14.79-19.32C858.964,1630.7,859.554,1636.955,858.684,1641.495Z" fill="#344154" stroke="#263238" stroke-linecap="round" stroke-linejoin="round" stroke-width="1"/><path d="M765.254,1707.065l-1.87,39.63-34.23,6a32.561,32.561,0,0,1,11.84,40.19h142.29a6.45,6.45,0,0,0,6.45-6.45h0V1700.7a5.821,5.821,0,0,0-5.33-5.81C865.474,1693.255,800.8,1689.255,765.254,1707.065Z" fill="#6595bf" stroke="#263238" stroke-linecap="round" stroke-linejoin="round" stroke-width="1"/><circle cx="27.46" cy="27.46" r="27.46" transform="translate(672.33 1779.795) rotate(-45)" fill="#344154" stroke="#263238" stroke-linecap="round" stroke-linejoin="round" stroke-width="1"/><circle cx="12.79" cy="12.79" r="12.79" transform="translate(693.088 1778.927) rotate(-42.12)" fill="#fff" stroke="#5e6178" stroke-linecap="round" stroke-linejoin="round" stroke-width="1"/><circle cx="14.55" cy="14.55" r="14.55" transform="translate(859.795 1778.156)" fill="#344154" stroke="#263238" stroke-linecap="round" stroke-linejoin="round" stroke-width="1"/><path d="M881.114,1792.7a6.78,6.78,0,1,0-6.78,6.78h.01a6.77,6.77,0,0,0,6.77-6.77Z" fill="#fff" stroke="#5e6178" stroke-linecap="round" stroke-linejoin="round" stroke-width="1"/><path d="M692.7,1755.195a30.76,30.76,0,0,1,47.76,34h2a32.63,32.63,0,0,0-50.83-35.49Z" fill="#d9a171" stroke="#263238" stroke-linecap="round" stroke-linejoin="round" stroke-width="1"/><path d="M763.384,1746.695s75.2-11.14,80.89-12,22.46-6.89,28.75-40.43" fill="none" stroke="#263238" stroke-linecap="round" stroke-linejoin="round" stroke-width="1"/><rect width="71.86" height="76.89" transform="translate(519.024 1471.615)" fill="#d9a171" stroke="#263238" stroke-linecap="round" stroke-linejoin="round" stroke-width="1"/><rect width="6.53" height="27.97" transform="translate(524.674 1471.615)" fill="#344154"/><rect width="71.86" height="76.89" transform="translate(590.824 1471.615)" fill="#d9a171" stroke="#263238" stroke-linecap="round" stroke-linejoin="round" stroke-width="1"/><rect width="6.53" height="27.97" transform="translate(596.474 1471.615)" fill="#344154"/><rect width="71.86" height="76.89" transform="translate(519.024 1394.225)" fill="#d9a171" stroke="#263238" stroke-linecap="round" stroke-linejoin="round" stroke-width="1"/><rect width="6.53" height="27.97" transform="translate(524.674 1394.225)" fill="#344154"/><rect width="71.86" height="76.89" transform="translate(590.824 1394.225)" fill="#d9a171" stroke="#263238" stroke-linecap="round" stroke-linejoin="round" stroke-width="1"/><rect width="6.53" height="27.97" transform="translate(596.474 1394.225)" fill="#344154"/><rect width="153.85" height="3.67" transform="translate(516.264 1558.045)" fill="#fff" stroke="#5e6178" stroke-linecap="round" stroke-linejoin="round" stroke-width="1"/><rect width="153.85" height="3.67" transform="translate(516.264 1544.725)" fill="#fff" stroke="#5e6178" stroke-linecap="round" stroke-linejoin="round" stroke-width="1"/><rect width="11.94" height="9.32" transform="translate(519.024 1548.505)" fill="#fff" stroke="#5e6178" stroke-linecap="round" stroke-linejoin="round" stroke-width="1"/><rect width="11.94" height="9.32" transform="translate(585.254 1548.505)" fill="#fff" stroke="#5e6178" stroke-linecap="round" stroke-linejoin="round" stroke-width="1"/><rect width="11.94" height="9.32" transform="translate(651.474 1548.505)" fill="#fff" stroke="#5e6178" stroke-linecap="round" stroke-linejoin="round" stroke-width="1"/><path d="M792.984,1646.685s-17.57,6-20.22,7a5.506,5.506,0,0,0-3.32,2.65s-2.32,5.64-.33,6.63,7,.33,7,.33,3,.67,3.65-.66a19.489,19.489,0,0,0,1-4.64s15.26-1,18.57-1.33a12.059,12.059,0,0,0,6-2.65Z" fill="#ffbf9d" stroke="#263238" stroke-linecap="round" stroke-linejoin="round" stroke-width="1"/><path d="M779.724,1662.6a18.835,18.835,0,0,0,1-4.62,9.1,9.1,0,0,1-5.21-2.26c-1.2-1.06-1.27-2-1-2.71-.8.28-1.43.5-1.78.64a5.506,5.506,0,0,0-3.32,2.65s-2.32,5.64-.33,6.63,7,.33,7,.33S779.064,1663.935,779.724,1662.6Z" fill="#d9a171" stroke="#263238" stroke-linecap="round" stroke-linejoin="round" stroke-width="1"/><path d="M807.554,1611.255s-3.64,4.31-4.64,8-3.65,16.91-3.65,16.91l-2.65,5-3.65,5.63a9.378,9.378,0,0,0,6.64,6.63c5.63,1.66,7,2.33,8.29,1s7-11.28,8.29-15.92,6.63-17.57,6.63-17.57" fill="#fff" stroke="#5e6178" stroke-linecap="round" stroke-linejoin="round" stroke-width="1"/><path d="M796.634,1641.055l-7.63,4.64a21.447,21.447,0,0,0,3.32,6.63,11.755,11.755,0,0,0,7,4.31h4.65l5.3-3s-7.29-1-9.61-6S796.634,1641.055,796.634,1641.055Z" fill="#fff" stroke="#5e6178" stroke-linecap="round" stroke-linejoin="round" stroke-width="1"/><path d="M750.024,1648.155l3.73,9.95,9.94,4.66,3.42-5.9Z" fill="#344154" stroke="#263238" stroke-miterlimit="10" stroke-width="1"/><path d="M777.734,1664.135a1.931,1.931,0,0,1-.87-.21l-33.83-17.91a1.87,1.87,0,0,1,1.75-3.3l33.82,17.91a1.86,1.86,0,0,1-.87,3.51Z" fill="#344154"/><line x2="389.637" transform="translate(500.096 1807.255)" fill="none" stroke="#263238" stroke-linecap="round" stroke-linejoin="round" stroke-width="1"/><line x2="16.434" transform="translate(479.554 1807.255)" fill="none" stroke="#263238" stroke-linecap="round" stroke-linejoin="round" stroke-width="1"/><rect width="500" height="500" transform="translate(419.55 1376.149)" fill="none"/></g></svg>